<svg width="84" height="84" viewBox="0 0 84 84" fill="none" xmlns="http://www.w3.org/2000/svg">
<rect width="84" height="84" rx="6" fill="none"/>
<path d="M28 46L30.6942 53.9463H39.4127L32.3593 58.8574L35.0534 66.8037L28 61.8926L20.9466 66.8037L23.6407 58.8574L16.5873 53.9463H25.3058L28 46Z" fill="#A1A1A1"/>
<path d="M28 16L30.6942 23.9463H39.4127L32.3593 28.8574L35.0534 36.8037L28 31.8926L20.9466 36.8037L23.6407 28.8574L16.5873 23.9463H25.3058L28 16Z" fill="#A1A1A1"/>
<path d="M57 16L59.6942 23.9463H68.4127L61.3593 28.8574L64.0534 36.8037L57 31.8926L49.9466 36.8037L52.6407 28.8574L45.5873 23.9463H54.3058L57 16Z" fill="#A1A1A1"/>
<path d="M57 46L59.6942 53.9463H68.4127L61.3593 58.8574L64.0534 66.8037L57 61.8926L49.9466 66.8037L52.6407 58.8574L45.5873 53.9463H54.3058L57 46Z" fill="#A1A1A1"/>
</svg>
