<svg width="63" height="113" viewBox="0 0 63 113" fill="none" xmlns="http://www.w3.org/2000/svg">
    <g clip-path="url(#clip0_3505_90440)">
        <g style="mix-blend-mode:multiply" opacity="0.8">
            <path d="M38.8906 18.1914C40.1293 8.77846 37.2855 0.650429 32.5387 0.0369794C27.792 -0.57647 22.9398 6.55696 21.7011 15.9699C20.4624 25.3829 23.3062 33.511 28.053 34.1244C32.7997 34.7379 37.6519 27.6044 38.8906 18.1914Z" fill="#22B573"/>
        </g>
        <path d="M29.454 42.4651C29.339 42.4651 29.2339 42.3881 29.2057 42.2719C28.157 38.0726 27.5965 33.6756 27.5402 29.2038C27.4937 25.5457 27.7831 21.8061 28.4 18.0898C29.1197 13.7517 30.2506 9.58559 31.7601 5.70632L31.7616 5.70179C31.8126 5.57123 31.9611 5.50557 32.0929 5.55613C32.2246 5.6067 32.2909 5.75387 32.2399 5.88444L32.2383 5.88896C30.7418 9.73578 29.62 13.8679 28.9057 18.1721C28.2934 21.8596 28.007 25.5691 28.0527 29.1978C28.1091 33.631 28.6643 37.9888 29.703 42.1503C29.7373 42.2862 29.6535 42.4243 29.5157 42.4583C29.4951 42.4635 29.4746 42.4658 29.454 42.4658V42.4651Z" fill="#33536D"/>
        <g style="mix-blend-mode:multiply" opacity="0.4">
            <path d="M24.4737 39.3452C26.4086 38.0317 25.8272 33.8564 23.175 30.0194C20.5229 26.1823 16.8044 24.1365 14.8694 25.45C12.9345 26.7634 13.516 30.9387 16.1681 34.7757C18.8202 38.6128 22.5388 40.6586 24.4737 39.3452Z" fill="#22B573"/>
        </g>
        <path d="M27.3932 42.4639C27.3307 42.4639 27.2683 42.4413 27.2188 42.396C21.5709 37.2035 19.6639 33.9393 17.9816 31.0593C17.8727 30.8729 17.7645 30.688 17.6564 30.5046C17.5848 30.3831 17.6267 30.2276 17.7486 30.1574C17.8712 30.0872 18.0281 30.128 18.0989 30.2487C18.207 30.4329 18.3152 30.6185 18.4241 30.805C20.0881 33.654 21.9745 36.8835 27.5661 42.0239C27.6696 42.119 27.6757 42.2797 27.5798 42.3831C27.5295 42.4367 27.461 42.4647 27.3917 42.4647L27.3932 42.4639Z" fill="#33536D"/>
        <g style="mix-blend-mode:multiply" opacity="0.32">
            <path d="M42.3564 30.1462C45.5156 24.6817 45.843 18.9837 43.0876 17.4192C40.3322 15.8548 35.5374 19.0163 32.3782 24.4808C29.219 29.9452 28.8916 35.6432 31.647 37.2077C34.4024 38.7722 39.1972 35.6106 42.3564 30.1462Z" fill="#22B573"/>
        </g>
        <path d="M30.2979 42.4643C30.2849 42.4643 30.2727 42.4635 30.2598 42.4613C30.1197 42.4409 30.0229 42.3111 30.0443 42.1722C30.8051 37.1156 32.6588 32.2272 35.5535 27.6423C37.8482 24.0083 40.1001 21.6785 40.9485 20.8015C41.0079 20.7396 41.0605 20.686 41.1039 20.64C41.2014 20.5381 41.3636 20.5336 41.4664 20.6302C41.5692 20.7268 41.5738 20.8875 41.4763 20.9894C41.4321 21.0355 41.3796 21.0906 41.3187 21.1532C40.4809 22.0196 38.2548 24.3223 35.9884 27.9117C33.1309 32.437 31.3024 37.2597 30.5515 42.2469C30.5324 42.373 30.4228 42.4635 30.2986 42.4635L30.2979 42.4643Z" fill="#33536D"/>
        <path d="M37.8184 53.49V49.4258H19.8239V53.3564C13.2774 54.3632 8.26617 59.973 8.26617 66.7429V98.5099C8.26617 105.992 14.387 112.058 21.9373 112.058H34.9739C42.5242 112.058 48.645 105.992 48.645 98.5099V66.7429C48.645 60.2274 44.004 54.7873 37.8192 53.49H37.8184Z" fill="white"/>
        <path d="M34.8483 52.3692V53.49C34.8483 54.8809 35.8307 56.0817 37.2031 56.3692C39.5632 56.8643 41.7124 58.1632 43.2538 60.0259C44.0215 60.9534 44.6201 61.9927 45.0321 63.1134C45.4586 64.2727 45.6749 65.4938 45.6749 66.7429V98.5099C45.6749 101.342 44.5622 104.005 42.541 106.008C40.5197 108.011 37.8329 109.114 34.9747 109.114H21.938C19.0798 109.114 16.3922 108.01 14.3717 106.008C12.3505 104.005 11.2378 101.342 11.2378 98.5099V66.7429C11.2378 64.1972 12.1616 61.7361 13.8386 59.813C15.4996 57.9081 17.7874 56.6485 20.2808 56.2651C21.7278 56.0424 22.7955 54.8077 22.7955 53.3564V52.3692H34.8498M36.8573 49.4258H20.7872C20.2557 49.4258 19.8246 49.853 19.8246 50.3798V53.3571C13.2781 54.3639 8.26691 59.9738 8.26691 66.7436V98.5106C8.26691 105.993 14.3877 112.059 21.938 112.059H34.9747C42.525 112.059 48.6458 105.993 48.6458 98.5106V66.7436C48.6458 60.2281 44.0047 54.7881 37.8199 53.4907V50.3805C37.8199 49.8537 37.3889 49.4265 36.8573 49.4265V49.4258Z" fill="#C7E5E2"/>
        <g opacity="0.4">
            <path d="M44.3124 99.5039L24.372 104.085L25.0475 106.973C25.4138 108.539 30.1745 108.784 35.6814 107.519C41.0627 106.283 45.1646 104.062 45.0062 102.5C45.0024 102.464 44.9963 102.428 44.9879 102.392L44.3124 99.5039Z" fill="#FAAD05"/>
            <mask id="mask0_3505_90440" style="mask-type:luminance" maskUnits="userSpaceOnUse" x="24" y="99" width="22" height="10">
                <path d="M44.3124 99.5039L24.372 104.085L25.0475 106.973C25.4138 108.539 30.1745 108.784 35.6814 107.519C41.0627 106.283 45.1646 104.062 45.0062 102.5C45.0024 102.464 44.9963 102.428 44.9879 102.392L44.3124 99.5039Z" fill="white"/>
            </mask>
            <g mask="url(#mask0_3505_90440)">
                <path d="M25.16 103.073L24.7401 103.17L26.4486 110.474L26.8685 110.378L25.16 103.073Z" fill="#FFCC34"/>
                <path d="M26.4769 102.771L26.0569 102.867L27.7654 110.172L28.1853 110.075L26.4769 102.771Z" fill="#FFCC34"/>
                <path d="M27.7914 102.468L27.3715 102.564L29.08 109.869L29.4999 109.773L27.7914 102.468Z" fill="#FFCC34"/>
                <path d="M29.106 102.165L28.6861 102.262L30.3946 109.566L30.8145 109.47L29.106 102.165Z" fill="#FFCC34"/>
                <path d="M30.4181 101.864L29.9982 101.961L31.7066 109.265L32.1266 109.169L30.4181 101.864Z" fill="#FFCC34"/>
                <path d="M31.7327 101.564L31.3127 101.66L33.0212 108.965L33.4411 108.868L31.7327 101.564Z" fill="#FFCC34"/>
                <path d="M33.048 101.261L32.6281 101.357L34.3365 108.662L34.7564 108.565L33.048 101.261Z" fill="#FFCC34"/>
                <path d="M34.3618 100.96L33.9419 101.057L35.6504 108.361L36.0703 108.265L34.3618 100.96Z" fill="#FFCC34"/>
                <path d="M35.6779 100.657L35.2579 100.754L36.9664 108.058L37.3863 107.962L35.6779 100.657Z" fill="#FFCC34"/>
                <path d="M36.9932 100.355L36.5733 100.451L38.2818 107.756L38.7017 107.659L36.9932 100.355Z" fill="#FFCC34"/>
                <path d="M38.3068 100.054L37.8869 100.15L39.5954 107.455L40.0153 107.358L38.3068 100.054Z" fill="#FFCC34"/>
                <path d="M39.6214 99.7512L39.2015 99.8477L40.91 107.152L41.3299 107.056L39.6214 99.7512Z" fill="#FFCC34"/>
                <path d="M40.9352 99.4485L40.5153 99.5449L42.2237 106.849L42.6437 106.753L40.9352 99.4485Z" fill="#FFCC34"/>
                <path d="M42.2505 99.1477L41.8306 99.2441L43.539 106.549L43.959 106.452L42.2505 99.1477Z" fill="#FFCC34"/>
                <path d="M43.5651 98.8449L43.1451 98.9414L44.8536 106.246L45.2735 106.149L43.5651 98.8449Z" fill="#FFCC34"/>
            </g>
        </g>
        <path d="M35.0076 104.659C40.5141 103.394 44.6811 101.099 44.3148 99.5327C43.9485 97.9665 39.1876 97.7222 33.681 98.9871C28.1745 100.252 24.0075 102.547 24.3738 104.113C24.7401 105.679 29.501 105.924 35.0076 104.659Z" fill="#FFCC34"/>
        <path d="M33.8551 99.7127C36.4514 99.1165 38.9501 98.8425 40.8906 98.9422C42.8151 99.041 43.5371 99.4946 43.5843 99.6991C43.6315 99.9037 43.186 100.626 41.5014 101.553C39.8031 102.489 37.4384 103.332 34.8414 103.929C32.2452 104.526 29.7464 104.8 27.8059 104.7C25.8814 104.601 25.1594 104.147 25.1122 103.943C25.065 103.738 25.5105 103.016 27.1951 102.089C28.8935 101.153 31.2582 100.31 33.8551 99.7127ZM33.6845 98.9852C28.1783 100.25 24.0118 102.545 24.3781 104.112C24.7444 105.678 29.505 105.923 35.012 104.658C40.5182 103.393 44.6848 101.097 44.3185 99.5308C43.9521 97.9648 39.1915 97.7203 33.6845 98.9852Z" fill="#FEE480"/>
        <g opacity="0.4">
            <path d="M32.4128 105.201L12.8219 99.3223L11.9553 102.16C11.4854 103.699 15.4897 106.262 20.8992 107.885C26.1861 109.472 30.8584 109.573 31.5072 108.14C31.5225 108.107 31.5354 108.073 31.5461 108.038L32.4128 105.2V105.201Z" fill="#FAAD05"/>
            <mask id="mask1_3505_90440" style="mask-type:luminance" maskUnits="userSpaceOnUse" x="11" y="99" width="22" height="11">
                <path d="M32.4128 105.201L12.8219 99.3223L11.9553 102.16C11.4854 103.699 15.4897 106.262 20.8992 107.885C26.1861 109.472 30.8584 109.573 31.5072 108.14C31.5225 108.107 31.5354 108.073 31.5461 108.038L32.4128 105.2V105.201Z" fill="white"/>
            </mask>
            <g mask="url(#mask1_3505_90440)">
                <path d="M13.607 98.7163L11.4138 105.893L11.8264 106.016L14.0196 98.8402L13.607 98.7163Z" fill="#FFCC34"/>
                <path d="M14.8984 99.105L12.7051 106.281L13.1177 106.405L15.3109 99.2288L14.8984 99.105Z" fill="#FFCC34"/>
                <path d="M16.1902 99.4937L13.9969 106.67L14.4095 106.794L16.6027 99.6175L16.1902 99.4937Z" fill="#FFCC34"/>
                <path d="M17.4815 99.8804L15.2883 107.057L15.7008 107.18L17.894 100.004L17.4815 99.8804Z" fill="#FFCC34"/>
                <path d="M18.7735 100.269L16.5803 107.445L16.9929 107.569L19.1861 100.393L18.7735 100.269Z" fill="#FFCC34"/>
                <path d="M20.0649 100.656L17.8716 107.832L18.2842 107.956L20.4774 100.78L20.0649 100.656Z" fill="#FFCC34"/>
                <path d="M21.3569 101.043L19.1637 108.219L19.5762 108.343L21.7695 101.166L21.3569 101.043Z" fill="#FFCC34"/>
                <path d="M22.648 101.431L20.4548 108.607L20.8674 108.731L23.0606 101.555L22.648 101.431Z" fill="#FFCC34"/>
                <path d="M23.9393 101.82L21.7461 108.996L22.1586 109.12L24.3519 101.944L23.9393 101.82Z" fill="#FFCC34"/>
                <path d="M25.2306 102.207L23.0374 109.383L23.45 109.507L25.6432 102.33L25.2306 102.207Z" fill="#FFCC34"/>
                <path d="M26.5227 102.593L24.3295 109.77L24.742 109.893L26.9352 102.717L26.5227 102.593Z" fill="#FFCC34"/>
                <path d="M27.8141 102.982L25.6208 110.158L26.0334 110.282L28.2266 103.106L27.8141 102.982Z" fill="#FFCC34"/>
                <path d="M29.1059 103.371L26.9127 110.547L27.3252 110.671L29.5184 103.494L29.1059 103.371Z" fill="#FFCC34"/>
                <path d="M30.3972 103.755L28.204 110.932L28.6165 111.055L30.8097 103.879L30.3972 103.755Z" fill="#FFCC34"/>
                <path d="M31.6885 104.142L29.4953 111.318L29.9078 111.442L32.1011 104.266L31.6885 104.142Z" fill="#FFCC34"/>
            </g>
        </g>
        <path d="M32.4044 105.235C32.8746 103.696 28.8703 101.132 23.4604 99.5087C18.0505 97.885 13.2837 97.816 12.8135 99.3546C12.3432 100.893 16.3476 103.457 21.7575 105.081C27.1673 106.704 31.9341 106.773 32.4044 105.235Z" fill="#FFCC34"/>
        <path d="M23.2426 100.215C25.7939 100.98 28.0969 101.977 29.729 103.022C31.3481 104.058 31.7449 104.808 31.6832 105.009C31.6215 105.21 30.8713 105.616 28.9445 105.588C27.0018 105.56 24.5274 105.123 21.9761 104.358C19.4248 103.592 17.1218 102.595 15.4897 101.551C13.8706 100.515 13.4739 99.7644 13.5355 99.5636C13.5972 99.3629 14.3474 98.9569 16.2742 98.9848C18.217 99.0127 20.6913 99.4497 23.2426 100.215ZM23.4612 99.5002C18.0517 97.8768 13.285 97.8082 12.8143 99.347C12.3444 100.886 16.3488 103.449 21.7583 105.072C27.1678 106.696 31.9353 106.764 32.4052 105.226C32.875 103.687 28.8707 101.124 23.4612 99.5002Z" fill="#FEE480"/>
        <g opacity="0.4">
            <path d="M45.3504 92.9528L25.7596 87.0742L24.8929 89.912C24.423 91.4509 28.4274 94.0139 33.8369 95.6373C39.1238 97.2237 43.7961 97.3249 44.4449 95.8924C44.4602 95.8592 44.4731 95.8252 44.4838 95.7897L45.3504 92.952V92.9528Z" fill="#FAAD05"/>
            <mask id="mask2_3505_90440" style="mask-type:luminance" maskUnits="userSpaceOnUse" x="24" y="87" width="22" height="10">
                <path d="M45.3504 92.9528L25.7596 87.0742L24.8929 89.912C24.423 91.4509 28.4274 94.0139 33.8369 95.6373C39.1238 97.2237 43.7961 97.3249 44.4449 95.8924C44.4602 95.8592 44.4731 95.8252 44.4838 95.7897L45.3504 92.952V92.9528Z" fill="white"/>
            </mask>
            <g mask="url(#mask2_3505_90440)">
                <path d="M26.5452 86.4702L24.352 93.6465L24.7645 93.7703L26.9578 86.5941L26.5452 86.4702Z" fill="#FFCC34"/>
                <path d="M27.8373 86.8589L25.644 94.0352L26.0566 94.159L28.2498 86.9827L27.8373 86.8589Z" fill="#FFCC34"/>
                <path d="M29.1286 87.2456L26.9354 94.4219L27.3479 94.5457L29.5411 87.3695L29.1286 87.2456Z" fill="#FFCC34"/>
                <path d="M30.4206 87.6343L28.2274 94.8105L28.64 94.9344L30.8332 87.7581L30.4206 87.6343Z" fill="#FFCC34"/>
                <path d="M31.7112 88.0191L29.518 95.1953L29.9306 95.3191L32.1238 88.1429L31.7112 88.0191Z" fill="#FFCC34"/>
                <path d="M33.003 88.4077L30.8098 95.584L31.2224 95.7078L33.4156 88.5316L33.003 88.4077Z" fill="#FFCC34"/>
                <path d="M34.2943 88.7945L32.1011 95.9707L32.5137 96.0945L34.7069 88.9183L34.2943 88.7945Z" fill="#FFCC34"/>
                <path d="M35.5864 89.1831L33.3932 96.3594L33.8057 96.4832L35.999 89.307L35.5864 89.1831Z" fill="#FFCC34"/>
                <path d="M36.8777 89.5718L34.6845 96.748L35.0971 96.8719L37.2903 89.6956L36.8777 89.5718Z" fill="#FFCC34"/>
                <path d="M38.1698 89.9585L35.9766 97.1348L36.3891 97.2586L38.5823 90.0823L38.1698 89.9585Z" fill="#FFCC34"/>
                <path d="M39.4609 90.3472L37.2676 97.5234L37.6802 97.6473L39.8734 90.471L39.4609 90.3472Z" fill="#FFCC34"/>
                <path d="M40.7529 90.7339L38.5597 97.9102L38.9722 98.034L41.1655 90.8577L40.7529 90.7339Z" fill="#FFCC34"/>
                <path d="M42.0442 91.1206L39.851 98.2969L40.2636 98.4207L42.4568 91.2445L42.0442 91.1206Z" fill="#FFCC34"/>
                <path d="M43.3363 91.5073L41.1431 98.6836L41.5556 98.8074L43.7488 91.6312L43.3363 91.5073Z" fill="#FFCC34"/>
                <path d="M44.6274 91.896L42.4342 99.0723L42.8467 99.1961L45.04 92.0198L44.6274 91.896Z" fill="#FFCC34"/>
            </g>
        </g>
        <path d="M45.3433 92.9867C45.8135 91.448 41.8092 88.8844 36.3993 87.2606C30.9894 85.6369 26.2226 85.5679 25.7524 87.1066C25.2822 88.6452 29.2865 91.2089 34.6964 92.8326C40.1062 94.4564 44.873 94.5253 45.3433 92.9867Z" fill="#FFCC34"/>
        <path d="M36.1795 87.9669C38.7308 88.7322 41.0338 89.7292 42.6659 90.7737C44.285 91.81 44.6818 92.5602 44.6201 92.7609C44.5584 92.9617 43.8082 93.3677 41.8814 93.3398C39.9386 93.3119 37.4643 92.8749 34.913 92.1096C32.3617 91.3443 30.0587 90.3473 28.4266 89.3028C26.8075 88.2665 26.4107 87.5164 26.4724 87.3156C26.5341 87.1148 27.2843 86.7088 29.2111 86.7367C31.1538 86.7647 33.6282 87.2016 36.1795 87.9669ZM36.3981 87.2522C30.9886 85.6288 26.2219 85.5601 25.7512 87.099C25.2813 88.6379 29.2857 91.2009 34.6952 92.8243C40.1047 94.4477 44.8721 94.5164 45.342 92.9775C45.8119 91.4386 41.8076 88.8756 36.3981 87.2522Z" fill="#FEE480"/>
        <g opacity="0.4">
            <path d="M39.8587 94.7695L19.734 98.4767L20.2808 101.391C20.5771 102.973 25.3225 103.424 30.8797 102.401C36.3105 101.401 40.5068 99.3613 40.4185 97.7937C40.4162 97.7575 40.4124 97.7212 40.4055 97.685L39.8587 94.7703V94.7695Z" fill="#FAAD05"/>
            <mask id="mask3_3505_90440" style="mask-type:luminance" maskUnits="userSpaceOnUse" x="19" y="94" width="22" height="9">
                <path d="M39.8587 94.7695L19.734 98.4767L20.2808 101.391C20.5771 102.973 25.3225 103.424 30.8797 102.401C36.3105 101.401 40.5068 99.3613 40.4185 97.7937C40.4162 97.7575 40.4124 97.7212 40.4055 97.685L39.8587 94.7703V94.7695Z" fill="white"/>
            </mask>
            <g mask="url(#mask3_3505_90440)">
                <path d="M20.5732 97.4962L20.1494 97.5742L21.5322 104.946L21.9559 104.868L20.5732 97.4962Z" fill="#FFCC34"/>
                <path d="M21.8979 97.254L21.4741 97.332L22.8569 104.704L23.2807 104.626L21.8979 97.254Z" fill="#FFCC34"/>
                <path d="M23.2265 97.0079L22.8027 97.0859L24.1854 104.458L24.6092 104.38L23.2265 97.0079Z" fill="#FFCC34"/>
                <path d="M24.5514 96.7657L24.1276 96.8438L25.5103 104.216L25.9341 104.138L24.5514 96.7657Z" fill="#FFCC34"/>
                <path d="M25.8798 96.5196L25.4561 96.5977L26.8388 103.97L27.2626 103.891L25.8798 96.5196Z" fill="#FFCC34"/>
                <path d="M27.2046 96.2754L26.7808 96.3535L28.1636 103.725L28.5874 103.647L27.2046 96.2754Z" fill="#FFCC34"/>
                <path d="M28.5316 96.0313L28.1078 96.1094L29.4906 103.481L29.9144 103.403L28.5316 96.0313Z" fill="#FFCC34"/>
                <path d="M29.8594 95.7872L29.4356 95.8652L30.8183 103.237L31.2421 103.159L29.8594 95.7872Z" fill="#FFCC34"/>
                <path d="M31.185 95.543L30.7612 95.6211L32.144 102.993L32.5678 102.915L31.185 95.543Z" fill="#FFCC34"/>
                <path d="M32.5136 95.2969L32.0898 95.375L33.4725 102.747L33.8963 102.669L32.5136 95.2969Z" fill="#FFCC34"/>
                <path d="M33.8383 95.0547L33.4145 95.1328L34.7972 102.505L35.221 102.427L33.8383 95.0547Z" fill="#FFCC34"/>
                <path d="M35.1668 94.8087L34.743 94.8867L36.1258 102.259L36.5496 102.181L35.1668 94.8087Z" fill="#FFCC34"/>
                <path d="M36.4917 94.5665L36.0679 94.6445L37.4506 102.016L37.8744 101.938L36.4917 94.5665Z" fill="#FFCC34"/>
                <path d="M37.8187 94.3223L37.3949 94.4004L38.7776 101.772L39.2014 101.694L37.8187 94.3223Z" fill="#FFCC34"/>
                <path d="M39.1465 94.0762L38.7227 94.1543L40.1054 101.526L40.5292 101.448L39.1465 94.0762Z" fill="#FFCC34"/>
            </g>
        </g>
        <path d="M30.3387 99.5109C35.8961 98.4872 40.1609 96.376 39.8644 94.7954C39.5679 93.2148 34.8225 92.7633 29.2651 93.787C23.7078 94.8107 19.443 96.922 19.7394 98.5026C20.0359 100.083 24.7814 100.535 30.3387 99.5109Z" fill="#FFCC34"/>
        <path d="M29.4022 94.5205C32.0228 94.0374 34.5307 93.8737 36.4651 94.0571C38.3835 94.2397 39.0842 94.725 39.123 94.931C39.1619 95.1371 38.6836 95.8397 36.9594 96.6933C35.2215 97.5537 32.821 98.2933 30.2004 98.7763C27.5798 99.2594 25.0719 99.4231 23.1375 99.2397C21.2191 99.0571 20.5184 98.5718 20.4796 98.3658C20.4408 98.1597 20.919 97.4571 22.6432 96.6035C24.3812 95.7431 26.7817 95.0035 29.4022 94.5205ZM29.2644 93.7861C23.7072 94.8095 19.4423 96.9212 19.7393 98.5016C20.0356 100.083 24.781 100.534 30.3382 99.5107C35.8955 98.4873 40.1603 96.3756 39.8633 94.7952C39.5663 93.2148 34.8216 92.7627 29.2644 93.7861Z" fill="#FEE480"/>
        <g opacity="0.4">
            <path d="M41.7817 59.9707L21.657 63.6779L22.2038 66.5926C22.5 68.1738 27.2454 68.6251 32.8027 67.6017C38.2335 66.6017 42.4298 64.5624 42.3414 62.9949C42.3392 62.9586 42.3353 62.9224 42.3285 62.8862L41.7817 59.9715V59.9707Z" fill="#FAAD05"/>
            <mask id="mask4_3505_90440" style="mask-type:luminance" maskUnits="userSpaceOnUse" x="21" y="59" width="22" height="10">
                <path d="M41.7817 59.9707L21.657 63.6779L22.2038 66.5926C22.5 68.1738 27.2454 68.6251 32.8027 67.6017C38.2335 66.6017 42.4298 64.5624 42.3414 62.9949C42.3392 62.9586 42.3353 62.9224 42.3285 62.8862L41.7817 59.9715V59.9707Z" fill="white"/>
            </mask>
            <g mask="url(#mask4_3505_90440)">
                <path d="M22.4948 62.6973L22.071 62.7754L23.4538 70.1473L23.8776 70.0692L22.4948 62.6973Z" fill="#FFCC34"/>
                <path d="M23.8226 62.4532L23.3988 62.5312L24.7815 69.9031L25.2053 69.8251L23.8226 62.4532Z" fill="#FFCC34"/>
                <path d="M25.1482 62.209L24.7244 62.2871L26.1072 69.659L26.531 69.5809L25.1482 62.209Z" fill="#FFCC34"/>
                <path d="M26.476 61.9649L26.0522 62.043L27.435 69.4149L27.8588 69.3368L26.476 61.9649Z" fill="#FFCC34"/>
                <path d="M27.8015 61.7208L27.3777 61.7988L28.7604 69.1707L29.1842 69.0927L27.8015 61.7208Z" fill="#FFCC34"/>
                <path d="M29.1293 61.4766L28.7055 61.5547L30.0882 68.9266L30.512 68.8485L29.1293 61.4766Z" fill="#FFCC34"/>
                <path d="M30.4555 61.2305L30.0317 61.3086L31.4145 68.6805L31.8383 68.6024L30.4555 61.2305Z" fill="#FFCC34"/>
                <path d="M31.7812 60.9883L31.3574 61.0664L32.7401 68.4383L33.1639 68.3602L31.7812 60.9883Z" fill="#FFCC34"/>
                <path d="M33.1089 60.7442L32.6851 60.8223L34.0679 68.1942L34.4917 68.1161L33.1089 60.7442Z" fill="#FFCC34"/>
                <path d="M34.4344 60.5001L34.0106 60.5781L35.3934 67.95L35.8172 67.8719L34.4344 60.5001Z" fill="#FFCC34"/>
                <path d="M35.7622 60.254L35.3384 60.332L36.7212 67.7039L37.145 67.6259L35.7622 60.254Z" fill="#FFCC34"/>
                <path d="M37.0885 60.0098L36.6647 60.0879L38.0474 67.4598L38.4712 67.3817L37.0885 60.0098Z" fill="#FFCC34"/>
                <path d="M38.4156 59.7657L37.9918 59.8438L39.3746 67.2156L39.7984 67.1376L38.4156 59.7657Z" fill="#FFCC34"/>
                <path d="M39.7426 59.5215L39.3188 59.5996L40.7016 66.9715L41.1254 66.8934L39.7426 59.5215Z" fill="#FFCC34"/>
                <path d="M41.0681 59.2774L40.6443 59.3555L42.027 66.7274L42.4508 66.6493L41.0681 59.2774Z" fill="#FFCC34"/>
            </g>
        </g>
        <path d="M32.2612 64.7121C37.8185 63.6884 42.0833 61.5772 41.7868 59.9966C41.4904 58.416 36.7449 57.9645 31.1875 58.9882C25.6302 60.0119 21.3654 62.1231 21.6619 63.7037C21.9583 65.2843 26.7038 65.7358 32.2612 64.7121Z" fill="#FFCC34"/>
        <path d="M31.3252 59.7218C33.9458 59.2388 36.4537 59.075 38.3881 59.2584C40.3065 59.4411 41.0072 59.9263 41.046 60.1324C41.0848 60.3384 40.6066 61.0411 38.8824 61.8947C37.1444 62.755 34.7439 63.4947 32.1234 63.9777C29.5028 64.4607 26.9949 64.6245 25.0605 64.4411C23.1421 64.2584 22.4414 63.7732 22.4026 63.5671C22.3637 63.3611 22.842 62.6584 24.5662 61.8048C26.3041 60.9445 28.7046 60.2048 31.3252 59.7218ZM31.1874 58.9875C25.6301 60.0109 21.3653 62.1226 21.6623 63.703C21.9586 65.2841 26.704 65.7354 32.2612 64.712C37.8184 63.6886 42.0833 61.5769 41.7863 59.9965C41.49 58.4154 36.7446 57.9641 31.1874 58.9875Z" fill="#FEE480"/>
        <g opacity="0.4">
            <path d="M31.6656 91.4453L11.541 95.1525L12.0878 98.0672C12.384 99.6484 17.1294 100.1 22.6866 99.0763C28.1175 98.0763 32.3138 96.037 32.2254 94.4695C32.2231 94.4333 32.2193 94.397 32.2125 94.3608L31.6656 91.4461V91.4453Z" fill="#FAAD05"/>
            <mask id="mask5_3505_90440" style="mask-type:luminance" maskUnits="userSpaceOnUse" x="11" y="91" width="22" height="9">
                <path d="M31.6656 91.4453L11.541 95.1525L12.0878 98.0672C12.384 99.6484 17.1294 100.1 22.6866 99.0763C28.1175 98.0763 32.3138 96.037 32.2254 94.4695C32.2231 94.4333 32.2193 94.397 32.2125 94.3608L31.6656 91.4461V91.4453Z" fill="white"/>
            </mask>
            <g mask="url(#mask5_3505_90440)">
                <path d="M12.3789 94.1739L11.9551 94.252L13.3378 101.624L13.7616 101.546L12.3789 94.1739Z" fill="#FFCC34"/>
                <path d="M13.7066 93.9278L13.2828 94.0059L14.6656 101.378L15.0894 101.3L13.7066 93.9278Z" fill="#FFCC34"/>
                <path d="M15.0314 93.6856L14.6076 93.7637L15.9903 101.136L16.4141 101.057L15.0314 93.6856Z" fill="#FFCC34"/>
                <path d="M16.3599 93.4395L15.9361 93.5176L17.3188 100.889L17.7426 100.811L16.3599 93.4395Z" fill="#FFCC34"/>
                <path d="M17.6848 93.1973L17.261 93.2754L18.6437 100.647L19.0675 100.569L17.6848 93.1973Z" fill="#FFCC34"/>
                <path d="M19.0133 92.9512L18.5895 93.0293L19.9723 100.401L20.3961 100.323L19.0133 92.9512Z" fill="#FFCC34"/>
                <path d="M20.3404 92.7071L19.9166 92.7852L21.2993 100.157L21.7231 100.079L20.3404 92.7071Z" fill="#FFCC34"/>
                <path d="M21.6666 92.463L21.2428 92.541L22.6255 99.9129L23.0493 99.8348L21.6666 92.463Z" fill="#FFCC34"/>
                <path d="M22.9936 92.2188L22.5698 92.2969L23.9526 99.6688L24.3764 99.5907L22.9936 92.2188Z" fill="#FFCC34"/>
                <path d="M24.3184 91.9747L23.8947 92.0527L25.2774 99.4246L25.7012 99.3466L24.3184 91.9747Z" fill="#FFCC34"/>
                <path d="M25.647 91.7286L25.2232 91.8066L26.6059 99.1785L27.0297 99.1005L25.647 91.7286Z" fill="#FFCC34"/>
                <path d="M26.9717 91.4844L26.5479 91.5625L27.9307 98.9344L28.3544 98.8563L26.9717 91.4844Z" fill="#FFCC34"/>
                <path d="M28.3003 91.2403L27.8765 91.3184L29.2592 98.6902L29.683 98.6122L28.3003 91.2403Z" fill="#FFCC34"/>
                <path d="M29.625 90.9962L29.2012 91.0742L30.5839 98.4461L31.0077 98.368L29.625 90.9962Z" fill="#FFCC34"/>
                <path d="M30.9536 90.752L30.5298 90.8301L31.9126 98.202L32.3364 98.1239L30.9536 90.752Z" fill="#FFCC34"/>
            </g>
        </g>
        <path d="M22.1458 96.1867C27.7032 95.163 31.968 93.0518 31.6715 91.4712C31.375 89.8906 26.6295 89.4391 21.0722 90.4628C15.5148 91.4865 11.25 93.5977 11.5465 95.1784C11.843 96.759 16.5885 97.2104 22.1458 96.1867Z" fill="#FFCC34"/>
        <path d="M21.2092 91.1984C23.8298 90.7154 26.3377 90.5516 28.2721 90.735C30.1905 90.9176 30.8911 91.4029 30.93 91.6089C30.9688 91.815 30.4905 92.5176 28.7663 93.3712C27.0284 94.2316 24.6279 94.9712 22.0073 95.4543C19.3867 95.9373 16.8789 96.1011 14.9445 95.9177C13.026 95.735 12.3254 95.2497 12.2865 95.0437C12.2477 94.8376 12.726 94.135 14.4502 93.2814C16.1881 92.421 18.5886 91.6814 21.2092 91.1984ZM21.0713 90.464C15.5141 91.4874 11.2493 93.5991 11.5463 95.1795C11.8425 96.7599 16.5879 97.212 22.1452 96.1886C27.7024 95.1652 31.9672 93.0535 31.6702 91.4731C31.374 89.892 26.6286 89.4406 21.0713 90.464Z" fill="#FEE480"/>
        <g opacity="0.4">
            <path d="M45.3626 84.777L24.8937 84.623L24.8708 87.5876C24.8586 89.1952 29.4304 90.5333 35.0828 90.5755C40.6065 90.617 45.1174 89.4057 45.3314 87.8502C45.3367 87.814 45.339 87.7778 45.339 87.7408L45.3618 84.7763L45.3626 84.777Z" fill="#FAAD05"/>
            <mask id="mask6_3505_90440" style="mask-type:luminance" maskUnits="userSpaceOnUse" x="24" y="84" width="22" height="7">
                <path d="M45.3626 84.777L24.8937 84.623L24.8708 87.5876C24.8586 89.1952 29.4304 90.5333 35.0828 90.5755C40.6065 90.617 45.1174 89.4057 45.3314 87.8502C45.3367 87.814 45.339 87.7778 45.339 87.7408L45.3618 84.7763L45.3626 84.777Z" fill="white"/>
            </mask>
            <g mask="url(#mask6_3505_90440)">
                <path d="M25.4716 83.8106L25.4149 91.3086L25.8459 91.3118L25.9027 83.8138L25.4716 83.8106Z" fill="#FFCC34"/>
                <path d="M26.8214 83.8185L26.7646 91.3164L27.1956 91.3196L27.2524 83.8217L26.8214 83.8185Z" fill="#FFCC34"/>
                <path d="M28.1704 83.8302L28.1136 91.3281L28.5446 91.3313L28.6014 83.8334L28.1704 83.8302Z" fill="#FFCC34"/>
                <path d="M29.5201 83.8399L29.4633 91.3379L29.8944 91.3411L29.9511 83.8431L29.5201 83.8399Z" fill="#FFCC34"/>
                <path d="M30.8691 83.8497L30.8123 91.3477L31.2434 91.3509L31.3001 83.8529L30.8691 83.8497Z" fill="#FFCC34"/>
                <path d="M32.218 83.8595L32.1613 91.3574L32.5923 91.3606L32.6491 83.8627L32.218 83.8595Z" fill="#FFCC34"/>
                <path d="M33.567 83.8712L33.5103 91.3691L33.9413 91.3723L33.9981 83.8744L33.567 83.8712Z" fill="#FFCC34"/>
                <path d="M34.916 83.881L34.8593 91.3789L35.2903 91.3821L35.3471 83.8842L34.916 83.881Z" fill="#FFCC34"/>
                <path d="M36.2658 83.8907L36.209 91.3887L36.64 91.3919L36.6968 83.8939L36.2658 83.8907Z" fill="#FFCC34"/>
                <path d="M37.6148 83.9005L37.558 91.3984L37.989 91.4016L38.0458 83.9037L37.6148 83.9005Z" fill="#FFCC34"/>
                <path d="M38.9652 83.9122L38.9084 91.4102L39.3395 91.4134L39.3963 83.9154L38.9652 83.9122Z" fill="#FFCC34"/>
                <path d="M40.3142 83.922L40.2574 91.4199L40.6885 91.4231L40.7453 83.9252L40.3142 83.922Z" fill="#FFCC34"/>
                <path d="M41.6632 83.9317L41.6064 91.4297L42.0375 91.4329L42.0943 83.9349L41.6632 83.9317Z" fill="#FFCC34"/>
                <path d="M43.0122 83.9415L42.9554 91.4395L43.3864 91.4427L43.4432 83.9447L43.0122 83.9415Z" fill="#FFCC34"/>
                <path d="M44.3612 83.9513L44.3044 91.4492L44.7354 91.4524L44.7922 83.9545L44.3612 83.9513Z" fill="#FFCC34"/>
            </g>
        </g>
        <path d="M45.3608 84.798C45.373 83.1904 40.8007 81.853 35.1483 81.811C29.4959 81.769 24.9038 83.0381 24.8917 84.6458C24.8795 86.2534 29.4518 87.5907 35.1042 87.6328C40.7566 87.6748 45.3486 86.4056 45.3608 84.798Z" fill="#FFCC34"/>
        <path d="M35.1453 82.5626C37.8108 82.583 40.3042 82.894 42.1678 83.4389C44.0161 83.98 44.6109 84.5883 44.6094 84.7981C44.6079 85.0079 44.0039 85.6072 42.1472 86.1204C40.276 86.6374 37.7773 86.9114 35.1118 86.891C32.4462 86.8706 29.9528 86.5597 28.0893 86.0147C26.2409 85.4736 25.6461 84.8653 25.6476 84.6555C25.6492 84.4457 26.2531 83.8464 28.1098 83.3332C29.981 82.8162 32.4797 82.5423 35.1453 82.5626ZM35.1514 81.8155C29.4989 81.7732 24.9074 83.0419 24.8944 84.6495C24.8822 86.257 29.454 87.5951 35.1064 87.6374C40.7589 87.6797 45.3504 86.411 45.3634 84.8034C45.3755 83.1959 40.8038 81.8577 35.1514 81.8155Z" fill="#FEE480"/>
        <g opacity="0.4">
            <path d="M39.8587 89.5215L19.734 93.2287L20.2808 96.1434C20.5771 97.7246 25.3225 98.1759 30.8797 97.1525C36.3105 96.1525 40.5068 94.1132 40.4185 92.5457C40.4162 92.5094 40.4124 92.4732 40.4055 92.437L39.8587 89.5222V89.5215Z" fill="#FAAD05"/>
            <mask id="mask7_3505_90440" style="mask-type:luminance" maskUnits="userSpaceOnUse" x="19" y="89" width="22" height="9">
                <path d="M39.8587 89.5215L19.734 93.2287L20.2808 96.1434C20.5771 97.7246 25.3225 98.1759 30.8797 97.1525C36.3105 96.1525 40.5068 94.1132 40.4185 92.5457C40.4162 92.5094 40.4124 92.4732 40.4055 92.437L39.8587 89.5222V89.5215Z" fill="white"/>
            </mask>
            <g mask="url(#mask7_3505_90440)">
                <path d="M20.5735 92.2501L20.1497 92.3281L21.5324 99.7L21.9562 99.6219L20.5735 92.2501Z" fill="#FFCC34"/>
                <path d="M21.8982 92.0059L21.4744 92.084L22.8571 99.4559L23.2809 99.3778L21.8982 92.0059Z" fill="#FFCC34"/>
                <path d="M23.2267 91.7618L22.8029 91.8398L24.1857 99.2117L24.6095 99.1337L23.2267 91.7618Z" fill="#FFCC34"/>
                <path d="M24.5514 91.5176L24.1276 91.5957L25.5104 98.9676L25.9342 98.8895L24.5514 91.5176Z" fill="#FFCC34"/>
                <path d="M25.88 91.2715L25.4562 91.3496L26.8389 98.7215L27.2627 98.6434L25.88 91.2715Z" fill="#FFCC34"/>
                <path d="M27.2049 91.0294L26.7811 91.1074L28.1638 98.4793L28.5876 98.4012L27.2049 91.0294Z" fill="#FFCC34"/>
                <path d="M28.5319 90.7852L28.1081 90.8633L29.4908 98.2352L29.9146 98.1571L28.5319 90.7852Z" fill="#FFCC34"/>
                <path d="M29.8596 90.5391L29.4359 90.6172L30.8186 97.9891L31.2424 97.911L29.8596 90.5391Z" fill="#FFCC34"/>
                <path d="M31.1851 90.295L30.7614 90.373L32.1441 97.7449L32.5679 97.6669L31.1851 90.295Z" fill="#FFCC34"/>
                <path d="M32.5129 90.0489L32.0891 90.127L33.4719 97.4989L33.8956 97.4208L32.5129 90.0489Z" fill="#FFCC34"/>
                <path d="M33.8385 89.8067L33.4147 89.8848L34.7975 97.2567L35.2213 97.1786L33.8385 89.8067Z" fill="#FFCC34"/>
                <path d="M35.1663 89.5606L34.7425 89.6387L36.1252 97.0106L36.549 96.9325L35.1663 89.5606Z" fill="#FFCC34"/>
                <path d="M36.4918 89.3184L36.068 89.3965L37.4507 96.7684L37.8745 96.6903L36.4918 89.3184Z" fill="#FFCC34"/>
                <path d="M37.8195 89.0723L37.3958 89.1504L38.7785 96.5223L39.2023 96.4442L37.8195 89.0723Z" fill="#FFCC34"/>
                <path d="M39.1466 88.8282L38.7228 88.9062L40.1055 96.2781L40.5293 96.2001L39.1466 88.8282Z" fill="#FFCC34"/>
            </g>
        </g>
        <path d="M30.3389 94.2629C35.8962 93.2392 40.161 91.128 39.8645 89.5474C39.5681 87.9668 34.8226 87.5153 29.2652 88.539C23.7079 89.5627 19.4431 91.6739 19.7396 93.2545C20.036 94.8351 24.7815 95.2866 30.3389 94.2629Z" fill="#FFCC34"/>
        <path d="M29.4022 89.2744C32.0228 88.7913 34.5307 88.6268 36.4651 88.811C38.3835 88.9936 39.0842 89.4789 39.123 89.6849C39.1619 89.891 38.6836 90.5936 36.9594 91.4472C35.2215 92.3076 32.821 93.0472 30.2004 93.5302C27.5798 94.0133 25.0719 94.1778 23.1375 93.9936C21.2191 93.811 20.5184 93.3257 20.4796 93.1197C20.4408 92.9136 20.919 92.211 22.6432 91.3574C24.3812 90.497 26.7817 89.7574 29.4022 89.2744ZM29.2644 88.54C23.7072 89.5634 19.4423 91.6751 19.7393 93.2555C20.0356 94.8367 24.781 95.288 30.3382 94.2646C35.8955 93.2412 40.1603 91.1295 39.8633 89.5491C39.5663 87.9687 34.8216 87.5166 29.2644 88.54Z" fill="#FEE480"/>
        <g opacity="0.4">
            <path d="M44.4785 71.6523L24.3538 75.3595L24.9006 78.2743C25.1968 79.8554 29.9422 80.3067 35.4995 79.2833C40.9303 78.2833 45.1266 76.2441 45.0382 74.6765C45.0359 74.6403 45.0321 74.6041 45.0253 74.5678L44.4785 71.6531V71.6523Z" fill="#FAAD05"/>
            <mask id="mask8_3505_90440" style="mask-type:luminance" maskUnits="userSpaceOnUse" x="24" y="71" width="22" height="9">
                <path d="M44.4785 71.6523L24.3538 75.3595L24.9006 78.2743C25.1968 79.8554 29.9422 80.3067 35.4995 79.2833C40.9303 78.2833 45.1266 76.2441 45.0382 74.6765C45.0359 74.6403 45.0321 74.6041 45.0253 74.5678L44.4785 71.6531V71.6523Z" fill="white"/>
            </mask>
            <g mask="url(#mask8_3505_90440)">
                <path d="M25.1917 74.3809L24.7679 74.459L26.1507 81.8309L26.5745 81.7528L25.1917 74.3809Z" fill="#FFCC34"/>
                <path d="M26.5195 74.1348L26.0957 74.2129L27.4784 81.5848L27.9022 81.5067L26.5195 74.1348Z" fill="#FFCC34"/>
                <path d="M27.8458 73.8907L27.422 73.9688L28.8047 81.3406L29.2285 81.2626L27.8458 73.8907Z" fill="#FFCC34"/>
                <path d="M29.1728 73.6465L28.749 73.7246L30.1317 81.0965L30.5555 81.0184L29.1728 73.6465Z" fill="#FFCC34"/>
                <path d="M30.4991 73.4024L30.0753 73.4805L31.458 80.8524L31.8818 80.7743L30.4991 73.4024Z" fill="#FFCC34"/>
                <path d="M31.8247 73.1583L31.4009 73.2363L32.7836 80.6082L33.2074 80.5302L31.8247 73.1583Z" fill="#FFCC34"/>
                <path d="M33.1524 72.9141L32.7286 72.9922L34.1114 80.3641L34.5352 80.286L33.1524 72.9141Z" fill="#FFCC34"/>
                <path d="M34.4779 72.67L34.0541 72.748L35.4369 80.1199L35.8607 80.0419L34.4779 72.67Z" fill="#FFCC34"/>
                <path d="M35.8057 72.4239L35.3819 72.502L36.7646 79.8738L37.1884 79.7958L35.8057 72.4239Z" fill="#FFCC34"/>
                <path d="M37.1327 72.1797L36.7089 72.2578L38.0917 79.6297L38.5155 79.5516L37.1327 72.1797Z" fill="#FFCC34"/>
                <path d="M38.4591 71.9356L38.0353 72.0137L39.4181 79.3856L39.8419 79.3075L38.4591 71.9356Z" fill="#FFCC34"/>
                <path d="M39.7861 71.6915L39.3623 71.7695L40.745 79.1414L41.1688 79.0633L39.7861 71.6915Z" fill="#FFCC34"/>
                <path d="M41.1131 71.4473L40.6893 71.5254L42.0721 78.8973L42.4959 78.8192L41.1131 71.4473Z" fill="#FFCC34"/>
                <path d="M42.4394 71.2032L42.0156 71.2812L43.3983 78.6531L43.8221 78.5751L42.4394 71.2032Z" fill="#FFCC34"/>
                <path d="M43.7649 70.959L43.3411 71.0371L44.7238 78.409L45.1476 78.3309L43.7649 70.959Z" fill="#FFCC34"/>
            </g>
        </g>
        <path d="M34.9579 76.3937C40.5152 75.37 44.78 73.2588 44.4836 71.6782C44.1871 70.0976 39.4416 69.6461 33.8843 70.6699C28.3269 71.6936 24.0621 73.8048 24.3586 75.3854C24.6551 76.966 29.4005 77.4174 34.9579 76.3937Z" fill="#FFCC34"/>
        <path d="M34.022 71.4054C36.6426 70.9224 39.1505 70.7579 41.0849 70.942C43.0033 71.1247 43.7039 71.6099 43.7428 71.816C43.7816 72.022 43.3034 72.7247 41.5791 73.5783C39.8412 74.4386 37.4407 75.1783 34.8201 75.6613C32.1995 76.1443 29.6917 76.3081 27.7573 76.1247C25.8388 75.942 25.1382 75.4568 25.0994 75.2507C25.0605 75.0447 25.5388 74.342 27.263 73.4884C29.0009 72.6281 31.4014 71.8884 34.022 71.4054ZM33.8842 70.6711C28.3269 71.6945 24.0621 73.8062 24.3591 75.3866C24.6554 76.9677 29.4007 77.419 34.958 76.3956C40.5152 75.3722 44.7801 73.2605 44.483 71.6801C44.1868 70.099 39.4414 69.6477 33.8842 70.6711Z" fill="#FEE480"/>
        <g opacity="0.4">
            <path d="M44.8889 64.8242L24.7642 68.5314L25.311 71.4461C25.6073 73.0273 30.3527 73.4786 35.9099 72.4552C41.3407 71.4552 45.537 69.4159 45.4487 67.8484C45.4464 67.8122 45.4426 67.7759 45.4357 67.7397L44.8889 64.825V64.8242Z" fill="#FAAD05"/>
            <mask id="mask9_3505_90440" style="mask-type:luminance" maskUnits="userSpaceOnUse" x="24" y="64" width="22" height="10">
                <path d="M44.8889 64.8242L24.7642 68.5314L25.311 71.4461C25.6073 73.0273 30.3527 73.4786 35.9099 72.4552C41.3407 71.4552 45.537 69.4159 45.4487 67.8484C45.4464 67.8122 45.4426 67.7759 45.4357 67.7397L44.8889 64.825V64.8242Z" fill="white"/>
            </mask>
            <g mask="url(#mask9_3505_90440)">
                <path d="M25.602 67.5528L25.1782 67.6309L26.561 75.0027L26.9848 74.9247L25.602 67.5528Z" fill="#FFCC34"/>
                <path d="M26.9298 67.3087L26.506 67.3867L27.8887 74.7586L28.3125 74.6805L26.9298 67.3087Z" fill="#FFCC34"/>
                <path d="M28.2553 67.0645L27.8315 67.1426L29.2142 74.5145L29.638 74.4364L28.2553 67.0645Z" fill="#FFCC34"/>
                <path d="M29.583 66.8184L29.1592 66.8965L30.542 74.2684L30.9658 74.1903L29.583 66.8184Z" fill="#FFCC34"/>
                <path d="M30.9085 66.5762L30.4847 66.6543L31.8675 74.0262L32.2913 73.9481L30.9085 66.5762Z" fill="#FFCC34"/>
                <path d="M32.2365 66.3301L31.8127 66.4082L33.1954 73.7801L33.6192 73.702L32.2365 66.3301Z" fill="#FFCC34"/>
                <path d="M33.5634 66.086L33.1396 66.1641L34.5224 73.536L34.9462 73.4579L33.5634 66.086Z" fill="#FFCC34"/>
                <path d="M34.8897 65.8419L34.4659 65.9199L35.8487 73.2918L36.2725 73.2137L34.8897 65.8419Z" fill="#FFCC34"/>
                <path d="M36.2168 65.5977L35.793 65.6758L37.1757 73.0477L37.5995 72.9696L36.2168 65.5977Z" fill="#FFCC34"/>
                <path d="M37.5422 65.3536L37.1184 65.4316L38.5011 72.8035L38.9249 72.7255L37.5422 65.3536Z" fill="#FFCC34"/>
                <path d="M38.8701 65.1094L38.4464 65.1875L39.8291 72.5594L40.2529 72.4813L38.8701 65.1094Z" fill="#FFCC34"/>
                <path d="M40.1956 64.8653L39.7719 64.9434L41.1546 72.3152L41.5784 72.2372L40.1956 64.8653Z" fill="#FFCC34"/>
                <path d="M41.5234 64.6192L41.0996 64.6973L42.4823 72.0692L42.9061 71.9911L41.5234 64.6192Z" fill="#FFCC34"/>
                <path d="M42.8489 64.377L42.4251 64.4551L43.8078 71.827L44.2316 71.7489L42.8489 64.377Z" fill="#FFCC34"/>
                <path d="M44.1767 64.1309L43.7529 64.209L45.1356 71.5809L45.5594 71.5028L44.1767 64.1309Z" fill="#FFCC34"/>
            </g>
        </g>
        <path d="M35.369 69.5656C40.9263 68.5419 45.1911 66.4307 44.8946 64.8501C44.5982 63.2695 39.8527 62.818 34.2953 63.8417C28.738 64.8654 24.4732 66.9766 24.7697 68.5573C25.0661 70.1379 29.8116 70.5893 35.369 69.5656Z" fill="#FFCC34"/>
        <path d="M34.4325 64.5773C37.0531 64.0943 39.5609 63.9305 41.4953 64.1139C43.4137 64.2965 44.1144 64.7818 44.1532 64.9879C44.1921 65.1939 43.7138 65.8965 41.9896 66.7501C40.2517 67.6105 37.8512 68.3501 35.2306 68.8332C32.61 69.3162 30.1021 69.48 28.1677 69.2966C26.2493 69.1139 25.5487 68.6286 25.5098 68.4226C25.471 68.2166 25.9492 67.5139 27.6735 66.6603C29.4114 65.7999 31.8119 65.0603 34.4325 64.5773ZM34.2946 63.8429C28.7374 64.8663 24.4725 66.9781 24.7696 68.5584C25.0658 70.1396 29.8112 70.5909 35.3684 69.5675C40.9257 68.5441 45.1905 66.4324 44.8935 64.852C44.5972 63.2709 39.8518 62.8195 34.2946 63.8429Z" fill="#FEE480"/>
        <g opacity="0.4">
            <path d="M32.5361 71.2871L12.4114 74.9943L12.9583 77.909C13.2545 79.4902 17.9999 79.9415 23.5571 78.9181C28.9879 77.9181 33.1842 75.8788 33.0959 74.3113C33.0936 74.2751 33.0898 74.2388 33.0829 74.2026L32.5361 71.2879V71.2871Z" fill="#FAAD05"/>
            <mask id="mask10_3505_90440" style="mask-type:luminance" maskUnits="userSpaceOnUse" x="12" y="71" width="22" height="9">
                <path d="M32.5361 71.2871L12.4114 74.9943L12.9583 77.909C13.2545 79.4902 17.9999 79.9415 23.5571 78.9181C28.9879 77.9181 33.1842 75.8788 33.0959 74.3113C33.0936 74.2751 33.0898 74.2388 33.0829 74.2026L32.5361 71.2879V71.2871Z" fill="white"/>
            </mask>
            <g mask="url(#mask10_3505_90440)">
                <path d="M13.2514 74.0157L12.8276 74.0938L14.2104 81.4656L14.6342 81.3876L13.2514 74.0157Z" fill="#FFCC34"/>
                <path d="M14.5763 73.7715L14.1525 73.8496L15.5353 81.2215L15.9591 81.1434L14.5763 73.7715Z" fill="#FFCC34"/>
                <path d="M15.9048 73.5254L15.481 73.6035L16.8638 80.9754L17.2876 80.8973L15.9048 73.5254Z" fill="#FFCC34"/>
                <path d="M17.2296 73.2833L16.8058 73.3613L18.1885 80.7332L18.6123 80.6552L17.2296 73.2833Z" fill="#FFCC34"/>
                <path d="M18.5581 73.0372L18.1343 73.1152L19.517 80.4871L19.9408 80.4091L18.5581 73.0372Z" fill="#FFCC34"/>
                <path d="M19.8828 72.793L19.459 72.8711L20.8418 80.243L21.2656 80.1649L19.8828 72.793Z" fill="#FFCC34"/>
                <path d="M21.2115 72.5489L20.7877 72.627L22.1705 79.9988L22.5943 79.9208L21.2115 72.5489Z" fill="#FFCC34"/>
                <path d="M22.5377 72.3047L22.114 72.3828L23.4967 79.7547L23.9205 79.6766L22.5377 72.3047Z" fill="#FFCC34"/>
                <path d="M23.8632 72.0606L23.4395 72.1387L24.8222 79.5106L25.246 79.4325L23.8632 72.0606Z" fill="#FFCC34"/>
                <path d="M25.191 71.8165L24.7672 71.8945L26.15 79.2664L26.5737 79.1884L25.191 71.8165Z" fill="#FFCC34"/>
                <path d="M26.5165 71.5723L26.0927 71.6504L27.4755 79.0223L27.8992 78.9442L26.5165 71.5723Z" fill="#FFCC34"/>
                <path d="M27.8444 71.3262L27.4207 71.4043L28.8034 78.7762L29.2272 78.6981L27.8444 71.3262Z" fill="#FFCC34"/>
                <path d="M29.1699 71.084L28.7461 71.1621L30.1288 78.534L30.5526 78.4559L29.1699 71.084Z" fill="#FFCC34"/>
                <path d="M30.4969 70.8379L30.0731 70.916L31.4559 78.2879L31.8797 78.2098L30.4969 70.8379Z" fill="#FFCC34"/>
                <path d="M31.8239 70.5938L31.4001 70.6719L32.7829 78.0438L33.2067 77.9657L31.8239 70.5938Z" fill="#FFCC34"/>
            </g>
        </g>
        <path d="M23.0162 76.0285C28.5735 75.0048 32.8383 72.8936 32.5418 71.313C32.2454 69.7324 27.4999 69.2809 21.9425 70.3046C16.3852 71.3283 12.1204 73.4395 12.4169 75.0201C12.7134 76.6008 17.4588 77.0522 23.0162 76.0285Z" fill="#FFCC34"/>
        <path d="M22.0797 71.04C24.7003 70.557 27.2081 70.3924 29.1426 70.5766C31.061 70.7592 31.7616 71.2445 31.8005 71.4506C31.8393 71.6566 31.361 72.3592 29.6368 73.2128C27.8989 74.0732 25.4984 74.8128 22.8778 75.2959C20.2572 75.7789 17.7493 75.9427 15.8149 75.7593C13.8965 75.5766 13.1959 75.0913 13.157 74.8853C13.1182 74.6793 13.5965 73.9766 15.3207 73.123C17.0586 72.2626 19.4591 71.523 22.0797 71.04ZM21.9418 70.3056C16.3846 71.329 12.1198 73.4408 12.4168 75.0211C12.713 76.6023 17.4584 77.0536 23.0157 76.0302C28.5729 75.0068 32.8377 72.8951 32.5407 71.3147C32.2437 69.7343 27.4991 69.2822 21.9418 70.3056Z" fill="#FEE480"/>
        <g opacity="0.4">
            <path d="M33.2901 62.0527L13.1654 65.7599L13.7122 68.6747C14.0085 70.2558 18.7539 70.7071 24.3111 69.6837C29.7419 68.6837 33.9382 66.6445 33.8499 65.0769C33.8476 65.0407 33.8438 65.0045 33.8369 64.9682L33.2901 62.0535V62.0527Z" fill="#FAAD05"/>
            <mask id="mask11_3505_90440" style="mask-type:luminance" maskUnits="userSpaceOnUse" x="13" y="62" width="21" height="9">
                <path d="M33.2901 62.0527L13.1654 65.7599L13.7122 68.6747C14.0085 70.2558 18.7539 70.7071 24.3111 69.6837C29.7419 68.6837 33.9382 66.6445 33.8499 65.0769C33.8476 65.0407 33.8438 65.0045 33.8369 64.9682L33.2901 62.0535V62.0527Z" fill="white"/>
            </mask>
            <g mask="url(#mask11_3505_90440)">
                <path d="M14.0033 64.7794L13.5795 64.8574L14.9622 72.2293L15.386 72.1512L14.0033 64.7794Z" fill="#FFCC34"/>
                <path d="M15.3312 64.5352L14.9074 64.6133L16.2901 71.9852L16.7139 71.9071L15.3312 64.5352Z" fill="#FFCC34"/>
                <path d="M16.6566 64.293L16.2328 64.3711L17.6156 71.743L18.0394 71.6649L16.6566 64.293Z" fill="#FFCC34"/>
                <path d="M17.9845 64.0469L17.5607 64.125L18.9434 71.4969L19.3672 71.4188L17.9845 64.0469Z" fill="#FFCC34"/>
                <path d="M19.3099 63.8028L18.8861 63.8809L20.2688 71.2527L20.6926 71.1747L19.3099 63.8028Z" fill="#FFCC34"/>
                <path d="M20.6377 63.5587L20.2139 63.6367L21.5967 71.0086L22.0205 70.9305L20.6377 63.5587Z" fill="#FFCC34"/>
                <path d="M21.9641 63.3145L21.5403 63.3926L22.923 70.7645L23.3468 70.6864L21.9641 63.3145Z" fill="#FFCC34"/>
                <path d="M23.2896 63.0704L22.8658 63.1484L24.2485 70.5203L24.6723 70.4423L23.2896 63.0704Z" fill="#FFCC34"/>
                <path d="M24.6173 62.8243L24.1935 62.9023L25.5763 70.2742L26.0001 70.1962L24.6173 62.8243Z" fill="#FFCC34"/>
                <path d="M25.9428 62.5801L25.519 62.6582L26.9018 70.0301L27.3256 69.952L25.9428 62.5801Z" fill="#FFCC34"/>
                <path d="M27.2706 62.336L26.8468 62.4141L28.2295 69.786L28.6533 69.7079L27.2706 62.336Z" fill="#FFCC34"/>
                <path d="M28.5963 62.0919L28.1725 62.1699L29.5552 69.5418L29.979 69.4637L28.5963 62.0919Z" fill="#FFCC34"/>
                <path d="M29.924 61.8477L29.5002 61.9258L30.883 69.2977L31.3068 69.2196L29.924 61.8477Z" fill="#FFCC34"/>
                <path d="M31.2511 61.6036L30.8273 61.6816L32.21 69.0535L32.6338 68.9755L31.2511 61.6036Z" fill="#FFCC34"/>
                <path d="M32.5765 61.3594L32.1527 61.4375L33.5354 68.8094L33.9592 68.7313L32.5765 61.3594Z" fill="#FFCC34"/>
            </g>
        </g>
        <path d="M23.7695 66.7941C29.3269 65.7704 33.5917 63.6592 33.2952 62.0786C32.9987 60.498 28.2533 60.0465 22.6959 61.0702C17.1385 62.094 12.8738 64.2052 13.1702 65.7858C13.4667 67.3664 18.2122 67.8178 23.7695 66.7941Z" fill="#FFCC34"/>
        <path d="M22.8336 61.8058C25.4542 61.3228 27.9621 61.1582 29.8965 61.3424C31.8149 61.525 32.5156 62.0103 32.5544 62.2164C32.5933 62.4224 32.115 63.1251 30.3908 63.9786C28.6529 64.839 26.2524 65.5787 23.6318 66.0617C21.0112 66.5447 18.5033 66.7085 16.5689 66.5251C14.6505 66.3424 13.9498 65.8571 13.911 65.6511C13.8722 65.4451 14.3504 64.7424 16.0746 63.8888C17.8126 63.0284 20.2131 62.2888 22.8336 61.8058ZM22.6958 61.0715C17.1386 62.0949 12.8737 64.2066 13.1707 65.787C13.467 67.3673 18.2124 67.8194 23.7696 66.796C29.3269 65.7726 33.5917 63.6609 33.2947 62.0805C32.9984 60.4994 28.253 60.0481 22.6958 61.0715Z" fill="#FEE480"/>
        <g opacity="0.4">
            <path d="M32.1622 88.3948L11.7062 87.6582L11.5973 90.6212C11.5387 92.228 16.07 93.6952 21.7187 93.899C27.2386 94.0975 31.7829 93.016 32.0419 91.4665C32.048 91.4303 32.0518 91.3941 32.0533 91.3579L32.1622 88.3948Z" fill="#FAAD05"/>
            <mask id="mask12_3505_90440" style="mask-type:luminance" maskUnits="userSpaceOnUse" x="11" y="87" width="22" height="7">
                <path d="M32.1622 88.3948L11.7062 87.6582L11.5973 90.6212C11.5387 92.228 16.07 93.6952 21.7187 93.899C27.2386 94.0975 31.7829 93.016 32.0419 91.4665C32.048 91.4303 32.0518 91.3941 32.0533 91.3579L32.1622 88.3948Z" fill="white"/>
            </mask>
            <g mask="url(#mask12_3505_90440)">
                <path d="M12.3092 86.8681L12.0345 94.3613L12.4653 94.3768L12.7399 86.8836L12.3092 86.8681Z" fill="#FFCC34"/>
                <path d="M13.6573 86.915L13.3827 94.4082L13.8135 94.4237L14.0881 86.9305L13.6573 86.915Z" fill="#FFCC34"/>
                <path d="M15.0062 86.9638L14.7316 94.457L15.1624 94.4725L15.437 86.9793L15.0062 86.9638Z" fill="#FFCC34"/>
                <path d="M16.3544 87.0126L16.0798 94.5059L16.5105 94.5214L16.7852 87.0281L16.3544 87.0126Z" fill="#FFCC34"/>
                <path d="M17.7026 87.0615L17.428 94.5547L17.8588 94.5702L18.1334 87.077L17.7026 87.0615Z" fill="#FFCC34"/>
                <path d="M19.0515 87.1083L18.7769 94.6016L19.2077 94.6171L19.4823 87.1238L19.0515 87.1083Z" fill="#FFCC34"/>
                <path d="M20.3997 87.1591L20.1251 94.6523L20.5558 94.6678L20.8304 87.1746L20.3997 87.1591Z" fill="#FFCC34"/>
                <path d="M21.7478 87.206L21.4732 94.6992L21.904 94.7147L22.1786 87.2215L21.7478 87.206Z" fill="#FFCC34"/>
                <path d="M23.0976 87.2568L22.8229 94.75L23.2537 94.7655L23.5283 87.2723L23.0976 87.2568Z" fill="#FFCC34"/>
                <path d="M24.4457 87.3056L24.1711 94.7988L24.6019 94.8143L24.8765 87.3211L24.4457 87.3056Z" fill="#FFCC34"/>
                <path d="M25.7938 87.3544L25.5192 94.8477L25.95 94.8632L26.2246 87.3699L25.7938 87.3544Z" fill="#FFCC34"/>
                <path d="M27.1428 87.4013L26.8682 94.8945L27.2989 94.91L27.5736 87.4168L27.1428 87.4013Z" fill="#FFCC34"/>
                <path d="M28.4909 87.4501L28.2163 94.9434L28.6471 94.9589L28.9217 87.4656L28.4909 87.4501Z" fill="#FFCC34"/>
                <path d="M29.8391 87.499L29.5645 94.9922L29.9952 95.0077L30.2698 87.5145L29.8391 87.499Z" fill="#FFCC34"/>
                <path d="M31.188 87.5458L30.9134 95.0391L31.3442 95.0546L31.6188 87.5613L31.188 87.5458Z" fill="#FFCC34"/>
            </g>
        </g>
        <path d="M32.1611 88.421C32.22 86.8143 27.6884 85.3471 22.0396 85.1438C16.3908 84.9405 11.7638 86.0781 11.7049 87.6847C11.646 89.2913 16.1775 90.7586 21.8264 90.9619C27.4752 91.1652 32.1022 90.0276 32.1611 88.421Z" fill="#FFCC34"/>
        <path d="M22.0127 85.891C24.6767 85.9868 27.1602 86.3687 29.007 86.9672C30.8386 87.5604 31.4159 88.1853 31.4082 88.3951C31.4006 88.6049 30.7792 89.1868 28.9087 89.6465C27.0231 90.1099 24.5175 90.3129 21.8542 90.217C19.1902 90.1212 16.7067 89.7393 14.8599 89.1408C13.0283 88.5476 12.451 87.9227 12.4587 87.7129C12.4663 87.5031 13.0877 86.9212 14.9582 86.4615C16.8438 85.9981 19.3494 85.7951 22.0127 85.891ZM22.0401 85.1445C16.3914 84.9415 11.7641 86.0789 11.7055 87.6857C11.6468 89.2925 16.1782 90.7597 21.8268 90.9635C27.4754 91.1665 32.1028 90.0291 32.1614 88.4223C32.2201 86.8155 27.6887 85.3483 22.0401 85.1445Z" fill="#FEE480"/>
        <g opacity="0.4">
            <path d="M32.3754 81.0293L11.9796 82.7478L12.2332 85.7018C12.3711 87.3041 17.0479 88.218 22.6798 87.7433C28.1837 87.2791 32.5628 85.661 32.6313 84.0927C32.6328 84.0565 32.6321 84.0195 32.629 83.9833L32.3754 81.0293Z" fill="#FAAD05"/>
            <mask id="mask13_3505_90440" style="mask-type:luminance" maskUnits="userSpaceOnUse" x="11" y="81" width="22" height="7">
                <path d="M32.3754 81.0293L11.9796 82.7478L12.2332 85.7018C12.3711 87.3041 17.0479 88.218 22.6798 87.7433C28.1837 87.2791 32.5628 85.661 32.6313 84.0927C32.6328 84.0565 32.6321 84.0195 32.629 83.9833L32.3754 81.0293Z" fill="white"/>
            </mask>
            <g mask="url(#mask13_3505_90440)">
                <path d="M12.9092 81.8564L12.4797 81.8926L13.1208 89.3638L13.5503 89.3276L12.9092 81.8564Z" fill="#FFCC34"/>
                <path d="M14.2541 81.7431L13.8246 81.7793L14.4657 89.2505L14.8952 89.2143L14.2541 81.7431Z" fill="#FFCC34"/>
                <path d="M15.6006 81.6298L15.1711 81.666L15.8121 89.1372L16.2416 89.101L15.6006 81.6298Z" fill="#FFCC34"/>
                <path d="M16.9455 81.5165L16.516 81.5527L17.157 89.0239L17.5865 88.9877L16.9455 81.5165Z" fill="#FFCC34"/>
                <path d="M18.288 81.4033L17.8585 81.4395L18.4995 88.9107L18.929 88.8745L18.288 81.4033Z" fill="#FFCC34"/>
                <path d="M19.6329 81.29L19.2034 81.3262L19.8445 88.7974L20.274 88.7612L19.6329 81.29Z" fill="#FFCC34"/>
                <path d="M20.9771 81.1767L20.5475 81.2129L21.1886 88.6841L21.6181 88.6479L20.9771 81.1767Z" fill="#FFCC34"/>
                <path d="M22.3235 81.0634L21.894 81.0996L22.535 88.5708L22.9645 88.5346L22.3235 81.0634Z" fill="#FFCC34"/>
                <path d="M23.6677 80.9501L23.2382 80.9863L23.8792 88.4575L24.3087 88.4213L23.6677 80.9501Z" fill="#FFCC34"/>
                <path d="M25.0126 80.8369L24.5831 80.873L25.2241 88.3443L25.6536 88.3081L25.0126 80.8369Z" fill="#FFCC34"/>
                <path d="M26.3552 80.7236L25.9257 80.7598L26.5667 88.231L26.9962 88.1948L26.3552 80.7236Z" fill="#FFCC34"/>
                <path d="M27.7001 80.6103L27.2706 80.6465L27.9116 88.1177L28.3411 88.0815L27.7001 80.6103Z" fill="#FFCC34"/>
                <path d="M29.0457 80.4951L28.6161 80.5312L29.2572 88.0025L29.6867 87.9663L29.0457 80.4951Z" fill="#FFCC34"/>
                <path d="M30.3898 80.3837L29.9603 80.4199L30.6014 87.8911L31.0309 87.8549L30.3898 80.3837Z" fill="#FFCC34"/>
                <path d="M31.7347 80.2704L31.3052 80.3066L31.9463 87.7778L32.3758 87.7417L31.7347 80.2704Z" fill="#FFCC34"/>
            </g>
        </g>
        <path d="M22.428 84.8167C28.0602 84.3421 32.5146 82.6588 32.3772 81.0569C32.2398 79.455 27.5625 78.5411 21.9303 79.0157C16.2981 79.4903 11.8437 81.1736 11.9811 82.7755C12.1185 84.3774 16.7958 85.2913 22.428 84.8167Z" fill="#FFCC34"/>
        <path d="M21.9951 79.7602C24.6507 79.5361 27.1632 79.6183 29.0694 79.9904C30.9604 80.3602 31.6093 80.9112 31.6268 81.1202C31.6451 81.3293 31.099 81.9814 29.2987 82.6621C27.4838 83.3482 25.0209 83.8493 22.3653 84.0727C19.7096 84.2969 17.1972 84.2146 15.291 83.8425C13.4 83.4727 12.7511 82.9218 12.7336 82.7127C12.7153 82.5037 13.2614 81.8516 15.0617 81.1708C16.8766 80.4848 19.3395 79.9836 21.9951 79.7602ZM21.9312 79.0161C16.2993 79.4908 11.8448 81.1738 11.9819 82.7761C12.1197 84.3784 16.7966 85.2924 22.4285 84.8176C28.0603 84.3429 32.5148 82.6599 32.3777 81.0576C32.2399 79.4553 27.563 78.5414 21.9312 79.0161Z" fill="#FEE480"/>
        <g opacity="0.4">
            <path d="M44.7617 79.4668L24.3659 81.1853L24.6195 84.1393C24.7574 85.7415 29.4342 86.6555 35.0661 86.1808C40.57 85.7166 44.9491 84.0985 45.0176 82.5302C45.0191 82.494 45.0184 82.457 45.0153 82.4208L44.7617 79.4668Z" fill="#FAAD05"/>
            <mask id="mask14_3505_90440" style="mask-type:luminance" maskUnits="userSpaceOnUse" x="24" y="79" width="22" height="8">
                <path d="M44.7617 79.4668L24.3659 81.1853L24.6195 84.1393C24.7574 85.7415 29.4342 86.6555 35.0661 86.1808C40.57 85.7166 44.9491 84.0985 45.0176 82.5302C45.0191 82.494 45.0184 82.457 45.0153 82.4208L44.7617 79.4668Z" fill="white"/>
            </mask>
            <g mask="url(#mask14_3505_90440)">
                <path d="M25.2964 80.2939L24.8669 80.3301L25.5079 87.8013L25.9374 87.7651L25.2964 80.2939Z" fill="#FFCC34"/>
                <path d="M26.642 80.1806L26.2125 80.2168L26.8535 87.688L27.2831 87.6518L26.642 80.1806Z" fill="#FFCC34"/>
                <path d="M27.9861 80.0654L27.5566 80.1016L28.1977 87.5728L28.6272 87.5366L27.9861 80.0654Z" fill="#FFCC34"/>
                <path d="M29.3303 79.954L28.9008 79.9902L29.5418 87.4614L29.9713 87.4252L29.3303 79.954Z" fill="#FFCC34"/>
                <path d="M30.6744 79.8408L30.2449 79.877L30.886 87.3482L31.3155 87.312L30.6744 79.8408Z" fill="#FFCC34"/>
                <path d="M32.0201 79.7275L31.5906 79.7637L32.2316 87.2349L32.6611 87.1987L32.0201 79.7275Z" fill="#FFCC34"/>
                <path d="M33.3635 79.6142L32.934 79.6504L33.575 87.1216L34.0045 87.0854L33.3635 79.6142Z" fill="#FFCC34"/>
                <path d="M34.7091 79.5009L34.2796 79.5371L34.9206 87.0083L35.3501 86.9721L34.7091 79.5009Z" fill="#FFCC34"/>
                <path d="M36.054 79.3876L35.6245 79.4238L36.2655 86.895L36.695 86.8588L36.054 79.3876Z" fill="#FFCC34"/>
                <path d="M37.3967 79.2744L36.9672 79.3105L37.6082 86.7818L38.0377 86.7456L37.3967 79.2744Z" fill="#FFCC34"/>
                <path d="M38.7415 79.1611L38.312 79.1973L38.953 86.6685L39.3825 86.6323L38.7415 79.1611Z" fill="#FFCC34"/>
                <path d="M40.0872 79.0458L39.6577 79.082L40.2987 86.5532L40.7282 86.517L40.0872 79.0458Z" fill="#FFCC34"/>
                <path d="M41.4321 78.9326L41.0026 78.9688L41.6436 86.44L42.0731 86.4038L41.4321 78.9326Z" fill="#FFCC34"/>
                <path d="M42.7762 78.8212L42.3467 78.8574L42.9877 86.3286L43.4172 86.2924L42.7762 78.8212Z" fill="#FFCC34"/>
                <path d="M44.1211 78.708L43.6916 78.7441L44.3326 86.2153L44.7621 86.1792L44.1211 78.708Z" fill="#FFCC34"/>
            </g>
        </g>
        <path d="M34.8136 83.2542C40.4459 82.7796 44.9003 81.0963 44.7628 79.4944C44.6254 77.8925 39.9481 76.9786 34.3159 77.4532C28.6837 77.9278 24.2293 79.6111 24.3667 81.213C24.5042 82.8149 29.1814 83.7288 34.8136 83.2542Z" fill="#FFCC34"/>
        <path d="M34.3806 78.1958C37.0362 77.9716 39.5487 78.0539 41.4549 78.426C43.3459 78.7958 43.9948 79.3467 44.0123 79.5558C44.0298 79.7649 43.4845 80.4169 41.6842 81.0977C39.8693 81.7837 37.4064 82.2849 34.7508 82.5083C32.0951 82.7324 29.5827 82.6502 27.6765 82.2781C25.7855 81.9083 25.1366 81.3573 25.1191 81.1483C25.1008 80.9392 25.6469 80.2871 27.4472 79.6064C29.2621 78.9203 31.725 78.4192 34.3806 78.1958ZM34.3167 77.4516C28.6848 77.9263 24.2303 79.6094 24.3674 81.2117C24.5052 82.8139 29.1821 83.7279 34.814 83.2532C40.4458 82.7785 44.9003 81.0954 44.7632 79.4932C44.6254 77.8909 39.9485 76.9769 34.3167 77.4516Z" fill="#FEE480"/>
        <g opacity="0.4">
            <path d="M39.0103 74.9766L18.6145 76.6951L18.8681 79.649C19.006 81.2513 23.6828 82.1653 29.3147 81.6906C34.8186 81.2264 39.1977 79.6083 39.2662 78.04C39.2677 78.0038 39.267 77.9668 39.2639 77.9305L39.0103 74.9766Z" fill="#FAAD05"/>
            <mask id="mask15_3505_90440" style="mask-type:luminance" maskUnits="userSpaceOnUse" x="18" y="74" width="22" height="8">
                <path d="M39.0103 74.9766L18.6145 76.6951L18.8681 79.649C19.006 81.2513 23.6828 82.1653 29.3147 81.6906C34.8186 81.2264 39.1977 79.6083 39.2662 78.04C39.2677 78.0038 39.267 77.9668 39.2639 77.9305L39.0103 74.9766Z" fill="white"/>
            </mask>
            <g mask="url(#mask15_3505_90440)">
                <path d="M19.5444 75.8037L19.1149 75.8398L19.7559 83.3111L20.1854 83.2749L19.5444 75.8037Z" fill="#FFCC34"/>
                <path d="M20.8907 75.6884L20.4612 75.7246L21.1023 83.1958L21.5318 83.1596L20.8907 75.6884Z" fill="#FFCC34"/>
                <path d="M22.2349 75.5751L21.8054 75.6113L22.4464 83.0825L22.8759 83.0463L22.2349 75.5751Z" fill="#FFCC34"/>
                <path d="M23.579 75.4638L23.1495 75.5L23.7906 82.9712L24.2201 82.935L23.579 75.4638Z" fill="#FFCC34"/>
                <path d="M24.9232 75.3505L24.4937 75.3867L25.1347 82.8579L25.5642 82.8217L24.9232 75.3505Z" fill="#FFCC34"/>
                <path d="M26.2689 75.2353L25.8394 75.2715L26.4804 82.7427L26.9099 82.7065L26.2689 75.2353Z" fill="#FFCC34"/>
                <path d="M27.6122 75.124L27.1827 75.1602L27.8237 82.6314L28.2532 82.5952L27.6122 75.124Z" fill="#FFCC34"/>
                <path d="M28.9579 75.0087L28.5284 75.0449L29.1694 82.5161L29.5989 82.4799L28.9579 75.0087Z" fill="#FFCC34"/>
                <path d="M30.3028 74.8955L29.8733 74.9316L30.5143 82.4028L30.9438 82.3667L30.3028 74.8955Z" fill="#FFCC34"/>
                <path d="M31.6453 74.7822L31.2158 74.8184L31.8568 82.2896L32.2863 82.2534L31.6453 74.7822Z" fill="#FFCC34"/>
                <path d="M32.9902 74.6689L32.5607 74.7051L33.2018 82.1763L33.6313 82.1401L32.9902 74.6689Z" fill="#FFCC34"/>
                <path d="M34.3359 74.5556L33.9064 74.5918L34.5474 82.063L34.9769 82.0268L34.3359 74.5556Z" fill="#FFCC34"/>
                <path d="M35.6808 74.4423L35.2513 74.4785L35.8923 81.9497L36.3218 81.9135L35.6808 74.4423Z" fill="#FFCC34"/>
                <path d="M37.025 74.331L36.5955 74.3672L37.2365 81.8384L37.666 81.8022L37.025 74.331Z" fill="#FFCC34"/>
                <path d="M38.3699 74.2177L37.9404 74.2539L38.5814 81.7251L39.0109 81.6889L38.3699 74.2177Z" fill="#FFCC34"/>
            </g>
        </g>
        <path d="M29.0623 78.764C34.6946 78.2894 39.149 76.6061 39.0115 75.0042C38.8741 73.4023 34.1968 72.4884 28.5646 72.963C22.9324 73.4375 18.478 75.1209 18.6154 76.7228C18.7529 78.3247 23.4301 79.2385 29.0623 78.764Z" fill="#FFCC34"/>
        <path d="M28.6293 73.7056C31.2849 73.4814 33.7973 73.5637 35.7036 73.9357C37.5946 74.3056 38.2434 74.8565 38.261 75.0656C38.2785 75.2746 37.7332 75.9267 35.9328 76.6075C34.118 77.2935 31.655 77.7946 28.9994 78.018C26.3438 78.2422 23.8313 78.1599 21.9251 77.7878C20.0341 77.418 19.3853 76.8671 19.3677 76.658C19.3495 76.449 19.8955 75.7969 21.6959 75.1161C23.5107 74.4301 25.9737 73.929 28.6293 73.7056ZM28.5653 72.9614C22.9334 73.4361 18.479 75.1191 18.6161 76.7214C18.7539 78.3237 23.4308 79.2377 29.0626 78.7629C34.6945 78.2882 39.149 76.6052 39.0119 75.0029C38.874 73.4006 34.1972 72.4867 28.5653 72.9614Z" fill="#FEE480"/>
        <g opacity="0.4">
            <path d="M38.5259 52.4102L18.1301 54.1287L18.3837 57.0826C18.5216 58.6849 23.1984 59.5989 28.8303 59.1242C34.3342 58.66 38.7133 57.0419 38.7818 55.4736C38.7834 55.4373 38.7826 55.4004 38.7796 55.3641L38.5259 52.4102Z" fill="#FAAD05"/>
            <mask id="mask16_3505_90440" style="mask-type:luminance" maskUnits="userSpaceOnUse" x="18" y="52" width="21" height="8">
                <path d="M38.5259 52.4102L18.1301 54.1287L18.3837 57.0826C18.5216 58.6849 23.1984 59.5989 28.8303 59.1242C34.3342 58.66 38.7133 57.0419 38.7818 55.4736C38.7834 55.4373 38.7826 55.4004 38.7796 55.3641L38.5259 52.4102Z" fill="white"/>
            </mask>
            <g mask="url(#mask16_3505_90440)">
                <path d="M19.0609 53.2372L18.6314 53.2734L19.2724 60.7446L19.7019 60.7085L19.0609 53.2372Z" fill="#FFCC34"/>
                <path d="M20.405 53.124L19.9755 53.1602L20.6165 60.6314L21.0461 60.5952L20.405 53.124Z" fill="#FFCC34"/>
                <path d="M21.7507 53.0107L21.3212 53.0469L21.9622 60.5181L22.3917 60.4819L21.7507 53.0107Z" fill="#FFCC34"/>
                <path d="M23.0948 52.8974L22.6653 52.9336L23.3063 60.4048L23.7358 60.3686L23.0948 52.8974Z" fill="#FFCC34"/>
                <path d="M24.4397 52.7841L24.0102 52.8203L24.6512 60.2915L25.0807 60.2553L24.4397 52.7841Z" fill="#FFCC34"/>
                <path d="M25.7831 52.6708L25.3536 52.707L25.9946 60.1782L26.4241 60.142L25.7831 52.6708Z" fill="#FFCC34"/>
                <path d="M27.128 52.5576L26.6985 52.5938L27.3395 60.065L27.769 60.0288L27.128 52.5576Z" fill="#FFCC34"/>
                <path d="M28.4721 52.4443L28.0426 52.4805L28.6836 59.9517L29.1131 59.9155L28.4721 52.4443Z" fill="#FFCC34"/>
                <path d="M29.8185 52.331L29.389 52.3672L30.0301 59.8384L30.4596 59.8022L29.8185 52.331Z" fill="#FFCC34"/>
                <path d="M31.1627 52.2177L30.7332 52.2539L31.3742 59.7251L31.8037 59.6889L31.1627 52.2177Z" fill="#FFCC34"/>
                <path d="M32.506 52.1044L32.0765 52.1406L32.7176 59.6118L33.1471 59.5756L32.506 52.1044Z" fill="#FFCC34"/>
                <path d="M33.8502 51.9912L33.4207 52.0273L34.0617 59.4986L34.4912 59.4624L33.8502 51.9912Z" fill="#FFCC34"/>
                <path d="M35.1966 51.8759L34.7671 51.9121L35.4081 59.3833L35.8376 59.3471L35.1966 51.8759Z" fill="#FFCC34"/>
                <path d="M36.54 51.7646L36.1105 51.8008L36.7515 59.272L37.181 59.2358L36.54 51.7646Z" fill="#FFCC34"/>
                <path d="M37.8849 51.6513L37.4554 51.6875L38.0964 59.1587L38.5259 59.1225L37.8849 51.6513Z" fill="#FFCC34"/>
            </g>
        </g>
        <path d="M28.5781 56.1976C34.2103 55.723 38.6647 54.0396 38.5273 52.4377C38.3898 50.8358 33.7126 49.922 28.0804 50.3966C22.4481 50.8711 17.9937 52.5545 18.1312 54.1564C18.2686 55.7583 22.9459 56.6721 28.5781 56.1976Z" fill="#FFCC34"/>
        <path d="M28.1448 51.1411C30.8005 50.9169 33.3129 50.9992 35.2191 51.3713C37.1101 51.7411 37.759 52.292 37.7765 52.5011C37.7948 52.7102 37.2487 53.3622 35.4484 54.043C33.6335 54.729 31.1706 55.2302 28.515 55.4536C25.8594 55.6777 23.3469 55.5955 21.4407 55.2234C19.5497 54.8536 18.9008 54.3026 18.8833 54.0936C18.865 53.8845 19.4111 53.2324 21.2114 52.5517C23.0263 51.8656 25.4892 51.3645 28.1448 51.1411ZM28.0809 50.3969C22.449 50.8717 17.9945 52.5547 18.1316 54.157C18.2695 55.7592 22.9463 56.6732 28.5782 56.1985C34.2101 55.7238 38.6645 54.0407 38.5274 52.4385C38.3896 50.8362 33.7127 49.9222 28.0809 50.3969Z" fill="#FEE480"/>
        <g opacity="0.4">
            <path d="M38.0523 40.1504L21.9479 52.6712L23.7948 55.0041C24.7962 56.269 29.2134 54.4916 33.6602 51.0342C38.0066 47.6553 40.7726 43.9225 39.9615 42.5738C39.9425 42.5421 39.9219 42.5127 39.8991 42.4832L38.0523 40.1504Z" fill="#FAAD05"/>
            <mask id="mask17_3505_90440" style="mask-type:luminance" maskUnits="userSpaceOnUse" x="21" y="40" width="20" height="16">
                <path d="M38.0523 40.1504L21.9479 52.6712L23.7948 55.0041C24.7962 56.269 29.2134 54.4916 33.6602 51.0342C38.0066 47.6553 40.7726 43.9225 39.9615 42.5738C39.9425 42.5421 39.9219 42.5127 39.8991 42.4832L38.0523 40.1504Z" fill="white"/>
            </mask>
            <g mask="url(#mask17_3505_90440)">
                <path d="M22.2305 51.4239L21.8914 51.6875L26.5611 57.5873L26.9002 57.3236L22.2305 51.4239Z" fill="#FFCC34"/>
                <path d="M23.296 50.5898L22.9569 50.8535L27.6276 56.7525L27.9668 56.4888L23.296 50.5898Z" fill="#FFCC34"/>
                <path d="M24.3545 49.7735L24.0153 50.0371L28.685 55.9369L29.0242 55.6732L24.3545 49.7735Z" fill="#FFCC34"/>
                <path d="M25.4196 48.9394L25.0804 49.2031L29.7512 55.1021L30.0903 54.8384L25.4196 48.9394Z" fill="#FFCC34"/>
                <path d="M26.4807 48.1133L26.1416 48.377L30.8123 54.2759L31.1515 54.0122L26.4807 48.1133Z" fill="#FFCC34"/>
                <path d="M27.5431 47.2871L27.204 47.5508L31.8747 53.4497L32.2138 53.186L27.5431 47.2871Z" fill="#FFCC34"/>
                <path d="M28.6012 46.4707L28.2621 46.7344L32.9318 52.6341L33.271 52.3705L28.6012 46.4707Z" fill="#FFCC34"/>
                <path d="M29.6658 45.6386L29.3267 45.9023L33.9975 51.8013L34.3366 51.5376L29.6658 45.6386Z" fill="#FFCC34"/>
                <path d="M30.7252 44.8203L30.386 45.084L35.0557 50.9837L35.3949 50.7201L30.7252 44.8203Z" fill="#FFCC34"/>
                <path d="M31.7889 43.9863L31.4498 44.25L36.1205 50.149L36.4596 49.8853L31.7889 43.9863Z" fill="#FFCC34"/>
                <path d="M32.8484 43.17L32.5093 43.4336L37.179 49.3334L37.5181 49.0697L32.8484 43.17Z" fill="#FFCC34"/>
                <path d="M33.9116 42.3359L33.5725 42.5996L38.2433 48.4986L38.5824 48.2349L33.9116 42.3359Z" fill="#FFCC34"/>
                <path d="M34.9736 41.5097L34.6345 41.7734L39.3052 47.6724L39.6443 47.4087L34.9736 41.5097Z" fill="#FFCC34"/>
                <path d="M36.0352 40.6855L35.696 40.9492L40.3668 46.8482L40.7059 46.5845L36.0352 40.6855Z" fill="#FFCC34"/>
                <path d="M37.0963 39.8593L36.7572 40.123L41.4279 46.022L41.7671 45.7583L37.0963 39.8593Z" fill="#FFCC34"/>
            </g>
        </g>
        <path d="M31.8316 48.7175C36.2786 45.2595 39.0717 41.4309 38.0703 40.1661C37.0688 38.9013 32.652 40.6793 28.205 44.1372C23.7581 47.5952 20.9649 51.4238 21.9664 52.6885C22.9678 53.9533 27.3846 52.1754 31.8316 48.7175Z" fill="#FFCC34"/>
        <path d="M28.6688 44.7291C30.7662 43.0989 32.9123 41.8023 34.712 41.0777C36.4979 40.3592 37.3455 40.4679 37.4757 40.6324C37.6059 40.797 37.5107 41.6392 36.3813 43.1872C35.2428 44.7472 33.4614 46.5042 31.3641 48.1351C29.2667 49.7653 27.1205 51.0619 25.3209 51.7865C23.535 52.505 22.6874 52.3963 22.5572 52.2318C22.4262 52.0665 22.5221 51.225 23.6516 49.677C24.7901 48.117 26.5714 46.36 28.6688 44.7291ZM28.2035 44.1411C23.7567 47.5985 20.9632 51.4272 21.9647 52.6921C22.9661 53.957 27.3833 52.1797 31.8301 48.7223C36.277 45.2649 39.0705 41.4362 38.069 40.1713C37.0675 38.9064 32.6504 40.6838 28.2035 44.1411Z" fill="#FEE480"/>
        <g opacity="0.4">
            <path d="M39.206 44.1875L18.7935 45.6969L19.0158 48.6532C19.1369 50.2562 23.8039 51.2185 29.4403 50.8019C34.9488 50.3943 39.3446 48.8215 39.4292 47.2532C39.4314 47.217 39.4307 47.18 39.4276 47.1437L39.2053 44.1875H39.206Z" fill="#FAAD05"/>
            <mask id="mask18_3505_90440" style="mask-type:luminance" maskUnits="userSpaceOnUse" x="18" y="44" width="22" height="7">
                <path d="M39.206 44.1875L18.7935 45.6969L19.0158 48.6532C19.1369 50.2562 23.8039 51.2185 29.4403 50.8019C34.9488 50.3943 39.3446 48.8215 39.4292 47.2532C39.4314 47.217 39.4307 47.18 39.4276 47.1437L39.2053 44.1875H39.206Z" fill="white"/>
            </mask>
            <g mask="url(#mask18_3505_90440)">
                <path d="M19.7359 44.8119L19.306 44.8438L19.8694 52.3211L20.2992 52.2893L19.7359 44.8119Z" fill="#FFCC34"/>
                <path d="M21.0818 44.7123L20.6519 44.7441L21.2153 52.2215L21.6451 52.1897L21.0818 44.7123Z" fill="#FFCC34"/>
                <path d="M22.4278 44.6127L21.9979 44.6445L22.5613 52.1219L22.9911 52.0901L22.4278 44.6127Z" fill="#FFCC34"/>
                <path d="M23.7745 44.5131L23.3446 44.5449L23.908 52.0223L24.3378 51.9905L23.7745 44.5131Z" fill="#FFCC34"/>
                <path d="M25.1196 44.4135L24.6898 44.4453L25.2531 51.9227L25.683 51.8909L25.1196 44.4135Z" fill="#FFCC34"/>
                <path d="M26.4647 44.3139L26.0349 44.3457L26.5982 51.8231L27.0281 51.7912L26.4647 44.3139Z" fill="#FFCC34"/>
                <path d="M27.8114 44.2143L27.3815 44.2461L27.9449 51.7234L28.3747 51.6916L27.8114 44.2143Z" fill="#FFCC34"/>
                <path d="M29.1573 44.1147L28.7275 44.1465L29.2908 51.6238L29.7207 51.592L29.1573 44.1147Z" fill="#FFCC34"/>
                <path d="M30.5025 44.0151L30.0726 44.0469L30.636 51.5242L31.0658 51.4924L30.5025 44.0151Z" fill="#FFCC34"/>
                <path d="M31.8477 43.9155L31.4178 43.9473L31.9812 51.4246L32.4111 51.3928L31.8477 43.9155Z" fill="#FFCC34"/>
                <path d="M33.1936 43.8159L32.7637 43.8477L33.3271 51.325L33.7569 51.2932L33.1936 43.8159Z" fill="#FFCC34"/>
                <path d="M34.5387 43.7182L34.1089 43.75L34.6722 51.2273L35.1021 51.1955L34.5387 43.7182Z" fill="#FFCC34"/>
                <path d="M35.8839 43.6166L35.454 43.6484L36.0174 51.1258L36.4473 51.094L35.8839 43.6166Z" fill="#FFCC34"/>
                <path d="M37.2298 43.517L36.7999 43.5488L37.3633 51.0262L37.7931 50.9944L37.2298 43.517Z" fill="#FFCC34"/>
                <path d="M38.5749 43.4174L38.1451 43.4492L38.7084 50.9266L39.1383 50.8948L38.5749 43.4174Z" fill="#FFCC34"/>
            </g>
        </g>
        <path d="M29.223 47.8689C34.8599 47.4519 39.3315 45.8141 39.2107 44.2109C39.09 42.6076 34.4225 41.6461 28.7856 42.0632C23.1487 42.4802 18.6771 44.118 18.7979 45.7212C18.9187 47.3245 23.5862 48.286 29.223 47.8689Z" fill="#FFCC34"/>
        <path d="M28.8394 42.8088C31.4973 42.6126 34.009 42.7198 35.9107 43.1122C37.7979 43.5009 38.4406 44.0586 38.4566 44.2685C38.4726 44.4775 37.9197 45.1243 36.1125 45.7862C34.29 46.4534 31.8225 46.9296 29.1646 47.1258C26.5067 47.3221 23.995 47.2149 22.0934 46.8224C20.2062 46.4338 19.5634 45.876 19.5474 45.6662C19.5314 45.4571 20.0843 44.8103 21.8916 44.1485C23.714 43.4813 26.1815 43.0051 28.8394 42.8088ZM28.7831 42.0639C23.1466 42.4805 18.6746 44.1183 18.7957 45.722C18.9168 47.3251 23.5838 48.2874 29.2202 47.8707C34.8567 47.4541 39.3286 45.8164 39.2075 44.2126C39.0865 42.6096 34.4195 41.6473 28.7831 42.0639Z" fill="#FEE480"/>
        <g opacity="0.4">
            <path d="M39.1436 72.2266L19.092 68.1504L18.4911 71.0546C18.1652 72.6297 22.3896 74.8191 27.9263 75.9444C33.3373 77.044 37.9997 76.7218 38.5138 75.2365C38.5259 75.2018 38.5351 75.167 38.5427 75.1308L39.1436 72.2266Z" fill="#FAAD05"/>
            <mask id="mask19_3505_90440" style="mask-type:luminance" maskUnits="userSpaceOnUse" x="18" y="68" width="22" height="9">
                <path d="M39.1436 72.2266L19.092 68.1504L18.4911 71.0546C18.1652 72.6297 22.3896 74.8191 27.9263 75.9444C33.3373 77.044 37.9997 76.7218 38.5138 75.2365C38.5259 75.2018 38.5351 75.167 38.5427 75.1308L39.1436 72.2266Z" fill="white"/>
            </mask>
            <g mask="url(#mask19_3505_90440)">
                <path d="M19.8177 67.4672L18.2976 74.8125L18.7199 74.8983L20.24 67.553L19.8177 67.4672Z" fill="#FFCC34"/>
                <path d="M21.1394 67.7348L19.6193 75.0801L20.0416 75.1659L21.5617 67.8206L21.1394 67.7348Z" fill="#FFCC34"/>
                <path d="M22.461 68.0043L20.9409 75.3496L21.3632 75.4354L22.8833 68.0902L22.461 68.0043Z" fill="#FFCC34"/>
                <path d="M23.7828 68.2739L22.2626 75.6191L22.6849 75.705L24.205 68.3597L23.7828 68.2739Z" fill="#FFCC34"/>
                <path d="M25.106 68.5414L23.5859 75.8867L24.0081 75.9725L25.5283 68.6273L25.106 68.5414Z" fill="#FFCC34"/>
                <path d="M26.4276 68.811L24.9075 76.1562L25.3297 76.2421L26.8499 68.8968L26.4276 68.811Z" fill="#FFCC34"/>
                <path d="M27.7493 69.0786L26.2292 76.4238L26.6515 76.5097L28.1716 69.1644L27.7493 69.0786Z" fill="#FFCC34"/>
                <path d="M29.071 69.3481L27.5509 76.6934L27.9732 76.7792L29.4933 69.4339L29.071 69.3481Z" fill="#FFCC34"/>
                <path d="M30.3928 69.6157L28.8727 76.9609L29.2949 77.0468L30.8151 69.7015L30.3928 69.6157Z" fill="#FFCC34"/>
                <path d="M31.7143 69.8852L30.1942 77.2305L30.6165 77.3163L32.1366 69.971L31.7143 69.8852Z" fill="#FFCC34"/>
                <path d="M33.0361 70.1547L31.516 77.5L31.9383 77.5858L33.4584 70.2405L33.0361 70.1547Z" fill="#FFCC34"/>
                <path d="M34.3578 70.4223L32.8377 77.7676L33.26 77.8534L34.7801 70.5081L34.3578 70.4223Z" fill="#FFCC34"/>
                <path d="M35.6802 70.6918L34.16 78.0371L34.5823 78.1229L36.1024 70.7777L35.6802 70.6918Z" fill="#FFCC34"/>
                <path d="M37.0019 70.9614L35.4818 78.3066L35.904 78.3925L37.4241 71.0472L37.0019 70.9614Z" fill="#FFCC34"/>
                <path d="M38.3236 71.2289L36.8035 78.5742L37.2257 78.66L38.7458 71.3148L38.3236 71.2289Z" fill="#FFCC34"/>
            </g>
        </g>
        <path d="M39.1382 72.2493C39.4641 70.6744 35.2395 68.4853 29.7022 67.3599C24.1649 66.2345 19.4118 66.5989 19.0859 68.1738C18.7599 69.7487 22.9846 71.9377 28.5219 73.0631C34.0592 74.1885 38.8123 73.8242 39.1382 72.2493Z" fill="#FFCC34"/>
        <path d="M29.5515 68.0947C32.1622 68.6253 34.5482 69.4094 36.2702 70.3015C37.9784 71.1868 38.443 71.8977 38.4003 72.103C38.3577 72.3083 37.6486 72.7808 35.7264 72.9279C33.7897 73.0766 31.2849 72.866 28.6734 72.3355C26.0627 71.8049 23.6767 71.0207 21.9548 70.1287C20.2466 69.2434 19.782 68.5324 19.8247 68.3271C19.8673 68.1219 20.5763 67.6494 22.4986 67.5022C24.4353 67.3536 26.9401 67.5641 29.5515 68.0947ZM29.7031 67.3626C24.1657 66.2373 19.4126 66.6011 19.0867 68.1762C18.7607 69.7513 22.9852 71.9407 28.5219 73.066C34.0593 74.1913 38.8123 73.8276 39.1383 72.2525C39.4642 70.6773 35.2398 68.4879 29.7031 67.3626Z" fill="#FEE480"/>
        <g opacity="0.4">
            <path d="M38.2495 61.8419L18.1979 57.7656L17.597 60.6698C17.2711 62.2449 21.4955 64.4344 27.0322 65.5596C32.4432 66.6593 37.1056 66.337 37.6197 64.8517C37.6318 64.817 37.641 64.7823 37.6486 64.746L38.2495 61.8419Z" fill="#FAAD05"/>
            <mask id="mask20_3505_90440" style="mask-type:luminance" maskUnits="userSpaceOnUse" x="17" y="57" width="22" height="10">
                <path d="M38.2495 61.8419L18.1979 57.7656L17.597 60.6698C17.2711 62.2449 21.4955 64.4344 27.0322 65.5596C32.4432 66.6593 37.1056 66.337 37.6197 64.8517C37.6318 64.817 37.641 64.7823 37.6486 64.746L38.2495 61.8419Z" fill="white"/>
            </mask>
            <g mask="url(#mask20_3505_90440)">
                <path d="M18.9241 57.0825L17.404 64.4277L17.8263 64.5136L19.3464 57.1683L18.9241 57.0825Z" fill="#FFCC34"/>
                <path d="M20.2457 57.352L18.7256 64.6973L19.1478 64.7831L20.668 57.4378L20.2457 57.352Z" fill="#FFCC34"/>
                <path d="M21.5674 57.6196L20.0473 64.9648L20.4696 65.0507L21.9897 57.7054L21.5674 57.6196Z" fill="#FFCC34"/>
                <path d="M22.8891 57.8891L21.369 65.2344L21.7913 65.3202L23.3114 57.9749L22.8891 57.8891Z" fill="#FFCC34"/>
                <path d="M24.2116 58.1586L22.6915 65.5039L23.1138 65.5897L24.6339 58.2444L24.2116 58.1586Z" fill="#FFCC34"/>
                <path d="M25.5332 58.4282L24.0131 65.7734L24.4354 65.8593L25.9555 58.514L25.5332 58.4282Z" fill="#FFCC34"/>
                <path d="M26.855 58.6938L25.3348 66.0391L25.7571 66.1249L27.2772 58.7796L26.855 58.6938Z" fill="#FFCC34"/>
                <path d="M28.1767 58.9633L26.6566 66.3086L27.0788 66.3944L28.5989 59.0491L28.1767 58.9633Z" fill="#FFCC34"/>
                <path d="M29.4983 59.2328L27.9781 66.5781L28.4004 66.6639L29.9205 59.3187L29.4983 59.2328Z" fill="#FFCC34"/>
                <path d="M30.82 59.5004L29.2999 66.8457L29.7221 66.9315L31.2422 59.5862L30.82 59.5004Z" fill="#FFCC34"/>
                <path d="M32.1417 59.768L30.6216 67.1133L31.0438 67.1991L32.564 59.8538L32.1417 59.768Z" fill="#FFCC34"/>
                <path d="M33.4633 60.0375L31.9432 67.3828L32.3654 67.4686L33.8856 60.1234L33.4633 60.0375Z" fill="#FFCC34"/>
                <path d="M34.785 60.3071L33.2649 67.6523L33.6872 67.7382L35.2073 60.3929L34.785 60.3071Z" fill="#FFCC34"/>
                <path d="M36.1075 60.5746L34.5874 67.9199L35.0097 68.0057L36.5298 60.6605L36.1075 60.5746Z" fill="#FFCC34"/>
                <path d="M37.4291 60.8442L35.909 68.1895L36.3313 68.2753L37.8514 60.93L37.4291 60.8442Z" fill="#FFCC34"/>
            </g>
        </g>
        <path d="M38.2438 61.8645C38.5698 60.2896 34.3451 58.1006 28.8078 56.9751C23.2705 55.8497 18.5175 56.2141 18.1915 57.789C17.8656 59.3639 22.0902 61.553 27.6275 62.6784C33.1648 63.8038 37.9179 63.4394 38.2438 61.8645Z" fill="#FFCC34"/>
        <path d="M28.6566 57.7099C31.2673 58.2405 33.6534 59.0246 35.3753 59.9167C37.0835 60.802 37.5481 61.513 37.5054 61.7183C37.4628 61.9235 36.7537 62.396 34.8315 62.5432C32.8948 62.6918 30.39 62.4813 27.7785 61.9507C25.1679 61.4201 22.7818 60.636 21.0599 59.7439C19.3517 58.8586 18.8871 58.1477 18.9298 57.9424C18.9724 57.7371 19.6814 57.2646 21.6037 57.1175C23.5404 56.9688 26.0452 57.1794 28.6566 57.7099ZM28.8082 56.9778C23.2708 55.8526 18.5178 56.2163 18.1918 57.7914C17.8658 59.3665 22.0903 61.556 27.627 62.6813C33.1644 63.8066 37.9174 63.4428 38.2434 61.8677C38.5693 60.2926 34.3449 58.1031 28.8082 56.9778Z" fill="#FEE480"/>
        <path d="M15.8682 68.9627C15.8636 68.9627 15.8591 68.9627 15.8545 68.9627C15.0343 68.9552 14.3755 68.291 14.3824 67.4782C14.3923 66.4042 14.6466 64.3008 16.2437 62.2766C17.8194 60.2796 19.8536 59.4389 20.9266 59.1151C21.711 58.8781 22.5412 59.3166 22.7795 60.094C23.0187 60.8713 22.5762 61.694 21.7918 61.9302C21.0546 62.1528 19.6563 62.7294 18.5832 64.0895C17.5262 65.4283 17.3579 66.8042 17.3518 67.5046C17.3442 68.3129 16.6808 68.9635 15.8667 68.9635L15.8682 68.9627Z" fill="#C7E5E2"/>
        <path d="M15.8675 100.195C15.0472 100.195 14.3824 99.5359 14.3824 98.7231V72.1123C14.3824 71.2995 15.0472 70.6406 15.8675 70.6406C16.6877 70.6406 17.3525 71.2995 17.3525 72.1123V98.7231C17.3525 99.5359 16.6877 100.195 15.8675 100.195Z" fill="#C7E5E2"/>
        <path d="M34.974 113.001H21.9373C13.8744 113.001 7.31421 106.501 7.31421 98.5099V66.7429C7.31421 63.2644 8.5769 59.9006 10.87 57.2719C12.959 54.8772 15.7761 53.2274 18.8719 52.5715V49.4258C18.8719 48.9051 19.2984 48.4824 19.8239 48.4824H37.8184C38.3439 48.4824 38.7704 48.9051 38.7704 49.4258V52.7466C41.701 53.5277 44.3475 55.2176 46.2872 57.5617C48.4211 60.1414 49.597 63.4018 49.597 66.7429V98.5099C49.597 106.5 43.0375 113.001 34.974 113.001ZM20.7759 50.37V53.3572C20.7759 53.8221 20.4339 54.2183 19.9701 54.2893C17.0045 54.7451 14.2842 56.2432 12.3109 58.5059C10.3171 60.7919 9.21892 63.7172 9.21892 66.7437V98.5107C9.21892 105.461 14.9247 111.115 21.938 111.115H34.9747C41.9881 111.115 47.6938 105.461 47.6938 98.5107V66.7437C47.6938 63.8372 46.6718 61.0018 44.8158 58.7587C42.985 56.5459 40.4299 55.0025 37.6227 54.4138C37.1825 54.3217 36.868 53.9368 36.868 53.4908V50.37H20.7774H20.7759Z" fill="#33536D"/>
        <path d="M46.4121 29.8594L46.8949 32.0111C47.3207 33.91 48.8172 35.393 50.7341 35.8156L52.9053 36.2941L50.7341 36.7726C48.8179 37.1945 47.3207 38.6775 46.8949 40.5772L46.4121 42.7289L45.9293 40.5772C45.5035 38.6783 44.007 37.1953 42.0901 36.7726L39.9189 36.2941L42.0901 35.8156C44.0063 35.3938 45.5035 33.9107 45.9293 32.0111L46.4121 29.8594Z" fill="white"/>
        <path d="M4.97463 52.1387L5.34475 53.787C5.67147 55.2421 6.81764 56.3787 8.28597 56.7017L9.94925 57.0685L8.28597 57.4353C6.81764 57.7591 5.67071 58.8949 5.34475 60.35L4.97463 61.9984L4.6045 60.35C4.27778 58.8949 3.13161 57.7583 1.66329 57.4353L0 57.0685L1.66329 56.7017C3.13161 56.3779 4.27854 55.2421 4.6045 53.787L4.97463 52.1387Z" fill="white"/>
        <path d="M58.0254 94.6934L58.3955 96.3417C58.7223 97.7968 59.8684 98.9334 61.3367 99.2564L63 99.6232L61.3367 99.99C59.8684 100.314 58.7215 101.45 58.3955 102.905L58.0254 104.553L57.6553 102.905C57.3286 101.45 56.1824 100.313 54.7141 99.99L53.0508 99.6232L54.7141 99.2564C56.1824 98.9326 57.3293 97.7968 57.6553 96.3417L58.0254 94.6934Z" fill="white"/>
    </g>
    <defs>
        <clipPath id="clip0_3505_90440">
            <rect width="63" height="113" fill="white"/>
        </clipPath>
    </defs>
</svg>
