<svg width="57" height="89" viewBox="0 0 57 89" fill="none" xmlns="http://www.w3.org/2000/svg">
    <path d="M18.8445 19.0437V14.9492H36.5611V18.9091C43.0064 19.9234 47.9402 25.5751 47.9402 32.3954V64.3993C47.9402 71.9374 41.914 78.0484 34.4803 78.0484H21.6451C14.2115 78.0484 8.18523 71.9374 8.18523 64.3993V32.3954C8.18523 25.8313 12.7546 20.3507 18.8438 19.0437H18.8445Z" fill="white"/>
    <path d="M21.7688 17.9146V19.0437C21.7688 20.445 20.8015 21.6547 19.4504 21.9444C17.1267 22.4432 15.0108 23.7518 13.4931 25.6283C12.7373 26.5628 12.1487 27.6098 11.7423 28.7389C11.3224 29.9068 11.1095 31.1371 11.1095 32.3954V64.3993C11.1095 67.2529 12.2057 69.9354 14.195 71.9534C16.185 73.9714 18.8303 75.0822 21.6443 75.0822H34.4796C37.2936 75.0822 39.939 73.9706 41.929 71.9534C43.919 69.9362 45.0144 67.2529 45.0144 64.3993V32.3954C45.0144 29.8308 44.1049 27.3513 42.4538 25.4139C40.8185 23.4948 38.5661 22.2258 36.1112 21.8395C34.6865 21.6152 33.6353 20.3713 33.6353 18.9091V17.9146H21.7673M19.7908 14.9492H35.6126C36.1359 14.9492 36.5603 15.3796 36.5603 15.9103V18.9099C43.0064 19.9234 47.9402 25.5751 47.9402 32.3954V64.3993C47.9402 71.9374 41.914 78.0484 34.4803 78.0484H21.6451C14.2115 78.0484 8.18523 71.9374 8.18523 64.3993V32.3954C8.18523 25.8313 12.7546 20.3507 18.8438 19.0437V15.9103C18.8438 15.3796 19.2682 14.9492 19.7915 14.9492H19.7908Z" fill="#C7E5E2"/>
    <path d="M21.6451 78.9992H34.4803C42.4193 78.9992 48.8774 72.4504 48.8774 64.4005V32.3967C48.8774 28.8922 47.6343 25.5033 45.3766 22.855C43.3198 20.4424 40.5463 18.7803 37.4983 18.1196V14.9504C37.4983 14.4258 37.0784 14 36.5611 14H18.8445C18.3272 14 17.9073 14.4258 17.9073 14.9504V18.296C15.022 19.0829 12.4164 20.7854 10.5066 23.147C8.40567 25.7459 7.24796 29.0306 7.24796 32.3967V64.4005C7.24796 72.4504 13.7061 79 21.6451 79V78.9992ZM35.6238 15.9009V18.9103C35.6238 19.3787 35.9605 19.7779 36.4171 19.8494C39.3369 20.3086 42.0152 21.8179 43.9587 24.0974C45.9217 26.4005 47.0029 29.3477 47.0029 32.3967V64.4005C47.0029 71.4026 41.3853 77.0991 34.4803 77.0991H21.6451C14.7401 77.0991 9.12249 71.4026 9.12249 64.4005V32.3967C9.12249 29.4686 10.1287 26.6119 11.956 24.3522C13.7586 22.1228 16.2742 20.5679 19.038 19.9748C19.4714 19.8821 19.781 19.4943 19.781 19.0449V15.9009H35.623H35.6238Z" fill="#33536D"/>
    <path d="M40.4563 34.6343C40.4608 34.6343 40.4653 34.6343 40.4698 34.6343C41.2774 34.6267 41.9259 33.9576 41.9192 33.1387C41.9095 32.0567 41.659 29.9376 40.0867 27.8983C38.5353 25.8864 36.5318 25.0394 35.4761 24.7132C34.7038 24.4745 33.8865 24.9162 33.6518 25.6994C33.4163 26.4826 33.852 27.3113 34.6243 27.5493C35.3501 27.7736 36.7268 28.3545 37.7832 29.7247C38.8232 31.0735 38.9897 32.4597 38.9957 33.1653C39.0032 33.9796 39.6563 34.635 40.4578 34.635L40.4563 34.6343Z" fill="#C7E5E2"/>
    <g opacity="0.4">
        <path d="M15.6593 66.6738L40.586 67.4965L40.4675 71.1911C40.403 73.1946 34.7712 74.6347 27.888 74.4073C21.1614 74.1853 15.729 72.4532 15.5453 70.5045C15.5408 70.4588 15.5393 70.414 15.5408 70.3684L15.6593 66.6738Z" fill="#FAAD05"/>
        <mask id="mask0_3505_90090" style="mask-type:luminance" maskUnits="userSpaceOnUse" x="15" y="66" width="26" height="9">
            <path d="M15.6593 66.6719L40.586 67.4946L40.4675 71.1891C40.403 73.1926 34.7712 74.6327 27.888 74.4054C21.1614 74.1834 15.729 72.4513 15.5453 70.5025C15.5408 70.4569 15.5393 70.412 15.5408 70.3664L15.6593 66.6719Z" fill="white"/>
        </mask>
        <g mask="url(#mask0_3505_90090)">
            <path d="M39.3913 66.4436L39.9159 66.4609L39.6151 75.8045L39.0905 75.7871L39.3913 66.4436Z" fill="#FFCC34"/>
            <path d="M37.7556 66.3909L38.2802 66.4082L37.9809 75.7518L37.4563 75.7345L37.7556 66.3909Z" fill="#FFCC34"/>
            <path d="M36.113 66.3382L36.6376 66.3555L36.3384 75.699L35.8138 75.6818L36.113 66.3382Z" fill="#FFCC34"/>
            <path d="M34.4691 66.2816L34.9937 66.2988L34.6944 75.6424L34.1698 75.6251L34.4691 66.2816Z" fill="#FFCC34"/>
            <path d="M32.8273 66.2308L33.3519 66.248L33.0527 75.5916L32.5281 75.5743L32.8273 66.2308Z" fill="#FFCC34"/>
            <path d="M31.1834 66.1761L31.7079 66.1934L31.4087 75.5369L30.8841 75.5197L31.1834 66.1761Z" fill="#FFCC34"/>
            <path d="M29.5402 66.1214L30.0648 66.1387L29.7655 75.4822L29.2409 75.465L29.5402 66.1214Z" fill="#FFCC34"/>
            <path d="M27.8881 66.0627L28.4127 66.0801L28.1118 75.4236L27.5872 75.4062L27.8881 66.0627Z" fill="#FFCC34"/>
            <path d="M26.2544 66.012L26.779 66.0293L26.4798 75.3729L25.9552 75.3556L26.2544 66.012Z" fill="#FFCC34"/>
            <path d="M24.6105 65.9593L25.1351 65.9766L24.8358 75.3201L24.3113 75.3029L24.6105 65.9593Z" fill="#FFCC34"/>
            <path d="M22.9592 65.8986L23.4838 65.916L23.1829 75.2595L22.6583 75.2422L22.9592 65.8986Z" fill="#FFCC34"/>
            <path d="M21.324 65.8519L21.8486 65.8691L21.5493 75.2127L21.0248 75.1954L21.324 65.8519Z" fill="#FFCC34"/>
            <path d="M19.6807 65.7952L20.2053 65.8125L19.9061 75.1561L19.3815 75.1388L19.6807 65.7952Z" fill="#FFCC34"/>
            <path d="M18.0375 65.7405L18.5621 65.7578L18.2629 75.1014L17.7383 75.0841L18.0375 65.7405Z" fill="#FFCC34"/>
            <path d="M16.3856 65.6819L16.9102 65.6992L16.6093 75.0427L16.0847 75.0254L16.3856 65.6819Z" fill="#FFCC34"/>
        </g>
    </g>
    <path d="M28.0095 70.7479C21.1261 70.5212 15.598 68.7132 15.6621 66.7095C15.7263 64.7058 21.3584 63.2652 28.2419 63.4919C35.1253 63.7186 40.6534 65.5267 40.5892 67.5303C40.525 69.534 34.8929 70.9746 28.0095 70.7479Z" fill="#FFCC34"/>
    <path d="M28.2081 64.423C24.9622 64.3158 21.9105 64.5797 19.6153 65.1667C17.3381 65.7491 16.5846 66.4767 16.5763 66.7383C16.5681 66.9999 17.2737 67.7762 19.5081 68.5076C21.7605 69.2444 24.789 69.7097 28.0349 69.8169C31.2809 69.9242 34.3326 69.6603 36.6278 69.0733C38.9049 68.4909 39.6585 67.7632 39.6668 67.5017C39.675 67.2401 38.9694 66.4638 36.735 65.7324C34.4826 64.9956 31.4541 64.5302 28.2081 64.423ZM28.2381 63.4924C35.1214 63.7197 40.649 65.5278 40.5853 67.5313C40.5208 69.5349 34.889 70.975 28.0057 70.7476C21.1224 70.5203 15.5948 68.7122 15.6586 66.7086C15.7231 64.7051 21.3549 63.265 28.2381 63.4924Z" fill="#FEE480"/>
    <path d="M40.4563 66.0968C41.2639 66.0968 41.9185 65.433 41.9185 64.6141V37.8049C41.9185 36.9861 41.2639 36.3223 40.4563 36.3223C39.6488 36.3223 38.9942 36.9861 38.9942 37.8049V64.6141C38.9942 65.433 39.6488 66.0968 40.4563 66.0968Z" fill="#C7E5E2"/>
</svg>
