<svg width="24" height="24" viewBox="0 0 24 24" fill="none" xmlns="http://www.w3.org/2000/svg">
    <path d="M15.4572 7.63484C15.5778 7.51436 15.7412 7.44667 15.9117 7.44667C16.0821 7.44667 16.2456 7.51436 16.3662 7.63484L17.4435 8.71219L18.2722 2.41667L11.9766 3.24527L13.054 4.32271C13.1136 4.38239 13.161 4.45324 13.1933 4.53122C13.2256 4.6092 13.2422 4.69278 13.2422 4.77719C13.2422 4.86159 13.2256 4.94517 13.1933 5.02315C13.161 5.10113 13.1136 5.17198 13.054 5.23166L8.21408 10.0715L9.58863 11.446C9.70847 11.5667 9.77559 11.73 9.7753 11.9001C9.77501 12.0701 9.70732 12.2332 9.58706 12.3534C9.46681 12.4737 9.30379 12.5414 9.13371 12.5417C8.96364 12.542 8.80037 12.4749 8.67968 12.3551L6.85066 10.5261C6.73011 10.4055 6.66239 10.242 6.66239 10.0715C6.66239 9.90106 6.73011 9.73756 6.85066 9.61701L11.6906 4.77716L10.1461 3.23255C10.0613 3.14772 10.0019 3.04085 9.97465 2.92403C9.94742 2.80721 9.95342 2.6851 9.99198 2.57151C10.0305 2.45792 10.1001 2.35739 10.1928 2.28129C10.2856 2.20519 10.3977 2.15655 10.5167 2.14089L18.9348 1.03284C19.0326 1.01997 19.1319 1.02976 19.2253 1.06145C19.3187 1.09314 19.4035 1.14588 19.4732 1.21559C19.5429 1.2853 19.5956 1.37011 19.6273 1.46346C19.659 1.55682 19.6688 1.65621 19.6559 1.75395L18.5479 10.1721C18.5322 10.2911 18.4836 10.4033 18.4075 10.496C18.3314 10.5888 18.2309 10.6584 18.1173 10.697C18.0037 10.7355 17.8816 10.7415 17.7647 10.7143C17.6479 10.6871 17.541 10.6277 17.4562 10.5428L15.9117 8.99829L8.54294 16.3641C8.42238 16.4846 8.25891 16.5523 8.08847 16.5523C7.91802 16.5523 7.75455 16.4846 7.63399 16.3641L6.55669 15.2867L5.72799 21.5823L12.0235 20.7536L10.9462 19.6763C10.8257 19.5557 10.7579 19.3923 10.7579 19.2218C10.7579 19.0513 10.8257 18.8878 10.9462 18.7673L15.7861 13.9274L14.4107 12.5518C14.3508 12.4922 14.3032 12.4213 14.2707 12.3433C14.2383 12.2652 14.2215 12.1816 14.2214 12.097C14.2213 12.0125 14.2379 11.9288 14.2702 11.8507C14.3025 11.7726 14.3499 11.7016 14.4097 11.6419C14.4694 11.5821 14.5404 11.5347 14.6185 11.5024C14.6966 11.4701 14.7803 11.4535 14.8649 11.4536C14.9494 11.4537 15.0331 11.4705 15.1111 11.503C15.1891 11.5355 15.26 11.583 15.3196 11.643L17.1496 13.473C17.2093 13.5326 17.2566 13.6035 17.2889 13.6815C17.3212 13.7594 17.3378 13.843 17.3378 13.9274C17.3378 14.0118 17.3212 14.0954 17.2889 14.1734C17.2566 14.2514 17.2093 14.3222 17.1496 14.3819L12.3096 19.2218L13.8541 20.7662C13.939 20.851 13.9984 20.9579 14.0256 21.0747C14.0528 21.1916 14.0468 21.3137 14.0083 21.4273C13.9697 21.5409 13.9001 21.6414 13.8074 21.7175C13.7147 21.7936 13.6025 21.8423 13.4835 21.858L5.06534 22.9661C4.9676 22.979 4.86821 22.9692 4.77486 22.9375C4.6815 22.9058 4.59669 22.8531 4.52698 22.7833C4.45727 22.7136 4.40453 22.6288 4.37285 22.5355C4.34116 22.4421 4.33137 22.3427 4.34425 22.245L5.45228 13.8268C5.46792 13.7078 5.51654 13.5956 5.59263 13.5029C5.66873 13.4102 5.76926 13.3406 5.88286 13.302C5.99646 13.2634 6.11859 13.2574 6.23542 13.2846C6.35226 13.3119 6.45914 13.3713 6.54397 13.4561L8.08844 15.0006L15.4572 7.63484Z" fill="white"/>
</svg>
