<svg xmlns="http://www.w3.org/2000/svg" width="24" height="24" viewBox="0 0 24 24" fill="none">
    <path d="M18.9999 9.7041V9C18.9999 5.13401 15.8659 2 11.9999 2C8.13395 2 4.99994 5.13401 4.99994 9V9.7041C4.99994 10.5491 4.74982 11.3752 4.28111 12.0783L3.1325 13.8012C2.08337 15.3749 2.8843 17.5139 4.70901 18.0116C9.48246 19.3134 14.5174 19.3134 19.2909 18.0116C21.1156 17.5139 21.9165 15.3749 20.8674 13.8012L19.7188 12.0783C19.2501 11.3752 18.9999 10.5491 18.9999 9.7041Z" stroke="white" stroke-width="1.5"/>
    <path d="M7.5 19C8.15503 20.7478 9.92246 22 12 22C14.0775 22 15.845 20.7478 16.5 19" stroke="white" stroke-width="1.5" stroke-linecap="round"/>
</svg>