<svg width="21" height="24" viewBox="0 0 21 24" fill="none" xmlns="http://www.w3.org/2000/svg">
    <path d="M16.2931 15.4283C15.7212 15.4281 15.1551 15.5427 14.6283 15.7653C14.1015 15.9879 13.6248 16.314 13.2263 16.7242L8.28629 13.5485C8.67427 12.5519 8.67427 11.4461 8.28629 10.4496L13.2263 7.27387C13.9679 8.03246 14.9647 8.4887 16.0235 8.55417C17.0823 8.61963 18.1277 8.28965 18.9571 7.62818C19.7865 6.96672 20.3407 6.02089 20.5124 4.97404C20.6841 3.92718 20.461 2.85386 19.8864 1.96214C19.3117 1.07041 18.4265 0.423794 17.4022 0.147623C16.3779 -0.128547 15.2876 -0.014599 14.3426 0.467381C13.3976 0.94936 12.6651 1.76504 12.2873 2.75631C11.9094 3.74758 11.9131 4.84383 12.2975 5.83257L7.35745 9.00833C6.76257 8.3975 5.99905 7.97796 5.16449 7.80333C4.32994 7.62871 3.46226 7.70693 2.67239 8.028C1.88252 8.34907 1.20635 8.8984 0.73031 9.60577C0.254272 10.3131 0 11.1464 0 11.999C0 12.8517 0.254272 13.6849 0.73031 14.3923C1.20635 15.0997 1.88252 15.649 2.67239 15.9701C3.46226 16.2911 4.32994 16.3694 5.16449 16.1947C5.99905 16.0201 6.76257 15.6006 7.35745 14.9897L12.2975 18.1655C11.9668 19.0189 11.918 19.9558 12.1582 20.839C12.3984 21.7222 12.9151 22.5053 13.6326 23.0737C14.35 23.642 15.2306 23.9657 16.1453 23.9974C17.06 24.0291 17.9609 23.7672 18.716 23.2499C19.4711 22.7326 20.0407 21.9872 20.3416 21.1227C20.6424 20.2583 20.6586 19.3203 20.3877 18.446C20.1169 17.5717 19.5733 16.807 18.8365 16.264C18.0997 15.721 17.2084 15.4281 16.2931 15.4283ZM16.2931 1.71128C16.8018 1.71128 17.299 1.86212 17.722 2.14473C18.1449 2.42734 18.4746 2.82902 18.6693 3.29898C18.8639 3.76894 18.9148 4.28607 18.8156 4.78498C18.7164 5.28388 18.4714 5.74216 18.1117 6.10185C17.752 6.46154 17.2938 6.7065 16.7948 6.80574C16.2959 6.90497 15.7788 6.85404 15.3089 6.65938C14.8389 6.46471 14.4372 6.13506 14.1546 5.71211C13.872 5.28916 13.7212 4.7919 13.7212 4.28322C13.7219 3.60133 13.9932 2.9476 14.4753 2.46544C14.9575 1.98328 15.6112 1.71206 16.2931 1.71128ZM4.29071 14.571C3.78203 14.571 3.28477 14.4201 2.86182 14.1375C2.43886 13.8549 2.10921 13.4532 1.91455 12.9833C1.71989 12.5133 1.66895 11.9962 1.76819 11.4973C1.86743 10.9984 2.11238 10.5401 2.47208 10.1804C2.83177 9.8207 3.29004 9.57575 3.78895 9.47651C4.28786 9.37727 4.80499 9.4282 5.27495 9.62287C5.74491 9.81753 6.14659 10.1472 6.4292 10.5701C6.71181 10.9931 6.86265 11.4903 6.86265 11.999C6.86187 12.6809 6.59065 13.3346 6.10848 13.8168C5.62632 14.299 4.97259 14.5702 4.29071 14.571ZM16.2931 22.2868C15.7844 22.2868 15.2872 22.1359 14.8642 21.8533C14.4412 21.5707 14.1116 21.169 13.9169 20.6991C13.7223 20.2291 13.6713 19.712 13.7706 19.2131C13.8698 18.7142 14.1148 18.2559 14.4745 17.8962C14.8341 17.5365 15.2924 17.2916 15.7913 17.1923C16.2902 17.0931 16.8074 17.144 17.2773 17.3387C17.7473 17.5333 18.149 17.863 18.4316 18.286C18.7142 18.7089 18.865 19.2062 18.865 19.7148C18.8642 20.3967 18.593 21.0505 18.1109 21.5326C17.6287 22.0148 16.975 22.286 16.2931 22.2868Z" fill="white"/>
</svg>
