<svg width="24" height="24" viewBox="0 0 24 24" fill="none" xmlns="http://www.w3.org/2000/svg">
    <mask id="path-1-inside-1_2271_1345" fill="white">
        <path d="M23.999 10.9545C23.999 9.39239 23.2 7.93233 21.894 7.06729C21.903 6.97029 21.909 6.87229 21.909 6.77328C21.909 4.8202 20.634 3.25814 18.914 3.02913C18.573 1.29905 17.04 0 15.249 0C13.862 0 12.648 0.758031 11.999 1.88108C11.35 0.757031 10.136 0 8.749 0C6.959 0 5.427 1.29805 5.086 3.02613C3.376 3.24514 2.09 4.8122 2.09 6.77228C2.09 6.87229 2.096 6.97029 2.105 7.06629C0.798 7.93133 0 9.39139 0 10.9535C0 11.8895 0.281 12.7855 0.818 13.5676C0.281 14.3496 0 15.2456 0 16.1817C0 17.8237 0.871 19.3368 2.288 20.1838C2.91 22.4419 4.938 24 7.296 24C9.37 24 11.165 22.7799 12 21.0199C12.836 22.7799 14.63 24 16.704 24C19.061 24 21.09 22.4419 21.712 20.1838C23.129 19.3368 24 17.8237 24 16.1817C24 15.2456 23.719 14.3496 23.182 13.5676C23.719 12.7855 24 11.8895 24 10.9535L23.999 10.9545ZM7.295 23.001C5.331 23.001 3.649 21.6609 3.207 19.7428C3.175 19.6018 3.083 19.4828 2.956 19.4138C1.749 18.7678 0.999 17.5287 0.999 16.1827C0.999 15.3506 1.286 14.5556 1.829 13.8836C1.977 13.6996 1.977 13.4386 1.829 13.2546C1.286 12.5825 0.999 11.7875 0.999 10.9555C0.999 9.6394 1.724 8.41435 2.891 7.75932C3.077 7.65532 3.176 7.44431 3.138 7.2353C3.111 7.08529 3.09 6.93229 3.09 6.77428C3.09 5.41123 3.991 4.00217 5.525 4.00217C5.786 4.00217 6.004 3.80116 6.023 3.54115C6.133 2.11809 7.332 1.00204 8.75 1.00204C10.267 1.00204 11.5 2.23509 11.5 3.75216V8.47635H8.937C8.714 7.61432 7.93 6.97629 7 6.97629C5.897 6.97629 5 7.87333 5 8.97637C5 10.0794 5.897 10.9765 7 10.9765C7.93 10.9765 8.714 10.3384 8.937 9.47639H11.5V15.4766H8.937C8.714 14.6146 7.93 13.9766 7 13.9766C5.897 13.9766 5 14.8736 5 15.9767C5 17.0797 5.897 17.9767 7 17.9767C7.93 17.9767 8.714 17.3387 8.937 16.4767H11.5V18.7978C11.5 21.1159 9.614 23.003 7.296 23.003L7.295 23.001ZM7.999 8.97437C7.999 9.5254 7.551 9.97441 6.999 9.97441C6.447 9.97441 5.999 9.5254 5.999 8.97437C5.999 8.42335 6.447 7.97433 6.999 7.97433C7.551 7.97433 7.999 8.42335 7.999 8.97437ZM7.999 15.9747C7.999 16.5257 7.551 16.9747 6.999 16.9747C6.447 16.9747 5.999 16.5257 5.999 15.9747C5.999 15.4236 6.447 14.9746 6.999 14.9746C7.551 14.9746 7.999 15.4236 7.999 15.9747ZM22.169 13.8826C22.712 14.5546 22.999 15.3496 22.999 16.1817C22.999 17.5287 22.249 18.7668 21.042 19.4128C20.915 19.4808 20.823 19.6008 20.791 19.7418C20.349 21.6599 18.667 23 16.703 23C14.385 23 12.499 21.1139 12.499 18.7948V13.9736H14.999C16.378 13.9736 17.499 12.8515 17.499 11.4735V10.9105C18.361 10.6874 18.999 9.90441 18.999 8.97337C18.999 7.87033 18.102 6.97329 16.999 6.97329C15.896 6.97329 14.999 7.87033 14.999 8.97337C14.999 9.90341 15.637 10.6874 16.499 10.9105V11.4735C16.499 12.3005 15.826 12.9735 14.999 12.9735H12.499V3.75016C12.499 2.23309 13.732 1.00004 15.249 1.00004C16.667 1.00004 17.865 2.11509 17.976 3.53915C17.996 3.79916 18.239 4.00017 18.499 4.00017C20.007 4.00017 20.908 5.41022 20.908 6.77228C20.908 6.93029 20.887 7.08329 20.86 7.2333C20.822 7.44231 20.922 7.65332 21.107 7.75732C22.274 8.41235 22.999 9.6374 22.999 10.9535C22.999 11.7855 22.712 12.5805 22.169 13.2526C22.021 13.4366 22.021 13.6976 22.169 13.8816V13.8826ZM16.999 9.97441C16.447 9.97441 15.999 9.5254 15.999 8.97437C15.999 8.42335 16.447 7.97433 16.999 7.97433C17.551 7.97433 17.999 8.42335 17.999 8.97437C17.999 9.5254 17.551 9.97441 16.999 9.97441Z"/>
    </mask>
    <path d="M23.999 10.9545H2.66567V62.4592L39.0843 26.0391L23.999 10.9545ZM21.894 7.06729L0.651898 5.09646L-0.527202 17.8051L10.1135 24.853L21.894 7.06729ZM18.914 3.02913L-2.01664 7.15459L0.940487 22.1576L16.0984 24.1758L18.914 3.02913ZM11.999 1.88108L-6.47599 12.5481L11.9908 44.532L30.4699 12.5553L11.999 1.88108ZM5.086 3.02613L7.79614 24.1866L23.0404 22.2342L26.0157 7.15618L5.086 3.02613ZM2.105 7.06629L13.8792 24.8562L24.5383 17.8015L23.3452 5.07511L2.105 7.06629ZM0.818 13.5676L18.4044 25.6436L26.6967 13.5676L18.4044 1.4915L0.818 13.5676ZM2.288 20.1838L22.8553 14.5185L20.5819 6.26507L13.2338 1.87264L2.288 20.1838ZM12 21.0199L31.2701 11.867L11.9885 -28.7276L-7.27431 11.8759L12 21.0199ZM21.712 20.1838L10.7662 1.87264L3.41811 6.26507L1.14467 14.5185L21.712 20.1838ZM23.182 13.5676L5.59565 1.4915L-2.69665 13.5676L5.59565 25.6436L23.182 13.5676ZM24 10.9535H45.3333V-40.5513L8.91474 -4.13118L24 10.9535ZM7.295 23.001L26.3781 13.4644L20.4828 1.66762H7.295V23.001ZM3.207 19.7428L-17.5973 24.4642L-17.5895 24.4988L-17.5815 24.5333L3.207 19.7428ZM2.956 19.4138L13.1408 0.668649L13.082 0.636709L13.023 0.605139L2.956 19.4138ZM1.829 13.8836L18.4226 27.2912L18.4375 27.2727L18.4525 27.2541L1.829 13.8836ZM1.829 13.2546L18.4525 -0.115963L18.4375 -0.13454L18.4226 -0.153085L1.829 13.2546ZM2.891 7.75932L-7.52067 -10.8608L-7.53576 -10.8523L-7.55082 -10.8439L2.891 7.75932ZM3.138 7.2353L-17.8579 11.0144L-17.8546 11.0329L-17.8513 11.0514L3.138 7.2353ZM6.023 3.54115L-15.2469 1.89702L-15.2503 1.9417L-15.2536 1.98638L6.023 3.54115ZM11.5 8.47635V29.8097H32.8333V8.47635H11.5ZM8.937 8.47635L-11.7165 13.8192L-7.57988 29.8097H8.937V8.47635ZM8.937 9.47639V-11.8569H-7.57988L-11.7165 4.13355L8.937 9.47639ZM11.5 9.47639H32.8333V-11.8569H11.5V9.47639ZM11.5 15.4766V36.81H32.8333V15.4766H11.5ZM8.937 15.4766L-11.7165 20.8195L-7.57988 36.81H8.937V15.4766ZM8.937 16.4767V-4.85665H-7.57988L-11.7165 11.1338L8.937 16.4767ZM11.5 16.4767H32.8333V-4.85665H11.5V16.4767ZM7.296 23.003L-11.7871 32.5396L-5.89178 44.3363H7.296V23.003ZM22.169 13.8826H0.835667V21.4242L5.57543 27.2902L22.169 13.8826ZM21.042 19.4128L10.975 0.604139L10.9717 0.605875L21.042 19.4128ZM20.791 19.7418L41.5795 24.5323L41.5875 24.4978L41.5953 24.4632L20.791 19.7418ZM12.499 13.9736V-7.35975H-8.83433V13.9736H12.499ZM17.499 10.9105L12.1557 -9.74289L-3.83433 -5.60608V10.9105H17.499ZM16.499 10.9105H37.8323V-5.60608L21.8423 -9.74289L16.499 10.9105ZM12.499 12.9735H-8.83433V34.3069H12.499V12.9735ZM17.976 3.53915L39.2465 1.90302L39.2457 1.89217L39.2448 1.88132L17.976 3.53915ZM20.86 7.2333L41.8493 11.0494L41.8526 11.0309L41.8559 11.0124L20.86 7.2333ZM21.107 7.75732L10.6525 26.3534L10.6589 26.357L10.6652 26.3605L21.107 7.75732ZM22.169 13.2526L5.57543 -0.155085L5.56045 -0.13654L5.54551 -0.117963L22.169 13.2526ZM22.169 13.8816H43.5023V6.36679L38.7925 0.511063L22.169 13.8816ZM45.3323 10.9545C45.3323 2.08816 40.8209 -5.98492 33.6745 -10.7184L10.1135 24.853C5.57906 21.8496 2.66567 16.6966 2.66567 10.9545H45.3323ZM43.1361 9.03813C43.1853 8.50784 43.2423 7.72074 43.2423 6.77328H0.575666C0.575666 6.02383 0.620698 5.43274 0.651898 5.09646L43.1361 9.03813ZM43.2423 6.77328C43.2423 -4.26367 35.5717 -16.2746 21.7296 -18.1176L16.0984 24.1758C5.69635 22.7909 0.575666 13.9041 0.575666 6.77328H43.2423ZM39.8446 -1.09634C37.5774 -12.599 27.4607 -21.3333 15.249 -21.3333V21.3333C6.61926 21.3333 -0.431438 15.1971 -2.01664 7.15459L39.8446 -1.09634ZM15.249 -21.3333C5.90087 -21.3333 -2.18546 -16.2104 -6.47187 -8.7931L30.4699 12.5553C27.4815 17.7265 21.8231 21.3333 15.249 21.3333V-21.3333ZM30.474 -8.78597C26.1826 -16.2186 18.0885 -21.3333 8.749 -21.3333V21.3333C2.18347 21.3333 -3.48256 17.7327 -6.47599 12.5481L30.474 -8.78597ZM8.749 -21.3333C-3.45774 -21.3333 -13.5743 -12.6047 -15.8437 -1.10393L26.0157 7.15618C24.4283 15.2008 17.3757 21.3333 8.749 21.3333V-21.3333ZM2.37586 -18.1344C-11.5709 -16.3481 -19.2433 -4.23875 -19.2433 6.77228H23.4233C23.4233 13.8632 18.3229 22.8384 7.79614 24.1866L2.37586 -18.1344ZM-19.2433 6.77228C-19.2433 7.71619 -19.1869 8.50574 -19.1352 9.05748L23.3452 5.07511C23.3789 5.43484 23.4233 6.02838 23.4233 6.77228H-19.2433ZM-9.6692 -10.7236C-16.8289 -5.9849 -21.3333 2.09475 -21.3333 10.9535H21.3333C21.3333 16.688 18.4249 21.8476 13.8792 24.8562L-9.6692 -10.7236ZM-21.3333 10.9535C-21.3333 16.277 -19.7026 21.3705 -16.7684 25.6436L18.4044 1.4915C20.2646 4.20055 21.3333 7.50201 21.3333 10.9535H-21.3333ZM-16.7684 1.4915C-19.7026 5.76462 -21.3333 10.8582 -21.3333 16.1817H21.3333C21.3333 19.6331 20.2646 22.9346 18.4044 25.6436L-16.7684 1.4915ZM-21.3333 16.1817C-21.3333 25.4651 -16.4006 33.8667 -8.65782 38.495L13.2338 1.87264C18.1426 4.80695 21.3333 10.1823 21.3333 16.1817H-21.3333ZM-18.2793 25.8492C-15.1201 37.3185 -4.708 45.3333 7.296 45.3333V2.66667C14.584 2.66667 20.9401 7.56533 22.8553 14.5185L-18.2793 25.8492ZM7.296 45.3333C17.9383 45.3333 27.0507 39.0667 31.2743 30.1638L-7.27431 11.8759C-4.72069 6.4932 0.801731 2.66667 7.296 2.66667V45.3333ZM-7.27007 30.1728C-3.04808 39.0616 6.05536 45.3333 16.704 45.3333V2.66667C23.2046 2.66667 28.7201 6.49835 31.2701 11.867L-7.27007 30.1728ZM16.704 45.3333C28.7046 45.3333 39.1194 37.3209 42.2793 25.8492L1.14467 14.5185C3.0606 7.56297 9.41745 2.66667 16.704 2.66667V45.3333ZM32.6578 38.495C40.4006 33.8667 45.3333 25.4651 45.3333 16.1817H2.66667C2.66667 10.1823 5.85738 4.80695 10.7662 1.87264L32.6578 38.495ZM45.3333 16.1817C45.3333 10.8582 43.7026 5.76463 40.7684 1.4915L5.59565 25.6436C3.73541 22.9346 2.66667 19.6331 2.66667 16.1817H45.3333ZM40.7684 25.6436C43.7026 21.3705 45.3333 16.277 45.3333 10.9535H2.66667C2.66667 7.50202 3.73541 4.20056 5.59565 1.4915L40.7684 25.6436ZM8.91474 -4.13118L8.91374 -4.13018L39.0843 26.0391L39.0853 26.0381L8.91474 -4.13118ZM7.295 1.66762C15.2929 1.66762 22.212 7.21251 23.9955 14.9523L-17.5815 24.5333C-14.914 36.1093 -4.63095 44.3343 7.295 44.3343V1.66762ZM24.0113 15.0215C22.585 8.73624 18.5142 3.58816 13.1408 0.668649L-7.2288 38.159C-12.3482 35.3775 -16.235 30.4674 -17.5973 24.4642L24.0113 15.0215ZM13.023 0.605139C18.6108 3.59588 22.3323 9.50212 22.3323 16.1827H-20.3343C-20.3343 25.5553 -15.1128 33.9397 -7.11103 38.2225L13.023 0.605139ZM22.3323 16.1827C22.3323 20.429 20.8192 24.3251 18.4226 27.2912L-14.7646 0.475942C-18.2472 4.78616 -20.3343 10.2723 -20.3343 16.1827H22.3323ZM18.4525 27.2541C24.8803 19.2625 24.8803 7.87567 18.4525 -0.115963L-14.7945 26.6251C-20.9263 19.0014 -20.9263 8.13669 -14.7945 0.513064L18.4525 27.2541ZM18.4226 -0.153085C20.8192 2.81307 22.3323 6.70912 22.3323 10.9555H-20.3343C-20.3343 16.8659 -18.2472 22.352 -14.7646 26.6622L18.4226 -0.153085ZM22.3323 10.9555C22.3323 17.511 18.7544 23.3195 13.3328 26.3625L-7.55082 -10.8439C-15.3064 -6.49078 -20.3343 1.76777 -20.3343 10.9555H22.3323ZM13.3027 26.3794C21.4648 21.8154 25.7925 12.5786 24.1273 3.41923L-17.8513 11.0514C-19.4405 2.31005 -15.3108 -6.5048 -7.52067 -10.8608L13.3027 26.3794ZM24.1339 3.45619C24.201 3.82865 24.4233 5.09586 24.4233 6.77428H-18.2433C-18.2433 8.76872 -17.979 10.3419 -17.8579 11.0144L24.1339 3.45619ZM24.4233 6.77428C24.4233 10.5112 23.2561 14.6127 20.4082 18.1822C17.2559 22.133 11.9791 25.3355 5.525 25.3355V-17.3312C-12.0337 -17.3312 -18.2433 -1.62453 -18.2433 6.77428H24.4233ZM5.525 25.3355C16.8608 25.3355 26.4583 16.6085 27.2996 5.09591L-15.2536 1.98638C-14.4503 -9.00618 -5.28883 -17.3312 5.525 -17.3312V25.3355ZM27.2929 5.18527C26.5526 14.7627 18.5871 22.3354 8.75 22.3354V-20.3313C-3.92311 -20.3313 -14.2866 -10.5265 -15.2469 1.89702L27.2929 5.18527ZM8.75 22.3354C-1.51591 22.3354 -9.83333 14.0163 -9.83333 3.75216H32.8333C32.8333 -9.54614 22.0499 -20.3313 8.75 -20.3313V22.3354ZM-9.83333 3.75216V8.47635H32.8333V3.75216H-9.83333ZM11.5 -12.857H8.937V29.8097H11.5V-12.857ZM29.5905 3.13351C26.997 -6.89178 17.9113 -14.357 7 -14.357V28.3096C-2.05133 28.3096 -9.56901 22.1204 -11.7165 13.8192L29.5905 3.13351ZM7 -14.357C-5.88591 -14.357 -16.3333 -3.90791 -16.3333 8.97637H26.3333C26.3333 19.6546 17.6799 28.3096 7 28.3096V-14.357ZM-16.3333 8.97637C-16.3333 21.8607 -5.88591 32.3098 7 32.3098V-10.3569C17.6799 -10.3569 26.3333 -1.70182 26.3333 8.97637H-16.3333ZM7 32.3098C17.9113 32.3098 26.997 24.8445 29.5905 14.8192L-11.7165 4.13355C-9.56901 -4.16767 -2.05133 -10.3569 7 -10.3569V32.3098ZM8.937 30.8097H11.5V-11.8569H8.937V30.8097ZM-9.83333 9.47639V15.4766H32.8333V9.47639H-9.83333ZM11.5 -5.85669H8.937V36.81H11.5V-5.85669ZM29.5905 10.1338C26.997 0.108512 17.9113 -7.35675 7 -7.35675V35.3099C-2.05133 35.3099 -9.56901 29.1207 -11.7165 20.8195L29.5905 10.1338ZM7 -7.35675C-5.88593 -7.35675 -16.3333 3.09239 -16.3333 15.9767H26.3333C26.3333 26.6548 17.6799 35.3099 7 35.3099V-7.35675ZM-16.3333 15.9767C-16.3333 28.8609 -5.88593 39.3101 7 39.3101V-3.35658C17.6799 -3.35658 26.3333 5.29849 26.3333 15.9767H-16.3333ZM7 39.3101C17.9113 39.3101 26.997 31.8448 29.5905 21.8195L-11.7165 11.1338C-9.56901 2.83263 -2.05133 -3.35658 7 -3.35658V39.3101ZM8.937 37.81H11.5V-4.85665H8.937V37.81ZM-9.83333 16.4767V18.7978H32.8333V16.4767H-9.83333ZM-9.83333 18.7978C-9.83333 9.34125 -2.17551 1.66962 7.296 1.66962V44.3363C21.4035 44.3363 32.8333 32.8905 32.8333 18.7978H-9.83333ZM26.3791 13.4664L26.3781 13.4644L-11.7881 32.5376L-11.7871 32.5396L26.3791 13.4664ZM-13.3343 8.97437C-13.3343 -2.24195 -4.24579 -11.3589 6.999 -11.3589V31.3077C19.3478 31.3077 29.3323 21.2927 29.3323 8.97437H-13.3343ZM6.999 -11.3589C18.2438 -11.3589 27.3323 -2.24195 27.3323 8.97437H-15.3343C-15.3343 21.2927 -5.34979 31.3077 6.999 31.3077V-11.3589ZM27.3323 8.97437C27.3323 20.1907 18.2438 29.3077 6.999 29.3077V-13.359C-5.34979 -13.359 -15.3343 -3.344 -15.3343 8.97437H27.3323ZM6.999 29.3077C-4.24579 29.3077 -13.3343 20.1907 -13.3343 8.97437H29.3323C29.3323 -3.344 19.3478 -13.359 6.999 -13.359V29.3077ZM-13.3343 15.9747C-13.3343 4.75836 -4.24582 -4.35863 6.999 -4.35863V38.308C19.3478 38.308 29.3323 28.293 29.3323 15.9747H-13.3343ZM6.999 -4.35863C18.2438 -4.35863 27.3323 4.75836 27.3323 15.9747H-15.3343C-15.3343 28.293 -5.34982 38.308 6.999 38.308V-4.35863ZM27.3323 15.9747C27.3323 27.191 18.2438 36.308 6.999 36.308V-6.35871C-5.34979 -6.35871 -15.3343 3.65629 -15.3343 15.9747H27.3323ZM6.999 36.308C-4.24579 36.308 -13.3343 27.191 -13.3343 15.9747H29.3323C29.3323 3.65629 19.3478 -6.35871 6.999 -6.35871V36.308ZM5.57543 27.2902C3.17877 24.324 1.66567 20.428 1.66567 16.1817H44.3323C44.3323 10.2713 42.2452 4.78516 38.7626 0.474942L5.57543 27.2902ZM1.66567 16.1817C1.66567 9.49885 5.39017 3.59331 10.975 0.604139L31.109 38.2215C39.1078 33.9403 44.3323 25.5586 44.3323 16.1817H1.66567ZM10.9717 0.605875C5.42668 3.575 1.3948 8.81568 -0.0133253 15.0205L41.5953 24.4632C40.2512 30.386 36.4033 35.3866 31.1123 38.2197L10.9717 0.605875ZM0.00248355 14.9513C1.78604 7.21151 8.70505 1.66662 16.703 1.66662V44.3333C28.629 44.3333 38.912 36.1083 41.5795 24.5323L0.00248355 14.9513ZM16.703 1.66662C26.1712 1.66662 33.8323 9.33593 33.8323 18.7948H-8.83433C-8.83433 32.8918 2.5988 44.3333 16.703 44.3333V1.66662ZM33.8323 18.7948V13.9736H-8.83433V18.7948H33.8323ZM12.499 35.3069H14.999V-7.35975H12.499V35.3069ZM14.999 35.3069C28.1665 35.3069 38.8323 24.6272 38.8323 11.4735H-3.83433C-3.83433 1.07584 4.58955 -7.35975 14.999 -7.35975V35.3069ZM38.8323 11.4735V10.9105H-3.83433V11.4735H38.8323ZM22.8423 31.5638C32.8621 28.9715 40.3323 19.8908 40.3323 8.97337H-2.33433C-2.33433 -0.0820229 3.85989 -7.59666 12.1557 -9.74289L22.8423 31.5638ZM40.3323 8.97337C40.3323 -3.91092 29.8849 -14.36 16.999 -14.36V28.3066C6.3191 28.3066 -2.33433 19.6516 -2.33433 8.97337H40.3323ZM16.999 -14.36C4.11311 -14.36 -6.33433 -3.91093 -6.33433 8.97337H36.3323C36.3323 19.6516 27.6789 28.3066 16.999 28.3066V-14.36ZM-6.33433 8.97337C-6.33433 19.8835 1.12963 28.9699 11.1557 31.5638L21.8423 -9.74289C30.1444 -7.59504 36.3323 -0.0766746 36.3323 8.97337H-6.33433ZM-4.83433 10.9105V11.4735H37.8323V10.9105H-4.83433ZM-4.83433 11.4735C-4.83433 0.519255 4.04311 -8.35979 14.999 -8.35979V34.3069C27.6089 34.3069 37.8323 24.0818 37.8323 11.4735H-4.83433ZM14.999 -8.35979H12.499V34.3069H14.999V-8.35979ZM33.8323 12.9735V3.75016H-8.83433V12.9735H33.8323ZM33.8323 3.75016C33.8323 14.0143 25.5149 22.3334 15.249 22.3334V-20.3333C1.94909 -20.3333 -8.83433 -9.54815 -8.83433 3.75016H33.8323ZM15.249 22.3334C5.40513 22.3334 -2.54777 14.7555 -3.29282 5.19697L39.2448 1.88132C38.2778 -10.5253 27.9289 -20.3333 15.249 -20.3333V22.3334ZM-3.2945 5.17527C-2.3195 17.8508 8.44549 25.3335 18.499 25.3335V-17.3332C28.0325 -17.3332 38.3115 -10.2525 39.2465 1.90302L-3.2945 5.17527ZM18.499 25.3335C11.9051 25.3335 6.63011 22.0181 3.54096 18.1149C0.7397 14.5755 -0.425333 10.5087 -0.425333 6.77228H42.2413C42.2413 -1.45062 36.1707 -17.3332 18.499 -17.3332V25.3335ZM-0.425333 6.77228C-0.425333 5.09383 -0.202969 3.8266 -0.135938 3.45419L41.8559 11.0124C41.977 10.34 42.2413 8.76675 42.2413 6.77228H-0.425333ZM-0.129253 3.41723C-1.80542 12.6365 2.58629 21.8187 10.6525 26.3534L31.5615 -10.8388C39.2577 -6.51207 43.4494 2.2481 41.8493 11.0494L-0.129253 3.41723ZM10.6652 26.3605C5.24365 23.3175 1.66567 17.509 1.66567 10.9535H44.3323C44.3323 1.76577 39.3044 -6.49278 31.5488 -10.8459L10.6652 26.3605ZM1.66567 10.9535C1.66567 6.70712 3.17878 2.81107 5.57543 -0.155085L38.7626 26.6602C42.2452 22.35 44.3323 16.8639 44.3323 10.9535H1.66567ZM5.54551 -0.117963C-0.882281 7.87367 -0.882281 19.2605 5.54551 27.2521L38.7925 0.511063C44.9243 8.13469 44.9243 18.9994 38.7925 26.6231L5.54551 -0.117963ZM0.835667 13.8816V13.8826H43.5023V13.8816H0.835667ZM16.999 -11.3589C28.2438 -11.3589 37.3323 -2.24198 37.3323 8.97437H-5.33433C-5.33433 21.2928 4.65023 31.3077 16.999 31.3077V-11.3589ZM37.3323 8.97437C37.3323 20.1907 28.2438 29.3077 16.999 29.3077V-13.359C4.65023 -13.359 -5.33433 -3.34403 -5.33433 8.97437H37.3323ZM16.999 29.3077C5.75421 29.3077 -3.33433 20.1907 -3.33433 8.97437H39.3323C39.3323 -3.344 29.3478 -13.359 16.999 -13.359V29.3077ZM-3.33433 8.97437C-3.33433 -2.24195 5.75421 -11.3589 16.999 -11.3589V31.3077C29.3478 31.3077 39.3323 21.2927 39.3323 8.97437H-3.33433Z" fill="white" mask="url(#path-1-inside-1_2271_1345)"/>
</svg>
