<svg width="24" height="24" viewBox="0 0 24 24" fill="none" xmlns="http://www.w3.org/2000/svg">
    <path d="M11 16.5641V20.4089C11 21.7418 10.084 22.9403 8.752 23.2443C8.35 23.3359 7.931 23.3846 7.5 23.3846C5.078 23.3846 2.985 21.8685 2.267 19.6479C0.859 18.7506 0 17.2325 0 15.5897C0 14.7265 0.235 13.8973 0.686 13.1538C0.236 12.4104 0 11.5812 0 10.7179C0 9.19015 0.752 7.7559 2 6.84097V6.82051C2 4.97215 3.327 3.42097 5.102 3.02246C5.511 1.29395 7.104 0 9 0H9.022C10.115 0.00292308 11 0.868154 11 1.93313V7.79487H8.723C8.377 7.21513 7.739 6.82051 7 6.82051C5.895 6.82051 5 7.69256 5 8.76923C5 9.8459 5.895 10.7179 7 10.7179C7.738 10.7179 8.376 10.3233 8.723 9.74359H11V14.6154H8.723C8.377 14.0356 7.739 13.641 7 13.641C5.895 13.641 5 14.5131 5 15.5897C5 16.6664 5.895 17.5385 7 17.5385C7.738 17.5385 8.376 17.1438 8.723 16.5641H11ZM24 10.7179C24 9.19015 23.248 7.7559 22 6.84097V6.82051C22 4.97215 20.673 3.42097 18.898 3.02246C18.489 1.29395 16.896 0 15 0H14.978C13.885 0.00292308 13 0.868154 13 1.93313V11.6923H16V10.4481C15.405 10.1109 15 9.48928 15 8.76923C15 7.69256 15.895 6.82051 17 6.82051C18.105 6.82051 19 7.69256 19 8.76923C19 9.48831 18.595 10.1099 18 10.4481V13.641H13V20.4089C13 21.7418 13.916 22.9403 15.248 23.2443C15.65 23.3359 16.069 23.3846 16.5 23.3846C18.922 23.3846 21.015 21.8685 21.733 19.6479C23.141 18.7506 24 17.2325 24 15.5897C24 14.7265 23.765 13.8973 23.314 13.1538C23.764 12.4104 24 11.5812 24 10.7179Z" fill="white"/>
</svg>
