<svg width="21" height="24" viewBox="0 0 21 24" fill="none" xmlns="http://www.w3.org/2000/svg">
    <path d="M20.5536 19.7158C20.5541 20.345 20.4159 20.9665 20.1488 21.5362C19.8817 22.1058 19.4924 22.6096 19.0084 23.0117C18.5245 23.4138 17.9579 23.7042 17.349 23.8624C16.74 24.0207 16.1037 24.0427 15.4853 23.927C14.8668 23.8113 14.2815 23.5607 13.7709 23.1931C13.2603 22.8255 12.8371 22.3498 12.5312 21.8C12.2254 21.2502 12.0445 20.6397 12.0014 20.012C11.9583 19.3843 12.0541 18.7549 12.282 18.1684L7.34814 14.9967C6.75402 15.6067 5.99147 16.0257 5.15796 16.2001C4.32446 16.3745 3.45788 16.2964 2.66901 15.9757C1.88014 15.6551 1.20482 15.1064 0.729387 14.4C0.253951 13.6935 0 12.8613 0 12.0097C0 11.1582 0.253951 10.326 0.729387 9.61951C1.20482 8.91303 1.88014 8.3644 2.66901 8.04373C3.45788 7.72306 4.32446 7.64494 5.15796 7.81935C5.99147 7.99376 6.75402 8.41277 7.34814 9.02282L12.282 5.85107C11.8956 4.85977 11.8912 3.76032 12.2696 2.76594C12.6479 1.77157 13.3821 0.95314 14.3297 0.469383C15.2773 -0.0143726 16.3707 -0.12898 17.398 0.14779C18.4253 0.424559 19.3132 1.07298 19.8895 1.9673C20.4658 2.86161 20.6895 3.93809 20.5171 4.98795C20.3447 6.03781 19.7885 6.98624 18.9565 7.6493C18.1245 8.31235 17.0758 8.64278 16.014 8.57649C14.9521 8.51021 13.9527 8.05193 13.2096 7.29055L8.27581 10.4623C8.6633 11.4575 8.6633 12.562 8.27581 13.5572L13.2096 16.7289C13.8034 16.1189 14.5657 15.6998 15.3989 15.5254C16.2322 15.351 17.0986 15.4291 17.8872 15.7499C18.6758 16.0706 19.3508 16.6193 19.8258 17.3258C20.3008 18.0323 20.5542 18.8645 20.5536 19.7158Z" fill="white"/>
</svg>
