<svg width="24" height="25" viewBox="0 0 24 25" fill="none" xmlns="http://www.w3.org/2000/svg">
    <path d="M6.00024 11.5004C6.00024 8.67191 6.00024 7.25764 6.87896 6.37892C7.75767 5.50021 9.17194 5.50021 12.0005 5.50021H15.0006C17.8291 5.50021 19.2434 5.50021 20.1221 6.37892C21.0008 7.25764 21.0008 8.67191 21.0008 11.5004V16.5006C21.0008 19.3292 21.0008 20.7435 20.1221 21.6222C19.2434 22.5009 17.8291 22.5009 15.0006 22.5009H12.0005C9.17194 22.5009 7.75767 22.5009 6.87896 21.6222C6.00024 20.7435 6.00024 19.3292 6.00024 16.5006V11.5004Z" stroke="#FFD24B" stroke-width="1.50006"/>
    <path d="M6.00036 19.5008C4.34344 19.5008 3.00024 18.1576 3.00024 16.5006V10.5004C3.00024 6.72903 3.00024 4.84333 4.17186 3.67171C5.34348 2.5001 7.22918 2.5001 11.0006 2.5001H15.0007C16.6576 2.5001 18.0008 3.84329 18.0008 5.50021" stroke="#FFD24B" stroke-width="1.50006"/>
</svg>
