<svg width="24" height="24" viewBox="0 0 24 24" fill="none" xmlns="http://www.w3.org/2000/svg">
    <rect width="24" height="24" rx="12" fill="url(#paint0_linear_19_16570)"/>
    <path fill-rule="evenodd" clip-rule="evenodd" d="M5.43208 11.873C8.93032 10.3488 11.263 9.34403 12.4302 8.85856C15.7627 7.47245 16.4552 7.23167 16.9066 7.22372C17.0058 7.22197 17.2278 7.24657 17.3716 7.36323C17.493 7.46174 17.5264 7.59481 17.5423 7.68821C17.5583 7.7816 17.5782 7.99436 17.5624 8.16061C17.3818 10.0581 16.6004 14.6628 16.2029 16.788C16.0346 17.6872 15.7034 17.9888 15.3828 18.0183C14.6859 18.0824 14.1567 17.5577 13.4818 17.1153C12.4256 16.423 11.829 15.992 10.8038 15.3164C9.61902 14.5357 10.3871 14.1066 11.0623 13.4053C11.239 13.2217 14.3094 10.429 14.3688 10.1756C14.3762 10.144 14.3831 10.0258 14.313 9.96348C14.2428 9.90111 14.1392 9.92244 14.0645 9.9394C13.9586 9.96344 12.2713 11.0786 9.00283 13.285C8.52391 13.6138 8.09013 13.7741 7.70147 13.7657C7.27301 13.7564 6.44882 13.5234 5.83612 13.3242C5.08462 13.08 4.48734 12.9508 4.53935 12.5359C4.56644 12.3198 4.86402 12.0989 5.43208 11.873Z" fill="white"/>
    <defs>
        <linearGradient id="paint0_linear_19_16570" x1="12" y1="0" x2="12" y2="23.822" gradientUnits="userSpaceOnUse">
            <stop stop-color="#2AABEE"/>
            <stop offset="1" stop-color="#229ED9"/>
        </linearGradient>
    </defs>
</svg>

