<svg width="32" height="32" viewBox="0 0 32 32" fill="none" xmlns="http://www.w3.org/2000/svg">
<g clip-path="url(#clip0_1131_4591)">
<path d="M5.25058 27.1603C5.74176 27.3241 6.00726 27.855 5.84351 28.3462L4.83939 31.3587C4.6757 31.8499 4.1447 32.1154 3.65351 31.9517C3.16233 31.7879 2.89683 31.257 3.06058 30.7658L4.0647 27.7533C4.21976 27.288 4.73495 26.9885 5.25058 27.1603Z" fill="#464E7D"/>
<path d="M15.8853 27.7532L16.8894 30.7657C17.0532 31.2569 16.7877 31.7878 16.2965 31.9516C15.8052 32.1155 15.2744 31.8498 15.1107 31.3587L14.1065 28.3462C13.9427 27.855 14.2082 27.3241 14.6994 27.1603C15.2134 26.9889 15.7293 27.2853 15.8853 27.7532Z" fill="#0D1146"/>
<path d="M19.0125 7.02917H0.9375C0.41975 7.02917 0 7.44892 0 7.96667V28.05C0 28.5677 0.41975 28.9875 0.9375 28.9875H19.0125C19.5303 28.9875 19.95 28.5677 19.95 28.05V7.96667C19.95 7.44892 19.5303 7.02917 19.0125 7.02917Z" fill="#F0F8FA"/>
<path d="M19.9501 28.05V7.96667C19.9501 7.44892 19.5303 7.02917 19.0126 7.02917H9.9751V28.9875H19.0126C19.5303 28.9875 19.9501 28.5677 19.9501 28.05Z" fill="#D0E3F0"/>
<path d="M11.9835 6.89581H7.9668C7.44905 6.89581 7.0293 6.47606 7.0293 5.95831V2.94581C7.02936 1.285 8.38217 0 9.97517 0C11.5681 0 12.921 1.28481 12.921 2.94581V5.95831C12.921 6.47612 12.5013 6.89581 11.9835 6.89581Z" fill="#FFE835"/>
<path d="M9.97515 17.9417C8.63277 17.9417 7.51946 16.9348 7.38546 15.5995C7.24146 14.1361 7.03609 12.0977 7.03402 12.0773C7.00746 11.8136 7.09371 11.551 7.27146 11.3545C7.44921 11.1579 7.70184 11.0458 7.96677 11.0458H11.9835C12.2485 11.0458 12.5011 11.1579 12.6788 11.3545C12.8565 11.551 12.9428 11.8136 12.9162 12.0773C12.9141 12.0977 12.7088 14.1361 12.565 15.5977C12.5649 15.5983 12.5648 15.599 12.5648 15.5996C12.4308 16.9348 11.3175 17.9417 9.97515 17.9417Z" fill="#FFE835"/>
<path d="M12.9209 5.95831V2.94581C12.9209 1.28481 11.568 0 9.9751 0V6.89581H11.9834C12.5012 6.89581 12.9209 6.47612 12.9209 5.95831Z" fill="#FFC833"/>
<path d="M12.5648 15.5996C12.5648 15.599 12.5649 15.5983 12.565 15.5977C12.7088 14.1362 12.9142 12.0977 12.9162 12.0773C12.9428 11.8136 12.8565 11.551 12.6788 11.3545C12.501 11.1579 12.2484 11.0458 11.9835 11.0458H9.9751V17.9416C11.3174 17.9417 12.4308 16.9348 12.5648 15.5996Z" fill="#FFC833"/>
<path d="M17.7722 6.02502H12.9873C12.4696 6.02502 12.0498 6.44477 12.0498 6.96252V10.9792C12.0498 11.497 12.4696 11.9167 12.9873 11.9167H17.7722C18.2899 11.9167 18.7097 11.497 18.7097 10.9792V6.96252C18.7097 6.44477 18.2899 6.02502 17.7722 6.02502Z" fill="#6152DD"/>
<path d="M12.9874 12.9208H6.9624C6.44465 12.9208 6.0249 12.501 6.0249 11.9833V5.95825C6.0249 5.4405 6.44465 5.02075 6.9624 5.02075H12.9874C13.5052 5.02075 13.9249 5.4405 13.9249 5.95825V11.9833C13.9249 12.5011 13.5052 12.9208 12.9874 12.9208Z" fill="#66B8F4"/>
<path d="M27.0456 12.9208C29.2236 12.9208 30.9956 11.1489 30.9956 8.97081V0.9375C30.9956 0.41975 30.5758 0 30.0581 0H24.0331C23.5153 0 23.0956 0.41975 23.0956 0.9375V5.02081H20.0164C17.8383 5.02081 16.0664 6.79275 16.0664 8.97081C16.0664 11.1489 17.8383 12.9208 20.0164 12.9208H27.0456Z" fill="#5086EE"/>
<path d="M27.046 13.925C29.7821 13.925 32.0002 11.7069 32.0002 8.97079C32.0002 6.23467 29.7821 4.0166 27.046 4.0166C24.3099 4.0166 22.0918 6.23467 22.0918 8.97079C22.0918 11.7069 24.3099 13.925 27.046 13.925Z" fill="#0D1146"/>
<path d="M27.046 12.05C28.7466 12.05 30.1252 10.6714 30.1252 8.97079C30.1252 7.2702 28.7466 5.8916 27.046 5.8916C25.3454 5.8916 23.9668 7.2702 23.9668 8.97079C23.9668 10.6714 25.3454 12.05 27.046 12.05Z" fill="#464E7D"/>
<path d="M13.9251 11.9833V5.95825C13.9251 5.4405 13.5053 5.02075 12.9876 5.02075H9.9751V12.9208H12.9876C13.5053 12.9208 13.9251 12.5011 13.9251 11.9833Z" fill="#5086EE"/>
<path d="M5.95825 24.9708C5.56781 24.9708 5.19568 24.7499 5.05825 24.3845C4.92262 24.024 4.99956 23.6383 5.2835 23.3809C5.37018 23.2698 6.02487 22.352 6.02487 20.0167C6.02487 17.8386 7.79687 16.0667 9.97487 16.0667C12.1529 16.0667 13.9249 17.8386 13.9249 20.0167C13.9249 23.4897 10.8084 24.9708 5.95825 24.9708Z" fill="#FF5B62"/>
<path d="M13.9251 20.0167C13.9251 17.8386 12.1532 16.0667 9.9751 16.0667V24.5158C12.4597 23.8427 13.9251 22.398 13.9251 20.0167Z" fill="#F53176"/>
</g>
<defs>
<clipPath id="clip0_1131_4591">
<rect width="32" height="32" fill="white"/>
</clipPath>
</defs>
</svg>
