<svg width="20" height="20" viewBox="0 0 20 20" fill="none" xmlns="http://www.w3.org/2000/svg">
    <path fill-rule="evenodd" clip-rule="evenodd" d="M18.3333 9.99996C18.3333 14.6023 14.6023 18.3333 9.99996 18.3333C5.39759 18.3333 1.66663 14.6023 1.66663 9.99996C1.66663 5.39759 5.39759 1.66663 9.99996 1.66663C14.6023 1.66663 18.3333 5.39759 18.3333 9.99996ZM13.3586 7.47468C13.6026 7.71876 13.6026 8.11449 13.3586 8.35857L9.1919 12.5252C8.94782 12.7693 8.5521 12.7693 8.30802 12.5252L6.64135 10.8586C6.39727 10.6145 6.39727 10.2188 6.64135 9.97468C6.88543 9.73061 7.28116 9.73061 7.52523 9.97468L8.74996 11.1994L10.6123 9.33705L12.4747 7.47468C12.7188 7.23061 13.1145 7.23061 13.3586 7.47468Z" fill="#A1A1A1"/>
</svg>