<svg width="22" height="21" viewBox="0 0 22 21" fill="none" xmlns="http://www.w3.org/2000/svg">
    <path d="M7.25 6.75C8.28553 6.75 9.125 5.91053 9.125 4.875C9.125 3.83947 8.28553 3 7.25 3C6.21447 3 5.375 3.83947 5.375 4.875C5.375 5.91053 6.21447 6.75 7.25 6.75Z" fill="white"/>
    <path d="M12.275 6.975C11.975 6.675 11.525 6.675 11.225 6.975L7.25 10.95L5.525 9.225C5.225 8.925 4.775 8.925 4.475 9.225L3.5 10.2V15H7.85L7.925 14.925L14.075 8.775L12.275 6.975Z" fill="white"/>
    <path d="M2 15.75V2.25C2 1.875 2.375 1.5 2.75 1.5H16.25C16.625 1.5 17 1.875 17 2.25V6.375C17.45 6.225 17.975 6.075 18.5 6.075V2.25C18.5 0.975 17.525 0 16.25 0H2.75C1.475 0 0.5 0.975 0.5 2.25V15.75C0.5 17.025 1.475 18 2.75 18H6.875L7.175 16.5H2.75C2.3 16.5 2 16.2 2 15.75Z" fill="white"/>
    <path d="M20.675 8.3252C19.55 7.2002 17.75 7.2002 16.625 8.3252L16.25 8.7002L20.3 12.7502L20.675 12.3752C21.8 11.2502 21.8 9.4502 20.675 8.3252Z" fill="white"/>
    <path d="M8.97499 15.975C8.89999 16.05 8.82499 16.2 8.74999 16.35L7.99999 20.1C7.92499 20.325 7.99999 20.625 8.22499 20.775C8.37499 20.925 8.67499 21 8.89999 21L12.65 20.25C12.8 20.25 12.95 20.175 13.025 20.025L19.25 13.8L15.2 9.75L8.97499 15.975Z" fill="white"/>
</svg>
