<svg width="24" height="25" viewBox="0 0 24 25" fill="none" xmlns="http://www.w3.org/2000/svg">
    <path d="M17.0365 0.230469H6.97548C2.6053 0.230469 0 2.83447 0 7.20247V17.2465C0 21.6265 2.6053 24.2305 6.97548 24.2305H17.0245C21.3947 24.2305 24 21.6265 24 17.2585V7.20247C24.012 2.83447 21.4067 0.230469 17.0365 0.230469ZM20.11 9.83047C20.11 10.3225 19.7018 10.7305 19.2096 10.7305C18.7173 10.7305 18.3091 10.3225 18.3091 9.83047V7.20247L6.97548 18.5305H9.60479C10.097 18.5305 10.5052 18.9385 10.5052 19.4305C10.5052 19.9225 10.097 20.3305 9.60479 20.3305H4.80239C4.68233 20.3305 4.56227 20.3065 4.45422 20.2585C4.23811 20.1625 4.05802 19.9945 3.96197 19.7665C3.92596 19.6585 3.90194 19.5505 3.90194 19.4305V14.6305C3.90194 14.1385 4.31015 13.7305 4.80239 13.7305C5.29464 13.7305 5.70284 14.1385 5.70284 14.6305V17.2585L17.0365 5.93047H14.4072C13.9149 5.93047 13.5067 5.52247 13.5067 5.03047C13.5067 4.53847 13.9149 4.13047 14.4072 4.13047H19.2096C19.3296 4.13047 19.4377 4.15447 19.5577 4.20247C19.7739 4.29847 19.9539 4.46647 20.05 4.69447C20.086 4.80247 20.11 4.91047 20.11 5.03047V9.83047Z" fill="#cbb472"/>
</svg>
