<svg width="24" height="24" viewBox="0 0 24 24" fill="none" xmlns="http://www.w3.org/2000/svg">
    <path d="M17.0365 0H6.97548C2.6053 0 0 2.604 0 6.972V17.016C0 21.396 2.6053 24 6.97548 24H17.0245C21.3947 24 24 21.396 24 17.028V6.972C24.012 2.604 21.4067 0 17.0365 0ZM20.11 9.6C20.11 10.092 19.7018 10.5 19.2096 10.5C18.7173 10.5 18.3091 10.092 18.3091 9.6V6.972L6.97548 18.3H9.60479C10.097 18.3 10.5052 18.708 10.5052 19.2C10.5052 19.692 10.097 20.1 9.60479 20.1H4.80239C4.68233 20.1 4.56227 20.076 4.45422 20.028C4.23811 19.932 4.05802 19.764 3.96197 19.536C3.92596 19.428 3.90194 19.32 3.90194 19.2V14.4C3.90194 13.908 4.31015 13.5 4.80239 13.5C5.29464 13.5 5.70284 13.908 5.70284 14.4V17.028L17.0365 5.7H14.4072C13.9149 5.7 13.5067 5.292 13.5067 4.8C13.5067 4.308 13.9149 3.9 14.4072 3.9H19.2096C19.3296 3.9 19.4377 3.924 19.5577 3.972C19.7739 4.068 19.9539 4.236 20.05 4.464C20.086 4.572 20.11 4.68 20.11 4.8V9.6Z" fill="#474747"/>
</svg>
