<svg width="32" height="32" viewBox="0 0 32 32" fill="none" xmlns="http://www.w3.org/2000/svg">
    <path d="M1.37126 21.2261L5.87951 28.1779C7.45894 29.5701 9.32719 30.6419 11.3834 31.2914H20.6164C22.6727 30.6419 24.5409 29.5702 26.1203 28.178L30.6286 21.2261C31.073 19.7921 31.3125 18.2678 31.3125 16.6876C31.3125 8.23069 24.4568 1.375 15.9999 1.375C7.54294 1.375 0.687256 8.23069 0.687256 16.6876C0.687318 18.2677 0.926881 19.7919 1.37126 21.2261Z" fill="#1D2E79"/>
    <path d="M10.3276 5.27393H9.99327C9.57695 5.27393 9.23633 5.61455 9.23633 6.03086V8.01705C9.23633 8.43336 9.57695 8.77399 9.99327 8.77399H10.3276V5.27393Z" fill="#ADE9F7"/>
    <path d="M22.0066 5.27393H21.6401V8.77393H22.0066C22.4229 8.77393 22.7635 8.4333 22.7635 8.01699V6.0308C22.7634 5.61449 22.4229 5.27393 22.0066 5.27393Z" fill="#E8F8FC"/>
    <path d="M6.95586 20.7927C7.3478 20.6223 7.68311 20.5102 7.96874 20.4395V22.1021C7.3698 22.0367 6.74536 22.1468 6.21399 22.3023C6.62918 21.9098 6.89855 21.3751 6.95586 20.7927Z" fill="#9C58FE"/>
    <path d="M6.78125 19.6296L7.96881 19.0195V20.649C7.61075 20.7317 7.25925 20.8407 6.93363 20.958C6.97856 20.6937 6.98006 20.4173 6.93075 20.1381C6.89919 19.9598 6.84813 19.79 6.78125 19.6296Z" fill="#FEF156"/>
    <path d="M7.34038 17.4814C7.75482 17.2685 8.26794 17.4259 8.48157 17.84C8.48294 17.8427 8.48432 17.8453 8.48569 17.848C8.48682 17.8501 8.48769 17.8523 8.48882 17.8544L8.10482 18.501C8.01575 18.651 7.96875 18.8223 7.96875 18.9967V19.0685L6.79819 19.6698C6.56957 19.0923 6.1285 18.638 5.58582 18.3828L7.34038 17.4814Z" fill="#AE79FD"/>
    <path d="M25.0441 20.7927C24.6522 20.6223 24.3169 20.5102 24.0312 20.4395V22.1021C24.6302 22.0367 25.2546 22.1468 25.786 22.3023C25.3708 21.9098 25.1014 21.3751 25.0441 20.7927Z" fill="#AE79FD"/>
    <path d="M25.2188 19.6296L24.0312 19.0195V20.649C24.3893 20.7317 24.7407 20.8407 25.0664 20.958C25.0215 20.6937 25.02 20.4173 25.0693 20.1381C25.1007 19.9598 25.1518 19.79 25.2188 19.6296Z" fill="#FFFBB3"/>
    <path d="M24.6595 17.4814C24.2451 17.2685 23.732 17.4259 23.5184 17.84C23.517 17.8427 23.5156 17.8453 23.5142 17.848C23.5131 17.8501 23.5122 17.8523 23.5111 17.8544L23.8951 18.501C23.9842 18.651 24.0312 18.8223 24.0312 18.9967V19.0685L25.2017 19.6698C25.4304 19.0923 25.8714 18.638 26.4141 18.3828L24.6595 17.4814Z" fill="#C09AFC"/>
    <path d="M12.5615 16.2123C12.8102 16.449 13.133 16.7108 13.5288 16.9439C13.821 16.5411 14.1901 15.6134 14.0805 13.5302C13.7357 13.3019 13.4711 12.9565 13.3307 12.5472C13.2925 12.4357 13.2508 12.3264 13.2076 12.2183C13.2061 12.7583 13.1172 14.9933 11.7927 15.9029C12.0705 15.9044 12.3471 16.0083 12.5615 16.2123Z" fill="#8A37FF"/>
    <path d="M15.1939 17.5516V13.9425C14.9083 13.8848 14.6298 13.7976 14.3604 13.6821C14.2472 13.6335 14.1403 13.5731 14.0403 13.5029C14.0225 14.2969 13.9148 15.7642 13.4027 16.8675C13.8828 17.1691 14.4805 17.4333 15.1939 17.5516Z" fill="#FEF156"/>
    <path d="M19.4384 16.2123C19.6529 16.0082 19.9294 15.9044 20.2073 15.9029C18.8827 14.9933 18.7939 12.7583 18.7924 12.2183C18.7492 12.3264 18.7076 12.4356 18.6693 12.5472C18.5289 12.9565 18.2644 13.3019 17.9195 13.5302C17.81 15.6134 18.1791 16.5411 18.4712 16.9439C18.867 16.7108 19.1898 16.449 19.4384 16.2123Z" fill="#C09AFC"/>
    <path d="M18.5972 16.8675C18.0852 15.7642 17.9774 14.2969 17.9596 13.5029C17.8596 13.5731 17.7528 13.6335 17.6395 13.6821C17.3702 13.7976 17.0916 13.8848 16.806 13.9425V17.5516C17.5195 17.4333 18.1171 17.1691 18.5972 16.8675Z" fill="#FFFBB3"/>
    <path d="M15.9999 17.6177C16.2995 17.6177 16.5825 17.5912 16.8493 17.5445V13.9341C16.5724 13.9931 16.2888 14.024 15.9999 14.024C15.7109 14.024 15.4273 13.9931 15.1505 13.9341V17.5445C15.4173 17.5911 15.7003 17.6177 15.9999 17.6177Z" fill="#9C58FE"/>
    <path d="M20.1863 29.8778C19.3809 29.8778 18.6104 29.573 18.0044 29.0425C17.776 28.8425 17.4882 28.6397 17.1359 28.4762C17.0866 28.4533 17.0366 28.4323 16.9863 28.4126L16.9911 28.4203C16.8118 28.4767 16.463 28.604 16.1233 28.8297C15.4794 29.2572 15.1855 29.831 15.2734 30.4892C15.3807 31.2922 15.6511 31.7459 15.8932 31.9987C15.9289 31.999 15.9643 31.9998 15.9999 31.9998C17.6089 31.9998 19.1596 31.751 20.6164 31.2909C20.7876 30.8066 20.9949 30.387 21.1777 29.9403L20.1863 29.8778Z" fill="#AE79FD"/>
    <path d="M17.1359 28.4767C16.4173 28.1432 15.5825 28.1432 14.864 28.4767C14.5116 28.6402 14.2239 28.843 13.9955 29.043C13.3895 29.5735 12.619 29.8783 11.8136 29.8783L10.8221 29.9408C11.005 30.3875 11.2123 30.8071 11.3835 31.2914C12.8403 31.7515 14.391 32.0002 15.9999 32.0002C16.0098 32.0002 16.0195 32 16.0294 32C15.7861 31.7777 15.481 31.3357 15.3663 30.4772C15.1636 28.9605 17.1359 28.4767 17.1359 28.4767Z" fill="#9C58FE"/>
    <path d="M22.3609 26.8811C22.3598 26.8763 22.3587 26.8716 22.3576 26.8668C22.0286 27.2209 21.5669 27.4235 21.082 27.4235H19.0045C18.64 27.4235 18.2847 27.3091 17.9886 27.0966L16.3184 25.8974C16.1611 25.7845 16.0506 25.6218 16 25.4395C15.9493 25.6218 15.8389 25.7845 15.6816 25.8974L14.7763 26.5473C14.6033 27.0884 14.5381 27.8918 15.4217 28.3273L15.413 28.3535C15.9871 28.2261 16.5948 28.2878 17.136 28.539C17.4926 28.7045 17.783 28.9102 18.0128 29.1126C18.6144 29.6425 19.3847 29.9406 20.1863 29.9406H21.1778L21.5969 29.5243C22.2914 28.8346 22.585 27.8339 22.3609 26.8811Z" fill="#02C0FC"/>
    <path d="M14.9425 26.4277L14.0112 27.0964C13.7151 27.3089 13.3598 27.4233 12.9953 27.4233H10.9178C10.433 27.4233 9.97129 27.2207 9.64229 26.8667C9.64116 26.8714 9.64004 26.8762 9.63891 26.881C9.41485 27.8337 9.70841 28.8344 10.4029 29.5241L10.8221 29.9404H11.8135C12.6152 29.9404 13.3855 29.6422 13.9871 29.1124C14.2168 28.91 14.5073 28.7043 14.8639 28.5388C15.0828 28.4372 15.3126 28.367 15.5466 28.3273L15.5467 28.327C14.5955 27.8582 14.7438 26.963 14.9425 26.4277Z" fill="#1D8DF2"/>
    <path d="M20.8937 16.0091C20.456 15.6712 19.8389 15.7061 19.4383 16.0873C18.7907 16.7037 17.6413 17.4925 15.9999 17.4925C15.6411 17.4925 15.3059 17.4548 14.9943 17.3895C14.8188 17.5795 13.9901 18.584 15.0255 19.6193C15.0827 19.6765 15.1258 19.7394 15.1571 19.8069C15.2036 19.8139 15.2498 19.8211 15.2975 19.8269C15.6386 19.8684 15.9101 20.1133 15.9999 20.4306C16.0896 20.1133 16.3611 19.8684 16.7022 19.8269C19.0288 19.5434 19.954 17.9307 20.2946 17.0209C20.4358 16.6438 20.7988 16.3963 21.2015 16.3963H21.2308C21.2319 16.3547 21.2333 16.3134 21.2333 16.2713L20.8937 16.0091Z" fill="#02C0FC"/>
    <path d="M11.1062 16.0091L10.7665 16.2713C10.7665 16.3134 10.7679 16.3548 10.7689 16.3963H10.7982C11.2009 16.3963 11.5639 16.6439 11.7051 17.0209C12.0437 17.9253 12.9605 19.5236 15.2567 19.8211C15.2284 19.7718 15.1938 19.7251 15.1505 19.6818C14.0006 18.5319 15.1505 17.4194 15.1505 17.4194L15.1504 17.4193C13.9558 17.21 13.0909 16.5912 12.5615 16.0873C12.161 15.7061 11.5439 15.6712 11.1062 16.0091Z" fill="#1D8DF2"/>
    <path d="M22.2569 22.177C19.4753 22.177 19.1448 19.7737 19.1455 18.626C18.5858 19.1382 17.8002 19.5681 16.7022 19.7019C16.2825 19.753 15.9681 20.1121 15.9681 20.535V25.3399C15.9681 25.6104 16.0985 25.8645 16.3183 26.0223L17.9885 27.2214C18.2846 27.434 18.6399 27.5484 19.0044 27.5484H21.0819C21.5839 27.5484 22.0615 27.3317 22.3923 26.9541L23.6621 25.5043C23.9403 25.1867 24.0936 24.7789 24.0936 24.3566V21.964C23.588 22.095 22.9823 22.177 22.2569 22.177Z" fill="#ADE9F7"/>
    <path d="M16.0317 20.5351V25.34C16.0317 25.6105 15.9014 25.8646 15.6816 26.0224L14.0114 27.2215C13.7153 27.4341 13.36 27.5485 12.9955 27.5485H10.918C10.416 27.5485 9.93837 27.3319 9.60763 26.9542L8.33781 25.5044C8.05962 25.1868 7.90625 24.779 7.90625 24.3567V18.9967C7.90625 18.8223 7.95325 18.651 8.04231 18.501L9.08419 16.7466C9.25912 16.452 9.57631 16.2715 9.91887 16.2715H10.7983C11.201 16.2715 11.564 16.519 11.7052 16.8961C12.0459 17.8059 12.9711 19.4185 15.2976 19.702C15.7174 19.7532 16.0317 20.1122 16.0317 20.5351Z" fill="#6AD9FB"/>
    <path d="M28.5708 20.5859C28.9381 20.3157 29.3842 20.2722 29.7681 20.4062C29.7013 19.3244 28.9038 18.3883 27.7894 18.1913C26.4834 17.9605 25.2376 18.8321 25.0068 20.1381C24.8213 21.1873 25.3478 22.1973 26.2391 22.6737C26.8988 21.8921 27.8094 21.146 28.5708 20.5859Z" fill="#02C0FC"/>
    <path d="M28.0478 23.4875C27.557 22.3289 27.7665 21.4375 28.1167 20.8237C26.9272 21.7528 25.5881 23.0212 25.3895 24.1447C25.1815 25.3219 25.6995 26.7633 26.1204 28.1777C27.1145 27.3015 27.9938 26.2981 28.7335 25.1934C28.56 24.7324 28.3358 24.1673 28.0478 23.4875Z" fill="#ADE9F7"/>
    <path d="M3.42912 20.5859C3.06181 20.3157 2.61575 20.2722 2.23181 20.4062C2.29862 19.3244 3.09606 18.3883 4.21044 18.1913C5.51644 17.9605 6.76225 18.8321 6.99312 20.1381C7.17856 21.1873 6.65212 22.1973 5.76081 22.6737C5.10112 21.8921 4.1905 21.146 3.42912 20.5859Z" fill="#1D8DF2"/>
    <path d="M5.92378 22.7796C5.25759 21.916 4.24265 21.0776 3.4074 20.4631C2.67121 19.9216 1.61871 20.2905 1.38446 21.1738C1.37984 21.1912 1.3759 21.2087 1.37134 21.226C1.83015 22.7065 2.50809 24.0903 3.3664 25.3407C3.67671 22.8433 4.99284 22.6102 5.92378 22.7796Z" fill="#6AD9FB"/>
    <path d="M17.3872 0.180176C16.8258 0.573676 15.9378 1.42418 15.9378 2.86749C15.9378 4.74268 17.774 5.2533 18.2125 5.34836L17.6191 9.03955C17.2698 9.12118 15.6423 9.57305 15.6423 10.8987C15.6423 12.1646 15.8002 13.4743 16.7986 14.0693C17.0918 14.0112 17.3778 13.9224 17.6541 13.8039C18.1399 13.5954 18.515 13.1777 18.693 12.659C19.1779 11.2451 20.0759 10.0965 20.8474 9.30499C21.1248 9.02049 21.3172 8.65511 21.3823 8.25361C21.4675 7.72818 21.5125 7.18211 21.5125 6.62168C21.5125 3.11899 19.7601 0.817801 17.3872 0.180176Z" fill="#E8F8FC"/>
    <path d="M17.5018 0.2125C17.0243 0.0721875 16.5206 0 15.9999 0C12.9554 0 10.4873 2.46481 10.4873 6.62187C10.4873 7.18231 10.5323 7.72838 10.6175 8.25381C10.6826 8.65525 10.8751 9.02063 11.1524 9.30519C11.9239 10.0967 12.8219 11.2453 13.3069 12.6592C13.4848 13.1779 13.8599 13.5956 14.3457 13.8041C14.8679 14.0281 15.4236 14.1489 15.9999 14.1489C16.3198 14.1489 16.6329 14.1104 16.9379 14.039C15.8487 13.4686 15.7361 12.0824 15.7361 10.8989C15.7361 9.48225 17.7016 9.11769 17.7016 9.11769L18.3195 5.27394C18.3195 5.27394 16.0317 4.93019 16.0317 2.86769C16.0317 1.40025 16.9637 0.569813 17.5018 0.2125Z" fill="#ADE9F7"/>
    <path d="M19.5657 3.89525C18.4206 3.77668 17.2259 3.71631 16 3.71631C15.3748 3.71631 14.7281 3.73412 14.0762 3.76906C13.7903 3.92731 13.3214 4.27425 13.3214 4.84812V8.48431C13.3213 8.52418 13.3274 9.43806 14.0874 9.79812C14.0874 9.81006 14.0876 9.82356 14.0879 9.83781C14.3132 9.59643 14.5729 9.45868 14.9032 9.45868H17.0967C17.4129 9.45868 17.698 9.59843 17.8934 9.81918C18.1217 10.0771 18.4637 10.204 18.8071 10.1766C19.012 10.1603 19.215 10.1416 19.417 10.1216C19.1743 9.67925 19.171 9.217 19.1712 9.18625V4.80768C19.1711 4.42012 19.349 4.119 19.5657 3.89525Z" fill="#02C0FC"/>
    <path d="M14.3285 3.76837C14.3285 3.76387 14.3289 3.75987 14.3289 3.75537C13.3454 3.80112 12.3448 3.88787 11.3818 4.02206C10.7451 4.11075 10.2651 4.66162 10.2651 5.30343V8.69818C10.2651 9.34 10.7452 9.89087 11.3818 9.97956C11.9707 10.0616 12.5754 10.1272 13.1928 10.1763C13.5274 10.2029 13.8598 10.0822 14.0878 9.8375C14.1233 9.79943 14.1601 9.765 14.1974 9.73225C14.1975 9.72987 14.1976 9.72775 14.1976 9.72775C13.4269 9.41581 13.4299 8.48437 13.4299 8.48437C13.4299 8.48437 13.4299 5.58962 13.4299 4.84787C13.4299 4.10606 14.3285 3.76837 14.3285 3.76837Z" fill="#1D8DF2"/>
    <path d="M19.0986 9.18625C19.0985 9.21712 19.1019 9.68406 19.3484 10.1286C19.7786 10.0871 20.2024 10.0378 20.6181 9.97987C21.2546 9.89118 21.7347 9.34031 21.7347 8.6985V5.30375C21.7347 4.66193 21.2546 4.11106 20.6181 4.02237C20.2513 3.97131 19.8784 3.92662 19.5002 3.88818C19.2803 4.11268 19.0986 4.41612 19.0986 4.80775V9.18625Z" fill="#2FD0E2"/>
    <path d="M22.9158 16.7466C22.7408 16.452 22.4237 16.2715 22.0811 16.2715H21.2017C20.799 16.2715 20.436 16.519 20.2948 16.8961C20.1032 17.4077 19.7269 18.1414 19.0205 18.7362C19.017 19.8779 19.3384 22.3021 22.132 22.3021C22.9182 22.3021 23.5638 22.206 24.0938 22.0553V18.9967C24.0938 18.8223 24.0468 18.651 23.9577 18.501L22.9158 16.7466Z" fill="#E8F8FC"/>
    <path d="M19.5281 6.19043H18.6694C18.4164 6.19043 18.2112 5.9853 18.2112 5.73218C18.2112 5.47911 18.4164 5.27393 18.6694 5.27393H19.5281C19.7811 5.27393 19.9863 5.47905 19.9863 5.73218C19.9863 5.9853 19.7811 6.19043 19.5281 6.19043Z" fill="#9C58FE"/>
    <path d="M6.61044 24.1449C6.52882 23.6832 6.25407 23.1971 5.87682 22.72C4.94807 22.5458 3.62457 22.7657 3.30701 25.2544C4.03813 26.3353 4.90363 27.3177 5.87957 28.1779C6.30044 26.7634 6.81844 25.322 6.61044 24.1449Z" fill="#ADE9F7"/>
    <path d="M30.6154 21.1738C30.3812 20.2905 29.3287 19.9216 28.5925 20.4631C28.4044 20.6015 28.207 20.7515 28.0067 20.9104C27.6861 21.5203 27.5169 22.3824 27.9852 23.4877C28.2861 24.1977 28.5168 24.7818 28.6933 25.2537C29.5235 24.0263 30.1803 22.6722 30.6285 21.226C30.624 21.2086 30.62 21.1912 30.6154 21.1738Z" fill="#E8F8FC"/>
    <path d="M15.9999 24.8837C16.9921 24.8837 17.7965 24.0793 17.7965 23.0871C17.7965 22.0949 16.9921 21.2905 15.9999 21.2905C15.0077 21.2905 14.2034 22.0949 14.2034 23.0871C14.2034 24.0793 15.0077 24.8837 15.9999 24.8837Z" fill="#9C58FE"/>
</svg>
