<svg width="60" height="60" viewBox="0 0 60 60" fill="none" xmlns="http://www.w3.org/2000/svg">
    <rect width="60" height="60" rx="30" fill="#cbb472"/>
    <path d="M13.3713 23.04H16.1713V31.68C16.1713 32.64 16.4179 33.3667 16.9113 33.86C17.4046 34.3533 18.0979 34.6 18.9913 34.6C19.8979 34.6 20.5979 34.3533 21.0913 33.86C21.5846 33.3667 21.8313 32.64 21.8313 31.68V23.04H24.6513V31.66C24.6513 32.58 24.4979 33.3867 24.1913 34.08C23.8846 34.76 23.4713 35.3267 22.9513 35.78C22.4313 36.2333 21.8246 36.5733 21.1313 36.8C20.4379 37.0267 19.7113 37.14 18.9513 37.14C18.1913 37.14 17.4713 37.0267 16.7913 36.8C16.1113 36.5733 15.5179 36.2333 15.0113 35.78C14.5046 35.3267 14.1046 34.76 13.8113 34.08C13.5179 33.3867 13.3713 32.58 13.3713 31.66V23.04ZM34.7566 27.38C34.7566 26.7533 34.5766 26.26 34.2166 25.9C33.8566 25.54 33.2832 25.36 32.4966 25.36H30.1566V29.46H32.4966C33.2832 29.46 33.8566 29.2733 34.2166 28.9C34.5766 28.5267 34.7566 28.02 34.7566 27.38ZM32.5966 23.04C33.4366 23.04 34.1699 23.1533 34.7966 23.38C35.4232 23.6067 35.9432 23.9133 36.3566 24.3C36.7832 24.6867 37.1032 25.14 37.3166 25.66C37.5299 26.18 37.6366 26.7333 37.6366 27.32C37.6366 27.7467 37.5766 28.1667 37.4566 28.58C37.3366 28.9933 37.1432 29.38 36.8766 29.74C36.6232 30.1 36.2966 30.42 35.8966 30.7C35.4966 30.98 35.0166 31.1933 34.4566 31.34L37.7966 37H34.5566L31.4766 31.56H30.1566V37H27.3566V23.04H32.5966ZM42.9691 23.04V34.78H47.5691V37H40.1691V23.04H42.9691Z" fill="#121017"/>
</svg>
