<svg width="24" height="24" viewBox="0 0 24 24" fill="none" xmlns="http://www.w3.org/2000/svg">
    <rect x="0.25" y="0.25" width="23.5" height="23.5" rx="5.75" stroke="#474747" stroke-width="0.5"/>
    <path d="M7.91365 12.5301V8.70312C7.74732 8.72953 7.57686 8.74344 7.4032 8.74344C7.22968 8.74344 7.05933 8.72957 6.89307 8.70319V12.5305C7.06069 12.5118 7.23087 12.502 7.40334 12.502C7.57512 12.5019 7.74537 12.5116 7.91365 12.5301Z" fill="#474747"/>
    <path d="M11.0004 14.234L14.7825 10.4439C14.5059 10.2422 14.2621 9.99794 14.0609 9.7207L10.2788 13.5108C10.4109 13.6171 10.5383 13.731 10.6598 13.8528C10.7811 13.9744 10.8945 14.1018 11.0004 14.234Z" fill="#474747"/>
    <path d="M15.836 16.6055L11.9803 16.6057C11.9987 16.7744 12.0084 16.945 12.0084 17.1171C12.0084 17.29 11.9985 17.4605 11.98 17.6284L15.8359 17.6282C15.8096 17.4616 15.7958 17.2909 15.7958 17.117C15.7957 16.943 15.8096 16.7721 15.836 16.6055Z" fill="#474747"/>
    <path d="M7.40305 7.71982C8.63368 7.71982 9.6313 6.72009 9.6313 5.48686C9.6313 4.25363 8.63368 3.25391 7.40305 3.25391C6.17243 3.25391 5.1748 4.25363 5.1748 5.48686C5.1748 6.72009 6.17243 7.71982 7.40305 7.71982Z" fill="#474747"/>
    <path d="M16.6897 10.0421C17.9203 10.0421 18.9179 9.04236 18.9179 7.80913C18.9179 6.5759 17.9203 5.57617 16.6897 5.57617C15.459 5.57617 14.4614 6.5759 14.4614 7.80913C14.4614 9.04236 15.459 10.0421 16.6897 10.0421Z" fill="#474747"/>
    <path d="M19.0447 19.3487C20.2753 19.3487 21.2729 18.349 21.2729 17.1158C21.2729 15.8825 20.2753 14.8828 19.0447 14.8828C17.814 14.8828 16.8164 15.8825 16.8164 17.1158C16.8164 18.349 17.814 19.3487 19.0447 19.3487Z" fill="#474747"/>
    <path d="M10.9879 17.1159C10.9879 16.1563 10.615 15.2541 9.93805 14.5757C9.26135 13.8971 8.36114 13.5234 7.40329 13.5234C5.42656 13.5235 3.81836 15.135 3.81836 17.1159C3.81836 19.0967 5.42656 20.7081 7.40329 20.7081C9.37985 20.7081 10.9879 19.0967 10.9879 17.1159Z" fill="#474747"/>
</svg>