<svg width="24" height="24" viewBox="0 0 24 24" fill="none" xmlns="http://www.w3.org/2000/svg">
    <rect width="24" height="24" rx="6" fill="#cbb472"/>
    <path d="M7.9134 12.5301V8.70312C7.74707 8.72953 7.57662 8.74344 7.40296 8.74344C7.22944 8.74344 7.05908 8.72957 6.89282 8.70319V12.5305C7.06045 12.5118 7.23063 12.502 7.40309 12.502C7.57488 12.5019 7.74513 12.5116 7.9134 12.5301Z" fill="#292532"/>
    <path d="M11.0004 14.2345L14.7825 10.4444C14.5059 10.2427 14.2621 9.99842 14.0609 9.72119L10.2788 13.5113C10.4109 13.6176 10.5383 13.7315 10.6598 13.8533C10.7811 13.9749 10.8945 14.1023 11.0004 14.2345Z" fill="#292532"/>
    <path d="M15.8357 16.605L11.98 16.6052C11.9985 16.7739 12.0081 16.9445 12.0081 17.1166C12.0081 17.2895 11.9983 17.46 11.9797 17.6279L15.8357 17.6277C15.8093 17.4611 15.7955 17.2904 15.7955 17.1165C15.7955 16.9425 15.8093 16.7717 15.8357 16.605Z" fill="#292532"/>
    <path d="M7.40281 7.72031C8.63344 7.72031 9.63106 6.72058 9.63106 5.48735C9.63106 4.25412 8.63344 3.25439 7.40281 3.25439C6.17218 3.25439 5.17456 4.25412 5.17456 5.48735C5.17456 6.72058 6.17218 7.72031 7.40281 7.72031Z" fill="#292532"/>
    <path d="M16.6894 10.0435C17.9201 10.0435 18.9177 9.04382 18.9177 7.81059C18.9177 6.57737 17.9201 5.57764 16.6894 5.57764C15.4588 5.57764 14.4612 6.57737 14.4612 7.81059C14.4612 9.04382 15.4588 10.0435 16.6894 10.0435Z" fill="#292532"/>
    <path d="M19.0444 19.3497C20.275 19.3497 21.2727 18.35 21.2727 17.1167C21.2727 15.8835 20.275 14.8838 19.0444 14.8838C17.8138 14.8838 16.8162 15.8835 16.8162 17.1167C16.8162 18.35 17.8138 19.3497 19.0444 19.3497Z" fill="#292532"/>
    <path d="M10.9876 17.1164C10.9876 16.1568 10.6148 15.2546 9.93781 14.5762C9.2611 13.8976 8.3609 13.5239 7.40305 13.5239C5.42632 13.524 3.81812 15.1355 3.81812 17.1164C3.81812 19.0972 5.42632 20.7086 7.40305 20.7086C9.3796 20.7086 10.9876 19.0972 10.9876 17.1164Z" fill="#292532"/>
</svg>
