<svg width="210" height="107" viewBox="0 0 210 107" fill="none" xmlns="http://www.w3.org/2000/svg">
    <g clip-path="url(#clip0_1_2)">
        <path d="M202 0H8C3.58172 0 0 3.58172 0 8V99C0 103.418 3.58172 107 8 107H202C206.418 107 210 103.418 210 99V8C210 3.58172 206.418 0 202 0Z" fill="black" fill-opacity="0.4"/>
        <path d="M107 56H15C12.7909 56 11 57.7909 11 60V93C11 95.2091 12.7909 97 15 97H107C109.209 97 111 95.2091 111 93V60C111 57.7909 109.209 56 107 56Z" fill="black" fill-opacity="0.6"/>
        <path d="M46.4347 69.1577V68.4545H51.3438V69.1577H49.2855V75H48.4929V69.1577H46.4347ZM53.219 72.0469V75H52.4648V68.4545H53.219V70.858H53.2829C53.398 70.6044 53.5706 70.4031 53.8007 70.2539C54.0329 70.1026 54.3419 70.027 54.7275 70.027C55.0621 70.027 55.355 70.0941 55.6064 70.2283C55.8579 70.3604 56.0528 70.5639 56.1913 70.8388C56.3319 71.1115 56.4023 71.4588 56.4023 71.8807V75H55.648V71.9318C55.648 71.5419 55.5468 71.2404 55.3444 71.0273C55.1441 70.8121 54.866 70.7045 54.5102 70.7045C54.2631 70.7045 54.0415 70.7567 53.8454 70.8612C53.6515 70.9656 53.4981 71.1179 53.3852 71.3182C53.2744 71.5185 53.219 71.7614 53.219 72.0469ZM59.2267 75.1151C58.9157 75.1151 58.6333 75.0565 58.3798 74.9393C58.1262 74.82 57.9249 74.6484 57.7757 74.4247C57.6266 74.1989 57.552 73.9261 57.552 73.6065C57.552 73.3253 57.6074 73.0973 57.7182 72.9226C57.829 72.7457 57.9771 72.6072 58.1625 72.5071C58.3478 72.407 58.5524 72.3324 58.7761 72.2834C59.002 72.2322 59.2289 72.1918 59.4569 72.1619C59.7551 72.1236 59.997 72.0948 60.1824 72.0756C60.3699 72.0543 60.5062 72.0192 60.5914 71.9702C60.6788 71.9212 60.7225 71.8359 60.7225 71.7145V71.6889C60.7225 71.3736 60.6362 71.1286 60.4636 70.9538C60.2931 70.7791 60.0343 70.6918 59.687 70.6918C59.3269 70.6918 59.0446 70.7706 58.84 70.9283C58.6355 71.0859 58.4917 71.2543 58.4086 71.4332L57.6926 71.1776C57.8205 70.8793 57.9909 70.647 58.204 70.4808C58.4192 70.3125 58.6536 70.1953 58.9071 70.1293C59.1628 70.0611 59.4142 70.027 59.6614 70.027C59.8191 70.027 60.0002 70.0462 60.2047 70.0845C60.4114 70.1207 60.6106 70.1964 60.8024 70.3114C60.9963 70.4265 61.1571 70.6001 61.285 70.8324C61.4128 71.0646 61.4767 71.3757 61.4767 71.7656V75H60.7225V74.3352H60.6841C60.633 74.4418 60.5478 74.5558 60.4284 74.6772C60.3091 74.7987 60.1504 74.902 59.9522 74.9872C59.7541 75.0724 59.5123 75.1151 59.2267 75.1151ZM59.3418 74.4375C59.6401 74.4375 59.8915 74.3789 60.0961 74.2617C60.3027 74.1445 60.4583 73.9933 60.5627 73.8079C60.6692 73.6225 60.7225 73.4276 60.7225 73.223V72.5327C60.6905 72.571 60.6202 72.6062 60.5115 72.6381C60.405 72.668 60.2814 72.6946 60.1408 72.718C60.0023 72.7393 59.867 72.7585 59.7349 72.7756C59.6049 72.7905 59.4995 72.8033 59.4185 72.8139C59.2225 72.8395 59.0392 72.881 58.8688 72.9386C58.7005 72.994 58.5641 73.0781 58.4597 73.1911C58.3574 73.3018 58.3063 73.4531 58.3063 73.6449C58.3063 73.907 58.4032 74.1051 58.5971 74.2393C58.7931 74.3714 59.0414 74.4375 59.3418 74.4375ZM63.1634 76.8409C63.0356 76.8409 62.9216 76.8303 62.8215 76.8089C62.7213 76.7898 62.6521 76.7706 62.6137 76.7514L62.8055 76.0866C62.9887 76.1335 63.1507 76.1506 63.2913 76.1378C63.4319 76.125 63.5566 76.0621 63.6652 75.9492C63.776 75.8384 63.8772 75.6584 63.9688 75.4091L64.1095 75.0256L62.2941 70.0909H63.1123L64.4674 74.0028H64.5186L65.8737 70.0909H66.6919L64.608 75.7159C64.5143 75.9695 64.3982 76.1793 64.2597 76.3455C64.1212 76.5138 63.9603 76.6385 63.7771 76.7195C63.596 76.8004 63.3914 76.8409 63.1634 76.8409ZM72.0724 75.1023C71.6633 75.1023 71.3021 74.9989 70.9889 74.7923C70.6757 74.5835 70.4307 74.2894 70.2538 73.9102C70.077 73.5288 69.9885 73.0781 69.9885 72.5582C69.9885 72.0426 70.077 71.5952 70.2538 71.2159C70.4307 70.8366 70.6768 70.5437 70.9921 70.337C71.3074 70.1303 71.6718 70.027 72.0851 70.027C72.4047 70.027 72.6572 70.0803 72.8426 70.1868C73.0301 70.2912 73.1729 70.4105 73.2709 70.5447C73.371 70.6768 73.4488 70.7855 73.5042 70.8707H73.5681V68.4545H74.3224V75H73.5937V74.2457H73.5042C73.4488 74.3352 73.3699 74.4482 73.2677 74.5845C73.1654 74.7187 73.0194 74.8391 72.8298 74.9457C72.6402 75.0501 72.3877 75.1023 72.0724 75.1023ZM72.1746 74.4247C72.4772 74.4247 72.7329 74.3459 72.9417 74.1882C73.1505 74.0284 73.3092 73.8079 73.4179 73.5266C73.5265 73.2433 73.5809 72.9162 73.5809 72.5455C73.5809 72.179 73.5276 71.8583 73.4211 71.5835C73.3145 71.3065 73.1569 71.0913 72.9481 70.9379C72.7393 70.7823 72.4814 70.7045 72.1746 70.7045C71.855 70.7045 71.5887 70.7866 71.3756 70.9506C71.1647 71.1126 71.0059 71.3331 70.8994 71.6122C70.795 71.8892 70.7428 72.2003 70.7428 72.5455C70.7428 72.8949 70.7961 73.2124 70.9026 73.4979C71.0113 73.7812 71.1711 74.0071 71.382 74.1754C71.5951 74.3416 71.8593 74.4247 72.1746 74.4247ZM72.213 69.669V69.081H75.0255V69.669H72.213ZM77.8028 75.1023C77.3596 75.1023 76.9708 74.9968 76.6363 74.7859C76.3039 74.5749 76.0439 74.2798 75.8564 73.9006C75.6711 73.5213 75.5784 73.0781 75.5784 72.571C75.5784 72.0597 75.6711 71.6133 75.8564 71.2319C76.0439 70.8505 76.3039 70.5543 76.6363 70.3434C76.9708 70.1325 77.3596 70.027 77.8028 70.027C78.246 70.027 78.6338 70.1325 78.9662 70.3434C79.3007 70.5543 79.5606 70.8505 79.746 71.2319C79.9335 71.6133 80.0273 72.0597 80.0273 72.571C80.0273 73.0781 79.9335 73.5213 79.746 73.9006C79.5606 74.2798 79.3007 74.5749 78.9662 74.7859C78.6338 74.9968 78.246 75.1023 77.8028 75.1023ZM77.8028 74.4247C78.1395 74.4247 78.4165 74.3384 78.6338 74.1658C78.8511 73.9933 79.012 73.7663 79.1164 73.4851C79.2208 73.2038 79.273 72.8991 79.273 72.571C79.273 72.2429 79.2208 71.9371 79.1164 71.6538C79.012 71.3704 78.8511 71.1413 78.6338 70.9666C78.4165 70.7919 78.1395 70.7045 77.8028 70.7045C77.4662 70.7045 77.1892 70.7919 76.9719 70.9666C76.7545 71.1413 76.5937 71.3704 76.4893 71.6538C76.3849 71.9371 76.3327 72.2429 76.3327 72.571C76.3327 72.8991 76.3849 73.2038 76.4893 73.4851C76.5937 73.7663 76.7545 73.9933 76.9719 74.1658C77.1892 74.3384 77.4662 74.4247 77.8028 74.4247ZM78.2375 68.4034L79.452 69.5668H78.6594L77.79 68.7614L76.9335 69.5668H76.1409L77.3554 68.4034H78.2375ZM79.5798 68.9531H79.0429V68.3651C79.2219 68.3523 79.354 68.3288 79.4392 68.2947C79.5244 68.2585 79.567 68.1925 79.567 68.0966C79.567 67.9943 79.5095 67.9219 79.3944 67.8793C79.2815 67.8366 79.1388 67.8153 78.9662 67.8153L78.9917 67.3935C79.3753 67.3935 79.665 67.4585 79.8611 67.5884C80.0571 67.7184 80.1551 67.892 80.1551 68.1094C80.1551 68.3011 80.0954 68.4407 79.9761 68.5281C79.8589 68.6133 79.7268 68.6655 79.5798 68.6847V68.9531ZM81.1786 75V70.0909H81.9329V75H81.1786ZM81.5621 69.2727C81.4151 69.2727 81.2884 69.2227 81.1818 69.1225C81.0774 69.0224 81.0252 68.902 81.0252 68.7614C81.0252 68.6207 81.0774 68.5004 81.1818 68.4002C81.2884 68.3001 81.4151 68.25 81.5621 68.25C81.7092 68.25 81.8349 68.3001 81.9393 68.4002C82.0458 68.5004 82.0991 68.6207 82.0991 68.7614C82.0991 68.902 82.0458 69.0224 81.9393 69.1225C81.8349 69.2227 81.7092 69.2727 81.5621 69.2727ZM50.6662 86.1151C50.3551 86.1151 50.0728 86.0565 49.8192 85.9393C49.5657 85.82 49.3643 85.6484 49.2152 85.4247C49.0661 85.1989 48.9915 84.9261 48.9915 84.6065C48.9915 84.3253 49.0469 84.0973 49.1577 83.9226C49.2685 83.7457 49.4165 83.6072 49.6019 83.5071C49.7873 83.407 49.9918 83.3324 50.2156 83.2834C50.4414 83.2322 50.6683 83.1918 50.8963 83.1619C51.1946 83.1236 51.4364 83.0948 51.6218 83.0756C51.8093 83.0543 51.9457 83.0192 52.0309 82.9702C52.1183 82.9212 52.1619 82.8359 52.1619 82.7145V82.6889C52.1619 82.3736 52.0756 82.1286 51.9031 81.9538C51.7326 81.7791 51.4737 81.6918 51.1264 81.6918C50.7663 81.6918 50.484 81.7706 50.2795 81.9283C50.0749 82.0859 49.9311 82.2543 49.848 82.4332L49.1321 82.1776C49.2599 81.8793 49.4304 81.647 49.6435 81.4808C49.8587 81.3125 50.093 81.1953 50.3466 81.1293C50.6023 81.0611 50.8537 81.027 51.1009 81.027C51.2585 81.027 51.4396 81.0462 51.6442 81.0845C51.8509 81.1207 52.0501 81.1964 52.2418 81.3114C52.4357 81.4265 52.5966 81.6001 52.7244 81.8324C52.8523 82.0646 52.9162 82.3757 52.9162 82.7656V86H52.1619V85.3352H52.1236C52.0724 85.4418 51.9872 85.5558 51.8679 85.6772C51.7486 85.7987 51.5898 85.902 51.3917 85.9872C51.1935 86.0724 50.9517 86.1151 50.6662 86.1151ZM50.7812 85.4375C51.0795 85.4375 51.331 85.3789 51.5355 85.2617C51.7422 85.1445 51.8977 84.9933 52.0021 84.8079C52.1087 84.6225 52.1619 84.4276 52.1619 84.223V83.5327C52.13 83.571 52.0597 83.6062 51.951 83.6381C51.8445 83.668 51.7209 83.6946 51.5803 83.718C51.4418 83.7393 51.3065 83.7585 51.1744 83.7756C51.0444 83.7905 50.9389 83.8033 50.858 83.8139C50.6619 83.8395 50.4787 83.881 50.3082 83.9386C50.1399 83.994 50.0036 84.0781 49.8991 84.1911C49.7969 84.3018 49.7457 84.4531 49.7457 84.6449C49.7457 84.907 49.8427 85.1051 50.0366 85.2393C50.2326 85.3714 50.4808 85.4375 50.7812 85.4375ZM51.4844 80.4261H50.858V79.7358C51.0817 79.723 51.2393 79.6921 51.331 79.6431C51.4247 79.5941 51.4716 79.5185 51.4716 79.4162C51.4716 79.3011 51.4045 79.217 51.2702 79.1637C51.136 79.1104 50.973 79.0838 50.7812 79.0838L50.8068 78.598C51.2479 78.598 51.5813 78.6747 51.8072 78.8281C52.0352 78.9815 52.1491 79.1861 52.1491 79.4418C52.1491 79.6591 52.0799 79.8178 51.9414 79.918C51.8029 80.0181 51.6506 80.081 51.4844 80.1065V80.4261ZM55.0471 83.0469V86H54.2929V81.0909H55.0216V81.858H55.0855C55.2006 81.6087 55.3753 81.4084 55.6096 81.2571C55.844 81.1037 56.1466 81.027 56.5173 81.027C56.8497 81.027 57.1405 81.0952 57.3898 81.2315C57.6391 81.3658 57.833 81.5703 57.9715 81.8452C58.11 82.1179 58.1792 82.4631 58.1792 82.8807V86H57.425V82.9318C57.425 82.5462 57.3248 82.2457 57.1246 82.0305C56.9243 81.8132 56.6494 81.7045 56.3 81.7045C56.0592 81.7045 55.844 81.7567 55.6544 81.8612C55.4669 81.9656 55.3188 82.1179 55.2101 82.3182C55.1015 82.5185 55.0471 82.7614 55.0471 83.0469ZM60.3118 83.0469V86H59.5575V79.4545H60.3118V81.858H60.3757C60.4908 81.6044 60.6634 81.4031 60.8935 81.2539C61.1257 81.1026 61.4347 81.027 61.8203 81.027C62.1548 81.027 62.4478 81.0941 62.6992 81.2283C62.9506 81.3604 63.1456 81.5639 63.2841 81.8388C63.4247 82.1115 63.495 82.4588 63.495 82.8807V86H62.7408V82.9318C62.7408 82.5419 62.6396 82.2404 62.4371 82.0273C62.2369 81.8121 61.9588 81.7045 61.603 81.7045C61.3558 81.7045 61.1342 81.7567 60.9382 81.8612C60.7443 81.9656 60.5909 82.1179 60.478 82.3182C60.3672 82.5185 60.3118 82.7614 60.3118 83.0469Z" fill="white"/>
        <path d="M27.25 72.75C28.2855 72.75 29.125 71.9105 29.125 70.875C29.125 69.8395 28.2855 69 27.25 69C26.2145 69 25.375 69.8395 25.375 70.875C25.375 71.9105 26.2145 72.75 27.25 72.75Z" fill="white"/>
        <path d="M32.275 72.975C31.975 72.675 31.525 72.675 31.225 72.975L27.25 76.95L25.525 75.225C25.225 74.925 24.775 74.925 24.475 75.225L23.5 76.2V81H27.85L27.925 80.925L34.075 74.775L32.275 72.975Z" fill="white"/>
        <path d="M22 81.75V68.25C22 67.875 22.375 67.5 22.75 67.5H36.25C36.625 67.5 37 67.875 37 68.25V72.375C37.45 72.225 37.975 72.075 38.5 72.075V68.25C38.5 66.975 37.525 66 36.25 66H22.75C21.475 66 20.5 66.975 20.5 68.25V81.75C20.5 83.025 21.475 84 22.75 84H26.875L27.175 82.5H22.75C22.3 82.5 22 82.2 22 81.75Z" fill="white"/>
        <path d="M40.675 74.325C39.55 73.2 37.75 73.2 36.625 74.325L36.25 74.7L40.3 78.75L40.675 78.375C41.8 77.25 41.8 75.45 40.675 74.325Z" fill="white"/>
        <path d="M28.975 81.975C28.9 82.05 28.825 82.2 28.75 82.35L28 86.1C27.925 86.325 28 86.625 28.225 86.775C28.375 86.925 28.675 87 28.9 87L32.65 86.25C32.8 86.25 32.95 86.175 33.025 86.025L39.25 79.8L35.2 75.75L28.975 81.975Z" fill="white"/>
        <path d="M196 33L178 15M196 15L178 33.0001" stroke="white" stroke-width="3" stroke-linecap="round" stroke-linejoin="round"/>
    </g>
    <defs>
        <clipPath id="clip0_1_2">
            <rect width="210" height="107" fill="white"/>
        </clipPath>
    </defs>
</svg>
