<svg width="44" height="44" viewBox="0 0 44 44" fill="none" xmlns="http://www.w3.org/2000/svg">
    <path d="M22 44C34.1302 44 44 34.1311 44 22C44 16.1187 41.7128 10.5931 37.5596 6.44039C33.406 2.28719 27.8813 0 22 0C9.86894 0 0 9.86894 0 22C0 27.8813 2.28719 33.4069 6.44039 37.5596C10.5931 41.7128 16.1187 44 22 44ZM22 40.3333C17.7157 40.3333 13.6582 38.8769 10.3931 36.1994L36.1994 10.3931C38.8769 13.6582 40.3333 17.7157 40.3333 22C40.3333 32.1088 32.1088 40.3333 22 40.3333ZM22 3.66667C26.2834 3.66667 30.3418 5.12313 33.606 7.80062L7.80062 33.6069C5.12313 30.3418 3.66667 26.2843 3.66667 22C3.66667 11.8912 11.8912 3.66667 22 3.66667Z" fill="#978f7c"/>
</svg>
