<svg width="20" height="20" viewBox="0 0 20 20" fill="none" xmlns="http://www.w3.org/2000/svg">
    <path d="M14.1971 0H5.8129C2.17108 0 0 2.17 0 5.81V14.18C0 17.83 2.17108 20 5.8129 20H14.1871C17.8289 20 20 17.83 20 14.19V5.81C20.01 2.17 17.8389 0 14.1971 0ZM16.7584 8C16.7584 8.41 16.4182 8.75 16.008 8.75C15.5978 8.75 15.2576 8.41 15.2576 8V5.81L5.8129 15.25H8.00399C8.41419 15.25 8.75436 15.59 8.75436 16C8.75436 16.41 8.41419 16.75 8.00399 16.75H4.00199C3.90194 16.75 3.80189 16.73 3.71185 16.69C3.53176 16.61 3.38169 16.47 3.30165 16.28C3.27163 16.19 3.25162 16.1 3.25162 16V12C3.25162 11.59 3.59179 11.25 4.00199 11.25C4.4122 11.25 4.75237 11.59 4.75237 12V14.19L14.1971 4.75H12.006C11.5958 4.75 11.2556 4.41 11.2556 4C11.2556 3.59 11.5958 3.25 12.006 3.25H16.008C16.108 3.25 16.1981 3.27 16.2981 3.31C16.4782 3.39 16.6283 3.53 16.7083 3.72C16.7383 3.81 16.7584 3.9 16.7584 4V8Z" fill="#cbb472"/>
</svg>
