<svg width="23" height="22" viewBox="0 0 23 22" fill="none" xmlns="http://www.w3.org/2000/svg">
    <rect x="0.5" y="0.0231934" width="22" height="21.9536" rx="6" fill="#cbb472"/>
    <path d="M7.75394 11.4845V7.98389C7.60148 8.00804 7.44523 8.02076 7.28604 8.02076C7.12698 8.02076 6.97082 8.00807 6.81841 7.98395V11.4849C6.97207 11.4679 7.12807 11.4588 7.28616 11.4588C7.44363 11.4588 7.59969 11.4677 7.75394 11.4845Z" fill="#292532"/>
    <path d="M10.5837 13.044L14.0507 9.57703C13.7971 9.39256 13.5736 9.16912 13.3892 8.91553L9.92226 12.3824C10.0434 12.4797 10.1601 12.5839 10.2715 12.6953C10.3827 12.8066 10.4867 12.9231 10.5837 13.044Z" fill="#292532"/>
    <path d="M15.0162 15.2124L11.4818 15.2126C11.4987 15.3669 11.5076 15.523 11.5076 15.6804C11.5076 15.8385 11.4986 15.9945 11.4816 16.1481L15.0162 16.1479C14.992 15.9955 14.9794 15.8394 14.9794 15.6803C14.9793 15.5211 14.992 15.3649 15.0162 15.2124Z" fill="#292532"/>
    <path d="M7.28605 7.08512C8.41413 7.08512 9.32862 6.17064 9.32862 5.04256C9.32862 3.91449 8.41413 3 7.28605 3C6.15798 3 5.24349 3.91449 5.24349 5.04256C5.24349 6.17064 6.15798 7.08512 7.28605 7.08512Z" fill="#292532"/>
    <path d="M15.7987 9.21025C16.9267 9.21025 17.8412 8.29576 17.8412 7.16768C17.8412 6.03961 16.9267 5.12512 15.7987 5.12512C14.6706 5.12512 13.7561 6.03961 13.7561 7.16768C13.7561 8.29576 14.6706 9.21025 15.7987 9.21025Z" fill="#292532"/>
    <path d="M17.9575 17.7228C19.0855 17.7228 20 16.8083 20 15.6803C20 14.5522 19.0855 13.6377 17.9575 13.6377C16.8294 13.6377 15.9149 14.5522 15.9149 15.6803C15.9149 16.8083 16.8294 17.7228 17.9575 17.7228Z" fill="#292532"/>
    <path d="M10.5721 15.6802C10.5721 14.8024 10.2302 13.9772 9.60972 13.3566C8.98941 12.7359 8.16422 12.394 7.28619 12.394C5.47419 12.3941 4 13.8682 4 15.6802C4 17.4921 5.47419 18.9661 7.28619 18.9661C9.09803 18.9661 10.5721 17.4921 10.5721 15.6802Z" fill="#292532"/>
</svg>
