<svg width="32" height="32" viewBox="0 0 32 32" fill="none" xmlns="http://www.w3.org/2000/svg">
<g clip-path="url(#clip0_1131_4462)">
<path d="M29.5 1.75C29.4005 1.75 29.3052 1.78951 29.2348 1.85983C29.1645 1.93016 29.125 2.02554 29.125 2.125V10.875C29.125 10.9745 29.1645 11.0698 29.2348 11.1402C29.3052 11.2105 29.4005 11.25 29.5 11.25C29.5995 11.25 29.6948 11.2105 29.7652 11.1402C29.8355 11.0698 29.875 10.9745 29.875 10.875V2.125C29.875 2.02554 29.8355 1.93016 29.7652 1.85983C29.6948 1.78951 29.5995 1.75 29.5 1.75Z" fill="#263238"/>
<path d="M2.125 2.125V10.875C2.125 10.9745 2.16451 11.0698 2.23483 11.1402C2.30516 11.2105 2.40054 11.25 2.5 11.25C2.59946 11.25 2.69484 11.2105 2.76517 11.1402C2.83549 11.0698 2.875 10.9745 2.875 10.875V2.125C2.875 2.02554 2.83549 1.93016 2.76517 1.85983C2.69484 1.78951 2.59946 1.75 2.5 1.75C2.40054 1.75 2.30516 1.78951 2.23483 1.85983C2.16451 1.93016 2.125 2.02554 2.125 2.125Z" fill="#263238"/>
<path d="M29.5 4.625C30.6736 4.625 31.625 3.6736 31.625 2.5C31.625 1.32639 30.6736 0.375 29.5 0.375C28.3264 0.375 27.375 1.32639 27.375 2.5C27.375 3.6736 28.3264 4.625 29.5 4.625Z" fill="#37474F"/>
<path d="M16 2C7.3545 2 0.375 8.54325 0.375 17.128V22.8388C0.375 24.0418 0.852925 25.1957 1.70364 26.0464C2.55435 26.8971 3.70816 27.375 4.91125 27.375H11.878C11.9853 27.3743 12.0892 27.4123 12.1707 27.4821C12.2521 27.552 12.3056 27.6489 12.3212 27.755C12.3962 28.5129 12.2393 29.2757 11.8713 29.9425C11.778 30.1332 11.7434 30.3473 11.7717 30.5576C11.7999 30.768 11.8898 30.9653 12.0301 31.1247C12.1703 31.2841 12.3546 31.3983 12.5597 31.4531C12.7648 31.5079 12.9815 31.5007 13.1825 31.4325C15.1412 30.756 17.5658 29.5642 19.0308 27.563C19.0721 27.5052 19.1266 27.4581 19.1897 27.4254C19.2528 27.3927 19.3227 27.3755 19.3937 27.375H27.0888C28.2918 27.375 29.4457 26.8971 30.2964 26.0464C31.1471 25.1957 31.625 24.0418 31.625 22.8388V17.128C31.6262 8.54325 24.6455 2 16 2Z" fill="#CFD8DC"/>
<path d="M5.87511 24.125C5.27837 24.125 4.70608 23.888 4.28412 23.466C3.86216 23.0441 3.62511 22.4718 3.62511 21.875V17C3.51311 10.307 9.38861 5.14129 16.0001 5.12504C22.6319 5.10854 28.4894 10.2845 28.3751 17V21.875C28.3751 22.4718 28.1381 23.0441 27.7161 23.466C27.2941 23.888 26.7218 24.125 26.1251 24.125H5.87511Z" fill="#37474F"/>
<path d="M2.5 4.625C3.6736 4.625 4.625 3.6736 4.625 2.5C4.625 1.32639 3.6736 0.375 2.5 0.375C1.32639 0.375 0.375 1.32639 0.375 2.5C0.375 3.6736 1.32639 4.625 2.5 4.625Z" fill="#37474F"/>
<path d="M9.75 15.375C10.7855 15.375 11.625 14.5355 11.625 13.5C11.625 12.4645 10.7855 11.625 9.75 11.625C8.71447 11.625 7.875 12.4645 7.875 13.5C7.875 14.5355 8.71447 15.375 9.75 15.375Z" fill="#03A9F4"/>
<path d="M22.25 15.375C23.2855 15.375 24.125 14.5355 24.125 13.5C24.125 12.4645 23.2855 11.625 22.25 11.625C21.2145 11.625 20.375 12.4645 20.375 13.5C20.375 14.5355 21.2145 15.375 22.25 15.375Z" fill="#03A9F4"/>
<path d="M12.55 17.125C12.4387 17.125 12.3289 17.1497 12.2284 17.1974C12.1279 17.245 12.0393 17.3144 11.9689 17.4006C11.8986 17.4867 11.8482 17.5875 11.8216 17.6955C11.795 17.8035 11.7927 17.916 11.815 18.025C12.0211 18.9819 12.5489 19.8392 13.3104 20.4541C14.0719 21.0691 15.0212 21.4045 16 21.4045C16.9788 21.4045 17.928 21.0691 18.6895 20.4541C19.451 19.8392 19.9788 18.9819 20.185 18.025C20.2072 17.916 20.2049 17.8035 20.1783 17.6955C20.1517 17.5875 20.1014 17.4867 20.031 17.4006C19.9607 17.3144 19.872 17.245 19.7715 17.1974C19.671 17.1497 19.5612 17.125 19.45 17.125H12.55Z" fill="white"/>
<path d="M19.1424 20.03C18.7418 20.4636 18.2558 20.8095 17.715 21.0462C17.1742 21.2828 16.5902 21.405 15.9999 21.405C15.4096 21.405 14.8257 21.2828 14.2848 21.0462C13.744 20.8095 13.258 20.4636 12.8574 20.03C13.2663 19.6106 13.755 19.2773 14.2947 19.0498C14.8344 18.8222 15.4142 18.705 15.9999 18.705C16.5856 18.705 17.1654 18.8222 17.7051 19.0498C18.2448 19.2773 18.7335 19.6106 19.1424 20.03Z" fill="#03A9F4"/>
</g>
<defs>
<clipPath id="clip0_1131_4462">
<rect width="32" height="32" fill="white"/>
</clipPath>
</defs>
</svg>
