<svg width="278" height="163" viewBox="0 0 278 163" fill="none" xmlns="http://www.w3.org/2000/svg">
    <g clip-path="url(#clip0_3467_6313)">
        <path d="M268.189 161.826C263.055 161.826 252.535 162.288 252.423 162.499H225.899L218.136 162.478H148.623L128.323 162.457H74.8048L52.4523 162.436H12.0287C12.0287 162.436 11.9618 162.267 11.828 161.93L11.8057 161.888C11.8057 161.888 11.7834 161.847 11.7834 161.825C11.6942 161.656 -21.8539 94.6301 33.5366 61.5888C55.2093 48.6613 43.7887 22.846 75.8657 7.20854C117.223 -12.9538 128.495 16.3419 177.4 9.25869C219.874 3.10728 239.227 22.6993 236.246 51.8356C234.846 65.522 244.459 76.0127 253.942 77.8938C280.102 83.0852 279.166 113.491 277.026 135.832C275.708 149.605 268.372 161.827 268.19 161.827L268.189 161.826Z" fill="#FFF9E5"/>
        <g opacity="0.5">
            <path d="M207.646 45.9951L205.712 44.8272C205.552 44.7281 205.461 44.5484 205.475 44.3608C205.495 44.1208 205.504 43.8789 205.504 43.635C205.504 43.1803 205.472 42.7363 205.403 42.3039C205.371 42.1018 205.463 41.9016 205.638 41.7977L207.659 40.5754C207.876 40.4471 207.958 40.1702 207.844 39.9409L206.893 37.9996C206.784 37.78 206.53 37.6789 206.301 37.7596L204.258 38.5029C204.061 38.5796 203.836 38.5126 203.704 38.3396C203.142 37.6109 202.463 36.9735 201.697 36.4527C201.512 36.3264 201.436 36.0845 201.512 35.8746L201.966 34.6299C202.049 34.3929 201.946 34.1257 201.719 34.013L199.794 33.0695C199.755 33.0501 199.716 33.0345 199.673 33.0277C199.476 32.9859 199.267 33.0744 199.16 33.2551L198.288 34.7018L198.075 35.0545C197.679 34.9972 197.269 34.9681 196.857 34.9681C196.302 34.9681 195.757 35.0196 195.236 35.1187C195.036 35.1556 194.834 35.0691 194.73 34.8942L193.749 33.2619C193.613 33.0394 193.332 32.9558 193.101 33.0714L191.62 33.8002L191.196 34.01C190.964 34.1237 190.853 34.3948 190.942 34.6377L191.56 36.3488C191.634 36.546 191.575 36.7685 191.412 36.8968C190.931 37.2893 190.493 37.7314 190.108 38.2153C190.071 38.2551 190.041 38.294 190.009 38.3367C189.999 38.3513 189.987 38.3639 189.974 38.3766C189.838 38.5223 189.629 38.5689 189.442 38.4999L187.423 37.7664C187.4 37.7567 187.376 37.7518 187.354 37.7469C187.136 37.7022 186.91 37.8111 186.809 38.0141L185.867 39.9351C185.754 40.1673 185.835 40.4461 186.057 40.5822L188.076 41.7996C188.249 41.9007 188.337 42.0989 188.305 42.2961C188.238 42.7304 188.204 43.1774 188.204 43.635C188.204 43.877 188.214 44.117 188.233 44.354C188.248 44.5464 188.155 44.732 187.989 44.8311L186.046 46.0068C185.832 46.135 185.751 46.409 185.861 46.6364L186.805 48.5554C186.918 48.7876 187.187 48.8984 187.433 48.8099L189.05 48.2221C189.267 48.1434 189.506 48.2221 189.634 48.4125C190.129 49.1656 190.74 49.835 191.44 50.4005C191.608 50.5317 191.672 50.759 191.598 50.9611L190.938 52.7839C190.849 53.0288 190.96 53.2998 191.192 53.4164L193.102 54.357C193.331 54.4707 193.61 54.3871 193.738 54.1695L193.79 54.0859L194.803 52.404C194.912 52.2243 195.116 52.1319 195.323 52.1698H195.326C195.821 52.2583 196.332 52.3059 196.854 52.3059C197.133 52.3059 197.406 52.2913 197.679 52.266C197.87 52.2466 198.052 52.3379 198.151 52.5002L199.147 54.1578C199.282 54.3852 199.57 54.4687 199.805 54.3531L201.713 53.4126C201.767 53.3853 201.813 53.3484 201.853 53.3086C201.979 53.1755 202.026 52.9753 201.962 52.7946L201.464 51.4285C201.405 51.2604 201.44 51.0729 201.551 50.9398C201.58 50.9048 201.615 50.8727 201.654 50.8455C202.615 50.2033 203.437 49.3764 204.075 48.4106C204.181 48.2454 204.378 48.1657 204.568 48.1978C204.595 48.2027 204.622 48.2104 204.649 48.2202L206.283 48.8158C206.52 48.9022 206.783 48.7963 206.897 48.569L206.919 48.5243L207.838 46.6519C207.952 46.4149 207.868 46.1331 207.644 45.9971L207.646 45.9951ZM192.372 42.3029C192.466 41.9696 192.594 41.6315 192.762 41.2924C193.082 40.6482 193.873 39.8505 194.519 39.5318C194.588 39.4968 194.657 39.4648 194.726 39.4327C198.95 37.5312 203.025 41.6879 200.977 45.9232C200.708 46.4761 200.114 47.1261 199.535 47.5284C199.399 47.6197 199.266 47.7013 199.14 47.7606C198.55 48.0472 197.965 48.2153 197.392 48.2794C194.134 48.6428 191.453 45.6414 192.372 42.3029Z" fill="#A1A1A1"/>
        </g>
        <path d="M124.504 36.1875L119.703 33.9566C119.305 33.7671 119.047 33.3697 119.033 32.9296C119.019 32.367 118.981 31.8005 118.919 31.2312C118.805 30.1731 118.617 29.1451 118.348 28.1559C118.222 27.6925 118.384 27.2037 118.766 26.9171L123.165 23.5582C123.639 23.2045 123.758 22.5389 123.436 22.0327L120.73 17.7517C120.422 17.2669 119.805 17.0959 119.292 17.3436L114.72 19.592C114.28 19.8203 113.741 19.7212 113.388 19.353C111.895 17.7984 110.155 16.4857 108.238 15.4655C107.776 15.2187 107.537 14.6746 107.662 14.1664L108.405 11.1524C108.541 10.5791 108.232 9.98352 107.676 9.77656L102.954 8.06649C102.857 8.03054 102.762 8.00625 102.662 7.99944C102.192 7.95183 101.726 8.21126 101.526 8.65821L99.8578 12.2494L99.4534 13.1258C98.5147 13.0937 97.5547 13.1287 96.5956 13.2327C95.3039 13.3726 94.0481 13.632 92.8563 13.9944C92.4005 14.1314 91.9079 13.9808 91.6228 13.599L88.9269 10.0447C88.5555 9.56086 87.8796 9.43649 87.3695 9.76587L84.1025 11.8374L83.1676 12.434C82.6566 12.7575 82.4665 13.4182 82.7342 13.9594L84.6067 17.7896C84.8288 18.2307 84.7473 18.7642 84.4002 19.1042C83.38 20.14 82.4694 21.2807 81.6956 22.5059C81.6199 22.607 81.5608 22.707 81.4968 22.8129C81.4774 22.8499 81.4522 22.8819 81.426 22.914C81.1467 23.2881 80.6706 23.4503 80.2167 23.3367L75.3302 22.1386C75.2759 22.1211 75.2177 22.1163 75.1644 22.1105C74.6475 22.0619 74.1471 22.3718 73.9629 22.8693L72.2542 27.5827C72.0486 28.1521 72.3085 28.7817 72.8593 29.0421L77.868 31.3672C78.2957 31.5596 78.5517 31.9968 78.5274 32.4651C78.4819 33.4941 78.5139 34.5444 78.6293 35.6084C78.6903 36.1719 78.7737 36.7277 78.8794 37.2747C78.9628 37.7197 78.7912 38.1744 78.4314 38.4465L74.2034 41.6762C73.7359 42.0299 73.6157 42.6886 73.9318 43.19L76.6141 47.4205C76.9371 47.9325 77.5907 48.123 78.1424 47.8538L81.7605 46.0758C82.2454 45.8367 82.8224 45.9601 83.1686 46.3711C84.5127 48.0006 86.105 49.4046 87.8777 50.5443C88.3014 50.8066 88.508 51.3197 88.3868 51.8103L87.3074 56.2225C87.162 56.8142 87.4888 57.4186 88.058 57.6304L92.7448 59.3385C93.3072 59.5455 93.9346 59.2793 94.179 58.74L94.2789 58.5311L96.2145 54.3579C96.422 53.911 96.8749 53.6457 97.3666 53.6797H97.3724C98.5487 53.7614 99.7492 53.741 100.966 53.6088C101.615 53.5379 102.248 53.4349 102.88 53.3076C103.317 53.2134 103.764 53.3805 104.035 53.7351L106.772 57.3428C107.145 57.8374 107.838 57.9608 108.354 57.6304L112.56 54.9565C112.68 54.8797 112.78 54.7816 112.861 54.6796C113.12 54.3375 113.179 53.8595 112.984 53.4553L111.48 50.4005C111.3 50.0245 111.333 49.5785 111.558 49.2394C111.618 49.151 111.691 49.0674 111.775 48.9945C113.852 47.2553 115.555 45.1206 116.799 42.71C117.005 42.2981 117.444 42.0639 117.894 42.0901C117.958 42.095 118.023 42.1047 118.089 42.1212L122.045 43.0938C122.619 43.2357 123.206 42.9209 123.413 42.3632L123.454 42.2543L125.123 37.6614C125.328 37.0804 125.061 36.4459 124.505 36.1865L124.504 36.1875ZM87.996 31.4527C88.1298 30.6521 88.3431 29.832 88.6486 29.0013C89.2324 27.4185 90.8741 25.3606 92.2987 24.455C92.4509 24.3569 92.6032 24.2646 92.7564 24.1723C102.117 18.6738 112.654 27.3242 108.951 37.7081C108.464 39.0645 107.244 40.7279 105.997 41.8122C105.704 42.059 105.415 42.2825 105.137 42.4525C103.837 43.2687 102.513 43.808 101.197 44.1024C93.699 45.7726 86.6965 39.4619 87.996 31.4527Z" fill="#A1A1A1"/>
        <path d="M88.8833 70.9311C88.3906 72.2593 87.5353 73.8013 86.6393 74.1841C85.623 74.6184 85.1983 75.2325 85.1983 75.2325L84.3769 74.7554L83.3965 74.1841C83.3965 74.1841 83.4198 74.0753 83.4673 73.8975C83.5148 73.7206 83.5885 73.4738 83.6874 73.2008C83.6874 73.2008 83.988 72.8131 83.8038 72.3263C83.6195 71.8405 83.6564 71.0885 83.9706 70.6299C84.2848 70.1722 84.5883 69.0442 84.7784 69.0772C85.237 69.1559 84.5534 70.7076 84.7493 70.9952C84.9267 71.2556 85.1488 71.1662 85.1895 71.1468C85.1924 71.1448 85.1944 71.1439 85.1973 71.1429C86.4841 70.5764 88.0444 67.5206 88.7349 67.9326C88.9928 68.0871 89.0927 70.3656 88.8823 70.9311H88.8833Z" fill="#FFB27D"/>
        <path d="M84.4323 72.7811L86.044 73.9159C86.1575 73.9966 86.3165 73.9684 86.396 73.8547L90.5242 67.9686C90.6047 67.8549 90.5766 67.6955 90.4631 67.6159L88.8514 66.481C88.7379 66.4004 88.5789 66.4285 88.4994 66.5422L84.3712 72.4284C84.2907 72.542 84.3188 72.7014 84.4323 72.7811Z" fill="#2B478B"/>
        <path d="M85.9081 73.8197L86.8526 74.4853C86.9389 74.5465 87.0602 74.5251 87.1213 74.4387L91.3193 68.4534C91.3804 68.3669 91.359 68.2455 91.2727 68.1843L90.3282 67.5187C90.2419 67.4575 90.1207 67.4789 90.0596 67.5653L85.8616 73.5506C85.8005 73.6371 85.8218 73.7585 85.9081 73.8197Z" fill="#233862"/>
        <path d="M61.3124 64.3347C61.3124 64.3347 69.5125 78.6653 72.4876 81.3023L83.3962 73.1532C83.3962 73.1532 84.9788 73.64 85.6722 75.2315C85.6722 75.2315 79.0479 88.7537 72.5254 89.327C66.003 89.9002 56.8496 73.1192 56.8496 73.1192L61.3124 64.3337V64.3347Z" fill="#233862"/>
        <path d="M42.7546 161.807H38.0165C37.4201 161.482 36.8887 160.739 36.7209 159.631C36.4892 158.102 34.7785 157.268 34.4081 156.017C34.0386 154.766 35.9345 153.006 35.9345 153.006L36.2516 152.596L36.5813 152.17L39.7262 152.913C39.7262 152.913 39.8037 153.663 39.8513 154.619C39.8852 155.309 39.9036 156.105 39.8648 156.804C39.7727 158.471 40.3303 160.269 41.8092 160.593C42.903 160.833 42.8536 161.483 42.7537 161.806L42.7546 161.807Z" fill="#233862"/>
        <path d="M70.2526 161.807H59.4168C58.896 161.169 59.088 158.818 59.1666 158.051C59.1831 157.896 59.1937 157.806 59.1937 157.806C59.1937 157.806 62.8943 154.84 63.4024 157.111C63.4179 157.182 63.4364 157.252 63.4577 157.321C64.0977 159.445 66.9701 160.41 68.6283 160.679C69.7067 160.854 70.1052 161.415 70.2526 161.807Z" fill="#233862"/>
        <path d="M68.1879 101.205C68.1879 101.205 67.6264 108.229 66.966 116.672C66.068 128.141 64.9887 142.227 64.882 144.897C64.6978 149.531 63.9569 156.944 63.9569 156.944C63.9569 156.944 62.2007 158.704 58.6854 157.963C58.6854 157.963 55.5532 147.381 54.6581 136.185C54.6445 136.001 54.63 135.817 54.6164 135.632C53.7843 124.234 52.4897 100.234 52.4897 100.234L68.1879 101.206V101.205Z" fill="#F99746"/>
        <path d="M68.1879 101.205C68.1879 101.205 67.6264 108.229 66.966 116.672L54.6581 136.184C54.6445 136 54.63 135.816 54.6164 135.631C53.7843 124.233 52.4897 100.233 52.4897 100.233L68.1879 101.205Z" fill="#ED7D2B"/>
        <path d="M65.6222 102.04C65.6222 102.04 55.4952 127.476 48.836 139.43C42.1768 151.384 40.0957 154.72 40.0957 154.72C40.0957 154.72 36.2808 153.19 35.9336 152.148C35.9336 152.148 38.4801 129.071 42.939 123.445C45.4584 120.266 48.419 110.726 48.5577 107.391C48.6963 104.055 49.4595 97.4518 49.4595 97.4518L65.6212 102.039L65.6222 102.04Z" fill="#F99746"/>
        <path d="M63.1017 64.9585C59.1442 66.2099 52.2969 62.8325 52.2969 62.8325C52.2969 62.8325 55.946 60.0886 55.755 54.3842L58.8145 56.855L60.8926 58.533C60.8926 58.533 60.8839 59.5222 60.657 61.2565C60.5969 61.7122 60.5222 62.2214 60.4281 62.7762C62.1271 63.7109 63.1017 64.9585 63.1017 64.9585Z" fill="#FFB27D"/>
        <path d="M60.8925 58.5321C60.8925 58.5321 60.8837 59.5212 60.6568 61.2556C58.3537 60.8601 55.7412 57.13 55.7412 57.13C56.9136 56.7909 57.9406 56.7297 58.8143 56.8541L60.8925 58.5321Z" fill="#ED975D"/>
        <path d="M62.1027 58.4388C62.1027 58.4388 55.5656 59.527 54.9528 55.4374C54.3389 51.3478 53.0821 48.7351 57.2297 47.8674C61.3773 46.9998 62.4246 48.4378 62.9599 49.7524C63.4962 51.067 63.7871 58.0502 62.1027 58.4388Z" fill="#FFB27D"/>
        <path d="M68.6252 101.79C68.5059 101.889 68.3682 101.948 68.2092 101.948C66.7235 101.928 62.3898 102.755 58.7232 102.378C55.6316 102.081 52.896 101.163 49.9577 99.8429C49.5679 99.6681 48.6699 99.1871 48.6893 98.7508C48.7029 98.2728 48.7494 97.5781 48.8095 96.7046C49.017 93.6663 49.3797 88.4389 49.0267 82.4099C48.9627 81.2867 48.9298 80.1732 48.9259 79.0772C48.8958 70.9048 50.5134 63.7167 53.7629 61.2847C54.0403 61.0855 55.7451 61.9202 57.3103 62.6936C58.7571 63.4087 60.204 63.4874 61.5703 63.2105L62.9377 64.4211C64.6027 65.9699 66.4258 68.0745 67.2181 71.2711C67.892 73.9907 68.2887 78.8965 68.5059 83.9791C68.6048 86.2829 68.6843 88.606 68.7047 90.8097V90.8884C68.7241 91.107 68.7241 91.346 68.7241 91.5637C68.8036 97.2225 68.7241 101.709 68.6252 101.789V101.79Z" fill="#2B478B"/>
        <path d="M48.8086 96.7056C49.0161 93.6673 49.3788 88.4399 49.0258 82.4109C48.9618 81.2877 48.9288 80.1742 48.925 79.0782C50.2787 75.7873 51.3852 73.401 51.3852 73.401H54.7977C54.7977 73.401 57.2996 90.5221 48.8086 96.7056Z" fill="#233862"/>
        <path d="M31.3289 116.11L45.8828 118.188C47.7767 118.458 49.5474 117.127 49.817 115.23L50.7159 108.91C50.9855 107.013 49.657 105.238 47.7631 104.968L33.2092 102.89C31.3153 102.62 29.5446 103.951 29.275 105.849L28.3761 112.168C28.1065 114.066 29.435 115.84 31.3289 116.11Z" fill="#233862"/>
        <path d="M48.5847 106.851C48.1755 105.825 47.293 105.015 46.1739 104.74C46.1739 104.74 46.172 104.74 46.171 104.74C46.0614 104.714 45.9499 104.691 45.8355 104.675L42.9379 104.262L43.1319 102.898C43.1755 102.594 43.0979 102.29 42.9127 102.043C42.7275 101.796 42.4579 101.636 42.1544 101.593L41.398 101.485L38.3549 101.051L37.806 100.973C37.1777 100.884 36.5919 101.323 36.5037 101.953L36.3097 103.318L31.3078 102.603C29.4071 102.332 27.6296 103.668 27.3581 105.573L26.4494 111.965C26.1789 113.869 27.5123 115.65 29.413 115.922L43.9406 117.996C44.1966 118.033 44.4507 118.04 44.698 118.02H44.7009C45.0985 117.99 45.4806 117.891 45.8345 117.734C46.9022 117.261 47.7129 116.264 47.8904 115.026L48.8 108.633C48.8882 108.01 48.8048 107.401 48.5866 106.853L48.5847 106.851ZM37.2164 102.053C37.2436 101.863 37.3929 101.718 37.5743 101.689C37.616 101.682 37.6586 101.681 37.7033 101.687L38.3491 101.779L40.7444 102.122L42.0496 102.309C42.2843 102.342 42.4482 102.562 42.4152 102.796L42.2213 104.16L37.0225 103.417L37.2164 102.053Z" fill="#2B478B"/>
        <path d="M42.3966 97.2934C42.3966 97.2934 41.6324 98.3136 41.6024 98.7207C41.3968 101.483 42.6565 101.865 39.3952 103.4C39.3952 103.4 38.0027 103.933 37.9794 102.849C37.9561 101.766 38.9462 101.748 38.7649 100.232C38.5564 98.4827 38.5768 98.4661 39.723 97.5528L40.4813 96.2965L42.3975 97.2934H42.3966Z" fill="#FFB27D"/>
        <path d="M40.4525 98.0756C41.6811 98.3155 43.0136 98.2184 43.0136 98.2184C43.0136 98.2184 46.6617 86.9271 47.1311 85.8952C47.6004 84.8633 57.9669 72.6557 57.9669 72.6557L53.6487 61.8279C53.6487 61.8279 42.4366 80.593 41.2981 83.23C39.4168 87.5868 38.7642 97.3565 38.7642 97.3565C38.7642 97.3565 39.4886 97.888 40.4534 98.0765L40.4525 98.0756Z" fill="#2B478B"/>
        <path d="M54.9472 55.0439C54.9472 55.0439 55.6183 54.9312 55.5097 54.0062C55.401 53.0803 55.403 51.8706 56.1536 52.096C56.9051 52.3214 56.942 52.9238 57.2513 52.5721C57.5597 52.2204 57.5655 50.7376 59.8007 50.6347C62.036 50.5317 62.9446 51.3109 63.9832 50.8533C65.0228 50.3956 65.0771 48.8187 65.0771 48.8187C65.0771 48.8187 64.7813 49.3812 64.3352 49.561C64.3352 49.561 66.0691 47.1844 64.0618 45.555C62.0544 43.9255 60.0073 44.9924 58.8446 45.0623C56.2845 45.2178 54.6311 45.3713 53.7952 47.0571C52.9592 48.7429 53.3045 53.4223 54.9462 55.0449L54.9472 55.0439Z" fill="#2B478B"/>
        <path d="M41.1904 98.5089C41.1904 98.5089 41.9264 99.2775 41.9729 99.5971C42.1223 100.624 42.4646 101.067 42.2929 101.179C41.9361 101.411 41.4648 100.651 41.2398 99.9693C41.0148 99.2872 41.1913 98.5089 41.1913 98.5089H41.1904Z" fill="#FFB27D"/>
        <path d="M219.852 48.3125C219.852 48.3125 221.804 48.3125 223.824 49.6047C225.411 50.6201 229.004 55.7581 230.187 58.8148C231.37 61.8716 228.904 63.1949 230.666 64.9497C232.408 66.6831 234.786 71.5733 230.749 73.9752C228.469 75.3316 224.41 71.1371 221.804 70.5453C219.197 69.9526 212.221 75.3374 210.386 73.6448C208.551 71.9523 206.713 69.0432 212.226 65.3607C213.65 64.4095 207.379 63.8148 210.063 56.9979C211.913 52.2991 215.204 48.1803 219.852 48.3134V48.3125Z" fill="#233862"/>
        <path d="M200.02 77.8199C200.02 77.751 201.025 75.6688 200.706 75.5094C200.386 75.3491 199.814 75.3734 199.747 75.7387C199.68 76.1031 200.021 77.8209 200.021 77.8209L200.02 77.8199Z" fill="#FFB27D"/>
        <path d="M215.022 51.9425C215.022 51.9425 219.94 46.9784 223.06 51.5188C223.06 51.5188 224.987 50.9572 225.829 54.9273C226.688 58.9771 225.375 61.4528 223.985 60.692C223.094 60.2043 222.419 61.7666 222.419 61.7666L215.022 51.9425Z" fill="#233862"/>
        <path d="M207.713 89.6981C203.028 87.9686 198.516 79.9362 198.516 79.9362L199.994 78.8994C201.225 80.7028 206.761 84.1666 206.761 84.1666C206.887 82.647 207.071 81.2673 207.297 80.0187C208.834 71.5296 212.35 69.014 213.294 68.4806C213.446 68.3941 213.533 68.3601 213.533 68.3601C213.533 68.3601 213.53 68.4223 213.522 68.5409C213.508 68.7964 213.478 69.3114 213.429 70.0168C213.063 75.2733 211.628 91.1449 207.713 89.6991V89.6981Z" fill="#FFB27D"/>
        <path d="M230.357 98.3661C228.042 93.1649 226.934 91.6949 226.897 90.0586C226.865 88.7644 227.503 87.3682 228.74 83.9451C229.031 83.1387 229.233 82.3089 229.356 81.4704C230.334 74.8701 226.509 67.6479 224.141 67.1621C223.118 66.9144 222.382 64.6913 222.396 60.8494L222.099 60.9077L217.114 61.8968C217.114 61.8968 217.227 63.4689 217.23 64.9497C217.233 66.1837 217.439 67.4828 216.88 67.5002C216.521 67.5333 216.31 67.5547 216.31 67.5547C216.31 67.5547 212.154 73.3388 211.803 78.7177C211.453 84.0967 215.133 86.4344 211.775 97.1836C208.348 108.163 231.635 101.239 230.357 98.3651V98.3661Z" fill="#FFB27D"/>
        <path d="M217.113 61.8968C217.113 61.8968 217.226 63.4689 217.23 64.9497C220.02 64.871 221.494 62.3214 222.098 60.9077L217.113 61.8968Z" fill="#E8945B"/>
        <path d="M222.613 60.3636C222.613 60.3636 224.076 58.0492 224.426 56.07C224.676 54.6572 223.958 49.4201 218.705 50.1741C218.705 50.1741 217.18 50.3247 215.746 51.2954C214.605 52.0668 212.959 53.7332 214.8 58.3028L215.278 59.8467L222.613 60.3636Z" fill="#233862"/>
        <path d="M216.182 63.2989C216.182 63.2989 222.782 63.4077 222.787 59.289C222.792 55.1693 223.646 52.4098 219.432 52.166C215.219 51.9221 214.397 53.4932 214.063 54.8681C213.727 56.2429 214.465 63.1658 216.182 63.2999V63.2989Z" fill="#FFB27D"/>
        <path d="M216.426 52.0649C216.426 52.0649 218.234 56.8978 221.007 57.612C223.781 58.3261 224.983 57.5818 224.983 57.5818C224.983 57.5818 222.856 55.8883 222.414 52.9326C222.414 52.9326 217.79 49.7641 216.426 52.0639V52.0649Z" fill="#233862"/>
        <path d="M216.874 52.4565C216.874 52.4565 215.966 52.9996 215.204 54.1636C214.601 55.0828 214.001 55.899 214.09 57.7188C214.09 57.7188 212.729 54.4337 214.259 52.576C215.881 50.6055 216.874 52.4565 216.874 52.4565Z" fill="#233862"/>
        <path d="M224.512 148.272C222.852 154.891 220.352 159.965 220.352 159.965L218.176 159.814C218.176 159.814 219.244 154.727 219.181 147.852C219.139 143.047 218.545 137.366 216.649 131.944C210.137 113.308 211.19 99.7448 211.19 99.7448L223.437 101.18L224.007 101.247C224.058 106.882 224.203 114.534 224.33 120.517C224.442 125.898 224.541 129.93 224.541 129.93C226.896 135.01 226.04 142.183 224.512 148.274V148.272Z" fill="#163560"/>
        <path d="M238.941 103.89L236.959 104.485C236.959 104.485 230.423 93.6187 229.829 90.7912C229.635 89.8711 229.16 88.0289 228.605 85.9651C227.457 81.6909 225.976 76.4616 225.976 76.4616L225.488 74.3444L223.824 67.1252C223.824 67.1252 227.01 67.4517 228.874 68.2319C229.49 68.4894 229.962 68.7974 230.126 69.1588C231.495 72.1748 232.861 79.7865 233.822 85.216C234.358 88.2426 234.766 90.5911 234.979 91.0886C235.574 92.477 237.389 100.119 238.941 103.889V103.89Z" fill="#FFB27D"/>
        <path d="M231.539 147.215C230.834 154.745 227.733 159.614 227.733 159.614L226.694 160.372C226.694 160.372 225.709 155.067 225.013 148.755C224.35 142.756 223.44 136.407 222.411 134.47C218.327 126.785 217.097 97.7763 217.097 97.7763L229.515 97.1593C230.764 99.2629 231.308 102.713 231.437 106.636C231.764 116.536 229.441 129.446 229.094 131.313C229.094 131.314 229.094 131.315 229.093 131.318C229.066 131.463 229.107 131.605 229.174 131.735C231.644 136.635 232.002 142.241 231.539 147.215Z" fill="#1C468A"/>
        <path d="M231.913 102.12C231.934 102.54 231.912 102.875 231.836 103.114C231.572 103.947 230.665 104.327 228.471 104.1C227.13 103.96 226.533 101.708 226.266 99.7876C225.461 102.535 224.333 104.077 222.876 104.402C220.749 104.876 210.022 106.183 209.32 101.073C208.548 95.4531 210.86 85.5026 210.987 80.1383C210.672 78.2358 210.564 76.585 210.598 75.1664C210.687 71.345 211.917 69.1238 212.777 68.262C214.298 67.6819 216.71 67.509 216.701 67.5236C216.519 67.8491 215.905 69.7311 216.006 70.6921C216.323 73.6759 219.396 73.3543 222.097 71.549C224.093 70.216 225.222 67.3108 225.222 67.3108C225.222 67.3108 229.207 67.6363 230.142 69.1656C231.929 72.0922 233.325 79.8691 234.443 85.3384C231.733 86.8347 229.364 86.3897 228.629 86.1915C229.59 92.4896 231.768 99.2512 231.912 102.12H231.913Z" fill="#F99746"/>
        <path d="M199.993 78.8994C199.993 78.6954 200.164 75.7416 199.639 75.1208C199.114 74.4999 198.043 73.6176 197.705 73.6448C197.369 73.6721 196.05 75.4268 196.447 76.7716C196.843 78.1163 198.515 79.9362 198.515 79.9362L199.993 78.8994Z" fill="#FFB27D"/>
        <path d="M202.4 75.2859L199.345 76.2032C199.244 76.2333 199.136 76.1759 199.106 76.0739L197.36 70.2373C197.329 70.1353 197.387 70.0284 197.489 69.9983L200.543 69.0811C200.645 69.051 200.752 69.1083 200.782 69.2103L202.527 75.0469C202.557 75.1489 202.5 75.2558 202.398 75.2859H202.4Z" fill="#F1A34F"/>
        <path d="M201.606 75.524L198.834 76.3557C198.655 76.4101 198.465 76.3071 198.412 76.1274L196.75 70.5745C196.696 70.3947 196.799 70.2043 196.978 70.1509L199.75 69.3182C199.929 69.2638 200.119 69.3668 200.173 69.5465L201.834 75.0994C201.888 75.2791 201.785 75.4696 201.606 75.523V75.524Z" fill="#D86713"/>
        <path d="M221.605 161.793H220.216C219.75 161.719 219.407 161.585 218.929 161.522C218.204 161.427 217.87 161.724 217.804 161.793C217.795 161.802 217.791 161.807 217.791 161.807H211.889C211.74 161.594 211.883 161.102 212.022 160.74C212.116 160.494 212.321 160.308 212.575 160.234C213.201 160.052 214.435 159.891 215.565 158.866C216.201 158.291 218.635 156.75 218.635 156.75L218.648 156.747C218.701 156.747 218.956 156.826 220.063 157.763C220.635 158.246 221.61 157.08 221.61 157.08C221.61 157.08 221.794 157.232 221.93 157.514C222.04 157.738 222.12 158.044 222.057 158.423C221.969 158.955 222.253 159.946 222.48 160.616C222.618 161.022 222.733 161.309 222.733 161.309C222.733 161.309 222.799 161.644 221.604 161.793H221.605Z" fill="#1A2D4C"/>
        <path d="M221.931 157.514C221.6 157.748 220.9 158.21 220.435 158.27C219.809 158.353 218.635 156.749 218.635 156.749L218.648 156.746C218.701 156.746 218.956 156.825 220.063 157.762C220.635 158.245 221.61 157.079 221.61 157.079C221.61 157.079 221.794 157.23 221.93 157.513L221.931 157.514Z" fill="#466AA5"/>
        <path d="M221.605 161.793H220.216C219.75 161.719 219.407 161.585 218.929 161.522C218.204 161.427 217.87 161.724 217.804 161.793C217.795 161.802 217.791 161.807 217.791 161.807H211.889C211.74 161.594 211.883 161.102 212.022 160.74C212.202 160.581 212.252 161.434 212.351 161.57C212.45 161.706 217.167 161.619 217.438 161.421C217.711 161.223 218.527 160.875 219.667 161.148C220.658 161.385 222.119 160.777 222.481 160.616C222.619 161.022 222.734 161.309 222.734 161.309C222.734 161.309 222.8 161.644 221.605 161.793Z" fill="#3B6096"/>
        <path d="M229.02 161.793H227.631C227.165 161.719 226.822 161.585 226.344 161.522C225.619 161.427 225.285 161.724 225.219 161.793C225.21 161.802 225.206 161.807 225.206 161.807H219.304C219.155 161.594 219.298 161.102 219.437 160.74C219.532 160.494 219.736 160.308 219.99 160.234C220.616 160.052 221.85 159.891 222.98 158.866C223.616 158.291 226.05 156.75 226.05 156.75L226.063 156.747C226.116 156.747 226.371 156.826 227.478 157.763C228.05 158.246 229.025 157.08 229.025 157.08C229.025 157.08 229.209 157.232 229.345 157.514C229.455 157.738 229.535 158.044 229.472 158.423C229.384 158.955 229.668 159.946 229.895 160.616C230.033 161.022 230.148 161.309 230.148 161.309C230.148 161.309 230.214 161.644 229.019 161.793H229.02Z" fill="#233862"/>
        <path d="M229.346 157.514C229.015 157.748 228.315 158.21 227.85 158.27C227.223 158.353 226.05 156.749 226.05 156.749L226.063 156.746C226.116 156.746 226.371 156.825 227.478 157.762C228.05 158.245 229.025 157.079 229.025 157.079C229.025 157.079 229.209 157.23 229.345 157.513L229.346 157.514Z" fill="#466AA5"/>
        <path d="M229.02 161.793H227.631C227.165 161.719 226.822 161.585 226.344 161.522C225.619 161.427 225.285 161.724 225.219 161.793C225.21 161.802 225.206 161.807 225.206 161.807H219.304C219.155 161.594 219.298 161.102 219.437 160.74C219.617 160.581 219.667 161.434 219.766 161.57C219.865 161.706 224.581 161.619 224.853 161.421C225.126 161.223 225.942 160.875 227.082 161.148C228.073 161.385 229.534 160.777 229.895 160.616C230.033 161.022 230.148 161.309 230.148 161.309C230.148 161.309 230.214 161.644 229.019 161.793H229.02Z" fill="#466AA5"/>
        <path d="M231.913 102.12C230.407 99.7429 229.524 96.8659 228.345 93.5711C225.308 85.0829 225.767 80.4434 226.505 80.2733C227.242 80.1033 228.631 86.1915 228.631 86.1915C229.592 92.4896 231.77 99.2512 231.914 102.12H231.913Z" fill="#EF7E29"/>
        <path d="M211.642 81.1604C211.403 81.1468 211.172 81.1109 210.948 81.0555C210.898 81.0429 210.846 81.0293 210.796 81.0147C210.197 80.8427 209.653 80.5395 209.189 80.2063C208.182 79.4844 207.065 78.2455 207.065 78.2455C209.03 69.4814 212.778 68.262 212.778 68.262C212.778 68.262 213.974 81.2838 211.643 81.1595L211.642 81.1604Z" fill="#F99746"/>
        <path d="M197.391 73.8712C197.391 73.8712 198.663 71.9095 198.974 72.0193C199.418 72.1748 197.821 74.6641 197.821 74.6641C197.821 74.6641 199.005 72.8044 199.189 72.9443C199.61 73.263 198.94 74.4319 198.275 75.3277C198.275 75.3277 199.464 74.2356 199.503 74.4319C199.639 75.1208 198.197 76.79 198.197 76.79L197.391 74.9449V73.8712Z" fill="#FFB27D"/>
        <path d="M196.437 75.6921C196.498 75.4521 196.809 70.7688 196.942 71.2129C197.075 71.6569 197.391 74.1132 197.391 74.1132L196.437 75.6921Z" fill="#FFB27D"/>
        <path d="M225.275 77.9084L227.705 86.7609C227.705 86.7609 232.768 87.1107 234.444 85.3384L231.381 77.4566L225.275 77.9074V77.9084Z" fill="#F99746"/>
        <path d="M210.948 81.0555C210.898 81.0428 210.846 81.0292 210.796 81.0147C210.197 80.8427 209.653 80.5395 209.189 80.2063C209.309 79.9381 209.501 79.6097 209.787 79.3425C210.38 78.7887 210.871 76.5325 211.076 76.7171C211.28 76.9018 210.948 81.0545 210.948 81.0545V81.0555Z" fill="#EF7E29"/>
        <path d="M238.941 103.89C238.941 103.89 241.331 105.482 241.697 106.154C242.062 106.825 242.915 109.296 242.915 109.296C242.915 109.296 242.306 109.387 241.697 108.319C241.088 107.252 239.078 107.343 238.408 106.764C237.738 106.184 236.959 104.485 236.959 104.485L238.941 103.89Z" fill="#FFB27D"/>
        <path d="M237.218 105.011C237.218 105.011 237.616 106.886 238.103 107.435C238.589 107.984 239.26 108.9 239.534 108.656C239.808 108.412 239.23 106.367 239.23 106.367L237.218 105.011Z" fill="#FFB27D"/>
        <path d="M241.361 106.367C241.422 106.459 243.523 108.696 243.523 108.696C243.523 108.696 242.762 109.042 242.548 108.696C242.335 108.351 241.36 106.367 241.36 106.367H241.361Z" fill="#FFB27D"/>
        <path d="M178.338 29.114V153.481C178.338 157.567 175.033 160.879 170.956 160.879H106.071C101.993 160.879 98.6875 157.568 98.6875 153.481V29.114C98.6875 25.0292 101.992 21.7179 106.071 21.7179H170.956C175.033 21.7179 178.338 25.0292 178.338 29.114Z" fill="white"/>
        <path d="M172.144 82.7354C172.144 89.4494 170.185 95.7038 166.808 100.956C165.704 102.672 164.448 104.282 163.06 105.765C161.597 107.331 159.986 108.757 158.25 110.019C158.091 110.135 157.93 110.25 157.768 110.362C152.315 114.185 145.676 116.428 138.517 116.428C133.566 116.428 128.865 115.355 124.632 113.431C124.108 113.192 123.592 112.941 123.082 112.675C121.898 112.063 120.756 111.381 119.661 110.636C118.405 109.783 117.21 108.846 116.084 107.834C109.214 101.667 104.892 92.7073 104.892 82.7374C104.892 64.1306 119.946 49.047 138.517 49.047C157.089 49.047 172.143 64.1306 172.143 82.7374L172.144 82.7354Z" fill="#F9DDBF"/>
        <path d="M166.807 100.956C165.704 102.672 164.448 104.282 163.06 105.765C161.597 107.331 159.986 108.757 158.249 110.019C158.09 110.135 157.929 110.25 157.767 110.362C153.77 109.581 148.92 104.475 144.807 102.325C144.073 101.942 143.363 101.653 142.685 101.499C140.3 100.956 136.13 102.851 131.908 104.813C129.39 105.983 126.851 107.176 124.661 107.89C124.641 107.897 124.623 107.904 124.603 107.909C122.629 108.548 120.94 108.792 119.805 108.272C119.582 108.171 119.38 108.038 119.203 107.873C118.456 107.184 117.708 106.396 117.079 105.517C114.526 101.96 113.895 96.9086 122.989 90.834C125.916 88.8791 112.665 89.5271 118.184 75.5055C121.989 65.8407 129.111 55.4977 138.67 55.7726C138.67 55.7726 142.685 55.7726 146.84 58.431C150.106 60.5191 154.771 70.0216 157.204 76.3081C159.637 82.5955 154.881 86.5802 158.719 89.9605C162.721 93.4856 166.058 97.3361 166.806 100.955L166.807 100.956Z" fill="#233862"/>
        <path d="M128.75 63.2076C128.75 63.2076 138.866 52.9986 145.282 62.336C145.282 62.336 149.244 61.1817 150.975 69.3454C152.742 77.6752 150.042 82.7665 147.184 81.2022C145.351 80.1985 143.963 83.4136 143.963 83.4136L128.75 63.2085V63.2076Z" fill="#233862"/>
        <path d="M158.249 110.019C158.09 110.135 157.929 110.25 157.767 110.362C152.314 114.185 145.676 116.428 138.517 116.428C133.565 116.428 128.864 115.355 124.631 113.431C124.108 113.192 123.592 112.941 123.082 112.675C123.5 111.087 124.024 109.526 124.606 108.03C124.624 107.982 124.642 107.937 124.66 107.891C127.416 100.857 131.397 95.3181 131.397 95.3181C131.397 95.3181 131.404 95.3171 131.417 95.3171C131.423 95.3161 131.428 95.3161 131.437 95.3142C131.447 95.3132 131.459 95.3113 131.473 95.3103H131.477C131.487 95.3093 131.502 95.3074 131.516 95.3064C131.535 95.3035 131.552 95.3025 131.574 95.3006C131.629 95.2967 131.699 95.2899 131.778 95.2802C131.803 95.2773 131.827 95.2743 131.852 95.2734C131.874 95.2724 131.895 95.2695 131.916 95.2675C131.938 95.2646 131.958 95.2637 131.978 95.2617C131.993 95.2607 132.008 95.2588 132.025 95.2578C132.044 95.2569 132.06 95.2549 132.075 95.2539C132.22 95.2403 132.386 95.2248 132.57 95.2083C133.848 94.9935 133.298 92.5003 133.291 89.9624C133.29 89.3911 133.28 88.814 133.266 88.2514C133.263 88.1581 133.26 88.0658 133.257 87.9725C133.256 87.888 133.253 87.8044 133.25 87.7228C133.247 87.649 133.246 87.5771 133.243 87.5061C133.243 87.478 133.242 87.4508 133.241 87.4245C133.235 87.2438 133.228 87.0679 133.221 86.895C133.215 86.7502 133.21 86.6103 133.205 86.4743C133.176 85.8194 133.145 85.2364 133.118 84.7749C133.115 84.7224 133.113 84.6709 133.11 84.6214C133.109 84.6155 133.109 84.6117 133.109 84.6078C133.108 84.5757 133.106 84.5456 133.103 84.5145C133.099 84.4397 133.093 84.3688 133.089 84.3037C133.086 84.256 133.083 84.2133 133.081 84.1715C133.078 84.1161 133.075 84.0637 133.071 84.016C133.071 84.0083 133.071 84.0005 133.07 83.9937C133.066 83.9199 133.061 83.8596 133.059 83.811C133.058 83.7945 133.056 83.779 133.055 83.7654C133.051 83.711 133.049 83.6838 133.049 83.6838L142.721 81.7648L143.304 81.6492L143.913 81.5287V81.5355C143.91 82.1738 143.921 82.7908 143.942 83.3864C144.175 90.149 145.803 94.0686 147.048 94.397C147.516 94.636 148.564 94.7701 149.576 94.8896C150.64 95.013 151.664 95.1199 151.942 95.3103C154.889 97.3138 157.271 103.059 158.248 110.021L158.249 110.019Z" fill="#FFE4D1"/>
        <path d="M133.051 83.6818C133.051 83.6818 133.284 86.9144 133.291 89.9605C139.028 89.7982 142.062 84.5543 143.304 81.6472L133.051 83.6818Z" fill="#E8945B"/>
        <path d="M144.363 80.5298C144.363 80.5298 147.369 75.7698 148.091 71.6996C148.606 68.7935 147.129 58.0229 136.326 59.5737C136.326 59.5737 133.189 59.8836 130.239 61.8794C127.894 63.467 124.509 66.893 128.294 76.2925L129.277 79.4678L144.364 80.5298H144.363Z" fill="#233862"/>
        <path d="M131.136 86.5656C131.136 86.5656 144.71 86.79 144.72 78.3174C144.729 69.8448 146.487 64.1685 137.821 63.6672C129.154 63.1658 127.467 66.3965 126.778 69.2239C126.088 72.0514 127.606 86.2887 131.137 86.5656H131.136Z" fill="#FFE4D1"/>
        <path d="M131.638 63.4602C131.638 63.4602 135.355 73.4 141.059 74.8691C146.763 76.3392 149.237 74.8079 149.237 74.8079C149.237 74.8079 144.861 71.3256 143.953 65.2461C143.953 65.2461 134.441 58.7293 131.638 63.4602Z" fill="#233862"/>
        <path d="M132.559 64.2666C132.559 64.2666 130.69 65.384 129.123 67.7781C127.884 69.6689 126.65 71.3469 126.834 75.0906C126.834 75.0906 124.033 68.3349 127.181 64.5125C130.518 60.4598 132.56 64.2657 132.56 64.2657L132.559 64.2666Z" fill="#233862"/>
        <path d="M159.85 98.6323C157.426 95.3929 149.579 94.8837 149.579 94.8837C149.579 94.8837 149.579 94.8847 149.578 94.8876C149.52 95.0431 147.88 99.4096 144.808 102.325C144.339 102.769 143.838 103.18 143.306 103.536C138.937 106.454 134.096 107.488 131.909 104.814C131.315 104.087 130.916 103.085 130.777 101.773C130.567 99.7953 131.832 95.9244 132.204 95.2559C132.21 95.2471 132.156 95.2491 132.077 95.253C132.061 95.2539 132.045 95.2559 132.027 95.2569C132.011 95.2578 131.995 95.2598 131.98 95.2607C131.96 95.2617 131.94 95.2637 131.918 95.2666C131.898 95.2675 131.876 95.2705 131.854 95.2724C131.829 95.2734 131.805 95.2763 131.78 95.2792C131.708 95.285 131.637 95.2928 131.576 95.2996C131.555 95.3006 131.537 95.3025 131.518 95.3054C131.503 95.3064 131.489 95.3083 131.479 95.3093H131.475C131.461 95.3103 131.45 95.3122 131.439 95.3132C131.43 95.3142 131.425 95.3142 131.419 95.3161C131.406 95.3161 131.399 95.3171 131.399 95.3171C129.38 95.5833 125.329 96.0244 123.909 96.9349H123.908C123.826 96.9776 120.237 98.8548 117.081 105.517C116.743 106.231 116.409 107.002 116.085 107.832C117.211 108.844 118.406 109.781 119.661 110.634C120.756 111.379 121.9 112.061 123.083 112.673C123.592 112.939 124.109 113.191 124.632 113.429C128.865 115.353 133.566 116.426 138.518 116.426C145.677 116.426 152.315 114.183 157.768 110.36C157.93 110.249 158.091 110.134 158.25 110.017C159.987 108.755 161.597 107.329 163.061 105.763C162.118 102.752 161.063 100.251 159.851 98.6304L159.85 98.6323Z" fill="#FFD24A"/>
        <g opacity="0.5">
            <path d="M127.983 69.7331C127.983 69.3201 128.317 68.9849 128.73 68.9849C129.142 68.9849 129.476 69.3201 129.476 69.7331C129.476 70.146 129.142 70.4812 128.73 70.4812C128.317 70.4812 127.983 70.146 127.983 69.7331Z" fill="white"/>
            <path d="M127.983 79.5961C127.983 79.1831 128.317 78.8479 128.73 78.8479C129.142 78.8479 129.476 79.1831 129.476 79.5961C129.476 80.009 129.142 80.3442 128.73 80.3442C128.317 80.3442 127.983 80.009 127.983 79.5961Z" fill="white"/>
            <path d="M127.983 74.8438C127.983 74.4309 128.317 74.0957 128.73 74.0957C129.142 74.0957 129.476 74.4309 129.476 74.8438C129.476 75.2568 129.142 75.592 128.73 75.592C128.317 75.592 127.983 75.2568 127.983 74.8438Z" fill="white"/>
            <path d="M122.463 74.8438C122.463 74.4309 122.798 74.0957 123.21 74.0957C123.622 74.0957 123.957 74.4309 123.957 74.8438C123.957 75.2568 123.622 75.592 123.21 75.592C122.798 75.592 122.463 75.2568 122.463 74.8438Z" fill="white"/>
            <path d="M134.069 69.7331C134.069 69.3201 134.404 68.9849 134.816 68.9849C135.228 68.9849 135.563 69.3201 135.563 69.7331C135.563 70.146 135.228 70.4812 134.816 70.4812C134.404 70.4812 134.069 70.146 134.069 69.7331Z" fill="white"/>
            <path d="M134.069 74.8438C134.069 74.4309 134.404 74.0957 134.816 74.0957C135.228 74.0957 135.563 74.4309 135.563 74.8438C135.563 75.2568 135.228 75.592 134.816 75.592C134.404 75.592 134.069 75.2568 134.069 74.8438Z" fill="white"/>
            <path d="M134.069 79.5961C134.069 79.1831 134.404 78.8479 134.816 78.8479C135.228 78.8479 135.563 79.1831 135.563 79.5961C135.563 80.009 135.228 80.3442 134.816 80.3442C134.404 80.3442 134.069 80.009 134.069 79.5961Z" fill="white"/>
            <path d="M134.069 84.633C134.069 84.2201 134.404 83.8849 134.816 83.8849C135.228 83.8849 135.563 84.2201 135.563 84.633C135.563 85.046 135.228 85.3812 134.816 85.3812C134.404 85.3812 134.069 85.046 134.069 84.633Z" fill="white"/>
            <path d="M140.392 74.8438C140.392 74.4309 140.727 74.0957 141.139 74.0957C141.551 74.0957 141.885 74.4309 141.885 74.8438C141.885 75.2568 141.551 75.592 141.139 75.592C140.727 75.592 140.392 75.2568 140.392 74.8438Z" fill="white"/>
            <path d="M144.896 74.8438C144.896 74.4309 145.23 74.0957 145.642 74.0957C146.054 74.0957 146.389 74.4309 146.389 74.8438C146.389 75.2568 146.054 75.592 145.642 75.592C145.23 75.592 144.896 75.2568 144.896 74.8438Z" fill="white"/>
            <path d="M140.392 79.5961C140.392 79.1831 140.727 78.8479 141.139 78.8479C141.551 78.8479 141.885 79.1831 141.885 79.5961C141.885 80.009 141.551 80.3442 141.139 80.3442C140.727 80.3442 140.392 80.009 140.392 79.5961Z" fill="white"/>
            <path d="M134.069 64.6223C134.069 64.2093 134.404 63.8741 134.816 63.8741C135.228 63.8741 135.563 64.2093 135.563 64.6223C135.563 65.0352 135.228 65.3704 134.816 65.3704C134.404 65.3704 134.069 65.0352 134.069 64.6223Z" fill="white"/>
            <path d="M140.154 69.7331C140.154 69.3201 140.489 68.9849 140.901 68.9849C141.313 68.9849 141.648 69.3201 141.648 69.7331C141.648 70.146 141.313 70.4812 140.901 70.4812C140.489 70.4812 140.154 70.146 140.154 69.7331Z" fill="white"/>
            <path d="M128.633 79.7943V69.7331H128.826V79.3979L134.718 74.7962V64.6223H134.912V74.8914L128.633 79.7943Z" fill="white"/>
            <path d="M134.814 84.7574L128.46 79.4989H134.718V74.941H128.463L134.814 69.6077L141.235 74.7972V79.3532L145.509 74.8429L140.834 69.803L134.815 64.7486L128.791 69.8069L123.353 74.8419L128.472 79.3687L128.344 79.5145L123.065 74.8458L128.664 69.6621L134.815 64.496L140.972 69.667L145.775 74.8448L141.235 79.635V79.6933H141.172L134.814 84.7574ZM128.998 79.6933L134.816 84.5087L140.861 79.6933H128.998ZM134.912 79.4989H141.041V74.8895L134.816 69.8574L128.994 74.7457H134.911V79.498L134.912 79.4989Z" fill="white"/>
            <path d="M134.912 84.633H134.718V79.5475L140.664 75.0799L140.781 75.2354L134.912 79.6447V84.633Z" fill="white"/>
            <path d="M128.201 74.7467H123.678V74.941H128.201V74.7467Z" fill="white"/>
            <path d="M140.722 74.7467H135.562V74.941H140.722V74.7467Z" fill="white"/>
            <path d="M141.232 74.5358L140.813 69.8302H129.048V69.6359H140.989L141.425 74.5183L141.232 74.5358Z" fill="white"/>
            <path d="M141.08 79.6738L134.66 74.8487L140.839 69.6592L140.963 69.8079L134.971 74.84L141.197 79.5184L141.08 79.6738Z" fill="white"/>
            <path d="M128.785 69.6451L128.665 69.7978L134.751 74.5913L134.871 74.4386L128.785 69.6451Z" fill="white"/>
            <path d="M145.887 74.7467H141.139V74.941H145.887V74.7467Z" fill="white"/>
        </g>
        <path d="M116.516 66.0525H114.882V61.0447H120.326V62.6809H116.516V66.0525Z" fill="white"/>
        <path d="M161.071 66.276H159.437V62.4575H156.073V60.8212H161.071V66.276Z" fill="white"/>
        <path d="M161.072 98.1484H155.627V96.5112H159.438V93.1406H161.072V98.1484Z" fill="white"/>
        <path d="M119.88 98.3709H114.882V92.9172H116.516V96.7347H119.88V98.3709Z" fill="white"/>
        <path d="M166.918 149.443V160.474C166.918 160.609 166.915 160.745 166.909 160.878H110.537C110.531 160.744 110.528 160.609 110.528 160.474V149.443C110.528 144.412 113.77 140.294 117.731 140.294H159.714C163.675 140.294 166.917 144.411 166.917 149.443H166.918Z" fill="#FFD24A"/>
        <path d="M170.955 161.807H106.069C101.487 161.807 97.7593 158.072 97.7593 153.481V29.114C97.7593 24.523 101.487 20.7881 106.069 20.7881H170.955C175.537 20.7881 179.265 24.523 179.265 29.114V153.481C179.265 158.072 175.537 161.807 170.955 161.807ZM106.07 22.6449C102.51 22.6449 99.6134 25.5471 99.6134 29.114V153.481C99.6134 157.048 102.51 159.95 106.07 159.95H170.956C174.516 159.95 177.413 157.048 177.413 153.481V29.114C177.413 25.5471 174.516 22.6449 170.956 22.6449H106.07Z" fill="#2B478B"/>
        <path d="M138.395 153.405L134.767 150.15L135.786 149.009L138.13 151.111L141.373 146.462L142.626 147.34L138.395 153.405Z" fill="#2A2A2A"/>
        <path d="M138.697 156.853C134.89 156.853 131.792 153.749 131.792 149.934C131.792 146.118 134.889 143.015 138.697 143.015C142.505 143.015 145.603 146.118 145.603 149.934C145.603 153.749 142.505 156.853 138.697 156.853ZM138.697 143.293C135.042 143.293 132.069 146.272 132.069 149.934C132.069 153.596 135.042 156.575 138.697 156.575C142.352 156.575 145.325 153.596 145.325 149.934C145.325 146.272 142.352 143.293 138.697 143.293Z" fill="#2A2A2A"/>
        <path d="M165.095 124.108H112.822V124.576H165.095V124.108Z" fill="#EBF3FA"/>
        <path d="M111.112 124.343C111.112 123.396 111.878 122.628 112.823 122.628C113.769 122.628 114.535 123.396 114.535 124.343C114.535 125.29 113.769 126.058 112.823 126.058C111.878 126.058 111.112 125.29 111.112 124.343Z" fill="#F99746"/>
        <path d="M136.665 124.343C136.665 123.073 137.692 122.043 138.96 122.043C140.227 122.043 141.255 123.073 141.255 124.343C141.255 125.613 140.227 126.643 138.96 126.643C137.692 126.643 136.665 125.613 136.665 124.343Z" fill="#F99746"/>
        <path d="M163.385 124.343C163.385 123.396 164.151 122.628 165.096 122.628C166.042 122.628 166.808 123.396 166.808 124.343C166.808 125.29 166.042 126.058 165.096 126.058C164.151 126.058 163.385 125.29 163.385 124.343Z" fill="#EBF3FA"/>
        <path d="M138.923 124.108H112.822V124.576H138.923V124.108Z" fill="#F99746"/>
        <path d="M276.626 161.807H0.399533C0.178877 161.807 0 161.986 0 162.207V162.6C0 162.821 0.178877 163 0.399533 163H276.626C276.847 163 277.025 162.821 277.025 162.6V162.207C277.025 161.986 276.847 161.807 276.626 161.807Z" fill="#2E3552"/>
        <path d="M105.188 40.9883V40.7541H110.43L113.617 34.6873H113.688C116.175 34.6873 119.936 34.663 120.315 34.5979L126.813 28.0879H136.316V28.3221H126.91L120.489 34.7543C120.435 34.8622 120.032 34.8835 117.035 34.9078C115.564 34.9195 114.093 34.9205 113.758 34.9205L110.572 40.9873H105.189L105.188 40.9883Z" fill="#EBF3FA"/>
        <path d="M121.533 35.7133V34.0907L120.131 33.2794L118.729 34.0907V35.7133L120.131 36.5246L121.533 35.7133Z" fill="#EBF3FA"/>
        <path d="M128.333 29.2558V27.6332L126.931 26.8219L125.528 27.6332V29.2558L126.931 30.0672L128.333 29.2558Z" fill="#EBF3FA"/>
        <path d="M131.891 40.0594V38.4368L130.489 37.6255L129.086 38.4368V40.0594L130.489 40.8707L131.891 40.0594Z" fill="#EBF3FA"/>
        <path d="M112.114 41.6733V40.0516L110.712 39.2403L109.31 40.0516V41.6733L110.712 42.4846L112.114 41.6733Z" fill="#EBF3FA"/>
        <path d="M105.094 41.3002V40.4248L104.338 39.9875L103.583 40.4248V41.3002L104.338 41.7374L105.094 41.3002Z" fill="#EBF3FA"/>
        <path d="M137.07 28.772V27.8975L136.314 27.4603L135.559 27.8975V28.772L136.314 29.2092L137.07 28.772Z" fill="#EBF3FA"/>
        <path d="M120.301 34.7844L120.458 34.6105L125.595 39.2287H129.515V39.4628H125.504L125.471 39.4327L120.301 34.7844Z" fill="#EBF3FA"/>
        <path d="M152.372 40.1167H154.987L156.294 42.3855L154.987 44.6542H152.372L151.064 42.3855L152.372 40.1167Z" fill="#EBF3FA"/>
        <path d="M138.295 33.701H139.601L140.254 34.834L139.601 35.9669H138.295L137.642 34.834L138.295 33.701Z" fill="#EBF3FA"/>
        <path d="M144.461 41.3245H145.767L146.42 42.4564L145.767 43.5894H144.461L143.809 42.4564L144.461 41.3245Z" fill="#EBF3FA"/>
        <path d="M164.824 47.5167H166.13L166.783 48.6496L166.13 49.7825H164.824L164.171 48.6496L164.824 47.5167Z" fill="#EBF3FA"/>
        <path d="M169.706 36.9619H171.012L171.664 38.0948L171.012 39.2277H169.706L169.054 38.0948L169.706 36.9619Z" fill="#EBF3FA"/>
        <path d="M152.293 40.1682L152.451 40.0652L148.934 34.6532H139.718V34.8427H148.832L152.293 40.1682Z" fill="#EBF3FA"/>
        <path d="M164.812 47.7431L164.985 47.6683L162.648 42.2912H156.294V42.4797H162.525L164.812 47.7431Z" fill="#EBF3FA"/>
        <path d="M162.663 42.4409L165.718 38.189H170.295V38.0005H165.621L162.51 42.3301L162.663 42.4409Z" fill="#EBF3FA"/>
        <path d="M151.064 42.2912H145.714V42.4797H151.064V42.2912Z" fill="#EBF3FA"/>
    </g>
    <defs>
        <clipPath id="clip0_3467_6313">
            <rect width="278" height="163" fill="white"/>
        </clipPath>
    </defs>
</svg>
