<svg width="191" height="184" viewBox="0 0 191 184" fill="none" xmlns="http://www.w3.org/2000/svg">
    <path d="M79.5712 46.8997C78.6121 42.2918 76.7849 38.0054 74.2839 34.1979L78.8367 28.7049L69.0997 18.98L63.5999 23.5272C59.7877 21.0293 55.4959 19.2043 50.8824 18.2464L50.2146 11.1649H36.4469L35.7791 18.2464C31.1656 19.2043 26.8738 21.0293 23.0616 23.5272L17.5618 18.98L7.82479 28.7049L12.3776 34.1979C9.87659 38.0054 8.04939 42.2858 7.09026 46.8997L0 47.5666V61.3172L7.09026 61.9841C8.04939 66.5919 9.87659 70.8784 12.3776 74.6859L7.82479 80.1789L17.5618 89.9038L23.0616 85.3566C26.8738 87.8545 31.1595 89.6795 35.7791 90.6374L36.4469 97.7189H50.2146L50.8824 90.6374C55.4959 89.6795 59.7877 87.8545 63.5999 85.3566L69.0997 89.9038L78.8367 80.1789L74.2839 74.6859C76.7849 70.8784 78.6121 66.5919 79.5712 61.9841L86.6615 61.3172V47.5666L79.5712 46.8997ZM61.973 54.4419C61.973 64.7185 53.6323 73.055 43.3368 73.055C33.0414 73.055 24.7006 64.7185 24.7006 54.4419C24.7006 44.1653 33.0414 35.8288 43.3368 35.8288C53.6323 35.8288 61.973 44.1592 61.973 54.4419Z" fill="#FFF9E5"/>
    <path d="M119.053 112.882L119.533 117.969H129.422L129.901 112.882C133.216 112.197 136.299 110.881 139.037 109.087L142.989 112.355L149.982 105.37L146.71 101.423C148.507 98.6889 149.818 95.609 150.51 92.2986L155.603 91.8197V81.9432L150.51 81.4642C149.824 78.1539 148.507 75.0739 146.71 72.3396L149.982 68.3926L142.989 61.4082L139.037 64.6761C136.299 62.8814 133.216 61.5719 129.901 60.8807L129.422 55.7939H119.533L119.053 60.8807C115.739 61.5658 112.655 62.8814 109.917 64.6761L105.965 61.4082L98.9723 68.3926L102.244 72.3396C100.447 75.0739 99.1362 78.1539 98.4442 81.4642L93.3511 81.9432V91.8197L98.4442 92.2986C99.1301 95.609 100.447 98.6889 102.244 101.423L98.9723 105.37L105.965 112.355L109.917 109.087C112.655 110.881 115.739 112.191 119.053 112.882ZM124.48 100.253C117.086 100.253 111.089 94.263 111.089 86.8784C111.089 79.4938 117.086 73.5036 124.48 73.5036C131.874 73.5036 137.872 79.4938 137.872 86.8784C137.872 94.263 131.88 100.253 124.48 100.253Z" fill="#FFF9E5"/>
    <path d="M174.294 148.962L174.495 151.097H178.647L178.847 148.962C180.237 148.671 181.53 148.126 182.684 147.368L184.341 148.738L187.279 145.804L185.907 144.149C186.66 143.003 187.212 141.711 187.503 140.317L189.64 140.117V135.97L187.503 135.77C187.212 134.381 186.666 133.09 185.907 131.938L187.279 130.283L184.341 127.348L182.684 128.718C181.536 127.967 180.243 127.415 178.847 127.124L178.647 124.99H174.495L174.294 127.124C172.904 127.415 171.611 127.961 170.458 128.718L168.8 127.348L165.862 130.283L167.234 131.938C166.482 133.084 165.929 134.375 165.638 135.77L163.501 135.97V140.117L165.638 140.317C165.929 141.705 166.476 142.997 167.234 144.149L165.862 145.804L168.8 148.738L170.458 147.368C171.605 148.12 172.898 148.671 174.294 148.962ZM176.571 143.664C173.469 143.664 170.949 141.153 170.949 138.049C170.949 134.945 173.469 132.435 176.571 132.435C179.673 132.435 182.192 134.945 182.192 138.049C182.192 141.153 179.679 143.664 176.571 143.664Z" fill="#FFF9E5"/>
    <path d="M66.5257 182.06H78.3023L78.8729 176.003C82.8187 175.185 86.4913 173.62 89.7511 171.486L94.4557 175.379L102.784 167.06L98.8871 162.361C101.024 159.106 102.59 155.438 103.41 151.497L109.474 150.927V139.165L103.41 138.595C102.59 134.654 101.024 130.986 98.8871 127.73L102.784 123.031L94.4557 114.713L89.7511 118.599C86.4913 116.465 82.8248 114.901 78.8729 114.083L78.3023 108.026H66.5257L65.9551 114.083C62.0093 114.901 58.3367 116.465 55.0768 118.599L50.3723 114.713L42.0436 123.031L45.9408 127.73C43.804 130.986 42.2379 134.654 41.4184 138.595L35.354 139.165V150.927L41.4184 151.497C42.2379 155.438 43.804 159.106 45.9408 162.361L42.0436 167.06L50.3723 175.379L55.0768 171.486C58.3367 173.62 62.0093 175.185 65.9551 176.003L66.5257 182.06ZM72.414 160.967C63.6119 160.967 56.473 153.837 56.473 145.046C56.473 136.255 63.6119 129.125 72.414 129.125C81.2161 129.125 88.3549 136.255 88.3549 145.046C88.3549 153.837 81.2161 160.967 72.414 160.967Z" fill="#FFF9E5"/>
    <path d="M132.354 160.543L131.729 159.354C129.701 155.492 124.899 153.995 121.032 156.026L118.198 157.511C114.325 159.542 112.831 164.332 114.865 168.2L115.49 169.388L113.511 170.425L120.644 184L141.472 173.081L134.339 159.506L132.36 160.543H132.354ZM128.013 170.928L129.258 173.299L127.746 174.093L126.502 171.723C125.937 171.686 125.397 171.395 125.112 170.856C124.681 170.037 124.996 169.019 125.816 168.588C126.636 168.158 127.655 168.473 128.086 169.291C128.372 169.831 128.305 170.443 128.007 170.928H128.013ZM129.222 162.186L118.604 167.751L117.979 166.563C116.856 164.423 117.682 161.767 119.831 160.64L122.665 159.154C124.808 158.033 127.467 158.857 128.596 160.997L129.222 162.186Z" fill="#FFF9E5"/>
    <path d="M185.634 81.3672L184.335 80.9549C187.188 80.4396 189.677 78.4388 190.618 75.4862C191.971 71.2361 189.616 66.695 185.361 65.349C181.105 63.997 176.558 66.3494 175.211 70.5995C174.27 73.5521 175.15 76.62 177.184 78.6874L175.885 78.2751C171.933 77.0201 167.714 79.2028 166.457 83.1497L165.158 87.23L189.215 94.8693L190.514 90.789C191.771 86.842 189.586 82.6283 185.634 81.3733V81.3672Z" fill="#FFF9E5"/>
    <path d="M98.3773 8.1456L97.5699 8.48513C98.7536 7.04216 99.1361 5.02321 98.3651 3.18615C97.2542 0.536668 94.2008 -0.706227 91.548 0.409346C88.8952 1.51886 87.6508 4.56849 88.7678 7.21798C89.5387 9.05504 91.2566 10.1949 93.1142 10.3586L92.3068 10.6981C89.8483 11.7288 88.6888 14.5602 89.7208 17.0217L90.7892 19.562L105.771 13.2748L104.703 10.7345C103.671 8.27899 100.836 7.12097 98.3773 8.15167V8.1456Z" fill="#FFF9E5"/>
    <path d="M149.97 32.1062H41.364C38.9099 32.1062 36.9204 34.0932 36.9204 36.5442V169.728C36.9204 172.179 38.9099 174.166 41.364 174.166H149.97C152.424 174.166 154.414 172.179 154.414 169.728V36.5442C154.414 34.0932 152.424 32.1062 149.97 32.1062Z" fill="#FFD24A"/>
    <path opacity="0.6" d="M149.97 32.1062H41.364C38.9099 32.1062 36.9204 34.0932 36.9204 36.5442V169.728C36.9204 172.179 38.9099 174.166 41.364 174.166H149.97C152.424 174.166 154.414 172.179 154.414 169.728V36.5442C154.414 34.0932 152.424 32.1062 149.97 32.1062Z" fill="#FFD24A"/>
    <path d="M135.377 119.624H55.9512V133.205H135.377V119.624Z" fill="white"/>
    <g opacity="0.7">
        <path d="M59.9517 126.148C59.9517 125.008 60.8197 124.165 61.9974 124.165C62.568 124.165 63.0779 124.353 63.4239 124.735L63.1629 124.996C62.8473 124.675 62.4527 124.535 62.0095 124.535C61.0686 124.535 60.3644 125.226 60.3644 126.148C60.3644 127.069 61.0686 127.761 62.0095 127.761C62.4527 127.761 62.8473 127.621 63.1629 127.294L63.4239 127.554C63.0779 127.93 62.568 128.13 61.9913 128.13C60.8197 128.13 59.9517 127.294 59.9517 126.154V126.148Z" fill="#263238"/>
        <path d="M63.7944 126.633C63.7944 125.766 64.4318 125.147 65.2878 125.147C66.1437 125.147 66.775 125.766 66.775 126.633C66.775 127.5 66.1437 128.124 65.2878 128.124C64.4318 128.124 63.7944 127.5 63.7944 126.633ZM66.3744 126.633C66.3744 125.948 65.913 125.493 65.2878 125.493C64.6625 125.493 64.1951 125.948 64.1951 126.633C64.1951 127.318 64.6625 127.773 65.2878 127.773C65.913 127.773 66.3744 127.318 66.3744 126.633Z" fill="#263238"/>
        <path d="M70.2773 126.396V128.094H69.8827V126.439C69.8827 125.82 69.561 125.505 69.0025 125.505C68.3712 125.505 67.9766 125.893 67.9766 126.56V128.094H67.582V125.172H67.9584V125.711C68.1709 125.354 68.5654 125.147 69.0693 125.147C69.7795 125.147 70.2712 125.56 70.2712 126.396H70.2773Z" fill="#263238"/>
        <path d="M72.3048 123.941C72.5234 123.941 72.7419 124.002 72.8876 124.123L72.754 124.42C72.6448 124.323 72.4869 124.274 72.317 124.274C71.977 124.274 71.801 124.462 71.801 124.826V125.172H72.7055V125.505H71.8131V128.094H71.4185V125.505H70.8965V125.172H71.4185V124.808C71.4185 124.286 71.7281 123.941 72.3048 123.941ZM74.1745 124.244C74.1745 124.408 74.0531 124.535 73.8831 124.535C73.7132 124.535 73.5918 124.408 73.5918 124.25C73.5918 124.092 73.7192 123.971 73.8831 123.971C74.047 123.971 74.1745 124.092 74.1745 124.244ZM73.6828 125.172H74.0774V128.094H73.6828V125.172Z" fill="#263238"/>
        <path d="M76.6577 125.147V125.529C76.6274 125.529 76.591 125.529 76.5606 125.529C75.9475 125.529 75.5772 125.917 75.5772 126.609V128.1H75.1826V125.178H75.559V125.748C75.7411 125.36 76.1175 125.153 76.6577 125.153V125.147Z" fill="#263238"/>
        <path d="M82.1998 126.396V128.094H81.8052V126.439C81.8052 125.82 81.4956 125.505 80.9675 125.505C80.3665 125.505 79.9902 125.893 79.9902 126.56V128.094H79.5956V126.439C79.5956 125.82 79.286 125.505 78.7518 125.505C78.1569 125.505 77.7745 125.893 77.7745 126.56V128.094H77.3799V125.172H77.7562V125.705C77.9626 125.354 78.339 125.147 78.8307 125.147C79.3224 125.147 79.6927 125.354 79.8688 125.766C80.0812 125.39 80.5001 125.147 81.0282 125.147C81.7385 125.147 82.2059 125.56 82.2059 126.396H82.1998Z" fill="#263238"/>
        <path d="M88.0757 124.202V128.094H87.7358L85.2287 124.935V128.094H84.8159V124.202H85.1559L87.669 127.36V124.202H88.0757Z" fill="#263238"/>
        <path d="M91.8092 126.754H89.3568C89.3993 127.366 89.8667 127.773 90.5101 127.773C90.8683 127.773 91.184 127.645 91.4086 127.391L91.6332 127.645C91.3722 127.955 90.9654 128.124 90.5041 128.124C89.5935 128.124 88.9683 127.5 88.9683 126.633C88.9683 125.766 89.5753 125.147 90.4009 125.147C91.2265 125.147 91.8214 125.754 91.8214 126.633C91.8214 126.663 91.8214 126.712 91.8214 126.754H91.8092ZM89.3568 126.457H91.4329C91.3843 125.887 90.9654 125.487 90.3948 125.487C89.8242 125.487 89.4114 125.887 89.3568 126.457Z" fill="#263238"/>
        <path d="M96.866 125.172L95.7611 128.094H95.3908L94.4681 125.699L93.5454 128.094H93.1751L92.0703 125.172H92.4467L93.3633 127.657L94.3042 125.172H94.6442L95.579 127.657L96.5078 125.172H96.872H96.866Z" fill="#263238"/>
        <path d="M102.056 125.535C102.056 126.366 101.455 126.863 100.466 126.863H99.4216V128.094H99.0088V124.202H100.466C101.455 124.202 102.056 124.705 102.056 125.535ZM101.643 125.535C101.643 124.911 101.231 124.559 100.454 124.559H99.4155V126.506H100.454C101.231 126.506 101.643 126.148 101.643 125.535Z" fill="#263238"/>
        <path d="M105.043 126.281V128.094H104.666V127.639C104.49 127.942 104.144 128.124 103.659 128.124C102.997 128.124 102.59 127.779 102.59 127.276C102.59 126.827 102.882 126.445 103.719 126.445H104.648V126.269C104.648 125.766 104.363 125.493 103.817 125.493C103.44 125.493 103.082 125.626 102.839 125.839L102.663 125.542C102.961 125.293 103.392 125.147 103.853 125.147C104.612 125.147 105.037 125.523 105.037 126.281H105.043ZM104.648 127.215V126.736H103.732C103.161 126.736 102.979 126.96 102.979 127.257C102.979 127.597 103.252 127.809 103.719 127.809C104.187 127.809 104.49 127.597 104.648 127.215Z" fill="#263238"/>
        <path d="M105.71 127.761L105.886 127.451C106.123 127.633 106.518 127.779 106.925 127.779C107.483 127.779 107.708 127.591 107.708 127.3C107.708 126.536 105.808 127.136 105.808 125.984C105.808 125.505 106.22 125.147 106.967 125.147C107.343 125.147 107.756 125.25 108.005 125.42L107.835 125.736C107.58 125.56 107.271 125.487 106.973 125.487C106.445 125.487 106.208 125.693 106.208 125.972C106.208 126.76 108.108 126.166 108.108 127.288C108.108 127.791 107.665 128.124 106.9 128.124C106.415 128.124 105.947 127.967 105.71 127.761Z" fill="#263238"/>
        <path d="M108.436 127.761L108.612 127.451C108.849 127.633 109.243 127.779 109.65 127.779C110.209 127.779 110.433 127.591 110.433 127.3C110.433 126.536 108.533 127.136 108.533 125.984C108.533 125.505 108.946 125.147 109.693 125.147C110.069 125.147 110.482 125.25 110.731 125.42L110.561 125.736C110.306 125.56 109.996 125.487 109.699 125.487C109.171 125.487 108.934 125.693 108.934 125.972C108.934 126.76 110.834 126.166 110.834 127.288C110.834 127.791 110.391 128.124 109.626 128.124C109.14 128.124 108.673 127.967 108.436 127.761Z" fill="#263238"/>
        <path d="M115.806 125.172L114.701 128.094H114.331L113.408 125.699L112.485 128.094H112.115L111.01 125.172H111.387L112.303 127.657L113.244 125.172H113.584L114.519 127.657L115.448 125.172H115.812H115.806Z" fill="#263238"/>
        <path d="M116.024 126.633C116.024 125.766 116.662 125.147 117.518 125.147C118.374 125.147 119.005 125.766 119.005 126.633C119.005 127.5 118.374 128.124 117.518 128.124C116.662 128.124 116.024 127.5 116.024 126.633ZM118.604 126.633C118.604 125.948 118.143 125.493 117.518 125.493C116.892 125.493 116.425 125.948 116.425 126.633C116.425 127.318 116.892 127.773 117.518 127.773C118.143 127.773 118.604 127.318 118.604 126.633Z" fill="#263238"/>
        <path d="M121.281 125.147V125.529C121.251 125.529 121.214 125.529 121.184 125.529C120.571 125.529 120.201 125.917 120.201 126.609V128.1H119.806V125.178H120.183V125.748C120.365 125.36 120.741 125.153 121.281 125.153V125.147Z" fill="#263238"/>
        <path d="M124.638 123.971V128.094H124.262V127.518C124.025 127.912 123.618 128.124 123.133 128.124C122.295 128.124 121.676 127.518 121.676 126.633C121.676 125.748 122.301 125.147 123.133 125.147C123.6 125.147 124.001 125.348 124.244 125.723V123.965H124.638V123.971ZM124.25 126.633C124.25 125.948 123.782 125.493 123.163 125.493C122.544 125.493 122.07 125.948 122.07 126.633C122.07 127.318 122.538 127.773 123.163 127.773C123.788 127.773 124.25 127.318 124.25 126.633Z" fill="#263238"/>
    </g>
    <path opacity="0.2" d="M135.377 146.204H55.9512V159.785H135.377V146.204Z" fill="black"/>
    <g opacity="0.5">
        <path d="M56.4369 87.5089V88.4244H57.6388V88.6366H56.4369V89.6249H56.188V87.3028H57.7845V87.515H56.4369V87.5089Z" fill="black"/>
        <path d="M58.0151 88.7458C58.0151 88.2304 58.3915 87.8606 58.9075 87.8606C59.4235 87.8606 59.7938 88.2304 59.7938 88.7458C59.7938 89.2611 59.4174 89.637 58.9075 89.637C58.3976 89.637 58.0151 89.2672 58.0151 88.7458ZM59.557 88.7458C59.557 88.3396 59.2839 88.0667 58.9075 88.0667C58.5311 88.0667 58.258 88.3396 58.258 88.7458C58.258 89.152 58.5372 89.4248 58.9075 89.4248C59.2778 89.4248 59.557 89.152 59.557 88.7458Z" fill="black"/>
        <path d="M61.1595 87.8606V88.091C61.1595 88.091 61.117 88.091 61.1049 88.091C60.7407 88.091 60.516 88.3214 60.516 88.7337V89.6249H60.2793V87.8788H60.5039V88.2183C60.6132 87.9879 60.8378 87.8606 61.1595 87.8606Z" fill="black"/>
        <path d="M63.187 87.8727V89.4066C63.187 90.0069 62.8895 90.2797 62.3128 90.2797C61.9911 90.2797 61.6815 90.1827 61.4994 90.0129L61.6208 89.831C61.7847 89.9826 62.0397 90.0675 62.3068 90.0675C62.7499 90.0675 62.9502 89.8674 62.9502 89.4309V89.2066C62.8046 89.4309 62.5557 89.5461 62.2704 89.5461C61.7726 89.5461 61.3901 89.1944 61.3901 88.6973C61.3901 88.2001 61.7665 87.8545 62.2704 87.8545C62.5617 87.8545 62.8167 87.9758 62.9624 88.2062V87.8727H63.187ZM62.9563 88.7033C62.9563 88.3274 62.6771 88.0667 62.2886 88.0667C61.9001 88.0667 61.6269 88.3274 61.6269 88.7033C61.6269 89.0792 61.9001 89.346 62.2886 89.346C62.6771 89.346 62.9563 89.0853 62.9563 88.7033Z" fill="black"/>
        <path d="M63.6729 88.7458C63.6729 88.2304 64.0492 87.8606 64.5652 87.8606C65.0812 87.8606 65.4515 88.2304 65.4515 88.7458C65.4515 89.2611 65.0751 89.637 64.5652 89.637C64.0553 89.637 63.6729 89.2672 63.6729 88.7458ZM65.2147 88.7458C65.2147 88.3396 64.9416 88.0667 64.5652 88.0667C64.1888 88.0667 63.9157 88.3396 63.9157 88.7458C63.9157 89.152 64.1949 89.4248 64.5652 89.4248C64.9355 89.4248 65.2147 89.152 65.2147 88.7458Z" fill="black"/>
        <path d="M66.8597 89.5158C66.7687 89.6007 66.6291 89.637 66.4894 89.637C66.1616 89.637 65.9795 89.4491 65.9795 89.1277V88.0728H65.6699V87.8727H65.9795V87.4908H66.2163V87.8727H66.7505V88.0728H66.2163V89.1156C66.2163 89.3218 66.3255 89.437 66.5198 89.437C66.6169 89.437 66.714 89.4066 66.7808 89.346L66.8658 89.5158H66.8597Z" fill="black"/>
        <path d="M70.0284 88.091C70.0284 88.5881 69.6702 88.8852 69.0753 88.8852H68.4501V89.6188H68.2012V87.2968H69.0753C69.6702 87.2968 70.0284 87.5938 70.0284 88.0971V88.091ZM69.7795 88.091C69.7795 87.7212 69.5306 87.509 69.0692 87.509H68.4501V88.673H69.0692C69.5367 88.673 69.7795 88.4608 69.7795 88.0971V88.091Z" fill="black"/>
        <path d="M71.8194 88.5396V89.6249H71.5948V89.3521C71.4855 89.5339 71.2792 89.6431 70.9938 89.6431C70.5993 89.6431 70.3564 89.4369 70.3564 89.1338C70.3564 88.867 70.5264 88.6366 71.0303 88.6366H71.5887V88.5336C71.5887 88.2365 71.4188 88.0728 71.091 88.0728C70.8664 88.0728 70.6539 88.1516 70.5082 88.2789L70.3989 88.1031C70.575 87.9515 70.836 87.8667 71.1092 87.8667C71.5645 87.8667 71.8194 88.091 71.8194 88.5457V88.5396ZM71.5827 89.0974V88.8125H71.0363C70.6964 88.8125 70.5871 88.9459 70.5871 89.1277C70.5871 89.3278 70.751 89.4551 71.0303 89.4551C71.3095 89.4551 71.4916 89.3278 71.5887 89.0974H71.5827Z" fill="black"/>
        <path d="M72.2202 89.4188L72.3295 89.2308C72.4691 89.34 72.7058 89.4248 72.9487 89.4248C73.2825 89.4248 73.4161 89.3096 73.4161 89.1399C73.4161 88.6852 72.2809 89.0429 72.2809 88.3517C72.2809 88.0667 72.5298 87.8545 72.9729 87.8545C73.1975 87.8545 73.4464 87.9152 73.5921 88.0182L73.4889 88.2062C73.3372 88.0971 73.1551 88.0546 72.9729 88.0546C72.6573 88.0546 72.5177 88.1759 72.5177 88.3456C72.5177 88.8185 73.6528 88.4608 73.6528 89.1338C73.6528 89.437 73.3857 89.631 72.9305 89.631C72.6391 89.631 72.3598 89.54 72.2202 89.4127V89.4188Z" fill="black"/>
        <path d="M73.8467 89.4188L73.956 89.2308C74.0956 89.34 74.3323 89.4248 74.5751 89.4248C74.909 89.4248 75.0426 89.3096 75.0426 89.1399C75.0426 88.6852 73.9074 89.0429 73.9074 88.3517C73.9074 88.0667 74.1563 87.8545 74.5994 87.8545C74.824 87.8545 75.0729 87.9152 75.2186 88.0182L75.1154 88.2062C74.9636 88.0971 74.7815 88.0546 74.5994 88.0546C74.2838 88.0546 74.1441 88.1759 74.1441 88.3456C74.1441 88.8185 75.2793 88.4608 75.2793 89.1338C75.2793 89.437 75.0122 89.631 74.5569 89.631C74.2655 89.631 73.9863 89.54 73.8467 89.4127V89.4188Z" fill="black"/>
        <path d="M78.2478 87.8727L77.5861 89.6188H77.3615L76.8091 88.188L76.2567 89.6188H76.0321L75.3765 87.8727H75.6011L76.1474 89.3581L76.712 87.8727H76.9123L77.4708 89.3581L78.0232 87.8727H78.2417H78.2478Z" fill="black"/>
        <path d="M78.3813 88.7458C78.3813 88.2304 78.7577 87.8606 79.2737 87.8606C79.7897 87.8606 80.16 88.2304 80.16 88.7458C80.16 89.2611 79.7836 89.637 79.2737 89.637C78.7638 89.637 78.3813 89.2672 78.3813 88.7458ZM79.9232 88.7458C79.9232 88.3396 79.6501 88.0667 79.2737 88.0667C78.8973 88.0667 78.6242 88.3396 78.6242 88.7458C78.6242 89.152 78.9034 89.4248 79.2737 89.4248C79.644 89.4248 79.9232 89.152 79.9232 88.7458Z" fill="black"/>
        <path d="M81.5262 87.8606V88.091C81.5262 88.091 81.4837 88.091 81.4716 88.091C81.1073 88.091 80.8827 88.3214 80.8827 88.7337V89.6249H80.646V87.8788H80.8706V88.2183C80.9799 87.9879 81.2045 87.8606 81.5262 87.8606Z" fill="black"/>
        <path d="M83.5294 87.1573V89.6188H83.3048V89.2733C83.1591 89.5097 82.9163 89.637 82.631 89.637C82.1332 89.637 81.7568 89.2733 81.7568 88.7458C81.7568 88.2183 82.1271 87.8606 82.631 87.8606C82.9102 87.8606 83.147 87.9819 83.2987 88.2062V87.1573H83.5355H83.5294ZM83.2987 88.7458C83.2987 88.3396 83.0195 88.0667 82.6492 88.0667C82.2789 88.0667 81.9997 88.3396 81.9997 88.7458C81.9997 89.152 82.2789 89.4248 82.6492 89.4248C83.0195 89.4248 83.2987 89.152 83.2987 88.7458Z" fill="black"/>
        <path d="M85.2534 87.8909C85.2534 87.6545 85.0591 87.4847 84.7192 87.4847C84.4339 87.4847 84.2275 87.5756 84.0818 87.7515L83.9058 87.6181C84.0879 87.3998 84.361 87.2725 84.7313 87.2725C85.1988 87.2725 85.4962 87.4968 85.4962 87.8485C85.4962 88.4184 84.8892 88.4426 84.8892 88.9155H84.6403C84.6403 88.3699 85.2473 88.3153 85.2473 87.8848L85.2534 87.8909ZM84.5978 89.4673C84.5978 89.3703 84.6767 89.2975 84.7678 89.2975C84.8588 89.2975 84.9438 89.3703 84.9438 89.4673C84.9438 89.5643 84.8649 89.6431 84.7678 89.6431C84.6706 89.6431 84.5978 89.5643 84.5978 89.4673Z" fill="black"/>
    </g>
    <path d="M135.377 145.373H55.9512V158.954H135.377V145.373Z" fill="#D6D3D2"/>
    <path d="M73.27 153.74L73.5189 153.225C73.8649 153.54 74.4538 153.764 75.0547 153.764C75.8621 153.764 76.2081 153.455 76.2081 153.049C76.2081 151.915 73.3854 152.631 73.3854 150.903C73.3854 150.187 73.9438 149.575 75.1701 149.575C75.7164 149.575 76.281 149.72 76.6634 149.987L76.4449 150.521C76.0381 150.26 75.5829 150.145 75.1701 150.145C74.3809 150.145 74.041 150.478 74.041 150.884C74.041 152.018 76.8637 151.309 76.8637 153.019C76.8637 153.728 76.2931 154.34 75.0608 154.34C74.3506 154.34 73.6525 154.104 73.2761 153.758L73.27 153.74Z" fill="#0F1419"/>
    <path d="M80.9067 152.728H78.0476C78.1265 153.346 78.6242 153.758 79.3223 153.758C79.7351 153.758 80.0811 153.619 80.3422 153.334L80.6943 153.746C80.3725 154.116 79.8869 154.316 79.3041 154.316C78.169 154.316 77.4102 153.564 77.4102 152.515C77.4102 151.466 78.1629 150.721 79.1767 150.721C80.1904 150.721 80.9189 151.454 80.9189 152.534C80.9189 152.588 80.9128 152.667 80.9067 152.728ZM78.0476 152.267H80.3118C80.245 151.673 79.8019 151.254 79.1827 151.254C78.5635 151.254 78.1204 151.667 78.0536 152.267H78.0476Z" fill="#0F1419"/>
    <path d="M83.7902 154.067C83.5959 154.231 83.3045 154.316 83.0192 154.316C82.309 154.316 81.9022 153.922 81.9022 153.213V151.279H81.3013V150.751H81.9022V149.981H82.5396V150.751H83.5473V151.279H82.5396V153.182C82.5396 153.558 82.74 153.776 83.092 153.776C83.2802 153.776 83.4563 153.716 83.5898 153.613L83.7902 154.074V154.067Z" fill="#0F1419"/>
    <path d="M90.2065 151.242C90.2065 152.255 89.4781 152.861 88.264 152.861H87.1106V154.268H86.4429V149.617H88.2579C89.466 149.617 90.2005 150.23 90.2005 151.236L90.2065 151.242ZM89.5388 151.242C89.5388 150.575 89.0957 150.199 88.2397 150.199H87.1106V152.285H88.2397C89.0896 152.285 89.5388 151.909 89.5388 151.242Z" fill="#0F1419"/>
    <path d="M93.8549 152.146V154.274H93.2478V153.807C93.0353 154.128 92.6408 154.31 92.0884 154.31C91.2931 154.31 90.7832 153.886 90.7832 153.273C90.7832 152.709 91.1474 152.243 92.1976 152.243H93.2114V152.115C93.2114 151.576 92.8957 151.266 92.2644 151.266C91.8455 151.266 91.4206 151.412 91.1474 151.642L90.8803 151.163C91.2446 150.872 91.7727 150.709 92.3372 150.709C93.3024 150.709 93.8488 151.175 93.8488 152.139L93.8549 152.146ZM93.2175 153.194V152.703H92.234C91.6027 152.703 91.4206 152.952 91.4206 153.249C91.4206 153.601 91.712 153.819 92.1976 153.819C92.6832 153.819 93.0536 153.601 93.2175 153.194Z" fill="#0F1419"/>
    <path d="M94.5954 153.904L94.8625 153.401C95.16 153.613 95.6395 153.764 96.1009 153.764C96.6958 153.764 96.9386 153.582 96.9386 153.285C96.9386 152.497 94.7108 153.182 94.7108 151.776C94.7108 151.145 95.2753 150.721 96.1798 150.721C96.6412 150.721 97.1571 150.842 97.4607 151.042L97.1875 151.545C96.8658 151.339 96.5137 151.266 96.1677 151.266C95.6092 151.266 95.336 151.473 95.336 151.751C95.336 152.582 97.5699 151.903 97.5699 153.273C97.5699 153.91 96.9872 154.316 96.0463 154.316C95.4635 154.316 94.8807 154.134 94.5894 153.904H94.5954Z" fill="#0F1419"/>
    <path d="M97.9279 153.904L98.195 153.401C98.4925 153.613 98.9721 153.764 99.4334 153.764C100.028 153.764 100.271 153.582 100.271 153.285C100.271 152.497 98.0433 153.182 98.0433 151.776C98.0433 151.145 98.6078 150.721 99.5123 150.721C99.9737 150.721 100.49 150.842 100.793 151.042L100.52 151.545C100.198 151.339 99.8462 151.266 99.5002 151.266C98.9417 151.266 98.6685 151.473 98.6685 151.751C98.6685 152.582 100.902 151.903 100.902 153.273C100.902 153.91 100.32 154.316 99.3788 154.316C98.796 154.316 98.2133 154.134 97.9219 153.904H97.9279Z" fill="#0F1419"/>
    <path d="M106.973 150.751L105.656 154.274H105.043L104.023 151.606L102.991 154.274H102.378L101.066 150.751H101.673L102.699 153.552L103.762 150.751H104.302L105.346 153.57L106.396 150.751H106.967H106.973Z" fill="#0F1419"/>
    <path d="M107.198 152.515C107.198 151.466 107.975 150.721 109.031 150.721C110.087 150.721 110.858 151.466 110.858 152.515C110.858 153.564 110.087 154.316 109.031 154.316C107.975 154.316 107.198 153.564 107.198 152.515ZM110.215 152.515C110.215 151.764 109.711 151.279 109.031 151.279C108.351 151.279 107.841 151.764 107.841 152.515C107.841 153.267 108.351 153.758 109.031 153.758C109.711 153.758 110.215 153.267 110.215 152.515Z" fill="#0F1419"/>
    <path d="M113.644 150.721V151.339C113.59 151.333 113.547 151.333 113.499 151.333C112.813 151.333 112.388 151.751 112.388 152.521V154.274H111.75V150.751H112.364V151.345C112.588 150.933 113.031 150.721 113.644 150.721Z" fill="#0F1419"/>
    <path d="M117.724 149.344V154.274H117.111V153.716C116.825 154.116 116.37 154.316 115.854 154.316C114.822 154.316 114.069 153.595 114.069 152.515C114.069 151.436 114.822 150.721 115.854 150.721C116.352 150.721 116.789 150.909 117.086 151.285V149.344H117.724ZM117.092 152.515C117.092 151.764 116.582 151.279 115.909 151.279C115.235 151.279 114.719 151.764 114.719 152.515C114.719 153.267 115.229 153.758 115.909 153.758C116.589 153.758 117.092 153.267 117.092 152.515Z" fill="#0F1419"/>
    <path d="M70.5869 53.1748L69.4881 51.6105C69.3849 51.6166 69.2757 51.6227 69.1664 51.6227H67.9038V53.1687H67.1753V48.0759H69.1603C70.4837 48.0759 71.285 48.7428 71.285 49.8523C71.285 50.6405 70.8783 51.2043 70.162 51.459L71.37 53.1687H70.5747L70.5869 53.1748ZM70.5626 49.8584C70.5626 49.1308 70.077 48.7185 69.1421 48.7185H67.9038V51.0103H69.1421C70.077 51.0103 70.5626 50.5859 70.5626 49.8584Z" fill="#0F1419"/>
    <path d="M75.8441 51.4832H72.7118C72.7968 52.1623 73.3431 52.6109 74.108 52.6109C74.5572 52.6109 74.9396 52.4593 75.2249 52.1441L75.6134 52.5927C75.2614 52.9989 74.7332 53.2172 74.0898 53.2172C72.8453 53.2172 72.0137 52.3987 72.0137 51.2468C72.0137 50.0948 72.8332 49.2824 73.9501 49.2824C75.0671 49.2824 75.8563 50.0827 75.8563 51.2649C75.8563 51.3256 75.8502 51.4105 75.8441 51.4771V51.4832ZM72.7118 50.98H75.1885C75.1157 50.3313 74.63 49.8765 73.9501 49.8765C73.2703 49.8765 72.7846 50.3252 72.7118 50.98Z" fill="#0F1419"/>
    <path d="M76.3415 52.7685L76.6329 52.2168C76.9607 52.4472 77.4828 52.617 77.9866 52.617C78.6361 52.617 78.9032 52.423 78.9032 52.0956C78.9032 51.2286 76.4629 51.9804 76.4629 50.4464C76.4629 49.7553 77.0821 49.2884 78.0716 49.2884C78.5754 49.2884 79.14 49.4218 79.4739 49.6401L79.1764 50.1918C78.8243 49.9675 78.4419 49.8887 78.0655 49.8887C77.4524 49.8887 77.155 50.113 77.155 50.4222C77.155 51.3316 79.6013 50.592 79.6013 52.0895C79.6013 52.7867 78.9579 53.2293 77.932 53.2293C77.2885 53.2293 76.6572 53.0353 76.3354 52.7807L76.3415 52.7685Z" fill="#0F1419"/>
    <path d="M83.954 51.4832H80.8216C80.9066 52.1623 81.453 52.6109 82.2178 52.6109C82.667 52.6109 83.0495 52.4593 83.3348 52.1441L83.7233 52.5927C83.3712 52.9989 82.8431 53.2172 82.1996 53.2172C80.9552 53.2172 80.1235 52.3987 80.1235 51.2468C80.1235 50.0948 80.943 49.2824 82.06 49.2824C83.177 49.2824 83.9661 50.0827 83.9661 51.2649C83.9661 51.3256 83.96 51.4105 83.954 51.4771V51.4832ZM80.8216 50.98H83.2984C83.2255 50.3313 82.7399 49.8765 82.06 49.8765C81.3801 49.8765 80.8945 50.3252 80.8216 50.98Z" fill="#0F1419"/>
    <path d="M87.1045 52.9504C86.8921 53.1323 86.5703 53.2172 86.2607 53.2172C85.4837 53.2172 85.0345 52.7867 85.0345 52.0107V49.8947H84.3789V49.3188H85.0345V48.476H85.7326V49.3188H86.8374V49.8947H85.7326V51.9804C85.7326 52.3926 85.9511 52.6291 86.3397 52.6291C86.546 52.6291 86.7403 52.5624 86.886 52.4472L87.1045 52.9504Z" fill="#0F1419"/>
    <path d="M94.128 49.8584C94.128 50.9618 93.3267 51.6348 92.0033 51.6348H90.7407V53.1748H90.0122V48.0819H91.9972C93.3206 48.0819 94.1219 48.7488 94.1219 49.8584H94.128ZM93.3995 49.8584C93.3995 49.1308 92.9139 48.7185 91.979 48.7185H90.7407V51.0042H91.979C92.9139 51.0042 93.3995 50.592 93.3995 49.8644V49.8584Z" fill="#0F1419"/>
    <path d="M98.1226 50.8527V53.1808H97.4609V52.6715C97.2302 53.0232 96.7992 53.2233 96.1922 53.2233C95.318 53.2233 94.7656 52.7564 94.7656 52.0895C94.7656 51.4711 95.1663 50.9618 96.3136 50.9618H97.4184V50.8224C97.4184 50.2343 97.0785 49.8887 96.3864 49.8887C95.9251 49.8887 95.4637 50.0463 95.1602 50.3009L94.8688 49.7795C95.2695 49.4582 95.8462 49.2824 96.4653 49.2824C97.5216 49.2824 98.1165 49.7917 98.1165 50.8466L98.1226 50.8527ZM97.4245 51.9986V51.459H96.35C95.658 51.459 95.4637 51.7257 95.4637 52.0531C95.4637 52.4411 95.7855 52.6776 96.3136 52.6776C96.8417 52.6776 97.2545 52.4351 97.4305 51.9925L97.4245 51.9986Z" fill="#0F1419"/>
    <path d="M98.9299 52.7685L99.2213 52.2168C99.5491 52.4472 100.071 52.617 100.575 52.617C101.225 52.617 101.492 52.423 101.492 52.0956C101.492 51.2286 99.0513 51.9804 99.0513 50.4464C99.0513 49.7553 99.6705 49.2884 100.66 49.2884C101.164 49.2884 101.728 49.4218 102.062 49.6401L101.765 50.1918C101.413 49.9675 101.03 49.8887 100.654 49.8887C100.041 49.8887 99.7433 50.113 99.7433 50.4222C99.7433 51.3316 102.19 50.592 102.19 52.0895C102.19 52.7867 101.546 53.2293 100.52 53.2293C99.8769 53.2293 99.2456 53.0353 98.9238 52.7807L98.9299 52.7685Z" fill="#0F1419"/>
    <path d="M102.578 52.7685L102.87 52.2168C103.197 52.4472 103.719 52.617 104.223 52.617C104.873 52.617 105.14 52.423 105.14 52.0956C105.14 51.2286 102.7 51.9804 102.7 50.4464C102.7 49.7553 103.319 49.2884 104.308 49.2884C104.812 49.2884 105.377 49.4218 105.717 49.6401L105.419 50.1918C105.067 49.9675 104.685 49.8887 104.308 49.8887C103.695 49.8887 103.398 50.113 103.398 50.4222C103.398 51.3316 105.844 50.592 105.844 52.0895C105.844 52.7867 105.201 53.2293 104.175 53.2293C103.531 53.2293 102.9 53.0353 102.578 52.7807V52.7685Z" fill="#0F1419"/>
    <path d="M112.485 49.3248L111.046 53.1808H110.378L109.268 50.2585L108.138 53.1808H107.471L106.038 49.3248H106.7L107.823 52.3926L108.988 49.3248H109.577L110.718 52.4048L111.872 49.3248H112.497H112.485Z" fill="#0F1419"/>
    <path d="M112.728 51.2468C112.728 50.1009 113.578 49.2824 114.737 49.2824C115.897 49.2824 116.741 50.0948 116.741 51.2468C116.741 52.3987 115.897 53.2172 114.737 53.2172C113.578 53.2172 112.728 52.3987 112.728 51.2468ZM116.03 51.2468C116.03 50.4222 115.478 49.8947 114.737 49.8947C113.997 49.8947 113.432 50.4283 113.432 51.2468C113.432 52.0652 113.991 52.6048 114.737 52.6048C115.484 52.6048 116.03 52.0652 116.03 51.2468Z" fill="#0F1419"/>
    <path d="M119.788 49.2884V49.9675C119.727 49.9614 119.679 49.9614 119.63 49.9614C118.877 49.9614 118.416 50.4222 118.416 51.2649V53.1869H117.718V49.3309H118.386V49.9796C118.634 49.531 119.114 49.2945 119.788 49.2945V49.2884Z" fill="#0F1419"/>
    <path d="M124.25 47.7788V53.1748H123.582V52.5624C123.266 52.9989 122.775 53.2172 122.204 53.2172C121.075 53.2172 120.255 52.423 120.255 51.2468C120.255 50.0705 121.081 49.2824 122.204 49.2824C122.75 49.2824 123.23 49.4885 123.552 49.9008V47.7788H124.25ZM123.558 51.2468C123.558 50.4222 122.999 49.8947 122.265 49.8947C121.53 49.8947 120.96 50.4283 120.96 51.2468C120.96 52.0652 121.518 52.6048 122.265 52.6048C123.011 52.6048 123.558 52.0652 123.558 51.2468Z" fill="#0F1419"/>
    <path d="M135.377 99.2528H55.9512V112.834H135.377V99.2528Z" fill="white"/>
    <g opacity="0.7">
        <path d="M63.5572 103.83V107.723H63.2172L60.7101 104.564V107.723H60.2974V103.83H60.6373L63.1505 106.989V103.83H63.5572Z" fill="#0F1419"/>
        <path d="M67.2907 106.383H64.8382C64.8807 106.995 65.3481 107.401 65.9916 107.401C66.3497 107.401 66.6654 107.274 66.89 107.019L67.1146 107.274C66.8536 107.583 66.4469 107.753 65.9855 107.753C65.075 107.753 64.4497 107.128 64.4497 106.261C64.4497 105.394 65.0568 104.776 65.8823 104.776C66.7079 104.776 67.3028 105.382 67.3028 106.261C67.3028 106.292 67.3028 106.34 67.3028 106.383H67.2907ZM64.8382 106.086H66.9143C66.8657 105.516 66.4469 105.116 65.8763 105.116C65.3056 105.116 64.8928 105.516 64.8382 106.086Z" fill="#0F1419"/>
        <path d="M72.3474 104.794L71.2426 107.717H70.8723L69.9496 105.322L69.0269 107.717H68.6566L67.5518 104.794H67.9281L68.8448 107.28L69.7857 104.794H70.1256L71.0605 107.28L71.9892 104.794H72.3535H72.3474Z" fill="#0F1419"/>
        <path d="M77.5376 105.164C77.5376 105.995 76.9366 106.492 75.9471 106.492H74.903V107.723H74.4902V103.83H75.9471C76.9366 103.83 77.5376 104.333 77.5376 105.164ZM77.1248 105.164C77.1248 104.54 76.712 104.188 75.935 104.188H74.897V106.134H75.935C76.712 106.134 77.1248 105.776 77.1248 105.164Z" fill="#0F1419"/>
        <path d="M80.5242 105.91V107.723H80.1479V107.268C79.9718 107.571 79.6258 107.753 79.1402 107.753C78.4785 107.753 78.0718 107.407 78.0718 106.904C78.0718 106.456 78.3632 106.074 79.2009 106.074H80.1297V105.898C80.1297 105.395 79.8443 105.128 79.298 105.128C78.9216 105.128 78.5635 105.261 78.3207 105.473L78.1446 105.176C78.4421 104.928 78.8731 104.782 79.3344 104.782C80.0932 104.782 80.5182 105.158 80.5182 105.916L80.5242 105.91ZM80.1297 106.844V106.365H79.213C78.6424 106.365 78.4603 106.589 78.4603 106.886C78.4603 107.225 78.7335 107.438 79.2009 107.438C79.6683 107.438 79.9718 107.225 80.1297 106.844Z" fill="#0F1419"/>
        <path d="M81.1919 107.383L81.3679 107.074C81.6047 107.256 81.9993 107.401 82.406 107.401C82.9645 107.401 83.1891 107.213 83.1891 106.922C83.1891 106.158 81.289 106.759 81.289 105.607C81.289 105.128 81.7018 104.77 82.4485 104.77C82.8248 104.77 83.2376 104.873 83.4865 105.043L83.3165 105.358C83.0616 105.182 82.752 105.11 82.4545 105.11C81.9264 105.11 81.6897 105.316 81.6897 105.595C81.6897 106.383 83.5897 105.789 83.5897 106.91C83.5897 107.413 83.1466 107.747 82.3817 107.747C81.8961 107.747 81.4286 107.589 81.1919 107.383Z" fill="#0F1419"/>
        <path d="M83.9175 107.383L84.0935 107.074C84.3303 107.256 84.7248 107.401 85.1316 107.401C85.69 107.401 85.9147 107.213 85.9147 106.922C85.9147 106.158 84.0146 106.759 84.0146 105.607C84.0146 105.128 84.4274 104.77 85.1741 104.77C85.5504 104.77 85.9632 104.873 86.2121 105.043L86.0421 105.358C85.7872 105.182 85.4776 105.11 85.1801 105.11C84.652 105.11 84.4153 105.316 84.4153 105.595C84.4153 106.383 86.3153 105.789 86.3153 106.91C86.3153 107.413 85.8722 107.747 85.1073 107.747C84.6217 107.747 84.1542 107.589 83.9175 107.383Z" fill="#0F1419"/>
        <path d="M91.2868 104.794L90.182 107.717H89.8117L88.889 105.322L87.9663 107.717H87.596L86.4912 104.794H86.8676L87.7842 107.28L88.7251 104.794H89.0651L89.9999 107.28L90.9287 104.794H91.2929H91.2868Z" fill="#0F1419"/>
        <path d="M91.5054 106.255C91.5054 105.388 92.1428 104.77 92.9987 104.77C93.8546 104.77 94.486 105.388 94.486 106.255C94.486 107.122 93.8546 107.747 92.9987 107.747C92.1428 107.747 91.5054 107.122 91.5054 106.255ZM94.0853 106.255C94.0853 105.57 93.624 105.116 92.9987 105.116C92.3734 105.116 91.906 105.57 91.906 106.255C91.906 106.941 92.3734 107.395 92.9987 107.395C93.624 107.395 94.0853 106.941 94.0853 106.255Z" fill="#0F1419"/>
        <path d="M96.7622 104.776V105.158C96.7319 105.158 96.6954 105.158 96.6651 105.158C96.052 105.158 95.6817 105.546 95.6817 106.237V107.729H95.2871V104.806H95.6635V105.382C95.8456 104.994 96.222 104.788 96.7622 104.788V104.776Z" fill="#0F1419"/>
        <path d="M100.12 103.594V107.717H99.7432V107.141C99.5065 107.535 99.0998 107.747 98.6141 107.747C97.7764 107.747 97.1572 107.141 97.1572 106.255C97.1572 105.37 97.7825 104.77 98.6141 104.77C99.0816 104.77 99.4822 104.97 99.725 105.346V103.588H100.12V103.594ZM99.7311 106.255C99.7311 105.57 99.2637 105.116 98.6445 105.116C98.0253 105.116 97.5518 105.57 97.5518 106.255C97.5518 106.941 98.0192 107.395 98.6445 107.395C99.2697 107.395 99.7311 106.941 99.7311 106.255Z" fill="#0F1419"/>
    </g>
    <path d="M135.377 68.5624H55.9512V82.1433H135.377V68.5624Z" fill="white"/>
    <g opacity="0.7">
        <path d="M59.9517 75.0861C59.9517 73.9523 60.8197 73.1035 61.9974 73.1035C63.1751 73.1035 64.0431 73.9402 64.0431 75.0861C64.0431 76.232 63.169 77.0626 61.9974 77.0626C60.8258 77.0626 59.9517 76.2198 59.9517 75.0861ZM63.6303 75.0861C63.6303 74.1584 62.9322 73.4733 61.9974 73.4733C61.0625 73.4733 60.3523 74.1584 60.3523 75.0861C60.3523 76.0137 61.0565 76.6988 61.9974 76.6988C62.9383 76.6988 63.6303 76.0137 63.6303 75.0861Z" fill="#263238"/>
        <path d="M64.8867 72.9034H65.2813V77.0262H64.8867V72.9034Z" fill="#263238"/>
        <path d="M69.0571 72.9034V77.0262H68.6807V76.4502C68.444 76.8443 68.0373 77.0565 67.5516 77.0565C66.7139 77.0565 66.0947 76.4502 66.0947 75.565C66.0947 74.6799 66.72 74.0796 67.5516 74.0796C68.0191 74.0796 68.4197 74.2797 68.6625 74.6556V72.8974H69.0571V72.9034ZM68.6686 75.565C68.6686 74.8799 68.2012 74.4252 67.582 74.4252C66.9628 74.4252 66.4893 74.8799 66.4893 75.565C66.4893 76.2501 66.9567 76.7049 67.582 76.7049C68.2072 76.7049 68.6686 76.2501 68.6686 75.565Z" fill="#263238"/>
        <path d="M74.7515 74.4737C74.7515 75.3043 74.1505 75.8015 73.161 75.8015H72.1169V77.0323H71.7041V73.1399H73.161C74.1505 73.1399 74.7515 73.6431 74.7515 74.4737ZM74.3387 74.4737C74.3387 73.8492 73.9259 73.4976 73.1489 73.4976H72.1108V75.4438H73.1489C73.9259 75.4438 74.3387 75.0861 74.3387 74.4737Z" fill="#263238"/>
        <path d="M77.744 75.2195V77.0323H77.3676V76.5775C77.1915 76.8807 76.8455 77.0626 76.3599 77.0626C75.6982 77.0626 75.2915 76.717 75.2915 76.2138C75.2915 75.7651 75.5829 75.3832 76.4206 75.3832H77.3494V75.2073C77.3494 74.7041 77.0641 74.4373 76.5177 74.4373C76.1414 74.4373 75.7832 74.5707 75.5404 74.7829L75.3643 74.4858C75.6618 74.2373 76.0928 74.0918 76.5542 74.0918C77.313 74.0918 77.7379 74.4677 77.7379 75.2255L77.744 75.2195ZM77.3494 76.1531V75.6742H76.4327C75.8621 75.6742 75.68 75.8985 75.68 76.1956C75.68 76.5351 75.9532 76.7473 76.4206 76.7473C76.888 76.7473 77.1915 76.5351 77.3494 76.1531Z" fill="#263238"/>
        <path d="M78.4116 76.6988L78.5877 76.3896C78.8244 76.5715 79.219 76.717 79.6257 76.717C80.1842 76.717 80.4088 76.529 80.4088 76.238C80.4088 75.4741 78.5088 76.0743 78.5088 74.9224C78.5088 74.4434 78.9215 74.0857 79.6682 74.0857C80.0446 74.0857 80.4574 74.1888 80.7062 74.3585L80.5363 74.6738C80.2813 74.498 79.9717 74.4252 79.6743 74.4252C79.1461 74.4252 78.9094 74.6314 78.9094 74.9102C78.9094 75.6984 80.8094 75.1043 80.8094 76.2259C80.8094 76.7291 80.3663 77.0626 79.6014 77.0626C79.1158 77.0626 78.6484 76.9049 78.4116 76.6988Z" fill="#263238"/>
        <path d="M81.1313 76.6988L81.3074 76.3896C81.5441 76.5715 81.9387 76.717 82.3454 76.717C82.9039 76.717 83.1285 76.529 83.1285 76.238C83.1285 75.4741 81.2285 76.0743 81.2285 74.9224C81.2285 74.4434 81.6413 74.0857 82.3879 74.0857C82.7643 74.0857 83.1771 74.1888 83.426 74.3585L83.256 74.6738C83.001 74.498 82.6914 74.4252 82.394 74.4252C81.8659 74.4252 81.6291 74.6314 81.6291 74.9102C81.6291 75.6984 83.5292 75.1043 83.5292 76.2259C83.5292 76.7291 83.086 77.0626 82.3212 77.0626C81.8355 77.0626 81.3681 76.9049 81.1313 76.6988Z" fill="#263238"/>
        <path d="M88.5007 74.11L87.3959 77.0323H87.0256L86.1029 74.6374L85.1802 77.0323H84.8099L83.7051 74.11H84.0814L84.9981 76.5957L85.939 74.11H86.2789L87.2138 76.5957L88.1426 74.11H88.5068H88.5007Z" fill="#263238"/>
        <path d="M88.7192 75.5711C88.7192 74.7041 89.3566 74.0857 90.2126 74.0857C91.0685 74.0857 91.6998 74.7041 91.6998 75.5711C91.6998 76.4381 91.0685 77.0626 90.2126 77.0626C89.3566 77.0626 88.7192 76.4381 88.7192 75.5711ZM91.2992 75.5711C91.2992 74.886 90.8378 74.4313 90.2126 74.4313C89.5873 74.4313 89.1199 74.886 89.1199 75.5711C89.1199 76.2562 89.5873 76.7109 90.2126 76.7109C90.8378 76.7109 91.2992 76.2562 91.2992 75.5711Z" fill="#263238"/>
        <path d="M93.9824 74.0857V74.4677C93.9521 74.4677 93.9157 74.4677 93.8853 74.4677C93.2722 74.4677 92.9019 74.8557 92.9019 75.5468V77.0383H92.5073V74.116H92.8837V74.6859C93.0658 74.2979 93.4422 74.0918 93.9824 74.0918V74.0857Z" fill="#263238"/>
        <path d="M97.3393 72.9034V77.0262H96.963V76.4502C96.7262 76.8443 96.3195 77.0565 95.8339 77.0565C94.9961 77.0565 94.377 76.4502 94.377 75.565C94.377 74.6799 95.0022 74.0796 95.8339 74.0796C96.3013 74.0796 96.7019 74.2797 96.9447 74.6556V72.8974H97.3393V72.9034ZM96.9508 75.565C96.9508 74.8799 96.4834 74.4252 95.8642 74.4252C95.245 74.4252 94.7715 74.8799 94.7715 75.565C94.7715 76.2501 95.239 76.7049 95.8642 76.7049C96.4895 76.7049 96.9508 76.2501 96.9508 75.565Z" fill="#263238"/>
    </g>
    <path d="M144.986 35.8349C148.919 28.9777 157.697 26.6011 164.563 30.5238L163.974 31.5484L168.041 30.445L166.936 26.3828L166.348 27.4074C157.764 22.4965 146.777 25.4734 141.859 34.0524C138.047 40.6973 138.885 49.0217 143.936 54.7754L146.643 52.4048C142.606 47.803 141.938 41.146 144.986 35.8349Z" fill="#263238"/>
    <path d="M171.119 31.3665L168.375 33.6886C172.266 38.2721 172.867 44.8565 169.874 50.0766C165.941 56.9337 157.163 59.3104 150.297 55.3877L150.886 54.3631L146.819 55.4665L147.924 59.5287L148.513 58.504C157.096 63.415 168.084 60.4381 173.001 51.8591C176.746 45.3354 175.987 37.0959 171.125 31.3604L171.119 31.3665Z" fill="#263238"/>
    <g opacity="0.6">
        <path d="M144.986 35.8349C148.919 28.9777 157.697 26.6011 164.563 30.5238L163.974 31.5484L168.041 30.445L166.936 26.3828L166.348 27.4074C157.764 22.4965 146.777 25.4734 141.859 34.0524C138.047 40.6973 138.885 49.0217 143.936 54.7754L146.643 52.4048C142.606 47.803 141.938 41.146 144.986 35.8349Z" fill="white"/>
        <path d="M171.119 31.3665L168.375 33.6886C172.266 38.2721 172.867 44.8565 169.874 50.0766C165.941 56.9337 157.163 59.3104 150.297 55.3877L150.886 54.3631L146.819 55.4665L147.924 59.5287L148.513 58.504C157.096 63.415 168.084 60.4381 173.001 51.8591C176.746 45.3354 175.987 37.0959 171.125 31.3604L171.119 31.3665Z" fill="white"/>
    </g>
    <path d="M154.844 25.9645H150.886V13.8326C150.886 9.19448 147.11 5.42336 142.466 5.42336C137.823 5.42336 134.047 9.19448 134.047 13.8326V25.9645H130.089V13.8326C130.089 7.0179 135.643 1.47035 142.466 1.47035C149.29 1.47035 154.844 7.0179 154.844 13.8326V25.9645Z" fill="#263238"/>
    <g opacity="0.3">
        <path d="M154.844 25.9645H150.886V13.8326C150.886 9.19448 147.11 5.42336 142.466 5.42336C137.823 5.42336 134.047 9.19448 134.047 13.8326V25.9645H130.089V13.8326C130.089 7.0179 135.643 1.47035 142.466 1.47035C149.29 1.47035 154.844 7.0179 154.844 13.8326V25.9645Z" fill="white"/>
    </g>
    <path d="M159.385 22.8784V42.7223C159.385 43.9955 158.353 45.0262 157.078 45.0262H127.855C126.593 45.0262 125.561 43.9955 125.561 42.7223V22.8784C125.561 21.6052 126.593 20.5745 127.855 20.5745H157.078C157.473 20.5745 157.849 20.6715 158.171 20.8534C158.893 21.2354 159.385 21.9993 159.385 22.8784Z" fill="#A1A1A1"/>
    <path opacity="0.2" d="M158.171 20.8534V40.2971C158.171 41.5704 157.139 42.595 155.864 42.595H126.641C126.253 42.595 125.882 42.498 125.561 42.3222V22.8784C125.561 21.6052 126.593 20.5745 127.855 20.5745H157.078C157.473 20.5745 157.849 20.6715 158.171 20.8534Z" fill="white"/>
    <path opacity="0.5" d="M146.819 30.3116C146.819 27.8682 144.871 25.8796 142.467 25.8796C140.063 25.8796 138.114 27.8621 138.114 30.3116C138.114 32.2153 139.298 33.822 140.955 34.4525L140.731 39.7272H144.215L143.693 34.5495C145.496 34.0099 146.825 32.3305 146.825 30.3176L146.819 30.3116Z" fill="black"/>
    <path d="M25.543 57.7789L27.5584 64.2419L29.5677 57.7789H25.543Z" fill="#D6D3D2"/>
    <path d="M44.0337 42.3185H11.0773C8.19741 42.3185 5.86279 44.6502 5.86279 47.5265V54.5413C5.86279 57.4176 8.19741 59.7493 11.0773 59.7493H44.0337C46.9136 59.7493 49.2482 57.4176 49.2482 54.5413V47.5265C49.2482 44.6502 46.9136 42.3185 44.0337 42.3185Z" fill="#D6D3D2"/>
    <path d="M16.0613 51.0248L17.2025 51.6675L16.9051 52.195L15.7456 51.5159L15.7578 52.8195H15.1811L15.1932 51.5159L14.0338 52.195L13.7363 51.6675L14.8897 51.0248L13.7363 50.3943L14.0338 49.8547L15.1932 50.5337L15.1811 49.2423H15.7578L15.7456 50.5337L16.9051 49.8547L17.2025 50.3943L16.0613 51.0248Z" fill="#474747"/>
    <path d="M20.0921 51.0248L21.2333 51.6675L20.9359 52.195L19.7764 51.5159L19.7885 52.8195H19.2119L19.224 51.5159L18.0645 52.195L17.7671 51.6675L18.9205 51.0248L17.7671 50.3943L18.0645 49.8547L19.224 50.5337L19.2119 49.2423H19.7885L19.7764 50.5337L20.9359 49.8547L21.2333 50.3943L20.0921 51.0248Z" fill="#474747"/>
    <path d="M24.1228 51.0248L25.2641 51.6675L24.9666 52.195L23.8072 51.5159L23.8193 52.8195H23.2426L23.2548 51.5159L22.0953 52.195L21.7979 51.6675L22.9512 51.0248L21.7979 50.3943L22.0953 49.8547L23.2548 50.5337L23.2426 49.2423H23.8193L23.8072 50.5337L24.9666 49.8547L25.2641 50.3943L24.1228 51.0248Z" fill="#474747"/>
    <path d="M28.1536 51.0248L29.2948 51.6675L28.9974 52.195L27.8379 51.5159L27.8501 52.8195H27.2734L27.2855 51.5159L26.1261 52.195L25.8286 51.6675L26.982 51.0248L25.8286 50.3943L26.1261 49.8547L27.2855 50.5337L27.2734 49.2423H27.8501L27.8379 50.5337L28.9974 49.8547L29.2948 50.3943L28.1536 51.0248Z" fill="#474747"/>
    <path d="M32.1785 51.0248L33.3197 51.6675L33.0223 52.195L31.8628 51.5159L31.875 52.8195H31.2983L31.3104 51.5159L30.151 52.195L29.8535 51.6675L31.0069 51.0248L29.8535 50.3943L30.151 49.8547L31.3104 50.5337L31.2983 49.2423H31.875L31.8628 50.5337L33.0223 49.8547L33.3197 50.3943L32.1785 51.0248Z" fill="#474747"/>
    <path d="M36.2093 51.0248L37.3505 51.6675L37.053 52.195L35.8936 51.5159L35.9057 52.8195H35.329L35.3412 51.5159L34.1817 52.195L33.8843 51.6675L35.0377 51.0248L33.8843 50.3943L34.1817 49.8547L35.3412 50.5337L35.329 49.2423H35.9057L35.8936 50.5337L37.053 49.8547L37.3505 50.3943L36.2093 51.0248Z" fill="#474747"/>
    <path d="M40.24 51.0248L41.3813 51.6675L41.0838 52.195L39.9244 51.5159L39.9365 52.8195H39.3598L39.3719 51.5159L38.2125 52.195L37.915 51.6675L39.0684 51.0248L37.915 50.3943L38.2125 49.8547L39.3719 50.5337L39.3598 49.2423H39.9365L39.9244 50.5337L41.0838 49.8547L41.3813 50.3943L40.24 51.0248Z" fill="#474747"/>
</svg>
