<svg width="185" height="216" viewBox="0 0 185 216" fill="none" xmlns="http://www.w3.org/2000/svg">
    <g clip-path="url(#clip0_3467_6831)">
        <path d="M160.965 153.13C164.97 146.909 163.849 139.072 158.461 135.626C153.072 132.179 145.456 134.429 141.451 140.65C137.445 146.871 138.566 154.708 143.954 158.154C149.343 161.601 156.959 159.351 160.965 153.13Z" fill="#FFF9E5"/>
        <path d="M121.054 13.3413C122.948 8.64557 120.058 3.06746 114.602 0.882288C109.145 -1.30289 103.186 0.732357 101.293 5.42813C99.3999 10.1239 102.289 15.702 107.746 17.8872C113.203 20.0724 119.161 18.0371 121.054 13.3413Z" fill="#FFF9E5"/>
        <path d="M130.435 22.0479C132.172 22.7439 134.124 21.9619 134.798 20.2996C135.467 18.6373 134.6 16.7253 132.863 16.0293C131.125 15.3332 129.173 16.1152 128.5 17.7775C127.83 19.4398 128.697 21.3519 130.435 22.0479Z" fill="#FFF9E5"/>
        <path d="M171.344 81.002C171.854 50.139 146.42 24.3489 115.448 24.3489C115.066 24.3489 114.68 24.3489 114.298 24.3612C106.193 24.525 98.2145 22.3509 91.4483 17.9004C82.8047 12.2174 72.489 8.8642 61.3928 8.73318C30.5485 8.36879 5.04077 33.2786 4.81071 64.0188C4.72033 75.9415 8.38895 87.0084 14.7073 96.106C20.96 105.113 24.3616 115.775 24.4602 126.732C24.4602 126.924 24.4643 127.112 24.4684 127.305C25.0477 157.635 50.2103 182.087 80.652 181.935C104.315 181.816 124.503 167.044 132.543 146.257C135.878 137.635 141.601 130.175 149.012 124.623C162.347 114.633 171.049 98.8369 171.344 81.002Z" fill="#FFF9E5"/>
        <path d="M11.7454 131.101C16.324 130.165 18.7146 122.987 17.085 115.068C15.4554 107.149 10.4226 101.488 5.84403 102.424C1.26541 103.36 -1.12523 110.538 0.504387 118.457C2.134 126.376 7.16676 132.037 11.7454 131.101Z" fill="#FFF9E5"/>
        <path d="M19.1113 141.393C19.5796 143.666 18.0801 145.893 15.7631 146.368C13.4461 146.843 11.1907 145.381 10.7224 143.109C10.254 140.836 11.7535 138.609 14.0705 138.134C16.3876 137.659 18.643 139.121 19.1113 141.393Z" fill="#FFF9E5"/>
        <path d="M103.424 11.8203H111.172C117.589 11.8203 122.794 17.0037 122.794 23.4031V171.294C122.794 177.689 117.593 182.877 111.172 182.877H55.1484C48.7314 182.877 43.5264 177.694 43.5264 171.294V23.399C43.5264 17.0037 48.7273 11.8162 55.1484 11.8162H103.424V11.8203Z" fill="#D6D3D2"/>
        <path d="M110.161 22.4123H56.1588C54.5003 22.4123 53.1558 23.7523 53.1558 25.4053V34.0402C53.1558 35.6931 54.5003 37.0331 56.1588 37.0331H110.161C111.82 37.0331 113.164 35.6931 113.164 34.0402V25.4053C113.164 23.7523 111.82 22.4123 110.161 22.4123Z" fill="#E5E0DF"/>
        <path d="M110.161 50.6672H56.1588C54.5003 50.6672 53.1558 52.0072 53.1558 53.6602V110.944C53.1558 112.597 54.5003 113.937 56.1588 113.937H110.161C111.82 113.937 113.164 112.597 113.164 110.944V53.6602C113.164 52.0072 111.82 50.6672 110.161 50.6672Z" fill="#E5E0DF"/>
        <path d="M110.161 119.681H56.1588C54.5003 119.681 53.1558 121.021 53.1558 122.674V128.152C53.1558 129.805 54.5003 131.145 56.1588 131.145H110.161C111.82 131.145 113.164 129.805 113.164 128.152V122.674C113.164 121.021 111.82 119.681 110.161 119.681Z" fill="#E5E0DF"/>
        <path d="M110.161 138.335H56.1588C54.5003 138.335 53.1558 139.675 53.1558 141.328V146.806C53.1558 148.459 54.5003 149.799 56.1588 149.799H110.161C111.82 149.799 113.164 148.459 113.164 146.806V141.328C113.164 139.675 111.82 138.335 110.161 138.335Z" fill="#E5E0DF"/>
        <g filter="url(#filter0_d_3467_6831)">
            <path d="M69.4924 166.911C70.2025 162.413 67.1188 158.192 62.6048 157.484C58.0907 156.776 53.8557 159.85 53.1456 164.348C52.4355 168.847 55.5192 173.068 60.0332 173.776C64.5473 174.483 68.7823 171.41 69.4924 166.911Z" fill="#E5E0DF"/>
        </g>
        <path d="M57.0747 161.369V169.82H65.554V161.369H57.0747ZM64.0874 168.477H58.5413V166.868L59.5684 165.849L60.4023 166.672L62.5345 164.547L64.0915 166.098V168.481L64.0874 168.477Z" fill="#C9C4C3"/>
        <g filter="url(#filter1_d_3467_6831)">
            <path d="M89.6312 171.455C92.8623 168.235 92.8623 163.014 89.6312 159.793C86.4 156.573 81.1613 156.573 77.9301 159.793C74.699 163.014 74.699 168.235 77.9301 171.455C81.1613 174.675 86.4 174.675 89.6312 171.455Z" fill="#E5E0DF"/>
        </g>
        <path d="M80.1015 161.848H81.3257V161.414H79.666V163.065H80.1015V161.848Z" fill="#C9C4C3"/>
        <path d="M87.4594 169.181H86.2393V169.615H87.8949V167.961H87.4594V169.181Z" fill="#C9C4C3"/>
        <path d="M80.1015 167.961H79.666V169.615H81.3257V169.181H80.1015V167.961Z" fill="#C9C4C3"/>
        <path d="M86.2393 161.414V161.848H87.4594V163.065H87.8949V161.414H86.2393Z" fill="#C9C4C3"/>
        <path d="M81.2188 164.862H83.1414V162.946H81.2188V164.862ZM81.6542 163.38H82.7059V164.428H81.6542V163.38Z" fill="#C9C4C3"/>
        <path d="M86.3421 162.942H84.4194V164.858H86.3421V162.942ZM85.9066 164.424H84.8549V163.376H85.9066V164.424Z" fill="#C9C4C3"/>
        <path d="M81.2188 168.084H83.1414V166.168H81.2188V168.084ZM81.6542 166.602H82.7059V167.65H81.6542V166.602Z" fill="#C9C4C3"/>
        <path d="M86.3421 166.168H84.4194V168.084H86.3421V166.168ZM85.9066 167.65H84.8549V166.602H85.9066V167.65Z" fill="#C9C4C3"/>
        <g filter="url(#filter2_d_3467_6831)">
            <path d="M110.854 171.455C114.085 168.235 114.085 163.014 110.854 159.794C107.623 156.573 102.384 156.573 99.1528 159.794C95.9216 163.014 95.9216 168.235 99.1528 171.455C102.384 174.675 107.623 174.675 110.854 171.455Z" fill="#E5E0DF"/>
        </g>
        <path d="M106.624 161.521H104.192L101.969 165.873H104.442L102.968 170.492L108.267 164.018H105.198L106.624 161.521Z" fill="#C9C4C3"/>
        <g filter="url(#filter3_d_3467_6831)">
            <path d="M83.2975 26.1627H27.9725C24.222 26.1627 21.1816 29.1928 21.1816 32.9306V90.0546C21.1816 93.7924 24.222 96.8225 27.9725 96.8225H83.2975C87.0479 96.8225 90.0883 93.7924 90.0883 90.0546V32.9306C90.0883 29.1928 87.0479 26.1627 83.2975 26.1627Z" fill="#FFD24A"/>
        </g>
        <path d="M47.6507 51.527H38.7729V60.3749H47.6507V51.527ZM46.2868 59.0155H40.141V52.8904H46.2868V59.0155Z" fill="url(#paint0_linear_3467_6831)"/>
        <path d="M44.7378 54.4258H41.6772V57.4761H44.7378V54.4258Z" fill="url(#paint1_linear_3467_6831)"/>
        <path d="M72.4969 51.527H63.6191V60.3749H72.4969V51.527ZM71.133 59.0155H64.9872V52.8904H71.133V59.0155Z" fill="url(#paint2_linear_3467_6831)"/>
        <path d="M69.5884 54.4258H66.5278V57.4761H69.5884V54.4258Z" fill="url(#paint3_linear_3467_6831)"/>
        <path d="M38.7729 85.1414H47.6507V76.2936H38.7729V85.1414ZM40.1369 77.6529H46.2827V83.778H40.1369V77.6529Z" fill="url(#paint4_linear_3467_6831)"/>
        <path d="M44.7378 79.1883H41.6772V82.2385H44.7378V79.1883Z" fill="url(#paint5_linear_3467_6831)"/>
        <path d="M58.1802 60.0064H60.0207V61.4025H61.1463V60.0064V57.4024H60.0207H58.1802H56.9847H55.2757V60.0064H53.4312V61.6932H55.2757V60.0064H56.9847V62.8683H58.1802V60.0064Z" fill="url(#paint6_linear_3467_6831)"/>
        <path d="M60.0204 55.0277H61.1461V52.653V51.527H60.0204H57.6377V52.653H60.0204V55.0277Z" fill="url(#paint7_linear_3467_6831)"/>
        <path d="M52.5065 51.527H50.1196V53.5701H52.5065V51.527Z" fill="url(#paint8_linear_3467_6831)"/>
        <path d="M70.9935 62.8355H69.4488V64.6043H70.9935V65.1406H67.9082V66.9872H70.9935V68.7928H72.4971V66.9872V65.1488V62.8683V62.8355H70.9935Z" fill="url(#paint9_linear_3467_6831)"/>
        <path d="M63.4963 75.5238V74.4143H60.6123V77.2353H63.4963V75.5238ZM62.3829 75.7572V76.1462H61.7256V75.5034H62.3829V75.7572Z" fill="url(#paint10_linear_3467_6831)"/>
        <path d="M52.5065 75.3969H50.1196V77.8167H52.5065V75.3969Z" fill="url(#paint11_linear_3467_6831)"/>
        <path d="M48.8052 73.8288H50.6867H52.3957V71.9618H48.8052V73.8288Z" fill="url(#paint12_linear_3467_6831)"/>
        <path d="M52.5108 63.4579V62.8683V61.337H50.7361V63.4333H48.7847V63.4579V65.1488H52.5108V63.4579Z" fill="url(#paint13_linear_3467_6831)"/>
        <path d="M41.3159 66.9872H38.7729V68.7928H41.3159V66.9872Z" fill="url(#paint14_linear_3467_6831)"/>
        <path d="M41.9732 65.1488H41.0283V62.8683H38.7729V65.1488H41.0201V66.111H41.9732V65.1488Z" fill="url(#paint15_linear_3467_6831)"/>
        <path d="M58.1799 83.2048H56.9844V85.1414H58.1799H60.0203V81.8373H58.1799V83.2048Z" fill="url(#paint16_linear_3467_6831)"/>
        <path d="M41.9157 70.5001H38.7729V73.8329H41.9157V70.5001Z" fill="url(#paint17_linear_3467_6831)"/>
        <path d="M42.77 73.8288H47.4862V71.9618H45.6416V70.5001H42.77V73.8329V73.8288ZM43.3739 71.7243H44.2654V72.6128H43.3739V71.7243Z" fill="url(#paint18_linear_3467_6831)"/>
        <path d="M50.4443 69.6321H48.8052V70.5001V71.0938H50.4443V70.5001V69.6321Z" fill="url(#paint19_linear_3467_6831)"/>
        <path d="M63.0278 69.8082H61.4297V71.2698H63.0278V69.8082Z" fill="url(#paint20_linear_3467_6831)"/>
        <path d="M72.4973 70.5001H70.9937V71.9618H72.4973V70.5001Z" fill="url(#paint21_linear_3467_6831)"/>
        <path d="M52.7489 59.4086H54.2114V57.341H52.7489H52.0176H50.1196V59.4086H52.0176H52.7489Z" fill="url(#paint22_linear_3467_6831)"/>
        <path d="M52.5065 78.8239H50.1196V80.6622H52.5065V78.8239Z" fill="url(#paint23_linear_3467_6831)"/>
        <path d="M60.0165 78.5495H58.1802V80.3388H60.0165V78.5495Z" fill="url(#paint24_linear_3467_6831)"/>
        <path d="M70.9935 80.3388V82.6193H68.2246V85.1414H70.9935H72.4971V80.3388V77.8167H70.9935V80.3388Z" fill="url(#paint25_linear_3467_6831)"/>
        <path d="M67.0497 63.5848H64.7573V65.1488H67.0497V63.5848Z" fill="url(#paint26_linear_3467_6831)"/>
        <path d="M64.0919 75.3969H66.6718V71.9618H64.0919H60.0207V70.5001V68.7928H58.1802V70.5001H56.9847V71.9618V73.8288V75.3969H55.2757V73.8288H53.4312V75.3969V77.8167H55.2757V80.3388H56.9847V77.8167H58.1802V75.5197H60.0207V73.8288V73.665H64.0919V73.8288V75.3969Z" fill="url(#paint27_linear_3467_6831)"/>
        <path d="M67.8838 75.3969V75.4379H69.8763V75.3969V73.4603H67.8838V75.3969Z" fill="url(#paint28_linear_3467_6831)"/>
        <path d="M69.8804 76.7439H70.9937H71.1991V75.4338H70.9937H69.8804V76.7439Z" fill="url(#paint29_linear_3467_6831)"/>
        <path d="M69.1324 77.8167V77.6652H64.5723V77.8167V80.1873H69.1324V77.8167Z" fill="url(#paint30_linear_3467_6831)"/>
        <path d="M66.9263 81.5998H64.7407V85.1414H66.9263V81.5998Z" fill="url(#paint31_linear_3467_6831)"/>
        <path d="M63.5783 79.2128H60.6738V80.9652H63.5783V79.2128Z" fill="url(#paint32_linear_3467_6831)"/>
        <path d="M63.578 81.8537H62.5879V82.8568H63.578V81.8537Z" fill="url(#paint33_linear_3467_6831)"/>
        <path d="M63.5783 83.692H60.6738V85.1373H63.5783V83.692Z" fill="url(#paint34_linear_3467_6831)"/>
        <path d="M45.6416 65.1488H47.4862V62.8683V62.8355H45.6416V62.8683V65.1488Z" fill="url(#paint35_linear_3467_6831)"/>
        <path d="M58.1799 66.9872H60.0162V68.7928H67.4726V66.9872H64.0915V62.8683H60.0203V65.1488H56.9844V66.9872H58.184H58.1799ZM62.5017 66.6228V65.5501H63.578V66.6228H62.5017Z" fill="url(#paint36_linear_3467_6831)"/>
        <path d="M55.2757 65.1488H56.9847V62.8683H55.2757H53.4312V65.1488V66.9872H55.2757V65.1488Z" fill="url(#paint37_linear_3467_6831)"/>
        <path d="M56.9847 53.6233H55.2757V51.527H53.4312V56.6367H56.9847V53.6233Z" fill="url(#paint38_linear_3467_6831)"/>
        <path d="M56.9844 66.9872H55.2754V68.7928H53.4308V66.9872H52.5105H47.4862H45.6417H41.9155V68.7928H45.6417V70.5001H47.4862V68.7928H52.5105V70.5001H53.4308V71.9618H55.2754V70.5001H56.9844V68.7928V66.9872Z" fill="url(#paint39_linear_3467_6831)"/>
        <path d="M52.2682 82.9591H50.1196V85.1414H52.2682H52.5106H55.8875V81.8864H52.2682V82.9591Z" fill="url(#paint40_linear_3467_6831)"/>
        <path d="M59.1167 53.6725H57.7856V54.999H59.1167V53.6725Z" fill="url(#paint41_linear_3467_6831)"/>
        <path d="M69.5969 68.7928V69.6485H67.8838V71.3599H69.601V69.6526H70.6732V68.7928V68.5799H69.5969V68.7928Z" fill="url(#paint42_linear_3467_6831)"/>
        <path d="M44.5983 65.1816H43.4521V66.3239H44.5983V65.1816Z" fill="url(#paint43_linear_3467_6831)"/>
        <path d="M63.2043 60.8416H62.0581V61.9839H63.2043V60.8416Z" fill="url(#paint44_linear_3467_6831)"/>
        <path d="M78.5199 35.1088H32.7546C31.4024 35.1088 30.3062 36.2013 30.3062 37.549V42.1633C30.3062 43.511 31.4024 44.6035 32.7546 44.6035H78.5199C79.8721 44.6035 80.9683 43.511 80.9683 42.1633V37.549C80.9683 36.2013 79.8721 35.1088 78.5199 35.1088Z" fill="url(#paint45_linear_3467_6831)"/>
        <path d="M36.7059 38.9618C36.6821 38.7614 36.5859 38.6058 36.4171 38.495C36.2483 38.3842 36.0413 38.3289 35.796 38.3289C35.6167 38.3289 35.4598 38.3579 35.3252 38.4159C35.1921 38.4739 35.0879 38.5537 35.0127 38.6552C34.9389 38.7568 34.902 38.8721 34.902 39.0014C34.902 39.1095 34.9277 39.2025 34.9791 39.2803C35.0318 39.3568 35.0991 39.4207 35.1809 39.4721C35.2626 39.5222 35.3483 39.5638 35.438 39.5968C35.5277 39.6284 35.6101 39.6541 35.6852 39.6739L36.0967 39.7847C36.2022 39.8124 36.3195 39.8506 36.4487 39.8994C36.5793 39.9482 36.7039 40.0148 36.8226 40.0992C36.9426 40.1822 37.0415 40.289 37.1193 40.4196C37.1971 40.5501 37.236 40.7104 37.236 40.9002C37.236 41.1191 37.1786 41.3169 37.0639 41.4936C36.9505 41.6703 36.7843 41.8108 36.5654 41.9149C36.3479 42.0191 36.0835 42.0712 35.7723 42.0712C35.4822 42.0712 35.231 42.0244 35.0187 41.9308C34.8077 41.8371 34.6415 41.7066 34.5202 41.5391C34.4002 41.3717 34.3323 41.1772 34.3165 40.9556H34.8228C34.836 41.1086 34.8875 41.2352 34.9771 41.3354C35.0681 41.4343 35.1828 41.5081 35.3213 41.5569C35.4611 41.6044 35.6114 41.6281 35.7723 41.6281C35.9595 41.6281 36.1277 41.5978 36.2767 41.5372C36.4257 41.4752 36.5437 41.3895 36.6307 41.28C36.7177 41.1692 36.7613 41.04 36.7613 40.8923C36.7613 40.7578 36.7237 40.6484 36.6485 40.564C36.5734 40.4796 36.4745 40.411 36.3518 40.3583C36.2292 40.3055 36.0967 40.2594 35.9542 40.2198L35.4558 40.0774C35.1393 39.9864 34.8888 39.8565 34.7042 39.6877C34.5196 39.5189 34.4272 39.2981 34.4272 39.0251C34.4272 38.7983 34.4886 38.6005 34.6112 38.4317C34.7352 38.2616 34.9013 38.1297 35.1096 38.0361C35.3193 37.9412 35.5534 37.8937 35.8118 37.8937C36.0729 37.8937 36.305 37.9405 36.5081 38.0341C36.7112 38.1264 36.872 38.253 36.9907 38.4139C37.1107 38.5748 37.174 38.7574 37.1806 38.9618H36.7059ZM39.2135 42.0633C38.9286 42.0633 38.6834 41.996 38.4777 41.8615C38.2719 41.727 38.1137 41.5418 38.0029 41.3057C37.8922 41.0697 37.8368 40.8 37.8368 40.4967C37.8368 40.1882 37.8935 39.9159 38.0069 39.6798C38.1216 39.4425 38.2812 39.2572 38.4856 39.124C38.6913 38.9895 38.9313 38.9223 39.2056 38.9223C39.4192 38.9223 39.6117 38.9618 39.7831 39.0409C39.9546 39.1201 40.095 39.2308 40.2044 39.3732C40.3139 39.5157 40.3818 39.6818 40.4082 39.8717H39.9414C39.9058 39.7332 39.8266 39.6106 39.704 39.5038C39.5827 39.3957 39.4192 39.3416 39.2135 39.3416C39.0315 39.3416 38.8719 39.3891 38.7348 39.484C38.599 39.5776 38.4928 39.7102 38.4163 39.8816C38.3412 40.0517 38.3036 40.2515 38.3036 40.4809C38.3036 40.7156 38.3405 40.92 38.4144 41.0941C38.4895 41.2681 38.595 41.4033 38.7308 41.4996C38.868 41.5958 39.0289 41.644 39.2135 41.644C39.3348 41.644 39.4449 41.6229 39.5438 41.5807C39.6427 41.5385 39.7264 41.4778 39.795 41.3987C39.8636 41.3196 39.9124 41.2246 39.9414 41.1139H40.4082C40.3818 41.2932 40.3165 41.4547 40.2124 41.5985C40.1095 41.7409 39.973 41.8543 39.8029 41.9387C39.6341 42.0218 39.4376 42.0633 39.2135 42.0633ZM41.9846 42.0712C41.7921 42.0712 41.6174 42.0349 41.4605 41.9624C41.3035 41.8886 41.1789 41.7824 41.0866 41.644C40.9943 41.5042 40.9482 41.3354 40.9482 41.1376C40.9482 40.9635 40.9824 40.8224 41.051 40.7143C41.1196 40.6049 41.2112 40.5191 41.326 40.4572C41.4407 40.3952 41.5673 40.349 41.7057 40.3187C41.8455 40.2871 41.9859 40.262 42.127 40.2436C42.3116 40.2198 42.4613 40.202 42.576 40.1901C42.6921 40.177 42.7765 40.1552 42.8292 40.1249C42.8833 40.0945 42.9103 40.0418 42.9103 39.9666V39.9508C42.9103 39.7556 42.8569 39.604 42.7501 39.4959C42.6446 39.3877 42.4844 39.3337 42.2695 39.3337C42.0466 39.3337 41.8719 39.3825 41.7453 39.48C41.6187 39.5776 41.5297 39.6818 41.4783 39.7926L41.0352 39.6343C41.1143 39.4497 41.2198 39.306 41.3517 39.2031C41.4849 39.099 41.6299 39.0264 41.7868 38.9856C41.9451 38.9434 42.1007 38.9223 42.2536 38.9223C42.3512 38.9223 42.4633 38.9341 42.5899 38.9579C42.7178 38.9803 42.8411 39.0271 42.9598 39.0983C43.0798 39.1695 43.1793 39.277 43.2584 39.4207C43.3376 39.5644 43.3771 39.757 43.3771 39.9983V42H42.9103V41.5886H42.8866C42.8549 41.6545 42.8022 41.7251 42.7283 41.8002C42.6545 41.8754 42.5563 41.9393 42.4336 41.9921C42.311 42.0448 42.1613 42.0712 41.9846 42.0712ZM42.0558 41.6519C42.2404 41.6519 42.396 41.6156 42.5226 41.5431C42.6505 41.4706 42.7468 41.3769 42.8114 41.2622C42.8774 41.1475 42.9103 41.0268 42.9103 40.9002V40.473C42.8905 40.4967 42.847 40.5185 42.7798 40.5383C42.7138 40.5567 42.6374 40.5732 42.5503 40.5877C42.4646 40.6009 42.3809 40.6128 42.2991 40.6233C42.2187 40.6326 42.1534 40.6405 42.1033 40.6471C41.982 40.6629 41.8686 40.6886 41.7631 40.7242C41.6589 40.7585 41.5745 40.8106 41.5099 40.8805C41.4466 40.949 41.415 41.0427 41.415 41.1613C41.415 41.3235 41.475 41.4462 41.595 41.5292C41.7163 41.611 41.8699 41.6519 42.0558 41.6519ZM44.6959 40.1723V42H44.2291V38.9618H44.6801V39.4365H44.7197C44.7909 39.2823 44.899 39.1583 45.0441 39.0647C45.1891 38.9697 45.3764 38.9223 45.6058 38.9223C45.8115 38.9223 45.9915 38.9645 46.1458 39.0488C46.3001 39.1319 46.4201 39.2585 46.5058 39.4286C46.5915 39.5974 46.6344 39.811 46.6344 40.0695V42H46.1676V40.1011C46.1676 39.8625 46.1056 39.6765 45.9816 39.5433C45.8577 39.4088 45.6876 39.3416 45.4713 39.3416C45.3223 39.3416 45.1891 39.3739 45.0718 39.4385C44.9557 39.5031 44.8641 39.5974 44.7968 39.7214C44.7296 39.8453 44.6959 39.9956 44.6959 40.1723ZM48.8957 38.3842V37.9491H51.9339V38.3842H50.6601V42H50.1695V38.3842H48.8957ZM53.0945 40.1723V42H52.6277V37.9491H53.0945V39.4365H53.134C53.2052 39.2796 53.312 39.155 53.4545 39.0627C53.5982 38.9691 53.7894 38.9223 54.0281 38.9223C54.2351 38.9223 54.4164 38.9638 54.572 39.0469C54.7276 39.1286 54.8483 39.2546 54.934 39.4247C55.021 39.5935 55.0645 39.8084 55.0645 40.0695V42H54.5977V40.1011C54.5977 39.8598 54.5351 39.6732 54.4098 39.5414C54.2859 39.4082 54.1138 39.3416 53.8936 39.3416C53.7406 39.3416 53.6035 39.3739 53.4821 39.4385C53.3621 39.5031 53.2672 39.5974 53.1973 39.7214C53.1287 39.8453 53.0945 39.9956 53.0945 40.1723ZM55.9185 42V38.9618H56.3853V42H55.9185ZM56.1559 38.4555C56.0649 38.4555 55.9864 38.4245 55.9205 38.3625C55.8559 38.3005 55.8236 38.226 55.8236 38.139C55.8236 38.0519 55.8559 37.9774 55.9205 37.9155C55.9864 37.8535 56.0649 37.8225 56.1559 37.8225C56.2469 37.8225 56.3247 37.8535 56.3893 37.9155C56.4552 37.9774 56.4882 38.0519 56.4882 38.139C56.4882 38.226 56.4552 38.3005 56.3893 38.3625C56.3247 38.4245 56.2469 38.4555 56.1559 38.4555ZM59.3924 39.6422L58.973 39.7609C58.9467 39.691 58.9078 39.6231 58.8563 39.5572C58.8062 39.4899 58.7376 39.4346 58.6506 39.391C58.5636 39.3475 58.4522 39.3258 58.3163 39.3258C58.1304 39.3258 57.9755 39.3686 57.8515 39.4543C57.7289 39.5387 57.6676 39.6462 57.6676 39.7767C57.6676 39.8928 57.7098 39.9844 57.7941 40.0517C57.8785 40.1189 58.0104 40.175 58.1897 40.2198L58.6407 40.3306C58.9124 40.3965 59.1148 40.4974 59.248 40.6332C59.3811 40.7677 59.4477 40.9411 59.4477 41.1534C59.4477 41.3275 59.3976 41.4831 59.2974 41.6202C59.1985 41.7574 59.0601 41.8655 58.882 41.9446C58.704 42.0237 58.497 42.0633 58.261 42.0633C57.9511 42.0633 57.6946 41.996 57.4915 41.8615C57.2884 41.727 57.1599 41.5306 57.1058 41.2721L57.5489 41.1613C57.5911 41.3248 57.6709 41.4475 57.7882 41.5292C57.9069 41.611 58.0618 41.6519 58.253 41.6519C58.4706 41.6519 58.6434 41.6057 58.7713 41.5134C58.9005 41.4198 58.9651 41.3077 58.9651 41.1772C58.9651 41.0717 58.9282 40.9833 58.8543 40.9121C58.7805 40.8396 58.6671 40.7855 58.5141 40.7499L58.0078 40.6312C57.7295 40.5653 57.5251 40.4631 57.3946 40.3246C57.2654 40.1849 57.2008 40.0101 57.2008 39.8005C57.2008 39.6291 57.2489 39.4774 57.3451 39.3455C57.4427 39.2137 57.5752 39.1102 57.7427 39.035C57.9115 38.9598 58.1027 38.9223 58.3163 38.9223C58.617 38.9223 58.853 38.9882 59.0245 39.1201C59.1972 39.2519 59.3198 39.426 59.3924 39.6422ZM65.04 39.215H64.5495C64.5204 39.0739 64.4697 38.95 64.3971 38.8431C64.3259 38.7363 64.2389 38.6467 64.1361 38.5741C64.0345 38.5003 63.9218 38.4449 63.7978 38.408C63.6739 38.3711 63.5446 38.3526 63.4101 38.3526C63.1649 38.3526 62.9427 38.4146 62.7436 38.5385C62.5458 38.6625 62.3882 38.8451 62.2708 39.0864C62.1548 39.3277 62.0968 39.6238 62.0968 39.9745C62.0968 40.3253 62.1548 40.6213 62.2708 40.8627C62.3882 41.104 62.5458 41.2866 62.7436 41.4106C62.9427 41.5345 63.1649 41.5965 63.4101 41.5965C63.5446 41.5965 63.6739 41.578 63.7978 41.5411C63.9218 41.5042 64.0345 41.4495 64.1361 41.3769C64.2389 41.3031 64.3259 41.2128 64.3971 41.106C64.4697 40.9978 64.5204 40.8739 64.5495 40.7341H65.04C65.0031 40.9411 64.9358 41.1264 64.8382 41.2899C64.7407 41.4534 64.6193 41.5925 64.4743 41.7073C64.3292 41.8207 64.1664 41.907 63.9857 41.9664C63.8064 42.0257 63.6145 42.0554 63.4101 42.0554C63.0646 42.0554 62.7574 41.971 62.4884 41.8022C62.2194 41.6334 62.0077 41.3934 61.8535 41.0822C61.6992 40.771 61.622 40.4018 61.622 39.9745C61.622 39.5473 61.6992 39.1781 61.8535 38.8669C62.0077 38.5557 62.2194 38.3157 62.4884 38.1469C62.7574 37.9781 63.0646 37.8937 63.4101 37.8937C63.6145 37.8937 63.8064 37.9234 63.9857 37.9827C64.1664 38.0421 64.3292 38.1291 64.4743 38.2438C64.6193 38.3572 64.7407 38.4957 64.8382 38.6592C64.9358 38.8214 65.0031 39.0067 65.04 39.215ZM67.0036 42.0633C66.7294 42.0633 66.4887 41.998 66.2817 41.8675C66.076 41.7369 65.9151 41.5543 65.799 41.3196C65.6843 41.0849 65.627 40.8106 65.627 40.4967C65.627 40.1803 65.6843 39.904 65.799 39.668C65.9151 39.4319 66.076 39.2486 66.2817 39.1181C66.4887 38.9875 66.7294 38.9223 67.0036 38.9223C67.2779 38.9223 67.5179 38.9875 67.7236 39.1181C67.9307 39.2486 68.0915 39.4319 68.2063 39.668C68.3223 39.904 68.3803 40.1803 68.3803 40.4967C68.3803 40.8106 68.3223 41.0849 68.2063 41.3196C68.0915 41.5543 67.9307 41.7369 67.7236 41.8675C67.5179 41.998 67.2779 42.0633 67.0036 42.0633ZM67.0036 41.644C67.212 41.644 67.3834 41.5906 67.5179 41.4837C67.6524 41.3769 67.752 41.2365 67.8166 41.0624C67.8812 40.8884 67.9135 40.6998 67.9135 40.4967C67.9135 40.2937 67.8812 40.1044 67.8166 39.9291C67.752 39.7537 67.6524 39.6119 67.5179 39.5038C67.3834 39.3957 67.212 39.3416 67.0036 39.3416C66.7953 39.3416 66.6239 39.3957 66.4894 39.5038C66.3549 39.6119 66.2553 39.7537 66.1907 39.9291C66.1261 40.1044 66.0938 40.2937 66.0938 40.4967C66.0938 40.6998 66.1261 40.8884 66.1907 41.0624C66.2553 41.2365 66.3549 41.3769 66.4894 41.4837C66.6239 41.5906 66.7953 41.644 67.0036 41.644ZM70.2401 42.0633C69.9869 42.0633 69.7634 41.9993 69.5696 41.8714C69.3757 41.7422 69.2241 41.5602 69.1146 41.3255C69.0052 41.0895 68.9505 40.8106 68.9505 40.4888C68.9505 40.1697 69.0052 39.8928 69.1146 39.6581C69.2241 39.4233 69.3764 39.242 69.5716 39.1141C69.7667 38.9862 69.9922 38.9223 70.248 38.9223C70.4458 38.9223 70.6021 38.9552 70.7168 39.0212C70.8328 39.0858 70.9212 39.1596 70.9819 39.2427C71.0438 39.3244 71.092 39.3917 71.1262 39.4444H71.1658V37.9491H71.6326V42H71.1816V41.5332H71.1262C71.092 41.5886 71.0432 41.6585 70.9799 41.7429C70.9166 41.8259 70.8263 41.9004 70.7089 41.9664C70.5915 42.031 70.4353 42.0633 70.2401 42.0633ZM70.3034 41.644C70.4907 41.644 70.6489 41.5952 70.7781 41.4976C70.9073 41.3987 71.0056 41.2622 71.0728 41.0881C71.1401 40.9128 71.1737 40.7104 71.1737 40.4809C71.1737 40.2541 71.1408 40.0556 71.0748 39.8855C71.0089 39.7141 70.9113 39.5809 70.7821 39.486C70.6528 39.3897 70.4933 39.3416 70.3034 39.3416C70.1056 39.3416 69.9408 39.3924 69.8089 39.4939C69.6784 39.5941 69.5801 39.7306 69.5142 39.9033C69.4496 40.0748 69.4173 40.2673 69.4173 40.4809C69.4173 40.6972 69.4502 40.8936 69.5162 41.0703C69.5834 41.2457 69.6823 41.3855 69.8129 41.4897C69.9447 41.5925 70.1082 41.644 70.3034 41.644ZM73.8262 42.0633C73.5335 42.0633 73.2809 41.9987 73.0686 41.8695C72.8576 41.7389 72.6948 41.5569 72.5801 41.3235C72.4667 41.0888 72.41 40.8158 72.41 40.5046C72.41 40.1934 72.4667 39.9192 72.5801 39.6818C72.6948 39.4431 72.8543 39.2572 73.0587 39.124C73.2644 38.9895 73.5044 38.9223 73.7787 38.9223C73.937 38.9223 74.0932 38.9486 74.2475 39.0014C74.4018 39.0541 74.5422 39.1398 74.6688 39.2585C74.7954 39.3759 74.8963 39.5315 74.9714 39.7253C75.0466 39.9192 75.0842 40.1578 75.0842 40.4413V40.6391H72.7423V40.2356H74.6095C74.6095 40.0642 74.5752 39.9112 74.5066 39.7767C74.4394 39.6422 74.3431 39.5361 74.2178 39.4583C74.0939 39.3805 73.9475 39.3416 73.7787 39.3416C73.5928 39.3416 73.4319 39.3877 73.2961 39.48C73.1616 39.571 73.0581 39.6897 72.9856 39.8361C72.913 39.9825 72.8768 40.1394 72.8768 40.3068V40.5759C72.8768 40.8053 72.9163 40.9998 72.9954 41.1594C73.0759 41.3176 73.1873 41.4383 73.3297 41.5213C73.4721 41.6031 73.6376 41.644 73.8262 41.644C73.9488 41.644 74.0596 41.6268 74.1585 41.5925C74.2587 41.5569 74.3451 41.5042 74.4176 41.4343C74.4901 41.3631 74.5462 41.2747 74.5857 41.1692L75.0367 41.2958C74.9892 41.4488 74.9095 41.5833 74.7974 41.6993C74.6853 41.8141 74.5468 41.9037 74.382 41.9684C74.2172 42.0316 74.0319 42.0633 73.8262 42.0633Z" fill="white"/>
        <path d="M117.207 142.159V62.0126C117.207 57.4178 113.469 53.6929 108.859 53.6929H78.4951C73.8847 53.6929 70.1472 57.4178 70.1472 62.0126V142.159C70.1472 146.754 73.8847 150.479 78.4951 150.479H108.859C113.469 150.479 117.207 146.754 117.207 142.159Z" fill="url(#paint46_linear_3467_6831)"/>
        <path opacity="0.21" d="M78.4995 55.7401H82.6981C83.1253 55.7401 83.532 55.9407 83.7868 56.2846L84.8261 57.6808C85.2986 58.3154 86.0463 58.688 86.8391 58.688H100.519C101.312 58.688 102.06 58.3154 102.532 57.6808L103.572 56.2846C103.827 55.9407 104.233 55.7401 104.66 55.7401H108.859C112.339 55.7401 115.157 58.5488 115.157 62.0167V142.159C115.157 145.627 112.339 148.436 108.859 148.436H78.4995C75.0199 148.436 72.2017 145.627 72.2017 142.159V62.0167C72.2017 58.5488 75.0199 55.7401 78.4995 55.7401Z" fill="white"/>
        <path d="M110.132 82.693H77.583V115.132H110.132V82.693Z" fill="#F7F7F7"/>
        <path d="M88.2483 86.9183H81.9258V93.2195H88.2483V86.9183ZM87.2746 92.2532H82.8953V87.8887H87.2746V92.2532Z" fill="url(#paint47_linear_3467_6831)"/>
        <path d="M86.1775 88.9819H83.9961V91.156H86.1775V88.9819Z" fill="url(#paint48_linear_3467_6831)"/>
        <path d="M105.951 86.9183H99.624V93.2195H105.951V86.9183ZM104.977 92.2532H100.598V87.8887H104.977V92.2532Z" fill="url(#paint49_linear_3467_6831)"/>
        <path d="M103.88 88.9819H101.699V91.156H103.88V88.9819Z" fill="url(#paint50_linear_3467_6831)"/>
        <path d="M81.9258 110.862H88.2483V104.557H81.9258V110.862ZM82.8994 105.527H87.2788V109.892H82.8994V105.527Z" fill="url(#paint51_linear_3467_6831)"/>
        <path d="M86.1775 106.624H83.9961V108.798H86.1775V106.624Z" fill="url(#paint52_linear_3467_6831)"/>
        <path d="M95.7499 92.9574H97.0604V93.9524H97.8656V92.9574V91.1027H97.0604H95.7499H94.8995H93.6794V92.9574H92.3647V94.1612H93.6794V92.9574H94.8995V94.9964H95.7499V92.9574Z" fill="url(#paint53_linear_3467_6831)"/>
        <path d="M97.0604 89.4077H97.8657V87.7167V86.9183H97.0604H95.3638V87.7167H97.0604V89.4077Z" fill="url(#paint54_linear_3467_6831)"/>
        <path d="M91.7115 86.9183H90.0107V88.3718H91.7115V86.9183Z" fill="url(#paint55_linear_3467_6831)"/>
        <path d="M104.878 94.976H103.777V96.2329H104.878V96.6137H102.68V97.9321H104.878V99.2177H105.95V97.9321V96.6219V94.9964V94.976H104.878Z" fill="url(#paint56_linear_3467_6831)"/>
        <path d="M99.5375 104.012V103.222H97.4834V105.232H99.5375V104.012ZM98.7446 104.18V104.458H98.2763V104H98.7446V104.18Z" fill="url(#paint57_linear_3467_6831)"/>
        <path d="M91.7115 103.922H90.0107V105.646H91.7115V103.922Z" fill="url(#paint58_linear_3467_6831)"/>
        <path d="M89.0698 102.804H90.4132H91.6292V101.474H89.0698V102.804Z" fill="url(#paint59_linear_3467_6831)"/>
        <path d="M91.7115 95.4181V94.9964V93.9032H90.4503V95.4018H89.0576V95.4181V96.6219H91.7115V95.4181Z" fill="url(#paint60_linear_3467_6831)"/>
        <path d="M83.7375 97.9321H81.9258V99.2177H83.7375V97.9321Z" fill="url(#paint61_linear_3467_6831)"/>
        <path d="M84.2058 96.6219H83.5321V94.9964H81.9258V96.6219H83.528V97.3056H84.2058V96.6219Z" fill="url(#paint62_linear_3467_6831)"/>
        <path d="M95.7498 109.486H94.8994V110.862H95.7498H97.0603V108.508H95.7498V109.486Z" fill="url(#paint63_linear_3467_6831)"/>
        <path d="M84.1647 100.434H81.9258V102.808H84.1647V100.434Z" fill="url(#paint64_linear_3467_6831)"/>
        <path d="M84.7729 102.804H88.1334V101.474H86.8188V100.434H84.7729V102.808V102.804ZM85.2002 101.306H85.8329V101.936H85.2002V101.306Z" fill="url(#paint65_linear_3467_6831)"/>
        <path d="M90.2407 99.8154H89.0698V100.434V100.855H90.2407V100.434V99.8154Z" fill="url(#paint66_linear_3467_6831)"/>
        <path d="M99.2049 99.9424H98.0669V100.982H99.2049V99.9424Z" fill="url(#paint67_linear_3467_6831)"/>
        <path d="M105.951 100.434H104.878V101.474H105.951V100.434Z" fill="url(#paint68_linear_3467_6831)"/>
        <path d="M91.88 92.5316H92.9234V91.0577H91.88H91.3582H90.0107V92.5316H91.3582H91.88Z" fill="url(#paint69_linear_3467_6831)"/>
        <path d="M91.7115 106.362H90.0107V107.672H91.7115V106.362Z" fill="url(#paint70_linear_3467_6831)"/>
        <path d="M97.0605 106.17H95.75V107.443H97.0605V106.17Z" fill="url(#paint71_linear_3467_6831)"/>
        <path d="M104.878 107.443V109.065H102.906V110.862H104.878H105.95V107.443V105.646H104.878V107.443Z" fill="url(#paint72_linear_3467_6831)"/>
        <path d="M102.073 95.5041H100.438V96.6178H102.073V95.5041Z" fill="url(#paint73_linear_3467_6831)"/>
        <path d="M99.9608 103.922H101.801V101.474H99.9608H97.0604V100.434V99.2177H95.7499V100.434H94.8995V101.474V102.804V103.922H93.6794V102.804H92.3647V103.922V105.646H93.6794V107.443H94.8995V105.646H95.7499V104.008H97.0604V102.804V102.69H99.9608V102.804V103.922Z" fill="url(#paint74_linear_3467_6831)"/>
        <path d="M102.664 103.922V103.951H104.081V103.922V102.542H102.664V103.922Z" fill="url(#paint75_linear_3467_6831)"/>
        <path d="M104.085 104.884H104.878H105.022V103.951H104.878H104.085V104.884Z" fill="url(#paint76_linear_3467_6831)"/>
        <path d="M103.551 105.646V105.535H100.302V105.646V107.333H103.551V105.646Z" fill="url(#paint77_linear_3467_6831)"/>
        <path d="M101.982 108.34H100.425V110.862H101.982V108.34Z" fill="url(#paint78_linear_3467_6831)"/>
        <path d="M99.5993 106.641H97.5288V107.889H99.5993V106.641Z" fill="url(#paint79_linear_3467_6831)"/>
        <path d="M99.5992 108.52H98.8926V109.236H99.5992V108.52Z" fill="url(#paint80_linear_3467_6831)"/>
        <path d="M99.5993 109.83H97.5288V110.862H99.5993V109.83Z" fill="url(#paint81_linear_3467_6831)"/>
        <path d="M86.8188 96.6219H88.1335V94.9964V94.976H86.8188V94.9964V96.6219Z" fill="url(#paint82_linear_3467_6831)"/>
        <path d="M95.75 97.9321H97.0605V99.2177H102.372V97.9321H99.9609V94.9964H97.0605V96.6219H94.8955V97.9321H95.75ZM98.827 97.67V96.9044H99.5953V97.67H98.827Z" fill="url(#paint83_linear_3467_6831)"/>
        <path d="M93.6794 96.6219H94.8995V94.9964H93.6794H92.3647V96.6219V97.9321H93.6794V96.6219Z" fill="url(#paint84_linear_3467_6831)"/>
        <path d="M94.8995 88.4087H93.6794V86.9183H92.3647V90.5582H94.8995V88.4087Z" fill="url(#paint85_linear_3467_6831)"/>
        <path d="M94.8993 97.9321H93.6791V99.2177H92.3645V97.9321H91.7113H88.1331H86.8184H84.1646V99.2177H86.8184V100.434H88.1331V99.2177H91.7113V100.434H92.3645V101.474H93.6791V100.434H94.8993V99.2177V97.9321Z" fill="url(#paint86_linear_3467_6831)"/>
        <path d="M91.539 109.31H90.0107V110.862H91.539H91.7115H94.1189V108.545H91.539V109.31Z" fill="url(#paint87_linear_3467_6831)"/>
        <path d="M96.4197 88.4455H95.4707V89.3913H96.4197V88.4455Z" fill="url(#paint88_linear_3467_6831)"/>
        <path d="M103.884 99.2177V99.8277H102.664V101.048H103.888V99.8277H104.652V99.2177V99.0662H103.884V99.2177Z" fill="url(#paint89_linear_3467_6831)"/>
        <path d="M86.0707 96.6464H85.2573V97.4571H86.0707V96.6464Z" fill="url(#paint90_linear_3467_6831)"/>
        <path d="M99.3322 93.5511H98.5146V94.3659H99.3322V93.5511Z" fill="url(#paint91_linear_3467_6831)"/>
        <path style="mix-blend-mode:screen" opacity="0.74" d="M105.95 96.3844H81.9258V110.862H105.95V96.3844Z" fill="url(#paint92_linear_3467_6831)"/>
        <path d="M105.95 96.3844H81.9258V97.3588H105.95V96.3844Z" fill="#E43769"/>
        <path d="M79.8345 80.1054H75.0156V84.908H75.5826V80.6663H79.8345V80.1054Z" fill="#F7F7F7"/>
        <path d="M112.716 84.908V80.1054H107.897V80.6663H112.154V84.908H112.716Z" fill="#F7F7F7"/>
        <path d="M107.902 117.744H112.717V112.942H112.154V117.184H107.902V117.744Z" fill="#F7F7F7"/>
        <path d="M75.0156 112.942V117.744H79.8386V117.184H75.5826V112.942H75.0156Z" fill="#F7F7F7"/>
        <path d="M78.3966 130.547H109.266C109.742 130.547 110.132 130.932 110.132 131.411V134.503C110.132 134.977 109.746 135.366 109.266 135.366H78.3966C77.9201 135.366 77.5298 134.982 77.5298 134.503V131.411C77.5298 130.936 77.916 130.547 78.3966 130.547Z" fill="url(#paint93_linear_3467_6831)"/>
        <path d="M87.4574 132.364C87.4446 132.256 87.3928 132.172 87.3018 132.112C87.2109 132.053 87.0994 132.023 86.9673 132.023C86.8707 132.023 86.7862 132.038 86.7138 132.07C86.642 132.101 86.5859 132.144 86.5455 132.199C86.5057 132.253 86.4858 132.315 86.4858 132.385C86.4858 132.443 86.4996 132.493 86.5273 132.535C86.5558 132.576 86.592 132.611 86.636 132.638C86.68 132.665 86.7262 132.688 86.7745 132.706C86.8228 132.723 86.8672 132.737 86.9077 132.747L87.1293 132.807C87.1861 132.822 87.2493 132.842 87.3189 132.869C87.3892 132.895 87.4563 132.931 87.5202 132.976C87.5849 133.021 87.6381 133.078 87.68 133.149C87.7219 133.219 87.7429 133.305 87.7429 133.408C87.7429 133.526 87.712 133.632 87.6502 133.727C87.5891 133.822 87.4996 133.898 87.3817 133.954C87.2646 134.01 87.1222 134.038 86.9545 134.038C86.7983 134.038 86.663 134.013 86.5487 133.963C86.435 133.912 86.3455 133.842 86.2802 133.752C86.2156 133.662 86.179 133.557 86.1705 133.438H86.4432C86.4503 133.52 86.478 133.588 86.5263 133.642C86.5753 133.695 86.6371 133.735 86.7116 133.761C86.7869 133.787 86.8679 133.8 86.9545 133.8C87.0554 133.8 87.146 133.783 87.2262 133.751C87.3065 133.717 87.37 133.671 87.4169 133.612C87.4638 133.553 87.4872 133.483 87.4872 133.403C87.4872 133.331 87.467 133.272 87.4265 133.227C87.386 133.181 87.3327 133.144 87.2667 133.116C87.2006 133.087 87.1293 133.062 87.0526 133.041L86.7841 132.964C86.6136 132.915 86.4787 132.846 86.3793 132.755C86.2798 132.664 86.2301 132.545 86.2301 132.398C86.2301 132.276 86.2631 132.169 86.3292 132.078C86.396 131.987 86.4854 131.915 86.5977 131.865C86.7106 131.814 86.8366 131.788 86.9759 131.788C87.1165 131.788 87.2415 131.814 87.3509 131.864C87.4602 131.914 87.5469 131.982 87.6108 132.069C87.6754 132.155 87.7095 132.254 87.7131 132.364H87.4574ZM89.933 132.5H89.6688C89.6531 132.424 89.6258 132.357 89.5867 132.3C89.5484 132.242 89.5015 132.194 89.4461 132.155C89.3914 132.115 89.3307 132.085 89.2639 132.065C89.1972 132.045 89.1276 132.036 89.0551 132.036C88.923 132.036 88.8034 132.069 88.6961 132.136C88.5896 132.202 88.5047 132.301 88.4415 132.431C88.379 132.561 88.3477 132.72 88.3477 132.909C88.3477 133.098 88.379 133.257 88.4415 133.387C88.5047 133.517 88.5896 133.616 88.6961 133.683C88.8034 133.749 88.923 133.783 89.0551 133.783C89.1276 133.783 89.1972 133.773 89.2639 133.753C89.3307 133.733 89.3914 133.703 89.4461 133.664C89.5015 133.625 89.5484 133.576 89.5867 133.518C89.6258 133.46 89.6531 133.393 89.6688 133.318H89.933C89.9131 133.43 89.8769 133.529 89.8243 133.618C89.7718 133.706 89.7064 133.781 89.6283 133.842C89.5502 133.903 89.4624 133.95 89.3651 133.982C89.2686 134.014 89.1652 134.03 89.0551 134.03C88.8691 134.03 88.7036 133.984 88.5587 133.893C88.4138 133.803 88.2998 133.673 88.2167 133.506C88.1336 133.338 88.0921 133.139 88.0921 132.909C88.0921 132.679 88.1336 132.48 88.2167 132.312C88.2998 132.145 88.4138 132.016 88.5587 131.925C88.7036 131.834 88.8691 131.788 89.0551 131.788C89.1652 131.788 89.2686 131.804 89.3651 131.836C89.4624 131.868 89.5502 131.915 89.6283 131.977C89.7064 132.038 89.7718 132.113 89.8243 132.201C89.8769 132.288 89.9131 132.388 89.933 132.5ZM90.4494 134H90.1724L90.9735 131.818H91.2463L92.0474 134H91.7704L91.1184 132.163H91.1014L90.4494 134ZM90.5517 133.148H91.6681V133.382H90.5517V133.148ZM94.1174 131.818V134H93.8617L92.6728 132.287H92.6515V134H92.3873V131.818H92.6429L93.8361 133.536H93.8574V131.818H94.1174ZM97.2199 131.818V134H96.9642L95.7753 132.287H95.754V134H95.4898V131.818H95.7455L96.9387 133.536H96.96V131.818H97.2199ZM99.5895 132.909C99.5895 133.139 99.5479 133.338 99.4648 133.506C99.3817 133.673 99.2678 133.803 99.1229 133.893C98.978 133.984 98.8125 134.03 98.6264 134.03C98.4403 134.03 98.2749 133.984 98.13 133.893C97.9851 133.803 97.8711 133.673 97.788 133.506C97.7049 133.338 97.6634 133.139 97.6634 132.909C97.6634 132.679 97.7049 132.48 97.788 132.312C97.8711 132.145 97.9851 132.016 98.13 131.925C98.2749 131.834 98.4403 131.788 98.6264 131.788C98.8125 131.788 98.978 131.834 99.1229 131.925C99.2678 132.016 99.3817 132.145 99.4648 132.312C99.5479 132.48 99.5895 132.679 99.5895 132.909ZM99.3338 132.909C99.3338 132.72 99.3022 132.561 99.239 132.431C99.1765 132.301 99.0916 132.202 98.9844 132.136C98.8778 132.069 98.7585 132.036 98.6264 132.036C98.4943 132.036 98.3746 132.069 98.2674 132.136C98.1609 132.202 98.076 132.301 98.0128 132.431C97.9503 132.561 97.919 132.72 97.919 132.909C97.919 133.098 97.9503 133.257 98.0128 133.387C98.076 133.517 98.1609 133.616 98.2674 133.683C98.3746 133.749 98.4943 133.783 98.6264 133.783C98.7585 133.783 98.8778 133.749 98.9844 133.683C99.0916 133.616 99.1765 133.517 99.239 133.387C99.3022 133.257 99.3338 133.098 99.3338 132.909ZM100.43 134L99.8335 131.818H100.102L100.558 133.595H100.579L101.044 131.818H101.342L101.806 133.595H101.828L102.284 131.818H102.552L101.956 134H101.683L101.201 132.261H101.184L100.703 134H100.43Z" fill="white"/>
        <path d="M78.3966 137.508H109.266C109.742 137.508 110.132 137.893 110.132 138.372V141.463C110.132 141.938 109.746 142.327 109.266 142.327H78.3966C77.9201 142.327 77.5298 141.942 77.5298 141.463V138.372C77.5298 137.897 77.916 137.508 78.3966 137.508Z" fill="url(#paint94_linear_3467_6831)"/>
        <path d="M90.0199 139.5H89.7557C89.7401 139.424 89.7127 139.357 89.6737 139.3C89.6353 139.242 89.5884 139.194 89.533 139.155C89.4783 139.115 89.4176 139.085 89.3509 139.065C89.2841 139.045 89.2145 139.036 89.142 139.036C89.0099 139.036 88.8903 139.069 88.783 139.136C88.6765 139.202 88.5916 139.301 88.5284 139.431C88.4659 139.561 88.4347 139.72 88.4347 139.909C88.4347 140.098 88.4659 140.257 88.5284 140.387C88.5916 140.517 88.6765 140.616 88.783 140.683C88.8903 140.749 89.0099 140.783 89.142 140.783C89.2145 140.783 89.2841 140.773 89.3509 140.753C89.4176 140.733 89.4783 140.703 89.533 140.664C89.5884 140.625 89.6353 140.576 89.6737 140.518C89.7127 140.46 89.7401 140.393 89.7557 140.318H90.0199C90 140.43 89.9638 140.529 89.9112 140.618C89.8587 140.706 89.7933 140.781 89.7152 140.842C89.6371 140.903 89.5494 140.95 89.4521 140.982C89.3555 141.014 89.2521 141.03 89.142 141.03C88.956 141.03 88.7905 140.984 88.6456 140.893C88.5007 140.803 88.3867 140.673 88.3036 140.506C88.2205 140.338 88.179 140.139 88.179 139.909C88.179 139.679 88.2205 139.48 88.3036 139.312C88.3867 139.145 88.5007 139.016 88.6456 138.925C88.7905 138.834 88.956 138.788 89.142 138.788C89.2521 138.788 89.3555 138.804 89.4521 138.836C89.5494 138.868 89.6371 138.915 89.7152 138.977C89.7933 139.038 89.8587 139.113 89.9112 139.201C89.9638 139.288 90 139.388 90.0199 139.5ZM90.5363 141H90.2593L91.0605 138.818H91.3332L92.1343 141H91.8573L91.2053 139.163H91.1883L90.5363 141ZM90.6386 140.148H91.7551V140.382H90.6386V140.148ZM94.2043 138.818V141H93.9486L92.7597 139.287H92.7384V141H92.4742V138.818H92.7298L93.923 140.536H93.9443V138.818H94.2043ZM96.4886 139.5H96.2244C96.2088 139.424 96.1815 139.357 96.1424 139.3C96.104 139.242 96.0572 139.194 96.0018 139.155C95.9471 139.115 95.8864 139.085 95.8196 139.065C95.7528 139.045 95.6832 139.036 95.6108 139.036C95.4787 139.036 95.359 139.069 95.2518 139.136C95.1452 139.202 95.0604 139.301 94.9972 139.431C94.9347 139.561 94.9034 139.72 94.9034 139.909C94.9034 140.098 94.9347 140.257 94.9972 140.387C95.0604 140.517 95.1452 140.616 95.2518 140.683C95.359 140.749 95.4787 140.783 95.6108 140.783C95.6832 140.783 95.7528 140.773 95.8196 140.753C95.8864 140.733 95.9471 140.703 96.0018 140.664C96.0572 140.625 96.104 140.576 96.1424 140.518C96.1815 140.46 96.2088 140.393 96.2244 140.318H96.4886C96.4688 140.43 96.4325 140.529 96.38 140.618C96.3274 140.706 96.2621 140.781 96.1839 140.842C96.1058 140.903 96.0181 140.95 95.9208 140.982C95.8242 141.014 95.7209 141.03 95.6108 141.03C95.4247 141.03 95.2592 140.984 95.1143 140.893C94.9695 140.803 94.8555 140.673 94.7724 140.506C94.6893 140.338 94.6477 140.139 94.6477 139.909C94.6477 139.679 94.6893 139.48 94.7724 139.312C94.8555 139.145 94.9695 139.016 95.1143 138.925C95.2592 138.834 95.4247 138.788 95.6108 138.788C95.7209 138.788 95.8242 138.804 95.9208 138.836C96.0181 138.868 96.1058 138.915 96.1839 138.977C96.2621 139.038 96.3274 139.113 96.38 139.201C96.4325 139.288 96.4688 139.388 96.4886 139.5ZM96.9156 141V138.818H98.2323V139.053H97.1798V139.79H98.1642V140.024H97.1798V140.766H98.2494V141H96.9156ZM98.7085 141V138.818H98.9727V140.766H99.9869V141H98.7085Z" fill="white"/>
        <path d="M78.3966 64.9277H109.266C109.742 64.9277 110.132 65.3126 110.132 65.7916V68.8828C110.132 69.3578 109.746 69.7468 109.266 69.7468H78.3966C77.9201 69.7468 77.5298 69.3619 77.5298 68.8828V65.7916C77.5298 65.3167 77.916 64.9277 78.3966 64.9277Z" fill="url(#paint95_linear_3467_6831)"/>
        <path d="M87.0806 67.9295H87.4506L87.7607 68.3376L87.8423 68.4464L88.3047 69.0611H87.9348L87.6301 68.6531L87.554 68.5497L87.0806 67.9295ZM88.419 67.4073C88.419 67.701 88.3659 67.9549 88.2598 68.1689C88.1538 68.3829 88.0082 68.5479 87.8233 68.664C87.6383 68.78 87.427 68.8381 87.1895 68.8381C86.9519 68.8381 86.7406 68.78 86.5557 68.664C86.3707 68.5479 86.2252 68.3829 86.1191 68.1689C86.013 67.9549 85.9599 67.701 85.9599 67.4073C85.9599 67.1135 86.013 66.8596 86.1191 66.6456C86.2252 66.4316 86.3707 66.2666 86.5557 66.1505C86.7406 66.0345 86.9519 65.9765 87.1895 65.9765C87.427 65.9765 87.6383 66.0345 87.8233 66.1505C88.0082 66.2666 88.1538 66.4316 88.2598 66.6456C88.3659 66.8596 88.419 67.1135 88.419 67.4073ZM88.0926 67.4073C88.0926 67.1661 88.0522 66.9625 87.9715 66.7966C87.8917 66.6307 87.7834 66.5051 87.6464 66.4198C87.5104 66.3346 87.3581 66.292 87.1895 66.292C87.0208 66.292 86.868 66.3346 86.7311 66.4198C86.5951 66.5051 86.4867 66.6307 86.406 66.7966C86.3263 66.9625 86.2864 67.1661 86.2864 67.4073C86.2864 67.6484 86.3263 67.852 86.406 68.0179C86.4867 68.1839 86.5951 68.3095 86.7311 68.3947C86.868 68.4799 87.0208 68.5225 87.1895 68.5225C87.3581 68.5225 87.5104 68.4799 87.6464 68.3947C87.7834 68.3095 87.8917 68.1839 87.9715 68.0179C88.0522 67.852 88.0926 67.6484 88.0926 67.4073ZM88.9861 68.8V66.0145H89.9273C90.1449 66.0145 90.3235 66.0517 90.4632 66.1261C90.6028 66.1995 90.7062 66.3006 90.7733 66.4294C90.8404 66.5581 90.8739 66.7045 90.8739 66.8687C90.8739 67.0328 90.8404 67.1783 90.7733 67.3053C90.7062 67.4322 90.6033 67.5319 90.4645 67.6045C90.3258 67.6761 90.1485 67.7119 89.9327 67.7119H89.1711V67.4073H89.9219C90.0706 67.4073 90.1903 67.3855 90.2809 67.342C90.3725 67.2985 90.4387 67.2368 90.4795 67.157C90.5212 67.0763 90.5421 66.9802 90.5421 66.8687C90.5421 66.7571 90.5212 66.6597 90.4795 66.5762C90.4378 66.4928 90.3711 66.4285 90.2796 66.3831C90.188 66.3369 90.0669 66.3138 89.9164 66.3138H89.3234V68.8H88.9861ZM90.2973 67.5487L90.9827 68.8H90.591L89.9164 67.5487H90.2973ZM94.7546 66.885H94.4173C94.3973 66.788 94.3624 66.7027 94.3126 66.6293C94.2636 66.5558 94.2038 66.4942 94.133 66.4443C94.0632 66.3935 93.9857 66.3555 93.9005 66.3301C93.8152 66.3047 93.7264 66.292 93.6339 66.292C93.4652 66.292 93.3124 66.3346 93.1755 66.4198C93.0395 66.5051 92.9312 66.6307 92.8505 66.7966C92.7707 66.9625 92.7308 67.1661 92.7308 67.4073C92.7308 67.6484 92.7707 67.852 92.8505 68.0179C92.9312 68.1839 93.0395 68.3095 93.1755 68.3947C93.3124 68.4799 93.4652 68.5225 93.6339 68.5225C93.7264 68.5225 93.8152 68.5098 93.9005 68.4844C93.9857 68.4591 94.0632 68.4214 94.133 68.3716C94.2038 68.3208 94.2636 68.2587 94.3126 68.1852C94.3624 68.1109 94.3973 68.0256 94.4173 67.9295H94.7546C94.7292 68.0719 94.683 68.1993 94.6159 68.3117C94.5488 68.4242 94.4653 68.5198 94.3656 68.5987C94.2659 68.6767 94.1539 68.7361 94.0297 68.7769C93.9064 68.8177 93.7744 68.8381 93.6339 68.8381C93.3963 68.8381 93.1851 68.78 93.0001 68.664C92.8151 68.5479 92.6696 68.3829 92.5635 68.1689C92.4574 67.9549 92.4044 67.701 92.4044 67.4073C92.4044 67.1135 92.4574 66.8596 92.5635 66.6456C92.6696 66.4316 92.8151 66.2666 93.0001 66.1505C93.1851 66.0345 93.3963 65.9765 93.6339 65.9765C93.7744 65.9765 93.9064 65.9969 94.0297 66.0377C94.1539 66.0785 94.2659 66.1383 94.3656 66.2172C94.4653 66.2952 94.5488 66.3904 94.6159 66.5028C94.683 66.6143 94.7292 66.7417 94.7546 66.885ZM97.6499 67.4073C97.6499 67.701 97.5968 67.9549 97.4907 68.1689C97.3847 68.3829 97.2391 68.5479 97.0542 68.664C96.8692 68.78 96.6579 68.8381 96.4204 68.8381C96.1828 68.8381 95.9715 68.78 95.7866 68.664C95.6016 68.5479 95.4561 68.3829 95.35 68.1689C95.2439 67.9549 95.1908 67.701 95.1908 67.4073C95.1908 67.1135 95.2439 66.8596 95.35 66.6456C95.4561 66.4316 95.6016 66.2666 95.7866 66.1505C95.9715 66.0345 96.1828 65.9765 96.4204 65.9765C96.6579 65.9765 96.8692 66.0345 97.0542 66.1505C97.2391 66.2666 97.3847 66.4316 97.4907 66.6456C97.5968 66.8596 97.6499 67.1135 97.6499 67.4073ZM97.3235 67.4073C97.3235 67.1661 97.2831 66.9625 97.2024 66.7966C97.1226 66.6307 97.0143 66.5051 96.8773 66.4198C96.7413 66.3346 96.589 66.292 96.4204 66.292C96.2517 66.292 96.0989 66.3346 95.962 66.4198C95.826 66.5051 95.7176 66.6307 95.6369 66.7966C95.5572 66.9625 95.5173 67.1661 95.5173 67.4073C95.5173 67.6484 95.5572 67.852 95.6369 68.0179C95.7176 68.1839 95.826 68.3095 95.962 68.3947C96.0989 68.4799 96.2517 68.5225 96.4204 68.5225C96.589 68.5225 96.7413 68.4799 96.8773 68.3947C97.0143 68.3095 97.1226 68.1839 97.2024 68.0179C97.2831 67.852 97.3235 67.6484 97.3235 67.4073ZM99.0766 68.8H98.217V66.0145H99.1147C99.3849 66.0145 99.6161 66.0703 99.8083 66.1818C100.001 66.2924 100.148 66.4516 100.25 66.6592C100.353 66.8659 100.404 67.1135 100.404 67.4018C100.404 67.692 100.352 67.9418 100.249 68.1512C100.146 68.3598 99.9951 68.5203 99.7974 68.6327C99.5998 68.7442 99.3595 68.8 99.0766 68.8ZM98.5543 68.5008H99.0548C99.2851 68.5008 99.476 68.4563 99.6274 68.3675C99.7789 68.2786 99.8917 68.1521 99.9661 67.988C100.04 67.8239 100.078 67.6285 100.078 67.4018C100.078 67.177 100.041 66.9834 99.9675 66.8211C99.894 66.6579 99.7843 66.5327 99.6383 66.4457C99.4923 66.3577 99.3105 66.3138 99.0929 66.3138H98.5543V68.5008ZM100.97 68.8V66.0145H102.651V66.3138H101.307V67.2549H102.564V67.5541H101.307V68.5008H102.673V68.8H100.97Z" fill="white"/>
    </g>
    <defs>
        <filter id="filter0_d_3467_6831" x="46.0439" y="150.383" width="44.5503" height="44.4943" filterUnits="userSpaceOnUse" color-interpolation-filters="sRGB">
            <feFlood flood-opacity="0" result="BackgroundImageFix"/>
            <feColorMatrix in="SourceAlpha" type="matrix" values="0 0 0 0 0 0 0 0 0 0 0 0 0 0 0 0 0 0 127 0" result="hardAlpha"/>
            <feOffset dx="7" dy="7"/>
            <feGaussianBlur stdDeviation="7"/>
            <feColorMatrix type="matrix" values="0 0 0 0 0.686275 0 0 0 0 0.694118 0 0 0 0 0.698039 0 0 0 0.57 0"/>
            <feBlend mode="normal" in2="BackgroundImageFix" result="effect1_dropShadow_3467_6831"/>
            <feBlend mode="normal" in="SourceGraphic" in2="effect1_dropShadow_3467_6831" result="shape"/>
        </filter>
        <filter id="filter1_d_3467_6831" x="68.5068" y="150.378" width="44.5479" height="44.4919" filterUnits="userSpaceOnUse" color-interpolation-filters="sRGB">
            <feFlood flood-opacity="0" result="BackgroundImageFix"/>
            <feColorMatrix in="SourceAlpha" type="matrix" values="0 0 0 0 0 0 0 0 0 0 0 0 0 0 0 0 0 0 127 0" result="hardAlpha"/>
            <feOffset dx="7" dy="7"/>
            <feGaussianBlur stdDeviation="7"/>
            <feColorMatrix type="matrix" values="0 0 0 0 0.686275 0 0 0 0 0.694118 0 0 0 0 0.698039 0 0 0 0.57 0"/>
            <feBlend mode="normal" in2="BackgroundImageFix" result="effect1_dropShadow_3467_6831"/>
            <feBlend mode="normal" in="SourceGraphic" in2="effect1_dropShadow_3467_6831" result="shape"/>
        </filter>
        <filter id="filter2_d_3467_6831" x="89.7295" y="150.378" width="44.5479" height="44.4919" filterUnits="userSpaceOnUse" color-interpolation-filters="sRGB">
            <feFlood flood-opacity="0" result="BackgroundImageFix"/>
            <feColorMatrix in="SourceAlpha" type="matrix" values="0 0 0 0 0 0 0 0 0 0 0 0 0 0 0 0 0 0 127 0" result="hardAlpha"/>
            <feOffset dx="7" dy="7"/>
            <feGaussianBlur stdDeviation="7"/>
            <feColorMatrix type="matrix" values="0 0 0 0 0.686275 0 0 0 0 0.694118 0 0 0 0 0.698039 0 0 0 0.57 0"/>
            <feBlend mode="normal" in2="BackgroundImageFix" result="effect1_dropShadow_3467_6831"/>
            <feBlend mode="normal" in="SourceGraphic" in2="effect1_dropShadow_3467_6831" result="shape"/>
        </filter>
        <filter id="filter3_d_3467_6831" x="14.1816" y="19.1627" width="96.9067" height="98.6598" filterUnits="userSpaceOnUse" color-interpolation-filters="sRGB">
            <feFlood flood-opacity="0" result="BackgroundImageFix"/>
            <feColorMatrix in="SourceAlpha" type="matrix" values="0 0 0 0 0 0 0 0 0 0 0 0 0 0 0 0 0 0 127 0" result="hardAlpha"/>
            <feOffset dx="7" dy="7"/>
            <feGaussianBlur stdDeviation="7"/>
            <feColorMatrix type="matrix" values="0 0 0 0 0.764706 0 0 0 0 0.780392 0 0 0 0 0.788235 0 0 0 0.57 0"/>
            <feBlend mode="normal" in2="BackgroundImageFix" result="effect1_dropShadow_3467_6831"/>
            <feBlend mode="normal" in="SourceGraphic" in2="effect1_dropShadow_3467_6831" result="shape"/>
        </filter>
        <linearGradient id="paint0_linear_3467_6831" x1="38.7729" y1="55.953" x2="47.6507" y2="55.953" gradientUnits="userSpaceOnUse">
            <stop stop-color="#3B3C53"/>
            <stop offset="1" stop-color="#3C4075"/>
        </linearGradient>
        <linearGradient id="paint1_linear_3467_6831" x1="41.6772" y1="-0.000102124" x2="44.742" y2="-0.000102124" gradientUnits="userSpaceOnUse">
            <stop stop-color="#3B3C53"/>
            <stop offset="1" stop-color="#3C4075"/>
        </linearGradient>
        <linearGradient id="paint2_linear_3467_6831" x1="63.6191" y1="-2.50372e-05" x2="72.4969" y2="-2.50372e-05" gradientUnits="userSpaceOnUse">
            <stop stop-color="#3B3C53"/>
            <stop offset="1" stop-color="#3C4075"/>
        </linearGradient>
        <linearGradient id="paint3_linear_3467_6831" x1="66.5278" y1="-0.000100667" x2="69.5884" y2="-0.000100667" gradientUnits="userSpaceOnUse">
            <stop stop-color="#3B3C53"/>
            <stop offset="1" stop-color="#3C4075"/>
        </linearGradient>
        <linearGradient id="paint4_linear_3467_6831" x1="-0.000143552" y1="80.7154" x2="0.410675" y2="80.7154" gradientUnits="userSpaceOnUse">
            <stop stop-color="#3B3C53"/>
            <stop offset="1" stop-color="#3C4075"/>
        </linearGradient>
        <linearGradient id="paint5_linear_3467_6831" x1="41.6772" y1="80.7154" x2="44.742" y2="80.7154" gradientUnits="userSpaceOnUse">
            <stop stop-color="#3B3C53"/>
            <stop offset="1" stop-color="#3C4075"/>
        </linearGradient>
        <linearGradient id="paint6_linear_3467_6831" x1="53.4312" y1="60.1374" x2="61.1463" y2="60.1374" gradientUnits="userSpaceOnUse">
            <stop stop-color="#3B3C53"/>
            <stop offset="1" stop-color="#3C4075"/>
        </linearGradient>
        <linearGradient id="paint7_linear_3467_6831" x1="57.6377" y1="53.2753" x2="61.1461" y2="53.2753" gradientUnits="userSpaceOnUse">
            <stop stop-color="#3B3C53"/>
            <stop offset="1" stop-color="#3C4075"/>
        </linearGradient>
        <linearGradient id="paint8_linear_3467_6831" x1="50.1196" y1="52.5506" x2="52.5106" y2="52.5506" gradientUnits="userSpaceOnUse">
            <stop stop-color="#3B3C53"/>
            <stop offset="1" stop-color="#3C4075"/>
        </linearGradient>
        <linearGradient id="paint9_linear_3467_6831" x1="67.9082" y1="65.8162" x2="72.4971" y2="65.8162" gradientUnits="userSpaceOnUse">
            <stop stop-color="#3B3C53"/>
            <stop offset="1" stop-color="#3C4075"/>
        </linearGradient>
        <linearGradient id="paint10_linear_3467_6831" x1="60.6164" y1="75.8227" x2="63.4963" y2="75.8227" gradientUnits="userSpaceOnUse">
            <stop stop-color="#3B3C53"/>
            <stop offset="1" stop-color="#3C4075"/>
        </linearGradient>
        <linearGradient id="paint11_linear_3467_6831" x1="50.1196" y1="76.6088" x2="52.5106" y2="76.6088" gradientUnits="userSpaceOnUse">
            <stop stop-color="#3B3C53"/>
            <stop offset="1" stop-color="#3C4075"/>
        </linearGradient>
        <linearGradient id="paint12_linear_3467_6831" x1="48.8052" y1="72.8953" x2="52.3957" y2="72.8953" gradientUnits="userSpaceOnUse">
            <stop stop-color="#3B3C53"/>
            <stop offset="1" stop-color="#3C4075"/>
        </linearGradient>
        <linearGradient id="paint13_linear_3467_6831" x1="48.7847" y1="63.245" x2="52.5108" y2="63.245" gradientUnits="userSpaceOnUse">
            <stop stop-color="#3B3C53"/>
            <stop offset="1" stop-color="#3C4075"/>
        </linearGradient>
        <linearGradient id="paint14_linear_3467_6831" x1="38.7729" y1="67.892" x2="41.3159" y2="67.892" gradientUnits="userSpaceOnUse">
            <stop stop-color="#3B3C53"/>
            <stop offset="1" stop-color="#3C4075"/>
        </linearGradient>
        <linearGradient id="paint15_linear_3467_6831" x1="38.7729" y1="64.4897" x2="41.9732" y2="64.4897" gradientUnits="userSpaceOnUse">
            <stop stop-color="#3B3C53"/>
            <stop offset="1" stop-color="#3C4075"/>
        </linearGradient>
        <linearGradient id="paint16_linear_3467_6831" x1="56.9844" y1="83.4873" x2="60.0203" y2="83.4873" gradientUnits="userSpaceOnUse">
            <stop stop-color="#3B3C53"/>
            <stop offset="1" stop-color="#3C4075"/>
        </linearGradient>
        <linearGradient id="paint17_linear_3467_6831" x1="38.7729" y1="72.1624" x2="41.9157" y2="72.1624" gradientUnits="userSpaceOnUse">
            <stop stop-color="#3B3C53"/>
            <stop offset="1" stop-color="#3C4075"/>
        </linearGradient>
        <linearGradient id="paint18_linear_3467_6831" x1="42.77" y1="72.1624" x2="47.4862" y2="72.1624" gradientUnits="userSpaceOnUse">
            <stop stop-color="#3B3C53"/>
            <stop offset="1" stop-color="#3C4075"/>
        </linearGradient>
        <linearGradient id="paint19_linear_3467_6831" x1="48.8052" y1="70.3609" x2="50.4443" y2="70.3609" gradientUnits="userSpaceOnUse">
            <stop stop-color="#3B3C53"/>
            <stop offset="1" stop-color="#3C4075"/>
        </linearGradient>
        <linearGradient id="paint20_linear_3467_6831" x1="61.4297" y1="70.5411" x2="63.0278" y2="70.5411" gradientUnits="userSpaceOnUse">
            <stop stop-color="#3B3C53"/>
            <stop offset="1" stop-color="#3C4075"/>
        </linearGradient>
        <linearGradient id="paint21_linear_3467_6831" x1="70.9937" y1="71.2289" x2="72.4973" y2="71.2289" gradientUnits="userSpaceOnUse">
            <stop stop-color="#3B3C53"/>
            <stop offset="1" stop-color="#3C4075"/>
        </linearGradient>
        <linearGradient id="paint22_linear_3467_6831" x1="50.1196" y1="58.3727" x2="54.2114" y2="58.3727" gradientUnits="userSpaceOnUse">
            <stop stop-color="#3B3C53"/>
            <stop offset="1" stop-color="#3C4075"/>
        </linearGradient>
        <linearGradient id="paint23_linear_3467_6831" x1="50.1196" y1="79.741" x2="52.5106" y2="79.741" gradientUnits="userSpaceOnUse">
            <stop stop-color="#3B3C53"/>
            <stop offset="1" stop-color="#3C4075"/>
        </linearGradient>
        <linearGradient id="paint24_linear_3467_6831" x1="58.1802" y1="79.4462" x2="60.0206" y2="79.4462" gradientUnits="userSpaceOnUse">
            <stop stop-color="#3B3C53"/>
            <stop offset="1" stop-color="#3C4075"/>
        </linearGradient>
        <linearGradient id="paint25_linear_3467_6831" x1="68.2246" y1="81.477" x2="72.4971" y2="81.477" gradientUnits="userSpaceOnUse">
            <stop stop-color="#3B3C53"/>
            <stop offset="1" stop-color="#3C4075"/>
        </linearGradient>
        <linearGradient id="paint26_linear_3467_6831" x1="64.7573" y1="64.3668" x2="67.0538" y2="64.3668" gradientUnits="userSpaceOnUse">
            <stop stop-color="#3B3C53"/>
            <stop offset="1" stop-color="#3C4075"/>
        </linearGradient>
        <linearGradient id="paint27_linear_3467_6831" x1="53.4312" y1="74.5658" x2="66.6718" y2="74.5658" gradientUnits="userSpaceOnUse">
            <stop stop-color="#3B3C53"/>
            <stop offset="1" stop-color="#3C4075"/>
        </linearGradient>
        <linearGradient id="paint28_linear_3467_6831" x1="67.8838" y1="74.447" x2="69.8763" y2="74.447" gradientUnits="userSpaceOnUse">
            <stop stop-color="#3B3C53"/>
            <stop offset="1" stop-color="#3C4075"/>
        </linearGradient>
        <linearGradient id="paint29_linear_3467_6831" x1="69.8804" y1="76.0889" x2="71.1991" y2="76.0889" gradientUnits="userSpaceOnUse">
            <stop stop-color="#3B3C53"/>
            <stop offset="1" stop-color="#3C4075"/>
        </linearGradient>
        <linearGradient id="paint30_linear_3467_6831" x1="64.5723" y1="78.9262" x2="69.1324" y2="78.9262" gradientUnits="userSpaceOnUse">
            <stop stop-color="#3B3C53"/>
            <stop offset="1" stop-color="#3C4075"/>
        </linearGradient>
        <linearGradient id="paint31_linear_3467_6831" x1="64.7407" y1="83.3686" x2="66.9263" y2="83.3686" gradientUnits="userSpaceOnUse">
            <stop stop-color="#3B3C53"/>
            <stop offset="1" stop-color="#3C4075"/>
        </linearGradient>
        <linearGradient id="paint32_linear_3467_6831" x1="60.6738" y1="80.0931" x2="63.5783" y2="80.0931" gradientUnits="userSpaceOnUse">
            <stop stop-color="#3B3C53"/>
            <stop offset="1" stop-color="#3C4075"/>
        </linearGradient>
        <linearGradient id="paint33_linear_3467_6831" x1="62.5879" y1="82.3573" x2="63.578" y2="82.3573" gradientUnits="userSpaceOnUse">
            <stop stop-color="#3B3C53"/>
            <stop offset="1" stop-color="#3C4075"/>
        </linearGradient>
        <linearGradient id="paint34_linear_3467_6831" x1="60.6738" y1="84.4167" x2="63.5783" y2="84.4167" gradientUnits="userSpaceOnUse">
            <stop stop-color="#3B3C53"/>
            <stop offset="1" stop-color="#3C4075"/>
        </linearGradient>
        <linearGradient id="paint35_linear_3467_6831" x1="45.6416" y1="63.9942" x2="47.4862" y2="63.9942" gradientUnits="userSpaceOnUse">
            <stop stop-color="#3B3C53"/>
            <stop offset="1" stop-color="#3C4075"/>
        </linearGradient>
        <linearGradient id="paint36_linear_3467_6831" x1="56.9844" y1="65.8285" x2="67.4726" y2="65.8285" gradientUnits="userSpaceOnUse">
            <stop stop-color="#3B3C53"/>
            <stop offset="1" stop-color="#3C4075"/>
        </linearGradient>
        <linearGradient id="paint37_linear_3467_6831" x1="53.4312" y1="64.9277" x2="56.9847" y2="64.9277" gradientUnits="userSpaceOnUse">
            <stop stop-color="#3B3C53"/>
            <stop offset="1" stop-color="#3C4075"/>
        </linearGradient>
        <linearGradient id="paint38_linear_3467_6831" x1="53.4312" y1="54.0819" x2="56.9847" y2="54.0819" gradientUnits="userSpaceOnUse">
            <stop stop-color="#3B3C53"/>
            <stop offset="1" stop-color="#3C4075"/>
        </linearGradient>
        <linearGradient id="paint39_linear_3467_6831" x1="41.9155" y1="69.4765" x2="56.9844" y2="69.4765" gradientUnits="userSpaceOnUse">
            <stop stop-color="#3B3C53"/>
            <stop offset="1" stop-color="#3C4075"/>
        </linearGradient>
        <linearGradient id="paint40_linear_3467_6831" x1="50.1196" y1="83.5119" x2="55.8875" y2="83.5119" gradientUnits="userSpaceOnUse">
            <stop stop-color="#3B3C53"/>
            <stop offset="1" stop-color="#3C4075"/>
        </linearGradient>
        <linearGradient id="paint41_linear_3467_6831" x1="57.7856" y1="54.3357" x2="59.1208" y2="54.3357" gradientUnits="userSpaceOnUse">
            <stop stop-color="#3B3C53"/>
            <stop offset="1" stop-color="#3C4075"/>
        </linearGradient>
        <linearGradient id="paint42_linear_3467_6831" x1="67.8838" y1="69.9719" x2="70.6732" y2="69.9719" gradientUnits="userSpaceOnUse">
            <stop stop-color="#3B3C53"/>
            <stop offset="1" stop-color="#3C4075"/>
        </linearGradient>
        <linearGradient id="paint43_linear_3467_6831" x1="43.4521" y1="65.7548" x2="44.5983" y2="65.7548" gradientUnits="userSpaceOnUse">
            <stop stop-color="#3B3C53"/>
            <stop offset="1" stop-color="#3C4075"/>
        </linearGradient>
        <linearGradient id="paint44_linear_3467_6831" x1="62.0581" y1="61.4107" x2="63.2043" y2="61.4107" gradientUnits="userSpaceOnUse">
            <stop stop-color="#3B3C53"/>
            <stop offset="1" stop-color="#3C4075"/>
        </linearGradient>
        <linearGradient id="paint45_linear_3467_6831" x1="80.2001" y1="64.3423" x2="23.1297" y2="7.07852" gradientUnits="userSpaceOnUse">
            <stop stop-color="#3B3C53"/>
            <stop offset="1" stop-color="#3C4075"/>
        </linearGradient>
        <linearGradient id="paint46_linear_3467_6831" x1="129.831" y1="138.118" x2="48.4691" y2="56.4804" gradientUnits="userSpaceOnUse">
            <stop stop-color="#3B3C53"/>
            <stop offset="1" stop-color="#3C4075"/>
        </linearGradient>
        <linearGradient id="paint47_linear_3467_6831" x1="81.9258" y1="90.071" x2="88.2483" y2="90.071" gradientUnits="userSpaceOnUse">
            <stop stop-color="#3B3C53"/>
            <stop offset="1" stop-color="#3C4075"/>
        </linearGradient>
        <linearGradient id="paint48_linear_3467_6831" x1="83.9961" y1="90.071" x2="86.1775" y2="90.071" gradientUnits="userSpaceOnUse">
            <stop stop-color="#3B3C53"/>
            <stop offset="1" stop-color="#3C4075"/>
        </linearGradient>
        <linearGradient id="paint49_linear_3467_6831" x1="99.624" y1="90.071" x2="105.951" y2="90.071" gradientUnits="userSpaceOnUse">
            <stop stop-color="#3B3C53"/>
            <stop offset="1" stop-color="#3C4075"/>
        </linearGradient>
        <linearGradient id="paint50_linear_3467_6831" x1="101.699" y1="90.071" x2="103.88" y2="90.071" gradientUnits="userSpaceOnUse">
            <stop stop-color="#3B3C53"/>
            <stop offset="1" stop-color="#3C4075"/>
        </linearGradient>
        <linearGradient id="paint51_linear_3467_6831" x1="81.9258" y1="107.709" x2="88.2483" y2="107.709" gradientUnits="userSpaceOnUse">
            <stop stop-color="#3B3C53"/>
            <stop offset="1" stop-color="#3C4075"/>
        </linearGradient>
        <linearGradient id="paint52_linear_3467_6831" x1="83.9961" y1="107.709" x2="86.1775" y2="107.709" gradientUnits="userSpaceOnUse">
            <stop stop-color="#3B3C53"/>
            <stop offset="1" stop-color="#3C4075"/>
        </linearGradient>
        <linearGradient id="paint53_linear_3467_6831" x1="92.3647" y1="93.0516" x2="97.8656" y2="93.0516" gradientUnits="userSpaceOnUse">
            <stop stop-color="#3B3C53"/>
            <stop offset="1" stop-color="#3C4075"/>
        </linearGradient>
        <linearGradient id="paint54_linear_3467_6831" x1="95.3638" y1="88.163" x2="97.8657" y2="88.163" gradientUnits="userSpaceOnUse">
            <stop stop-color="#3B3C53"/>
            <stop offset="1" stop-color="#3C4075"/>
        </linearGradient>
        <linearGradient id="paint55_linear_3467_6831" x1="90.0107" y1="87.6471" x2="91.7115" y2="87.6471" gradientUnits="userSpaceOnUse">
            <stop stop-color="#3B3C53"/>
            <stop offset="1" stop-color="#3C4075"/>
        </linearGradient>
        <linearGradient id="paint56_linear_3467_6831" x1="102.68" y1="97.0968" x2="105.95" y2="97.0968" gradientUnits="userSpaceOnUse">
            <stop stop-color="#3B3C53"/>
            <stop offset="1" stop-color="#3C4075"/>
        </linearGradient>
        <linearGradient id="paint57_linear_3467_6831" x1="97.4834" y1="104.225" x2="99.5375" y2="104.225" gradientUnits="userSpaceOnUse">
            <stop stop-color="#3B3C53"/>
            <stop offset="1" stop-color="#3C4075"/>
        </linearGradient>
        <linearGradient id="paint58_linear_3467_6831" x1="90.0107" y1="104.786" x2="91.7115" y2="104.786" gradientUnits="userSpaceOnUse">
            <stop stop-color="#3B3C53"/>
            <stop offset="1" stop-color="#3C4075"/>
        </linearGradient>
        <linearGradient id="paint59_linear_3467_6831" x1="89.0698" y1="102.141" x2="91.6292" y2="102.141" gradientUnits="userSpaceOnUse">
            <stop stop-color="#3B3C53"/>
            <stop offset="1" stop-color="#3C4075"/>
        </linearGradient>
        <linearGradient id="paint60_linear_3467_6831" x1="89.0576" y1="95.2626" x2="91.7115" y2="95.2626" gradientUnits="userSpaceOnUse">
            <stop stop-color="#3B3C53"/>
            <stop offset="1" stop-color="#3C4075"/>
        </linearGradient>
        <linearGradient id="paint61_linear_3467_6831" x1="81.9258" y1="98.5749" x2="83.7375" y2="98.5749" gradientUnits="userSpaceOnUse">
            <stop stop-color="#3B3C53"/>
            <stop offset="1" stop-color="#3C4075"/>
        </linearGradient>
        <linearGradient id="paint62_linear_3467_6831" x1="81.9258" y1="96.151" x2="84.2058" y2="96.151" gradientUnits="userSpaceOnUse">
            <stop stop-color="#3B3C53"/>
            <stop offset="1" stop-color="#3C4075"/>
        </linearGradient>
        <linearGradient id="paint63_linear_3467_6831" x1="94.8994" y1="109.687" x2="97.0603" y2="109.687" gradientUnits="userSpaceOnUse">
            <stop stop-color="#3B3C53"/>
            <stop offset="1" stop-color="#3C4075"/>
        </linearGradient>
        <linearGradient id="paint64_linear_3467_6831" x1="81.9258" y1="101.617" x2="84.1647" y2="101.617" gradientUnits="userSpaceOnUse">
            <stop stop-color="#3B3C53"/>
            <stop offset="1" stop-color="#3C4075"/>
        </linearGradient>
        <linearGradient id="paint65_linear_3467_6831" x1="84.7729" y1="101.617" x2="88.1334" y2="101.617" gradientUnits="userSpaceOnUse">
            <stop stop-color="#3B3C53"/>
            <stop offset="1" stop-color="#3C4075"/>
        </linearGradient>
        <linearGradient id="paint66_linear_3467_6831" x1="89.0698" y1="100.335" x2="90.2407" y2="100.335" gradientUnits="userSpaceOnUse">
            <stop stop-color="#3B3C53"/>
            <stop offset="1" stop-color="#3C4075"/>
        </linearGradient>
        <linearGradient id="paint67_linear_3467_6831" x1="98.0669" y1="100.462" x2="99.2049" y2="100.462" gradientUnits="userSpaceOnUse">
            <stop stop-color="#3B3C53"/>
            <stop offset="1" stop-color="#3C4075"/>
        </linearGradient>
        <linearGradient id="paint68_linear_3467_6831" x1="104.878" y1="100.954" x2="105.951" y2="100.954" gradientUnits="userSpaceOnUse">
            <stop stop-color="#3B3C53"/>
            <stop offset="1" stop-color="#3C4075"/>
        </linearGradient>
        <linearGradient id="paint69_linear_3467_6831" x1="90.0107" y1="91.7947" x2="92.9234" y2="91.7947" gradientUnits="userSpaceOnUse">
            <stop stop-color="#3B3C53"/>
            <stop offset="1" stop-color="#3C4075"/>
        </linearGradient>
        <linearGradient id="paint70_linear_3467_6831" x1="90.0107" y1="107.017" x2="91.7115" y2="107.017" gradientUnits="userSpaceOnUse">
            <stop stop-color="#3B3C53"/>
            <stop offset="1" stop-color="#3C4075"/>
        </linearGradient>
        <linearGradient id="paint71_linear_3467_6831" x1="95.75" y1="106.804" x2="97.0605" y2="106.804" gradientUnits="userSpaceOnUse">
            <stop stop-color="#3B3C53"/>
            <stop offset="1" stop-color="#3C4075"/>
        </linearGradient>
        <linearGradient id="paint72_linear_3467_6831" x1="102.906" y1="108.254" x2="105.95" y2="108.254" gradientUnits="userSpaceOnUse">
            <stop stop-color="#3B3C53"/>
            <stop offset="1" stop-color="#3C4075"/>
        </linearGradient>
        <linearGradient id="paint73_linear_3467_6831" x1="100.438" y1="96.0609" x2="102.073" y2="96.0609" gradientUnits="userSpaceOnUse">
            <stop stop-color="#3B3C53"/>
            <stop offset="1" stop-color="#3C4075"/>
        </linearGradient>
        <linearGradient id="paint74_linear_3467_6831" x1="92.3647" y1="103.328" x2="101.801" y2="103.328" gradientUnits="userSpaceOnUse">
            <stop stop-color="#3B3C53"/>
            <stop offset="1" stop-color="#3C4075"/>
        </linearGradient>
        <linearGradient id="paint75_linear_3467_6831" x1="102.664" y1="103.246" x2="104.081" y2="103.246" gradientUnits="userSpaceOnUse">
            <stop stop-color="#3B3C53"/>
            <stop offset="1" stop-color="#3C4075"/>
        </linearGradient>
        <linearGradient id="paint76_linear_3467_6831" x1="104.085" y1="104.417" x2="105.022" y2="104.417" gradientUnits="userSpaceOnUse">
            <stop stop-color="#3B3C53"/>
            <stop offset="1" stop-color="#3C4075"/>
        </linearGradient>
        <linearGradient id="paint77_linear_3467_6831" x1="100.302" y1="106.436" x2="103.551" y2="106.436" gradientUnits="userSpaceOnUse">
            <stop stop-color="#3B3C53"/>
            <stop offset="1" stop-color="#3C4075"/>
        </linearGradient>
        <linearGradient id="paint78_linear_3467_6831" x1="100.425" y1="109.601" x2="101.982" y2="109.601" gradientUnits="userSpaceOnUse">
            <stop stop-color="#3B3C53"/>
            <stop offset="1" stop-color="#3C4075"/>
        </linearGradient>
        <linearGradient id="paint79_linear_3467_6831" x1="97.5288" y1="107.267" x2="99.5952" y2="107.267" gradientUnits="userSpaceOnUse">
            <stop stop-color="#3B3C53"/>
            <stop offset="1" stop-color="#3C4075"/>
        </linearGradient>
        <linearGradient id="paint80_linear_3467_6831" x1="98.8926" y1="108.88" x2="99.5951" y2="108.88" gradientUnits="userSpaceOnUse">
            <stop stop-color="#3B3C53"/>
            <stop offset="1" stop-color="#3C4075"/>
        </linearGradient>
        <linearGradient id="paint81_linear_3467_6831" x1="97.5288" y1="110.346" x2="99.5952" y2="110.346" gradientUnits="userSpaceOnUse">
            <stop stop-color="#3B3C53"/>
            <stop offset="1" stop-color="#3C4075"/>
        </linearGradient>
        <linearGradient id="paint82_linear_3467_6831" x1="86.8188" y1="95.7989" x2="88.1335" y2="95.7989" gradientUnits="userSpaceOnUse">
            <stop stop-color="#3B3C53"/>
            <stop offset="1" stop-color="#3C4075"/>
        </linearGradient>
        <linearGradient id="paint83_linear_3467_6831" x1="94.8996" y1="97.105" x2="102.372" y2="97.105" gradientUnits="userSpaceOnUse">
            <stop stop-color="#3B3C53"/>
            <stop offset="1" stop-color="#3C4075"/>
        </linearGradient>
        <linearGradient id="paint84_linear_3467_6831" x1="92.3647" y1="96.4622" x2="94.8995" y2="96.4622" gradientUnits="userSpaceOnUse">
            <stop stop-color="#3B3C53"/>
            <stop offset="1" stop-color="#3C4075"/>
        </linearGradient>
        <linearGradient id="paint85_linear_3467_6831" x1="92.3647" y1="88.7362" x2="94.8995" y2="88.7362" gradientUnits="userSpaceOnUse">
            <stop stop-color="#3B3C53"/>
            <stop offset="1" stop-color="#3C4075"/>
        </linearGradient>
        <linearGradient id="paint86_linear_3467_6831" x1="84.1646" y1="99.7008" x2="94.8993" y2="99.7008" gradientUnits="userSpaceOnUse">
            <stop stop-color="#3B3C53"/>
            <stop offset="1" stop-color="#3C4075"/>
        </linearGradient>
        <linearGradient id="paint87_linear_3467_6831" x1="90.0107" y1="109.703" x2="94.1189" y2="109.703" gradientUnits="userSpaceOnUse">
            <stop stop-color="#3B3C53"/>
            <stop offset="1" stop-color="#3C4075"/>
        </linearGradient>
        <linearGradient id="paint88_linear_3467_6831" x1="95.4707" y1="88.9205" x2="96.4197" y2="88.9205" gradientUnits="userSpaceOnUse">
            <stop stop-color="#3B3C53"/>
            <stop offset="1" stop-color="#3C4075"/>
        </linearGradient>
        <linearGradient id="paint89_linear_3467_6831" x1="102.664" y1="100.057" x2="104.652" y2="100.057" gradientUnits="userSpaceOnUse">
            <stop stop-color="#3B3C53"/>
            <stop offset="1" stop-color="#3C4075"/>
        </linearGradient>
        <linearGradient id="paint90_linear_3467_6831" x1="85.2573" y1="97.0518" x2="86.0749" y2="97.0518" gradientUnits="userSpaceOnUse">
            <stop stop-color="#3B3C53"/>
            <stop offset="1" stop-color="#3C4075"/>
        </linearGradient>
        <linearGradient id="paint91_linear_3467_6831" x1="98.5146" y1="93.9606" x2="99.3281" y2="93.9606" gradientUnits="userSpaceOnUse">
            <stop stop-color="#3B3C53"/>
            <stop offset="1" stop-color="#3C4075"/>
        </linearGradient>
        <linearGradient id="paint92_linear_3467_6831" x1="93.9381" y1="107.488" x2="93.9381" y2="97.0682" gradientUnits="userSpaceOnUse">
            <stop stop-color="#020202"/>
            <stop offset="0.08" stop-color="#363636"/>
            <stop offset="0.17" stop-color="#656565"/>
            <stop offset="0.26" stop-color="#8E8E8E"/>
            <stop offset="0.35" stop-color="#B1B1B1"/>
            <stop offset="0.45" stop-color="#CDCDCD"/>
            <stop offset="0.56" stop-color="#E3E3E3"/>
            <stop offset="0.67" stop-color="#F3F3F3"/>
            <stop offset="0.81" stop-color="#FCFCFC"/>
            <stop offset="1" stop-color="white"/>
        </linearGradient>
        <linearGradient id="paint93_linear_3467_6831" x1="95.6469" y1="134.765" x2="84.2607" y2="123.34" gradientUnits="userSpaceOnUse">
            <stop stop-color="#3B3C53"/>
            <stop offset="1" stop-color="#3C4075"/>
        </linearGradient>
        <linearGradient id="paint94_linear_3467_6831" x1="100.359" y1="146.417" x2="80.4771" y2="126.472" gradientUnits="userSpaceOnUse">
            <stop stop-color="#3B3C53"/>
            <stop offset="1" stop-color="#3C4075"/>
        </linearGradient>
        <linearGradient id="paint95_linear_3467_6831" x1="77.5298" y1="67.3352" x2="110.132" y2="67.3352" gradientUnits="userSpaceOnUse">
            <stop stop-color="#3B3C53"/>
            <stop offset="1" stop-color="#3C4075"/>
        </linearGradient>
        <clipPath id="clip0_3467_6831">
            <rect width="185" height="216" fill="white"/>
        </clipPath>
    </defs>
</svg>
