<?xml version="1.0" encoding="utf-8"?>
<!-- Generator: Adobe Illustrator 27.7.0, SVG Export Plug-In . SVG Version: 6.00 Build 0)  -->
<svg version="1.1" id="Layer_1" xmlns="http://www.w3.org/2000/svg" xmlns:xlink="http://www.w3.org/1999/xlink" x="0px" y="0px"
	 viewBox="0 0 1366 413.3" style="enable-background:new 0 0 1366 413.3;" xml:space="preserve">
<style type="text/css">
	.st0{fill:none;stroke:#FFFFFF;stroke-width:11;stroke-miterlimit:10;}
	.st1{fill:#DBB36D;}
	.st2{opacity:0.75;fill:#DBB36D;}
	.st3{opacity:0.5;fill:#DBB36D;}
	.st4{fill:#FFD672;}
	.st5{fill:#DCB165;}
	.st6{fill:#A48652;}
	.st7{fill:#6D5936;}
</style>
<image style="overflow:visible;" width="380" height="460" xlink:href="26E78E74.jpg"  transform="matrix(1 0 0 1 -468.7778 -12.2778)">
</image>
<path class="st0" d="M-288.4,87.4c0,0,10.4,46.6,42,88.6s55.1,69.6,55.1,105.3s-23.6,94.2-92,94.2s-96.9-54.4-96.9-92.9
	c0-31.1,15.2-52.8,42.9-87.3"/>
<path class="st0" d="M-330.5,173.7c0,0,7.3,22.4,22.2,44.8c15,22.6,40.5,47.3,40.5,63.4c0,17-14.8,17.2-17.9,17.2
	s-17.7-1.3-17.7-16.9c0-15.6,11.6-24,11.6-24"/>
<g>
	<path class="st1" d="M-205.4-286.7c0,15.4-12.6,28-28,28s-28-12.6-28-28c0-7.7,3.9-15.8,10.1-24.9c4,5.4,7.3,9.8,9.3,12.6
		c-2.9,4.8-4.7,9-4.7,12.3c0,7.4,6,13.4,13.3,13.4s13.3-6,13.3-13.4c0-5.4-5-13.6-13.4-24.8c-1.9-2.8-26.9-34.2-42.8-62.3
		c3.4-4.1,6.5-8,9.4-11.7c15.5,28.2,39.2,57.5,39.2,57.5C-212.9-309.2-205.4-297.7-205.4-286.7z"/>
	<path class="st2" d="M-175.8-286.7c0,31.8-25.8,57.6-57.6,57.6S-291-255-291-286.7c0-19.4,10-34.5,21.9-49.8c3,4.4,6,8.7,8.8,12.6
		c-9.2,12.2-16,23.8-16,37.2c0,23.7,19.3,42.9,42.9,42.9s42.9-19.3,42.9-42.9c0-17.3-11.3-31.5-24.4-47.9c-4-5-27.6-34.4-43.1-62.6
		c3.9-5.4,7.2-10.2,9.9-14.5c15.8,31.7,38.7,60.5,44.6,68C-189.2-326-175.8-309.1-175.8-286.7z"/>
	<path class="st3" d="M-146.2-286.7c0,48.1-39.1,87.2-87.2,87.2s-87.2-39.1-87.2-87.2c0-30.8,16.1-52.1,35.3-76.2
		c2.5,4.6,5.2,9.2,7.9,13.6c-16.4,20.8-28.6,38.6-28.6,62.6c0,40,32.5,72.5,72.5,72.5c40,0,72.5-32.5,72.5-72.5
		c0-26.8-15.2-45.8-34.4-69.9c-12.5-15.7-26.5-33.2-38.2-55.6c-2.3-4.2-4.5-8.4-6.7-12.9c5.2-12.5,6.7-26.1,6.7-26.1
		c5.7,23.8,26.4,55.6,49.6,85.5C-163.9-340.3-146.2-318.7-146.2-286.7z"/>
</g>
<text transform="matrix(1 0 0 1 -417.5093 920.1274)" style="font-family:'MyriadPro-Regular'; font-size:12px;">Tomiru</text>
<g>
	<path class="st4" d="M467.8,292.7V140.4h-53.8v-28.1h138.6v28.1h-53.8v152.2H467.8z"/>
	<path class="st4" d="M638.3,296.3c-22.3,0-40.1-6.2-53.5-18.7c-13.3-12.4-20-30.4-20-53.7v-42.8c0-23.4,6.7-41.3,20-53.7
		c13.3-12.4,31.1-18.7,53.5-18.7c22.5,0,40.4,6.2,53.6,18.7c13.2,12.5,19.8,30.4,19.8,53.7v42.8c0,23.4-6.6,41.3-19.8,53.7
		C678.7,290.1,660.8,296.3,638.3,296.3z M638.3,268.5c13.4,0,23.8-3.9,31.3-11.7c7.5-7.8,11.2-18.4,11.2-31.8v-44.8
		c0-13.4-3.7-24-11.2-31.8c-7.5-7.8-17.9-11.7-31.3-11.7c-13.2,0-23.6,3.9-31,11.7c-7.5,7.8-11.2,18.4-11.2,31.8v44.8
		c0,13.4,3.7,24,11.2,31.8C614.7,264.6,625.1,268.5,638.3,268.5z"/>
	<path class="st4" d="M742.9,292.7V112.4h58l35,159.5h4.4l35.3-159.5h57.7v180.3h-29.9V134.8H899l-35,157.9h-51.5l-35-157.9H773
		v157.9H742.9z"/>
	<path class="st4" d="M969.1,292.7V112.4h31.2v180.3H969.1z"/>
	<path class="st4" d="M1035.8,292.7V112.4h77c11.3,0,21.2,2,29.6,5.9c8.4,4,15,9.5,19.7,16.6c4.7,7.1,7.1,15.7,7.1,25.6v2.8
		c0,11.2-2.7,20.1-8,26.8c-5.3,6.7-11.8,11.6-19.3,14.7v4.1c6.7,0.3,12,2.7,15.8,7c3.9,4.3,5.8,10,5.8,17.3v59.5h-30.9v-55.1
		c0-4.3-1.2-7.8-3.5-10.4c-2.3-2.7-6.1-4-11.2-4h-51v69.6H1035.8z M1066.9,195.1h42.8c8.9,0,15.9-2.4,21-7.1
		c5.1-4.7,7.6-11,7.6-18.9v-2.3c0-8.1-2.5-14.5-7.5-19.2c-5-4.7-12-7.1-21.1-7.1h-42.8V195.1z"/>
	<path class="st4" d="M1267.1,296.3c-14.4,0-26.8-2.6-37.2-7.9c-10.4-5.2-18.4-12.8-24-22.8c-5.6-10-8.4-21.8-8.4-35.5V112.4h30.9
		v118.5c0,12,3.4,21.3,10,27.8c6.7,6.5,16.2,9.8,28.6,9.8c12.5,0,22.1-3.3,28.7-9.8c6.6-6.5,9.9-15.8,9.9-27.8V112.4h30.9v117.7
		c0,13.7-2.7,25.6-8.2,35.5c-5.5,10-13.5,17.6-24,22.8C1294,293.7,1281.5,296.3,1267.1,296.3z"/>
</g>
<g>
	<g>
		<path class="st4" d="M164.9,199.6c0,0-44.5-54.9-47.7-83.4c-2.9,4.4-5.8,8.6-8.7,12.6c3.2,25.4,48.6,82.3,51.1,85.9
			c7.7,10.2,12.3,17.8,12.3,22.7c0,6.8-5.5,12.3-12.3,12.3c-6.8,0-12.3-5.5-12.3-12.3c0-3,1.7-6.9,4.3-11.3
			c-1.8-2.6-4.8-6.6-8.5-11.6c-5.6,8.3-9.2,15.8-9.2,22.9c0,14.2,11.5,25.7,25.7,25.7c14.2,0,25.7-11.5,25.7-25.7
			C185.3,227.4,178.4,216.8,164.9,199.6z"/>
		<path class="st5" d="M187.1,185.1c-7.5-9.4-44.8-56.5-53.5-95.9c-2.9,5.3-5.9,10.4-9,15.4c4.3,29.3,46.8,82.3,52,88.9
			c12,15.1,22.4,28.1,22.4,43.9c0,21.7-17.7,39.4-39.4,39.4c-21.7,0-39.4-17.7-39.4-39.4c0-12.3,6.3-22.9,14.7-34.1
			c-2.6-3.6-5.3-7.5-8.1-11.6c-10.9,14-20.1,27.9-20.1,45.7c0,29.1,23.7,52.8,52.8,52.8c29.1,0,52.8-23.7,52.8-52.8
			C212.4,216.9,200.1,201.4,187.1,185.1z"/>
		<path class="st6" d="M205.1,164.9c-33.9-43.6-51.2-75.9-56.9-107L141,74.5c4,20.1,11.3,34.2,18.6,47.7
			c10.7,20.6,23.5,36.6,35,51.1c17.6,22.1,31.5,39.5,31.5,64.2c0,36.7-29.8,66.5-66.5,66.5c-36.7,0-66.5-29.8-66.5-66.5
			c0-22.1,11.2-38.4,26.2-57.5c-2.5-4.1-5-8.3-7.3-12.5c-17.6,22.1-32.4,41.7-32.4,69.9c0,44.1,35.9,80,80,80c44.1,0,80-35.9,80-80
			C239.5,208.1,223.3,188.3,205.1,164.9z"/>
		<path class="st7" d="M223,145.3c-24.2-31.5-58.3-81.4-63.4-133c-1,10.2-3.1,20.3-6.1,30.2c10.4,46.7,39.7,86.1,58.8,111
			c22,28.6,40.9,53.3,40.9,83.9c0,51.6-42,93.7-93.7,93.7c-51.6,0-93.7-42-93.7-93.7c0-30.1,18.3-54.5,39.8-82.5
			c-2.2-5-4.2-10-5.6-14.8c-1.3,1.8-2.6,3.5-3.9,5.2c-22.5,29.3-43.7,56.9-43.7,92.1c0,59.1,48,107.1,107.1,107.1
			c59.1,0,107.1-48,107.1-107.1C266.7,202.2,245.4,174.6,223,145.3z"/>
	</g>
	<g id="XMLID_1627_">
		<g>
			<g id="XMLID_00000078741300444855751320000012116426141928237442_">
				<path class="st5" d="M277.5,344.8c1.9,2.1,2.9,4.2,2.9,6.4c0,15.9-52.3,28.8-116.8,28.8S46.8,367.1,46.8,351.2
					c0-4.4,4.1-8.7,11.4-12.4c-19.7,5.7-31.6,13.1-31.6,21.2c0,18.1,59.5,32.8,133,32.8c73.5,0,133-14.7,133-32.8
					C292.6,354.5,287.1,349.4,277.5,344.8z"/>
			</g>
			<g id="XMLID_00000141448576974419127100000015230731114185758108_">
				<path class="st6" d="M244.3,336.6c1.4,1.5,2.1,3,2.1,4.6c0,11.4-37.6,20.7-83.9,20.7s-83.9-9.2-83.9-20.7c0-3.2,2.9-6.2,8.2-8.9
					c-14.2,4.1-22.7,9.4-22.7,15.2c0,13,42.8,23.5,95.6,23.5s95.6-10.5,95.6-23.5C255.1,343.6,251.2,339.8,244.3,336.6z"/>
			</g>
		</g>
	</g>
</g>
</svg>
