<svg width="36" height="36" viewBox="0 0 36 36" fill="none" xmlns="http://www.w3.org/2000/svg">
    <rect width="36" height="36" rx="18" fill="#474747"/>
    <path fill-rule="evenodd" clip-rule="evenodd" d="M7.5 17.7059C7.5 11.8428 12.0953 7.5 18.0216 7.5C23.9478 7.5 28.5431 11.8454 28.5431 17.7085C28.5431 23.5717 23.9478 27.9145 18.0216 27.9145C16.9563 27.9145 15.9357 27.7724 14.9756 27.5094C14.7888 27.4594 14.5889 27.4726 14.4127 27.5515L12.3241 28.4721C11.777 28.7141 11.1615 28.3248 11.1431 27.7277L11.0852 25.8549C11.08 25.6234 10.9747 25.4077 10.8038 25.2551C8.75733 23.4244 7.5 20.773 7.5 17.7059ZM14.7939 15.7881L11.7032 20.6911C11.406 21.162 11.9847 21.6907 12.4266 21.354L15.7461 18.8341C15.9697 18.6631 16.2801 18.6631 16.5063 18.8315L18.9657 20.6754C19.7048 21.2277 20.757 21.0357 21.2489 20.2545L24.3422 15.3541C24.6368 14.8832 24.0581 14.3519 23.6162 14.6886L20.2967 17.2085C20.0731 17.3795 19.7627 17.3795 19.5365 17.2111L17.0771 15.3672C16.338 14.8148 15.2858 15.0069 14.7939 15.7881Z" fill="white"/>
</svg>
