<svg width="48" height="48" viewBox="0 0 48 48" fill="none" xmlns="http://www.w3.org/2000/svg">
    <rect width="48" height="48" rx="24" fill="#1A1A1A"/>
    <path d="M39.9995 24.0006C39.9995 22.0637 38.4276 20.4918 36.4908 20.4918C35.5364 20.4918 34.6943 20.8567 34.0767 21.4742C31.6908 19.762 28.3785 18.6392 24.7293 18.4988L26.3293 11.0041L31.5223 12.0988C31.5785 13.4181 32.6732 14.4848 34.0206 14.4848C35.396 14.4848 36.5188 13.362 36.5188 11.9865C36.5188 10.6111 35.396 9.48828 34.0206 9.48828C33.0381 9.48828 32.196 10.0497 31.803 10.8918L25.9925 9.6567C25.8241 9.62863 25.6557 9.6567 25.5153 9.74091C25.375 9.82512 25.2908 9.96548 25.2346 10.1339L23.4662 18.4988C19.7329 18.6111 16.3925 19.7058 13.9785 21.4742C13.3609 20.8848 12.4908 20.4918 11.5644 20.4918C9.62759 20.4918 8.05566 22.0637 8.05566 24.0006C8.05566 25.4321 8.89777 26.6392 10.1329 27.2006C10.0767 27.5374 10.0486 27.9023 10.0486 28.2672C10.0486 33.6567 16.3083 38.0076 24.0557 38.0076C31.803 38.0076 38.0627 33.6567 38.0627 28.2672C38.0627 27.9023 38.0346 27.5655 37.9785 27.2286C39.1293 26.6672 39.9995 25.4321 39.9995 24.0006ZM15.9995 26.4988C15.9995 25.1234 17.1223 24.0006 18.4978 24.0006C19.8732 24.0006 20.996 25.1234 20.996 26.4988C20.996 27.8742 19.8732 28.9971 18.4978 28.9971C17.1223 28.9971 15.9995 27.8742 15.9995 26.4988ZM29.9504 33.0953C28.2381 34.8076 24.982 34.9199 24.0276 34.9199C23.0732 34.9199 19.789 34.7795 18.1048 33.0953C17.8522 32.8427 17.8522 32.4216 18.1048 32.169C18.3574 31.9163 18.7785 31.9163 19.0311 32.169C20.0978 33.2356 22.3995 33.6286 24.0557 33.6286C25.7118 33.6286 27.9855 33.2356 29.0802 32.169C29.3329 31.9163 29.7539 31.9163 30.0065 32.169C30.203 32.4497 30.203 32.8427 29.9504 33.0953ZM29.5013 28.9971C28.1258 28.9971 27.003 27.8742 27.003 26.4988C27.003 25.1234 28.1258 24.0006 29.5013 24.0006C30.8767 24.0006 31.9995 25.1234 31.9995 26.4988C31.9995 27.8742 30.8767 28.9971 29.5013 28.9971Z" fill="white"/>
</svg>
