<svg width="48" height="48" viewBox="0 0 48 48" fill="none" xmlns="http://www.w3.org/2000/svg">
    <rect width="48" height="48" rx="24" fill="#1A1A1A"/>
    <path d="M25.981 24.0601C25.981 28.5115 22.4035 32.12 17.9906 32.12C13.5778 32.12 10 28.5107 10 24.0601C10 19.6096 13.5775 16 17.9906 16C22.4038 16 25.981 19.6088 25.981 24.0601Z" fill="white"/>
    <path d="M34.7465 24.0597C34.7465 28.2497 32.9578 31.6477 30.7512 31.6477C28.5446 31.6477 26.7559 28.2497 26.7559 24.0597C26.7559 19.8697 28.5444 16.4717 30.7509 16.4717C32.9575 16.4717 34.7462 19.8686 34.7462 24.0597" fill="white"/>
    <path d="M38.3325 24.0603C38.3325 27.8135 37.7035 30.858 36.9274 30.858C36.1512 30.858 35.5225 27.8144 35.5225 24.0603C35.5225 20.3063 36.1515 17.2627 36.9274 17.2627C37.7032 17.2627 38.3325 20.3061 38.3325 24.0603Z" fill="white"/>
</svg>
