<svg width="36" height="36" viewBox="0 0 36 36" fill="none" xmlns="http://www.w3.org/2000/svg">
    <rect width="36" height="36" rx="18" fill="#474747"/>
    <path fill-rule="evenodd" clip-rule="evenodd" d="M8.14802 17.8099C13.3954 15.5237 16.8945 14.0165 18.6452 13.2883C23.644 11.2092 24.6827 10.848 25.3597 10.8361C25.5086 10.8334 25.8416 10.8703 26.0572 11.0453C26.2393 11.1931 26.2894 11.3927 26.3134 11.5328C26.3374 11.6729 26.3673 11.992 26.3435 12.2414C26.0726 15.0876 24.9005 21.9947 24.3042 25.1825C24.0519 26.5314 23.5551 26.9836 23.0741 27.0279C22.0288 27.1241 21.235 26.3371 20.2226 25.6734C18.6384 24.635 17.7434 23.9885 16.2056 22.9751C14.4284 21.804 15.5805 21.1603 16.5933 20.1084C16.8584 19.8331 21.4639 15.644 21.5531 15.2639C21.5642 15.2164 21.5746 15.0393 21.4693 14.9457C21.3641 14.8522 21.2088 14.8842 21.0967 14.9096C20.9378 14.9457 18.4069 16.6184 13.5041 19.928C12.7858 20.4212 12.1351 20.6616 11.5521 20.649C10.9094 20.6351 9.67314 20.2856 8.75409 19.9869C7.62684 19.6204 6.73092 19.4267 6.80893 18.8044C6.84957 18.4803 7.29593 18.1488 8.14802 17.8099Z" fill="white"/>
</svg>
