<svg width="36" height="36" viewBox="0 0 36 36" fill="none" xmlns="http://www.w3.org/2000/svg">
    <rect width="36" height="36" rx="18" fill="#474747"/>
    <path d="M14.7062 27.4947C22.6892 27.4947 27.0542 20.8797 27.0542 15.1467C27.0542 14.9577 27.0542 14.7687 27.0452 14.5887C27.8912 13.9767 28.6292 13.2117 29.2142 12.3387C28.4402 12.6807 27.6032 12.9147 26.7212 13.0227C27.6212 12.4827 28.3052 11.6367 28.6292 10.6197C27.7922 11.1147 26.8652 11.4747 25.8752 11.6727C25.0832 10.8267 23.9582 10.3047 22.7072 10.3047C20.3132 10.3047 18.3692 12.2487 18.3692 14.6427C18.3692 14.9847 18.4052 15.3177 18.4862 15.6327C14.8772 15.4527 11.6822 13.7247 9.54024 11.0967C9.17124 11.7357 8.95524 12.4827 8.95524 13.2747C8.95524 14.7777 9.72024 16.1097 10.8902 16.8837C10.1792 16.8657 9.51324 16.6677 8.92824 16.3437C8.92824 16.3617 8.92824 16.3797 8.92824 16.3977C8.92824 18.5037 10.4222 20.2497 12.4112 20.6547C12.0512 20.7537 11.6642 20.8077 11.2682 20.8077C10.9892 20.8077 10.7192 20.7807 10.4492 20.7267C10.9982 22.4547 12.6002 23.7057 14.4992 23.7417C13.0142 24.9027 11.1422 25.5957 9.10824 25.5957C8.75724 25.5957 8.41524 25.5777 8.07324 25.5327C9.97224 26.7747 12.2582 27.4947 14.7062 27.4947Z" fill="white"/>
</svg>
