<svg width="48" height="48" viewBox="0 0 48 48" fill="none" xmlns="http://www.w3.org/2000/svg">
    <rect width="48" height="48" rx="24" fill="#1A1A1A"/>
    <path d="M29.4315 10H24.217V30.1623C24.217 32.5647 22.2115 34.538 19.7157 34.538C17.2199 34.538 15.2144 32.5647 15.2144 30.1623C15.2144 27.8029 17.1754 25.8724 19.5821 25.7867V20.7247C14.2785 20.8104 10 24.9716 10 30.1623C10 35.396 14.3676 39.6 19.7603 39.6C25.153 39.6 29.5206 35.3531 29.5206 30.1623V19.8237C31.4816 21.1965 33.8882 22.0116 36.4286 22.0545V16.9925C32.5067 16.8638 29.4315 13.7751 29.4315 10Z" fill="white"/>
</svg>
